<svg xmlns="http://www.w3.org/2000/svg" viewBox="0 0 193 95"><defs><style>.cls-1{font-size:48px;font-family:HiraginoSansGB-W3-GBpc-EUC-H, Hiragino Sans GB;}.cls-1,.cls-2{fill:#341f0f;stroke:#341f0f;stroke-miterlimit:10;}</style></defs><g id="圖層_2" data-name="圖層 2"><g id="圖層_1-2" data-name="圖層 1"><text class="cls-1" transform="translate(0.5 84.37)">矮人礦坑</text><path class="cls-2" d="M34.44,23.65a5.86,5.86,0,0,1-.86,3.17A6.53,6.53,0,0,1,31.29,29a10.51,10.51,0,0,1-3,1.17,16.45,16.45,0,0,1-3.79.4c-.75,0-1.52,0-2.33-.07l-1.4-.09L20.6,27.9c.17,0,.62.07,1.37.13s1.64.1,2.66.1A14.76,14.76,0,0,0,27,27.88a8.24,8.24,0,0,0,2.26-.63A4.27,4.27,0,0,0,30.89,26a2.91,2.91,0,0,0,.56-1.83,3.49,3.49,0,0,0-.56-2,5.67,5.67,0,0,0-1.83-1.57,24.06,24.06,0,0,0-2.15-1.11,24.62,24.62,0,0,1-2.37-1.26A7.35,7.35,0,0,1,22,15.87,5.54,5.54,0,0,1,21.22,13a5.46,5.46,0,0,1,.69-2.8,7,7,0,0,1,1.81-2,7.85,7.85,0,0,1,2.75-1.27,14.51,14.51,0,0,1,3.62-.42c.73,0,1.46,0,2.21.06l1.28.08.24,2.55L32.54,9c-.75-.07-1.68-.11-2.78-.11a10.41,10.41,0,0,0-2,.22,6.17,6.17,0,0,0-1.84.68A3.72,3.72,0,0,0,24.7,11a2.92,2.92,0,0,0-.49,1.69,3,3,0,0,0,.51,1.66,5.92,5.92,0,0,0,2,1.65c.48.29,1.11.63,1.9,1s1.57.79,2.33,1.24a7.76,7.76,0,0,1,2.65,2.38A5.45,5.45,0,0,1,34.44,23.65Z" transform="translate(0 -4)"/><path class="cls-2" d="M52.12,20.25c0,2.91,0,5.28,0,7.1s0,2.82,0,3l-1.64.13c-1,.08-2.23.11-3.76.11a15.87,15.87,0,0,1-2.9-.26,10.34,10.34,0,0,1-2.51-.76A6,6,0,0,1,39,27.76a4.61,4.61,0,0,1,.16-5.6,7.32,7.32,0,0,1,2.85-2,17.23,17.23,0,0,1,3.05-.85,38.92,38.92,0,0,1,4.35-.57,4.6,4.6,0,0,0-.68-2.25A3.63,3.63,0,0,0,47,15.17a7.21,7.21,0,0,0-1.72-.45,17.65,17.65,0,0,0-2.21-.13c-.53,0-1,0-1.35,0l-1.5.09.28-2.34,1-.06c.52,0,1.23-.05,2.13-.05a14.8,14.8,0,0,1,3.7.43,6.49,6.49,0,0,1,2.7,1.4,5.73,5.73,0,0,1,1.51,2.26A11.48,11.48,0,0,1,52.12,20.25Zm-2.69,4.24V23c0-.61,0-1.32,0-2.11-.51,0-1.41.12-2.7.31a14.63,14.63,0,0,0-3.25.78,4.94,4.94,0,0,0-1.75,1.1,2.47,2.47,0,0,0-.77,1.83,2.82,2.82,0,0,0,.65,1.93,4.14,4.14,0,0,0,1.78,1.11,8.83,8.83,0,0,0,1.9.43,17.35,17.35,0,0,0,2.21.14l.86,0,1.07,0c0-.08,0-.46,0-1.16S49.43,25.66,49.43,24.49Z" transform="translate(0 -4)"/><path class="cls-2" d="M73.58,21.23a8.33,8.33,0,0,1-5.23,8,15,15,0,0,1-3.57,1,33.16,33.16,0,0,1-4.82.3H58.4c0-.9,0-2.57,0-5s0-5.39,0-8.84c0-2.1,0-4.15,0-6.13s0-4-.05-6.06h2.77l-.05,8.11a22.69,22.69,0,0,1,5.78.64,11.38,11.38,0,0,1,3.61,1.64,7.09,7.09,0,0,1,2.28,2.68A8.14,8.14,0,0,1,73.58,21.23Zm-2.81.07a5.34,5.34,0,0,0-1.2-3.56,6.85,6.85,0,0,0-3.11-2.09,12,12,0,0,0-2.12-.52A15.14,15.14,0,0,0,62,14.94h-.86c0,.26,0,1.19,0,2.8s0,2.94,0,4c0,2,0,3.34,0,4.14s0,1.63,0,2.46A20.08,20.08,0,0,0,64.67,28a9.32,9.32,0,0,0,2.76-.9A6.14,6.14,0,0,0,70,24.77,7,7,0,0,0,70.77,21.3Z" transform="translate(0 -4)"/><path class="cls-2" d="M94,21.38a10.72,10.72,0,0,1-.73,3.9,8.92,8.92,0,0,1-2.1,3.18,8,8,0,0,1-5.79,2.27,8.69,8.69,0,0,1-3.16-.57,8,8,0,0,1-2.64-1.68,8.58,8.58,0,0,1-2.06-3.17,10.76,10.76,0,0,1-.73-4,10.87,10.87,0,0,1,.62-3.72,8.84,8.84,0,0,1,1.94-3.05,8,8,0,0,1,2.75-1.88,8.38,8.38,0,0,1,3.3-.66,8.75,8.75,0,0,1,3.31.6,7.58,7.58,0,0,1,2.65,1.82,9.26,9.26,0,0,1,2,3.12A10.84,10.84,0,0,1,94,21.38Zm-2.82.12a9.84,9.84,0,0,0-.53-3.22A6.47,6.47,0,0,0,89,15.65a4.67,4.67,0,0,0-1.63-1,5.45,5.45,0,0,0-2-.36,5.26,5.26,0,0,0-2.11.39,5.1,5.1,0,0,0-1.69,1.21,6.53,6.53,0,0,0-1.46,2.42,8.89,8.89,0,0,0-.54,3.06,9.44,9.44,0,0,0,.55,3.3,6.31,6.31,0,0,0,1.75,2.59,4.89,4.89,0,0,0,1.59.94,5.63,5.63,0,0,0,4-.06A4.79,4.79,0,0,0,89.09,27a6.66,6.66,0,0,0,1.53-2.46A8.72,8.72,0,0,0,91.14,21.5Z" transform="translate(0 -4)"/><path class="cls-2" d="M108.48,28.09l-.32,2.23a4.29,4.29,0,0,1-.61,0l-.83,0a8.43,8.43,0,0,1-5.45-1.51,5.6,5.6,0,0,1-1.85-4.61c0-1.3,0-2.7,0-4.18s0-3.34,0-5.54h-3V12.48h3.11V8.32h2.55v4.16h6.3v2.06h-6.3c0,.25,0,1,0,2.2s0,2.12,0,2.7V23.8a4,4,0,0,0,1.23,3.3,6,6,0,0,0,3.8,1h1.32Z" transform="translate(0 -4)"/><path class="cls-2" d="M126.63,20.73h-12.7a7.68,7.68,0,0,0,.79,3.42,6.4,6.4,0,0,0,2.37,2.57,8,8,0,0,0,2.32,1,13.46,13.46,0,0,0,3.13.32c.67,0,1.28,0,1.84-.05l1-.07-.31,2.34-.93.06c-.53,0-1.15,0-1.87,0a14.72,14.72,0,0,1-4.89-.73A8.72,8.72,0,0,1,112,24.86a8.4,8.4,0,0,1-.8-3.71,10.57,10.57,0,0,1,.59-3.62,9.83,9.83,0,0,1,1.8-3,7,7,0,0,1,2.57-1.84,8,8,0,0,1,3.19-.65,7.91,7.91,0,0,1,2.9.49,5.81,5.81,0,0,1,2.2,1.49,7.53,7.53,0,0,1,1.58,2.77A12.7,12.7,0,0,1,126.63,20.73Zm-2.72-2a5.82,5.82,0,0,0-1.49-3.42,4.2,4.2,0,0,0-3.17-1.24A4.58,4.58,0,0,0,116,15.36a6.73,6.73,0,0,0-1.82,3.4Z" transform="translate(0 -4)"/><path class="cls-2" d="M145.76,30.27h-2.69v-2h0A25.83,25.83,0,0,1,140,29.88a8.69,8.69,0,0,1-3.62.85,5,5,0,0,1-3.79-1.44,5.61,5.61,0,0,1-1.37-4.05c0-.93,0-2,0-3.34s0-2.24,0-2.83c0-1.06,0-2.38,0-3.94s0-2.45,0-2.65H134c0,.16,0,1,0,2.53s0,2.76,0,3.68,0,1.81,0,3,0,2.06,0,2.57a5.63,5.63,0,0,0,.72,3,2.55,2.55,0,0,0,2.22,1,8.45,8.45,0,0,0,3.43-.85A17.07,17.07,0,0,0,143,26c0-.15,0-.79,0-1.95s0-2.59,0-4.31c0-1.23,0-2.71,0-4.42s-.05-2.65-.05-2.81h2.78c0,.2,0,.86,0,2s0,3,0,5.72c0,1.51,0,2.84,0,4S145.74,27.34,145.76,30.27Z" transform="translate(0 -4)"/><path class="cls-2" d="M162.48,14.56a27.49,27.49,0,0,0-3,1c-1.33.5-2.86,1.15-4.59,2,0,.13,0,.72,0,1.77s0,2,0,2.93c0,1.38,0,3,.05,4.92s0,2.95,0,3.16h-2.78c0-.2,0-.85,0-2s0-3,0-5.71c0-1.09,0-2.61,0-4.57s0-3.8-.06-5.54h2.73v2.67l0,0a38.58,38.58,0,0,1,3.92-1.95A22.79,22.79,0,0,1,162,12.1Z" transform="translate(0 -4)"/></g></g></svg>