<svg xmlns="http://www.w3.org/2000/svg" viewBox="0 0 230.9 127"><defs><style>.cls-3{fill:#341f0f;stroke:#341f0f;stroke-miterlimit:10}</style></defs><g id="圖層_2" data-name="圖層 2"><g id="圖層_1-2" data-name="圖層 1"><path fill="#fffef6" d="M0 0h230.9v127H0z"/><text transform="translate(23.2 102)" fill="#341f0f" stroke="#341f0f" stroke-miterlimit="10" font-size="48" font-family="HiraginoSansGB-W3-GBpc-EUC-H,Hiragino Sans GB">矮人礦坑</text><path class="cls-3" d="M57.1 37.2a5.9 5.9 0 01-.8 3.2 6.6 6.6 0 01-2.3 2.2 10.5 10.5 0 01-3 1.2 17 17 0 01-3.8.4H45l-1.4-.2-.2-2.5 1.4.1 2.6.1a16 16 0 002.5-.3 8.6 8.6 0 002.2-.6 4.3 4.3 0 001.6-1.2 3 3 0 00.6-1.8 3.5 3.5 0 00-.6-2 5.7 5.7 0 00-1.8-1.6 24 24 0 00-2.2-1.1 23.5 23.5 0 01-2.4-1.3 7.2 7.2 0 01-2.5-2.3 6 6 0 010-5.7 7 7 0 011.7-2 7.7 7.7 0 012.8-1.3 14.5 14.5 0 013.6-.4H55l1.3.1.2 2.6-1.3-.1-2.7-.1a9.6 9.6 0 00-2 .2 6.2 6.2 0 00-1.9.7 3.6 3.6 0 00-1.2 1 2.9 2.9 0 00-.5 1.8 3 3 0 00.6 1.6 6 6 0 002 1.7 20.4 20.4 0 001.9 1l2.3 1.2a7.9 7.9 0 012.6 2.4 5.4 5.4 0 01.9 3zM74.8 33.8V44l-1.6.2h-3.8a16.8 16.8 0 01-2.9-.2 10.6 10.6 0 01-2.5-.8 6 6 0 01-2.3-1.8 4.6 4.6 0 01.2-5.6 7.1 7.1 0 012.8-2 16.2 16.2 0 013-.8 38.6 38.6 0 014.4-.6 4.7 4.7 0 00-.7-2.2 3.6 3.6 0 00-1.7-1.4 7.2 7.2 0 00-1.7-.4 16 16 0 00-2.2-.1h-1.4l-1.4.1.2-2.3h3.2a14.3 14.3 0 013.7.4 6.4 6.4 0 012.7 1.4 5.7 5.7 0 011.5 2.2 11.4 11.4 0 01.5 3.8zm-2.7 4.3v-1.5-2.1l-2.7.3a14.8 14.8 0 00-3.2.8 4.9 4.9 0 00-1.8 1 2.4 2.4 0 00-.7 1.9 2.8 2.8 0 00.6 2 4.2 4.2 0 001.8 1 9.5 9.5 0 001.9.5 17.4 17.4 0 002.2.1h1.9V41v-3zM96.3 34.8a8.3 8.3 0 01-5.2 8 14.8 14.8 0 01-3.6 1 31.8 31.8 0 01-4.8.3H81v-5-8.8-6.1V18H84v8.1a23.5 23.5 0 015.7.6 11.6 11.6 0 013.7 1.7 7.2 7.2 0 012.2 2.7 8.2 8.2 0 01.8 3.6zm-2.8 0a5.4 5.4 0 00-1.2-3.5 7 7 0 00-3.1-2 12.9 12.9 0 00-2.2-.6 14 14 0 00-2.3-.2h-.9V42a20.2 20.2 0 003.6-.3 9.3 9.3 0 002.7-.9 6 6 0 002.5-2.3 6.8 6.8 0 00.9-3.5zM116.7 35a10.8 10.8 0 01-.8 3.9 9 9 0 01-2 3.2 8.4 8.4 0 01-2.6 1.7 8.5 8.5 0 01-3.2.5 8.7 8.7 0 01-3.2-.5 8 8 0 01-2.6-1.7 8.6 8.6 0 01-2.1-3.2 11.3 11.3 0 01-.1-7.7 8.6 8.6 0 011.9-3 8.2 8.2 0 012.8-2 8.4 8.4 0 013.3-.6 8.8 8.8 0 013.3.6A7.5 7.5 0 01114 28a9.3 9.3 0 012 3.1 10.8 10.8 0 01.7 3.9zm-2.9.1a10 10 0 00-.5-3.2 6.6 6.6 0 00-1.6-2.6 4.8 4.8 0 00-1.7-1 5.8 5.8 0 00-4 0 5.1 5.1 0 00-1.7 1.2 6.5 6.5 0 00-1.5 2.4 8.9 8.9 0 00-.5 3 9.7 9.7 0 00.5 3.4 6.4 6.4 0 001.8 2.6 5 5 0 001.6.9 5.8 5.8 0 004 0 5 5 0 001.6-1.2 7 7 0 001.6-2.5 8.8 8.8 0 00.4-3zM131.2 41.7l-.3 2.2h-1.5a8.5 8.5 0 01-5.4-1.4 5.6 5.6 0 01-1.9-4.6v-4.2V28h-3v-2h3.2v-4.2h2.5v4.2h6.3v2h-6.3v9.3a4 4 0 001.2 3.3 6 6 0 003.8 1h1.4zM149.3 34.3h-12.7a7.8 7.8 0 00.8 3.4 6.4 6.4 0 002.4 2.6 7.7 7.7 0 002.3 1 12.9 12.9 0 003.2.3h2.8l-.3 2.3H145a14.7 14.7 0 01-5-.7 9.4 9.4 0 01-3.3-2 9.2 9.2 0 01-2-2.7 8.4 8.4 0 01-.8-3.7 10.3 10.3 0 01.6-3.6 9.8 9.8 0 011.8-3 7 7 0 012.6-1.9 8.2 8.2 0 013.2-.6 7.9 7.9 0 012.9.5 5.7 5.7 0 012.2 1.5 7.5 7.5 0 011.6 2.7 13 13 0 01.5 4zm-2.7-2a5.8 5.8 0 00-1.5-3.4 4.2 4.2 0 00-3.1-1.2 4.6 4.6 0 00-3.3 1.2 6.7 6.7 0 00-1.8 3.5zM168.5 43.9h-2.7v-2a22.8 22.8 0 01-3 1.6 8.5 8.5 0 01-3.7.9 5 5 0 01-3.8-1.5 5.6 5.6 0 01-1.4-4v-3.4-2.8-4-2.6h2.8V38a5.5 5.5 0 00.7 3 2.5 2.5 0 002.2 1 8.4 8.4 0 003.4-.9 15.7 15.7 0 002.8-1.5v-2-4.2-4.5l-.1-2.8h2.8v17.8zM185.2 28.1a30.7 30.7 0 00-3 1l-4.6 2V44h-2.7v-2-5.7-4.6-5.5h2.7v2.7a40.8 40.8 0 013.9-2 23.1 23.1 0 013-1.1z"/></g></g></svg>