<?xml version="1.0" standalone="no"?>
<!DOCTYPE svg PUBLIC "-//W3C//DTD SVG 20010904//EN"
 "http://www.w3.org/TR/2001/REC-SVG-20010904/DTD/svg10.dtd">
<svg version="1.0" xmlns="http://www.w3.org/2000/svg"
 width="1920.000000pt" height="1080.000000pt" viewBox="0 0 1920.000000 1080.000000"
 preserveAspectRatio="xMidYMid meet">
<metadata>
Created by potrace 1.16, written by Peter Selinger 2001-2019
</metadata>
<g transform="translate(0.000000,1080.000000) scale(0.100000,-0.100000)"
fill="#000000" stroke="none">
<path d="M11770 8493 c-26 -14 -45 -37 -75 -95 -22 -42 -49 -86 -60 -98 -11
-12 -71 -54 -134 -93 -150 -95 -198 -138 -207 -185 -9 -46 8 -111 43 -163 33
-50 40 -121 23 -227 -26 -164 -252 -1006 -308 -1147 -30 -75 -41 -77 -106 -17
-32 28 -73 56 -94 62 -53 14 -127 12 -169 -5 -19 -8 -48 -15 -63 -15 -31 0
-155 83 -190 127 -35 44 -23 93 65 271 93 186 128 226 234 268 97 38 141 79
141 128 0 67 -74 116 -175 116 -57 0 -221 -26 -317 -50 -219 -56 -365 -123
-382 -177 -17 -54 25 -83 121 -83 63 0 144 -20 150 -37 8 -22 -45 -126 -140
-273 -237 -369 -376 -624 -427 -785 -14 -46 -22 -98 -23 -152 -1 -74 2 -86 29
-129 52 -84 120 -86 201 -4 51 52 89 120 148 265 51 125 123 259 156 291 24
23 31 25 44 14 24 -20 19 -177 -10 -310 -4 -14 -9 -75 -12 -136 l-6 -112 48
-21 c79 -35 207 -54 369 -55 l149 -1 9 -25 c20 -52 -6 -230 -74 -490 -56 -219
-71 -356 -43 -410 14 -26 21 -30 59 -30 73 0 132 66 196 220 17 41 35 84 39
95 25 58 83 222 100 282 11 37 38 129 61 203 23 74 48 160 56 190 8 30 40 150
70 265 74 277 102 365 121 372 19 8 75 -19 127 -61 84 -68 114 -70 299 -26
147 35 207 38 230 12 21 -23 21 -27 -1 -60 -237 -347 -298 -538 -309 -957 -6
-211 3 -296 35 -335 15 -17 31 -20 114 -22 54 -2 98 -7 98 -12 0 -5 -7 -16
-15 -25 -9 -9 -30 -35 -48 -57 -17 -23 -60 -75 -94 -115 -98 -118 -242 -341
-332 -519 -18 -36 -37 -73 -42 -82 -15 -29 -10 -64 11 -83 15 -13 31 -17 68
-13 66 6 142 60 267 189 97 100 155 170 334 401 45 58 109 131 141 162 48 46
65 56 93 56 109 0 373 -189 761 -546 123 -112 286 -256 344 -302 78 -62 88
-70 110 -77 44 -13 90 3 117 43 35 52 32 88 -14 158 -69 104 -311 337 -486
469 -27 21 -52 41 -55 44 -3 3 -23 19 -46 34 -22 15 -49 35 -60 45 -31 28
-233 156 -319 202 -112 60 -194 113 -200 129 -8 21 28 70 116 156 129 127 178
211 202 350 17 94 22 417 8 490 -14 74 -62 170 -125 250 -31 39 -65 87 -76
108 -20 36 -20 40 -6 62 11 16 38 31 83 45 108 33 153 71 153 129 0 38 -27 46
-164 49 -281 8 -803 -51 -1066 -120 -185 -48 -220 -54 -231 -37 -11 16 -7 78
15 201 8 48 17 111 20 140 3 29 11 100 17 158 28 280 65 343 189 320 28 -5 59
-14 70 -20 54 -29 92 -123 105 -265 13 -132 33 -202 68 -231 29 -25 36 -26
107 -21 88 6 77 4 260 56 156 45 250 83 275 111 10 11 21 50 26 92 25 181 81
360 158 504 60 111 60 115 0 233 -70 137 -114 180 -156 153 -7 -4 -29 -39 -50
-77 -49 -89 -93 -116 -198 -123 -58 -4 -74 -1 -88 13 -24 24 -22 41 24 146 46
108 71 138 137 167 26 11 72 31 102 45 137 59 173 168 89 270 -61 73 -80 77
-384 62 -127 -6 -131 -6 -170 19 -132 83 -195 100 -255 69z m228 -569 c31 -9
25 -33 -34 -141 -88 -162 -131 -199 -287 -244 -91 -27 -107 -22 -120 37 -8 42
4 172 21 216 27 68 143 109 387 137 6 0 20 -2 33 -5z m401 -568 c10 -11 8 -23
-7 -53 -42 -82 -182 -253 -207 -253 -18 0 -41 39 -49 83 -9 50 16 138 52 178
15 16 45 36 67 44 53 19 129 19 144 1z m-1739 -1091 c9 -10 11 -34 7 -74 -8
-98 -65 -199 -103 -184 -19 7 -44 56 -44 86 0 34 57 143 87 167 31 24 37 25
53 5z m1899 -314 c46 -84 97 -429 77 -533 -10 -57 -72 -113 -140 -129 -42 -9
-62 -9 -81 -1 -49 22 -28 85 78 231 54 74 61 89 65 140 l4 57 -77 11 c-43 6
-82 17 -87 24 -20 31 27 199 68 244 23 25 27 26 47 12 12 -7 33 -33 46 -56z
m-295 13 c23 -23 20 -55 -14 -143 -40 -102 -82 -161 -115 -161 -67 0 -56 166
16 254 25 30 69 60 96 66 1 0 9 -7 17 -16z m-64 -648 c0 -58 -32 -105 -94
-135 -36 -18 -52 -22 -65 -14 -22 14 -19 71 5 107 26 41 92 86 126 86 26 0 28
-2 28 -44z"/>
<path d="M3505 8085 c-89 -16 -114 -27 -143 -58 -55 -58 -41 -144 27 -173 29
-13 58 -15 144 -10 126 7 177 -3 207 -42 25 -32 22 -82 -7 -114 -52 -58 -185
-98 -325 -97 -110 0 -155 -15 -192 -64 -16 -22 -18 -32 -10 -54 14 -39 106
-101 163 -108 69 -10 79 -14 86 -36 9 -27 -40 -128 -128 -267 -106 -167 -105
-165 -120 -192 -54 -97 -97 -189 -97 -211 0 -51 55 -89 129 -89 53 0 109 43
179 139 31 43 91 124 132 181 102 140 133 151 171 64 16 -35 23 -80 29 -183 9
-153 13 -169 45 -177 62 -15 98 50 150 271 43 181 55 212 91 225 68 26 220 2
514 -82 280 -80 379 -93 446 -62 38 18 50 46 40 99 -17 89 -142 127 -551 165
-184 18 -258 27 -379 45 -90 14 -140 53 -140 110 0 48 51 99 162 160 170 93
208 142 156 196 -33 34 -62 37 -173 14 -75 -16 -104 -13 -133 12 -20 18 -15
32 39 102 42 55 45 112 9 153 -33 37 -110 74 -181 87 -78 14 -252 12 -340 -4z"/>
<path d="M15515 7879 c-46 -13 -102 -77 -125 -141 -26 -74 -40 -201 -40 -368
-1 -204 -15 -335 -40 -370 -25 -35 -109 -77 -245 -124 -174 -60 -244 -110
-245 -176 -1 -120 100 -110 610 60 351 116 525 185 635 250 67 39 91 73 82
112 -11 41 -54 50 -209 42 -127 -6 -134 -5 -160 15 -15 12 -32 39 -38 59 -18
63 -30 338 -21 467 10 141 3 170 -41 179 -42 8 -127 6 -163 -5z"/>
<path d="M2113 7280 c-18 -10 -39 -33 -48 -50 -65 -125 -147 -736 -119 -885 3
-20 15 -40 26 -46 45 -24 110 57 173 214 52 128 86 195 120 235 49 59 135 50
148 -15 7 -36 -10 -191 -29 -268 -34 -132 -87 -186 -298 -299 -155 -84 -216
-132 -216 -171 0 -48 16 -55 178 -74 45 -6 96 -18 113 -27 27 -14 30 -19 25
-46 -7 -37 -124 -281 -186 -388 -23 -41 -72 -133 -107 -205 -35 -71 -69 -138
-74 -148 -6 -10 -13 -40 -16 -67 -5 -47 -4 -49 21 -56 81 -20 144 31 291 236
118 165 195 253 239 274 33 16 38 16 98 -4 35 -12 158 -68 273 -125 271 -134
411 -172 472 -130 12 9 33 51 53 110 53 154 122 214 243 215 65 0 105 -17 137
-57 19 -25 21 -35 15 -95 -15 -150 49 -227 298 -353 117 -59 168 -102 162
-135 -10 -51 -108 -162 -309 -350 -153 -143 -246 -245 -246 -269 0 -66 283
-46 433 31 21 10 53 31 70 46 47 39 207 202 243 247 18 22 66 82 109 133 l76
93 57 -6 c84 -8 369 -25 424 -25 l48 0 0 64 c0 83 -14 94 -157 132 -227 61
-269 102 -267 259 2 75 30 334 38 342 1 1 69 5 152 8 365 12 472 17 509 20 22
2 76 7 120 10 44 3 148 15 230 25 319 41 407 88 300 161 -47 33 -91 44 -245
63 -123 16 -123 16 -510 46 -380 30 -407 37 -511 136 l-56 54 -144 -69 c-197
-94 -272 -110 -336 -71 -18 11 -34 24 -34 30 -1 5 -2 14 -3 19 0 5 -4 13 -8
17 -15 14 -9 57 29 219 4 17 8 57 8 90 l0 60 -44 3 c-65 5 -84 -22 -166 -234
-25 -64 -59 -143 -76 -175 -27 -50 -39 -62 -98 -92 -36 -20 -160 -68 -276
-107 -241 -82 -319 -121 -418 -206 l-71 -60 -200 58 c-254 73 -298 90 -313
119 -47 90 34 268 201 443 75 79 146 193 146 235 0 30 -26 39 -116 42 -112 3
-117 7 -111 82 2 34 14 121 27 192 25 151 22 197 -14 234 -24 23 -34 26 -99
26 -39 -1 -99 -2 -131 -4 -77 -5 -88 8 -111 131 -21 112 -38 152 -71 167 -32
14 -33 14 -71 -9z m2171 -1688 c13 -8 -1 -96 -25 -152 -12 -28 -35 -62 -52
-76 -27 -23 -37 -25 -80 -20 -151 21 -207 115 -123 212 29 34 36 36 111 44 76
7 149 4 169 -8z"/>
<path d="M7345 7273 c-14 -16 -55 -86 -92 -158 -109 -215 -171 -298 -458 -617
-66 -73 -136 -153 -155 -177 -19 -23 -43 -52 -52 -63 -10 -12 -18 -24 -18 -27
0 -3 -14 -21 -30 -40 -17 -18 -30 -37 -30 -40 0 -4 -8 -16 -18 -27 -62 -67
-327 -536 -415 -734 -53 -120 -66 -219 -31 -245 29 -22 79 -28 120 -15 43 14
160 127 249 240 33 41 63 80 68 85 4 6 51 66 103 135 230 301 311 368 444 369
30 1 80 -6 110 -15 30 -8 68 -17 83 -20 162 -30 1491 -490 1763 -610 22 -9 44
-18 50 -19 15 -4 255 -107 344 -148 223 -103 361 -114 396 -31 20 47 18 133
-3 171 -46 80 -144 157 -351 274 -121 69 -524 274 -667 339 -134 62 -236 108
-290 130 -79 34 -257 86 -390 115 -43 10 -185 30 -375 55 -303 40 -449 75
-513 124 -17 13 -15 20 45 121 148 249 231 419 277 569 57 186 26 286 -90 286
-40 0 -53 -5 -74 -27z"/>
<path d="M13974 6711 c-49 -22 -79 -51 -134 -130 -52 -74 -98 -99 -255 -137
-181 -43 -235 -76 -235 -143 0 -68 17 -74 208 -83 91 -4 179 -13 194 -19 45
-18 66 -114 89 -407 l12 -153 -82 -83 c-44 -46 -88 -100 -96 -119 -22 -54 -19
-103 7 -121 32 -22 61 -20 121 10 47 24 165 99 177 113 3 3 39 36 80 72 97 86
289 281 335 341 64 82 31 123 -61 77 -25 -13 -70 -46 -101 -74 -75 -67 -103
-85 -135 -85 -56 0 -75 82 -58 245 18 173 58 225 207 271 102 31 138 49 162
81 60 75 -6 136 -163 148 -85 6 -115 15 -135 38 -18 22 -6 51 34 82 36 27 45
61 23 83 -19 19 -146 15 -194 -7z"/>
<path d="M17834 6654 c-17 -8 -46 -31 -65 -50 -32 -33 -34 -39 -33 -102 0 -37
10 -120 22 -186 38 -206 27 -367 -33 -485 -134 -265 -577 -544 -1003 -631
-186 -37 -334 -20 -430 51 -79 58 -83 86 -55 386 9 102 17 280 17 418 1 251
-6 313 -46 407 -26 62 -66 78 -189 78 -112 0 -204 -19 -372 -76 -72 -24 -131
-43 -132 -41 -41 66 -91 116 -117 117 -9 0 -25 -12 -36 -27 -50 -72 -168 -348
-198 -462 -10 -40 -14 -115 -14 -272 0 -233 -7 -294 -60 -494 -60 -228 -83
-389 -64 -439 9 -23 41 -20 88 8 53 31 78 66 109 151 48 135 83 353 117 740
11 126 28 256 37 288 25 90 70 124 242 181 173 58 199 58 252 8 53 -49 58 -91
30 -232 -19 -96 -31 -186 -45 -343 -3 -32 -6 -169 -7 -305 l0 -247 83 -78 c74
-70 117 -103 210 -160 127 -79 623 -71 953 15 120 31 360 131 455 189 175 108
276 185 378 290 193 199 296 429 291 650 -4 213 -107 526 -202 617 -51 49
-127 64 -183 36z"/>
<path d="M10710 3168 c-25 -5 -83 -19 -130 -30 -50 -13 -134 -24 -205 -27
l-120 -6 -3 -26 c-2 -21 3 -29 31 -43 19 -8 59 -21 88 -27 30 -6 68 -14 84
-18 l30 -7 -1 -134 c-1 -94 -11 -196 -32 -335 -61 -397 -73 -549 -49 -608 12
-29 22 -37 41 -37 56 0 79 80 131 450 100 723 97 705 127 721 11 6 68 19 126
29 58 11 109 23 113 27 17 17 -22 53 -73 68 -57 17 -91 17 -158 3z"/>
<path d="M12772 3154 c-76 -38 -87 -74 -126 -434 -32 -293 -33 -295 -47 -502
-13 -194 -9 -223 38 -254 64 -41 102 36 127 251 20 164 24 185 41 185 23 0
112 -100 268 -300 84 -107 161 -203 172 -212 29 -25 50 -22 75 10 59 73 -21
229 -290 565 l-110 138 56 70 c30 38 67 95 81 126 23 51 25 62 19 140 -9 104
-40 180 -87 214 -50 36 -149 37 -217 3z m142 -170 c12 -31 6 -144 -10 -184
-10 -25 -28 -47 -45 -55 -27 -14 -29 -14 -43 7 -21 33 -35 125 -25 161 19 66
106 116 123 71z"/>
<path d="M8022 3153 c-13 -5 -54 -80 -67 -123 -4 -14 -13 -38 -20 -55 -49
-116 -323 -914 -345 -1003 -15 -65 -5 -82 51 -82 59 0 80 29 124 175 42 138
77 204 140 263 88 82 180 131 218 117 20 -8 23 -23 41 -180 30 -253 46 -305
95 -305 45 0 81 49 81 109 0 45 -44 314 -90 546 -11 55 -21 111 -24 125 -2 14
-9 45 -15 70 -5 25 -12 59 -15 75 -15 81 -57 230 -71 251 -12 19 -24 24 -53
23 -20 0 -43 -3 -50 -6z m68 -391 c6 -116 4 -140 -9 -156 -24 -27 -112 -76
-140 -76 -21 0 -23 3 -18 34 5 31 68 198 116 310 33 75 44 50 51 -112z"/>
<path d="M8734 3137 c-56 -21 -101 -60 -125 -106 -20 -40 -24 -67 -30 -201 -4
-85 -9 -166 -12 -178 -4 -13 -13 -99 -22 -190 -27 -281 -43 -399 -59 -431 -22
-42 -20 -94 3 -115 17 -16 37 -17 158 -14 186 6 262 36 389 157 87 82 120 127
156 211 28 67 32 88 36 198 4 119 4 124 -19 149 -30 31 -98 66 -171 88 -82 23
-88 35 -49 97 34 54 61 141 61 193 0 16 -9 49 -19 71 -16 36 -27 45 -75 63
-64 24 -170 27 -222 8z m157 -127 c25 -14 24 -41 -2 -93 -44 -86 -99 -157
-121 -157 -11 0 -10 145 2 195 5 22 17 45 26 52 21 16 68 17 95 3z m114 -480
c27 -29 22 -102 -12 -169 -30 -59 -189 -233 -242 -264 -31 -18 -31 -18 -40 5
-7 21 9 268 24 359 8 48 23 60 93 75 91 20 156 17 177 -6z"/>
<path d="M7191 3102 c-69 -34 -156 -118 -181 -174 -39 -85 -20 -201 42 -268
263 -280 300 -383 178 -493 -59 -53 -103 -67 -213 -67 -77 0 -87 -2 -101 -22
-34 -49 -14 -126 39 -151 83 -40 243 10 354 109 47 43 100 116 109 154 11 42
13 208 3 242 -12 37 -101 164 -162 229 -53 56 -89 120 -89 157 0 28 9 44 45
79 l44 45 74 -7 c99 -9 117 0 117 61 0 119 -129 172 -259 106z"/>
<path d="M11284 3103 l-150 -3 -12 -187 c-7 -103 -22 -286 -34 -407 -11 -122
-21 -292 -22 -378 -1 -204 -11 -193 172 -194 123 -1 242 6 342 21 36 5 90 53
90 80 0 8 -11 22 -25 31 -21 13 -41 15 -113 10 -274 -20 -255 -20 -277 4 -18
20 -20 36 -20 189 0 112 4 173 12 187 16 27 68 40 223 56 121 11 123 12 141
42 25 42 24 62 -6 82 -22 14 -42 16 -118 11 -51 -3 -115 -9 -143 -13 -44 -6
-54 -3 -78 18 -26 22 -29 31 -33 113 -7 119 7 172 50 190 18 7 57 16 87 20
104 12 175 28 218 48 35 16 42 24 42 47 0 36 -14 40 -113 38 -45 -1 -150 -4
-233 -5z"/>
<path d="M9606 3092 c-61 -14 -136 -89 -176 -177 -49 -108 -77 -275 -79 -472
-4 -305 77 -444 284 -489 80 -18 118 -17 189 3 48 14 70 27 115 72 78 78 141
212 165 351 3 19 9 46 12 60 13 59 17 334 5 399 -23 129 -93 210 -211 245 -52
16 -249 21 -304 8z m225 -113 c55 -19 95 -55 123 -111 23 -46 26 -64 26 -153
0 -233 -80 -489 -177 -565 -62 -49 -160 -45 -215 7 -51 48 -63 108 -62 303 1
241 33 383 106 466 53 60 122 78 199 53z"/>
<path d="M11805 3060 c-16 -17 -20 -41 -23 -122 -4 -84 10 -343 24 -453 2 -16
6 -52 9 -80 9 -76 41 -214 62 -266 32 -82 112 -153 195 -173 53 -12 113 12
167 68 124 132 162 304 176 809 l7 217 -45 0 c-71 0 -75 -12 -82 -242 -6 -203
-31 -468 -51 -545 -34 -131 -116 -197 -189 -149 -55 36 -85 155 -115 458 -20
210 -38 370 -46 416 -14 74 -53 101 -89 62z"/>
<path d="M14050 2768 c-94 -93 -129 -144 -147 -210 -25 -99 -11 -150 54 -188
133 -79 322 9 372 174 26 84 26 148 2 201 -31 66 -59 85 -137 92 l-69 5 -75
-74z"/>
<path d="M5971 2528 c-102 -101 -143 -178 -145 -268 -1 -49 3 -63 24 -85 99
-108 293 -73 377 67 73 121 69 264 -9 336 -20 18 -41 24 -94 28 l-69 6 -84
-84z"/>
</g>
</svg>
