<svg xmlns="http://www.w3.org/2000/svg" viewBox="0 0 405 272"><defs><style>.cls-1{fill:#6f5248}.cls-3{fill:#ef3940}.cls-4{fill:#fcfbed}.cls-5{fill:#fcfcef}.cls-8{fill:#34566e}.cls-10{fill:#e7b157}.cls-11{fill:#61996b}.cls-12{fill:#75a67e}.cls-13{fill:#fff}.cls-14{fill:#6ea169}.cls-15,.cls-19{fill:none}.cls-15{stroke:#6ea169;stroke-linecap:round;stroke-linejoin:round;stroke-width:0}.cls-17{fill:#ffaa20}.cls-18{fill:#eab867}.cls-20{fill:#71a76b;fill-rule:evenodd}</style></defs><g id="圖層_2" data-name="圖層 2"><g id="圖層_1-2" data-name="圖層 1"><path d="M204 12zM204 25zM204 27zM204 20zM204 8zM204 8zM204 1zM199 20zM204 2zM204 25zM204 29zM201 39zM203 32v-1zM199 34v4-1 1h1v1a1 1 0 011 0 1 1 0 00-1 0 1 1 0 001 0v-1l1-1v-1-1h1v-1h-1l1-1h-1v-1c1 0 0 0 0 0h1v-2 1h1l-1-1a2 2 0 011-1h-1 1a2 2 0 010-1v-1s-1 0 0 0l-1-1h1a1 1 0 010-1 3 3 0 01-1 0v-1h1-1v-1h1l-1-1h1c-1 0 0 0 0 0 0-1 0 0 0 0v-1c-1 0 0 0 0 0v-1s-1 0 0 0v-1-1-1-1-2-1-1-1c1 0 0 0 0 0V9 8s-1-1 0 0V5 4 3s-1 0 0 0V2 1l-2-1h-1l-1 1v2l-1 1v4h1l-1 3h0v7a3 3 0 010 2v11 3zM199 38zM203 33zM203 36zM200 39zM201 39z" class="cls-1"/><path fill="#ed1c24" d="M204 2a37 37 0 012 13 36 36 0 01-3 14l8-5a115 115 0 0121-7 58 58 0 00-10-8 52 52 0 00-18-7z"/><path d="M205 1v1-1zM205 2a1 1 0 001 0h-1zM217 7zM224 11zM225 12zM217 7zM207 2zM214 6zM211 5l1-1-1 1zM208 3h-1zM216 7zM204 5zM205 2zM226 14zM215 21c1 0 0 0 0 0s1 0 0 0zM207 2zM215 22zM229 16zM228 14zM229 17zM227 17zM205 12zM207 2zM231 18l-1 1a4 4 0 001-1zM200 30zM229 19a1 1 0 00-1 0z" class="cls-3"/><path d="M204 10h0l1 1v1a2 2 0 011 0h-1 1-1l1 1h-1v-1 5a4 4 0 01-1 2v3a10 10 0 000 1 2 2 0 01-1 1 4 4 0 010 1v1l-1 1a11 11 0 00-1 1v1l-1 1a4 4 0 011-1 7 7 0 01-1 2h1v-1a7 7 0 010 1c1-1-1 1 0 0a3 3 0 011-1h1l3-2c-1 0-1 0 0 0h1l2-1v-1a5 5 0 001 0s1 0 0 0a6 6 0 002-1h-1 1l2-1h1l1-1h2v-1h1-1a14 14 0 014-1l1-1v1l3-2v1c1 1 1-1 1-1s1 0 0 0h1l1-1h2s1 0 0 0a2 2 0 002 0l1-1-3-2 2 1a18 18 0 01-3-2l-1-1h-1v-1h-1 1-1v-1h-2l1-1h-1-1 1-1-1V9h-1 1-1c0-1 0 0 0 0l-1-1a11 11 0 01-2-1h1-1a4 4 0 00-1-1h-1l-2-1-1-1v1h-1V4s0 1 0 0h-1-1V3h-1-2c-1 0 0 0 0 0a1 1 0 00-1-1s0 1 0 0h-1 1-1 1v1h1v1l1-1v1l1-1v1h1v1h3v1h1V5v1a1 1 0 011 1V6v1h1l1 1h1c1 0 1 0 0 0l1 1h1-1a1 1 0 011 0l1 1v1h2-1 1v0l1 1v1h1a1 1 0 010 1v-1 0l1 1h-1 2l1 1h-1l1 1c0 1 0 0 0 0v-1h1l-1 1h0a1 1 0 011 0h-1l1 1-1-1v1a2 2 0 00-1 0h-1a10 10 0 01-1 0v1c-1 0 0 0 0 0h-2a2 2 0 01-1 1v-1 1h-1l1-1-1 1v-1l-1 1v1l-1-1a6 6 0 010 1 3 3 0 010-1v0a1 1 0 01-1 1h-1l-2 1s-1 0 0 0h-2l-1 1v-1l-1 1-2 1v1-1l-1 1h-1a3 3 0 00-1 1l-1 1v-1h-1a5 5 0 010 1s0 1 0 0v-1l-1 1a5 5 0 001 0v-1 1-1a1 1 0 001 0h-1l1-1a1 1 0 000-1v-1c0 1 0 0 0 0v-1-1a1 1 0 010-1v-1h1a2 2 0 01-1 1h1v-1-1s0-1 0 0c0 0-1 0 0 0l-1-1h1v-2c-1 0 0 0 0 0l-1-1h1v-3 1l-1-4V4v0h-1 1l-1-1 1-1h-1l-2 1h1c-1 0 0 0 0 0v2a1 1 0 010 1v1l1 1h-1 0l1 1v1h-1zm1 7zm0 1zm2-1zM207 17zM217 7zM201 29zM214 4z" class="cls-3"/><path d="M213 4h-1a1 1 0 001 0zM211 3zM229 13zM224 10zM231 18zM224 10zM206 2zM206 2zM206 2zM208 2zM208 2zM210 4h-1 1zM211 5zM219 8v0zM222 8h-1 1zM222 10zM228 17zM221 19zM205 26z" class="cls-3"/><path d="M68 102l12 4 7 2 16-11 15 13 25-18 17 10 20-9-27 178-151-1 18-56a1149 1149 0 0148-112z" class="cls-4"/><path d="M68 103c0-1 0-1 0 0v1zM65 108v2l1-3v-1a12 12 0 001-2 14 14 0 00-2 4zM28 191h1a4 4 0 00-1 0zM9 245a2 2 0 000-1v1zM6 254v-1a2 2 0 000 1zM28 191v0zM60 120a7 7 0 001-1l-1 1zM37 168a2 2 0 000-1zM45 151a3 3 0 010-1v1zM58 123zM32 181zM89 107zM68 102zM1 272c-1 0 0 0 0 0zM156 259c-1 2 0-3-1 0 0 0 0 3 1 0zM60 120v0zM155 259zM43 272a2 2 0 000-1v1zM13 271h1a7 7 0 00-1 0zM59 271a6 6 0 001 0 3 3 0 01-1 0zM75 271zM129 103a3 3 0 01-1 0c1 0-1 2 1 0zM60 120zM60 269h0zM170 150v-1a3 3 0 000 1zM70 269a11 11 0 001 0 2 2 0 001 0z" class="cls-5"/><path d="M113 107l2 1a13 13 0 011 1 1 1 0 010 1h1l1 1 1-1h1v-1a15 15 0 011-1h1l6-5 2-2a3 3 0 00-1 1l1-1-1 2 5-4-1 1-2 1c2 0-2 1 0 1l6-5c1 0 0 0 0 0a13 13 0 014-3 8 8 0 001 0 7 7 0 001-1h1a9 9 0 012 1h-1l5 3-2-1 3 1v1l4 2 2 1 1 1 1 1 3-2s-1 1 0 0l15-6a2 2 0 011 0c0-1 0 0 0 0a1 1 0 010-1v5a65 65 0 01-1 7v-1l-1 6v-1l-3 18v6l-2 7v4h-1v3a23 23 0 01-1 6l-1 5a8 8 0 010-1v3c0-1 0 0 0 0a53 53 0 00-1 7v-1l-2 13v1c0 1 0-1 0 0v3l-1-1v5l-2 10v3l-2 9 1 2-1 2-1 10v-1 2l-3 17-1 4v1l-2 12a27 27 0 00-1 5l-1 6h-2a7 7 0 01-2 0h1l-30-1-6 1 1-1-22 1a4 4 0 011-1 20 20 0 00-5 1l-1-1h-5 1-11l-5 1-6-1H31h5-25a4 4 0 011 0h-2 1c1 1-3 1-4 1 2-1-4 0-2-1H4s-1 0 0 0H3a2 2 0 010-1v1a1 1 0 010-1v-1a26 26 0 011-3v1l3-11 1-1 1-3-1 1 2-5-1 1 2-3-1 2v-3l1-3a18 18 0 011-3h1l1-6h1v-1s0-1 0 0l1-3v1l3-9v1l4-13v1c-1-1 1-3 2-5v1l3-11v1l3-6v-1c3-5 3-11 6-15v1l1-5-1 2a16 16 0 011-3c0 2 1 0 1-1l1-3 1-3v1l2-5-1 3a17 17 0 002-3l1-3v1l2-8c0 3 0 1 1 1l1-1 1-4 1-1c1-2 0 0-1 0l5-10 2-7v1a33 33 0 002-5h1l1-3a7 7 0 010 2l1-5v2a33 33 0 002-5l-1 1h1l-2 2 1-1-3 7v-2l-1 3v-1l-1 3c-1 0 0 0 0 0l-1 2v-1l-2 5-1 3-2 2v2c-1 1 0-1 0 0l-3 6c0 1 1-2 0 0l-2 4s1-2 0 0l-2 4-2 6-3 7-2 5v-2 2a9 9 0 01-1 2v-1l-3 7c0 1 2-1 1 2l-1-1a8 8 0 010 1v-1 2h-1a11 11 0 001-1 19 19 0 01-2 3v1l-1 2v2a2 2 0 01-1 1l-1 4-5 11-2 7-1 1a30 30 0 01-1 4v-2a26 26 0 00-1 5l-2 3 1-1-1 3v-1l-4 12c0 1 1-3 1-1l-3 4-1 6v2l-1 1v-1-1 1l-1 3v-1l-2 7s0-1 0 0l-1 4-1 3v-1a47 47 0 01-2 6v-1l-1 2 1-1-1 2c0 1 1-1 1 1l-1 3a7 7 0 012 0H0s1 0 0 0v-1 1h2l-1 1 4-1a7 7 0 012 0l2 1c-2 0-1-1 0-1a29 29 0 004 0h-1a16 16 0 013 0h-1 7l6 1c-1-1-1-1 1-1h-5 3-4 17-2a32 32 0 014 0h14-1a7 7 0 002 0h4a5 5 0 012 0h25c2 0-1 0 0 0l6 1h-1l8-1v1a84 84 0 018-1h-1 5-2l4 1 8-1h-1 4l1 1 7-1-6 1a43 43 0 005 0 11 11 0 01-1 0 38 38 0 016-1l9 1h8v-5l1-5v-1a11 11 0 010-2l1-4v1l1-3v-2 2l1-8v2l1-10s0-1 0 0l2-15v1a12 12 0 011-3 26 26 0 010-4v1l1-11 2-6 2-14 2-16v-2l1-3v1l1-6h-1c2-5 2-13 3-16l1-4 1-9v-5h1l2-13v-6l1-6h1a21 21 0 010-5v1a11 11 0 000-1v-1a18 18 0 010-3v1l1-2a22 22 0 00-3 2 23 23 0 01-3 1 6 6 0 01-2 0 7 7 0 01-2 2v-1l-7 4 4-2s-2 0 0-1a53 53 0 01-7 4h-2a20 20 0 00-3-2s-1-1 0 0l1 1 2 1a11 11 0 01-2-1l-2-1-4-3-4-2-2-1-2-1-1 1h-1a3 3 0 01-1 1l1-1-5 4-2 1h1l-16 11a4 4 0 011-1l-2 2-2-2-1-1-4-3-4-4-2-1-2-2-3 2a16 16 0 00-3 3h-1l-2 1a25 25 0 01-4 3 320 320 0 01-3 1v1h-1l-1-1 1 1-5-2a2 2 0 01-1 0l-4-1-4-2h-4l2 1-2-1c0 1-2 1 2 2l3 1-2-1a8 8 0 003 1 3 3 0 001 1h3s-2 0 0 0h1l2 1a39 39 0 004 1h1l1 1 1-1 1-1a24 24 0 013-2c-1 2 4-2 4-2a19 19 0 013-2l2-2h1l1-1-1 1 1-1v1l4 2h-1l2 2 2 1 2 2 2 2-1-1zm49-6l-1 1zm5-2l-2 1 2-1zm-9 0l1 1-1-1z" class="cls-5"/><path d="M157 99a3 3 0 01-1-1l1 1zM29 191zM171 144zM39 166a1 1 0 001 0 2 2 0 00-1 0zM44 156l1-2-1 2zM48 148v-1zM12 269h0zM12 240zM59 269zM11 243a14 14 0 000-1v1zM64 113v-1zM64 112zM64 111v1a4 4 0 000-1zM59 123zM57 126l2-3-2 3zM50 139l1-2s-1 1 0 0l-1 2zM46 148c1-1 0 0 0 0-1 1-1 1 0 0zM21 210c-1 1 0 0 0 0zM18 223v-2 2zM14 230v-1l-1 2 1-1zM72 272v0zM121 272a8 8 0 003 0h-3zM171 158v1-2 1z" class="cls-5"/><path fill="#1f4f77" d="M185 97l17-2a673 673 0 0045 81c16 19 24 18 30 31 8 16 0 24 7 39 7 13 19 20 28 25H158z"/><path fill="#163d59" d="M159 271l153-1c-19-1-44-6-62-23-10-9-12-17-21-29-10-13-26-30-55-45z"/><path d="M158 271h1l-1-1zM159 267v-1 2a11 11 0 000 2 11 11 0 000-3zM169 207zM176 174zM182 178l-1-1a2 2 0 001 1zM169 207v-1 1zM160 259zM166 223v1zM164 236a1 1 0 000-1 2 2 0 010 1zM161 256zM168 214zM173 272zM159 271zM191 184zM267 259c-1 0 2 1 0 0 0 0-2 0 0 0zM160 258zM267 259zM213 201a2 2 0 00-1-1 1 1 0 001 1zM197 188h1-1zM220 208zM227 216zM207 271a3 3 0 01-1 0h1zM160 259a1 1 0 010-1v1zM221 208l1 1zM285 271h-1a3 3 0 001 0zM226 213a7 7 0 000 1z" class="cls-8"/><path d="M195 272l1-1c2 0 1 0 1 1l3-1c1 0 1 0 0 0h6a7 7 0 011 0h-1 4-2c1 0-1 0 0 0h5c1 0 0 0 0 0h6a7 7 0 012 0h2a10 10 0 002 0h21c1 0 1 0 0 0h37a20 20 0 014 0h4a7 7 0 01-1 0h7-1 9v-1l1 1v-1 1h6v-2h-6-2l-6-1h-1l-1-1-7-1h1a3 3 0 01-1 0l-11-3-2-1h-1v-1a28 28 0 01-4-1l-4-2-9-5h1a6 6 0 01-2-1l1 1a57 57 0 01-14-14c-2-2-2 0-3-3l1 1-8-13a3 3 0 010 1 17 17 0 00-2-3v-1l-2-2-1-2-3-3-2-3-1-1-2-2v-1l-2-1-4-5-8-7 3 3-3-3-4-3 1 1-7-6a2 2 0 010 1l-1-1h1l-2-1c1 1-3-1-1-1h-1s-1-1 0 0l-3-2h1a33 33 0 01-3-1s0-1 0 0l-6-4-1-1-1-1v1l-3-2h1l-3-1 2 1-2-1-1-1v1h-1a22 22 0 010 2c0 1 0 0 0 0l-1 4v2l-1 7v-1l-1 9v-1l-1 4s0-1 0 0l-1 7v-1 5s0 1 0 0l-2 11v-1 2a14 14 0 010 2l-1 1v4a30 30 0 010 3v-2a13 13 0 00-1 2v2l-1 5v-1 4l-1 1h1l-2 7v5c0 1 0 0 0 0a29 29 0 00-1 3 11 11 0 010 2 6 6 0 010-1v2a30 30 0 00-1 4l1-1h-1a3 3 0 011-2v-4l1 1v-2-2s0-1 0 0l1-4v-4s0-1 0 0v-1l1-4s0 1 0 0l1-3s-1 2 0 0a22 22 0 010-3 28 28 0 011-4l1-5a18 18 0 010-3v1-1a9 9 0 010-2l1-5s-1 2 0 0a7 7 0 010-1v-1a8 8 0 000 1 17 17 0 011-2s-1 0 0 0v-2-1a2 2 0 010-1l1-3v1-1l1-8v-4l1-1a25 25 0 010-3v1a25 25 0 000-3l1-2v-1l1-8v1l1-3a12 12 0 000-2 2 2 0 010-1l1 1h1-1l2 1c1 1 1 0 0 0l4 2a23 23 0 003 2l1 1c1 0 0 0 0 0a39 39 0 013 2l-1-1 2 1h-1a4 4 0 011 0l1 1a17 17 0 012 1l-2-1a15 15 0 011 1l3 2h1c-1 0-1 0 0 0a22 22 0 002 2l-1-1a11 11 0 012 1s-1 0 0 0l3 2v1l3 2 1 1-3-2 2 1-2-2h1l3 3h-1l5 4a24 24 0 012 2l2 2 1 1 3 3-1-1a6 6 0 001 1l2 2a4 4 0 011 1l1 1 5 6 3 4h-1l3 3-1-1 2 4 3 4 3 4s-1 0 0 0l1 1a10 10 0 010 2l-1-1a15 15 0 002 2 17 17 0 001 2l2 2v-1l2 2v1l1 1 2 2a36 36 0 01-3-3 23 23 0 003 3 10 10 0 01-1-1l2 1 2 2 1 2a27 27 0 013 2l4 3 5 2 1 1a10 10 0 011 0l2 1c1 1 0 0 0 0l1 1 2 1-1-1a21 21 0 012 1 13 13 0 002 1 43 43 0 006 2l9 2a11 11 0 012 1h2a66 66 0 007 1l4 1 7 1v-1h-3l-11-1-1 1h-2a19 19 0 00-3 0h-36-5 1a19 19 0 01-3 0c-1 0-1 0 0 0h-3 1a9 9 0 00-2 0 13 13 0 01-3 0 6 6 0 01-2 0h-5 3s-2 0 0 0a45 45 0 01-5 0 7 7 0 00-1 0h-2a17 17 0 00-2 0s-1 0 0 0h3a10 10 0 01-2 0l-1 1-4-1-7 1a3 3 0 01-1-1h1a36 36 0 00-4 1c-2 0 1-1-1-1l-12 1h-17a14 14 0 00-3 0h-9a26 26 0 01-3 0 2 2 0 01-1 0h-5a12 12 0 00-3 0 4 4 0 011 0h-1s-1 1 2 1h2-2a7 7 0 002 0 2 2 0 001 0h2s-1 0 0 0l1-1a4 4 0 001 1h6l2-1c-2 1 3 0 3 1l5-1a2 2 0 010 1h2a14 14 0 013-1l-1 1s3 0 2-1a5 5 0 012 1l1-1 2 1c1 0 0 0 0 0zm38-1zm3 0h-1a6 6 0 001 0zm-6-1h-1a1 1 0 011 0zM229 270h-1 1zM169 207zM281 271zM165 225zM164 233v1zM163 238v1zM197 187h0z" class="cls-8"/><path d="M173 173v-1a2 2 0 011 0h-1a1 1 0 000 1zM221 207v1zM175 173l-1-1 1 1zM159 264zM159 264zM159 265v-1a4 4 0 000 1zM161 256zM161 254v0zM163 244v2s0-1 0 0v-2zM164 238c0 1 0 0 0 0 0-1 0-1 0 0zM171 194c0-1 0 0 0 0zM171 185v1-1zM173 180v1-2 1zM226 215c-1-1-1-1 0 0zM244 242a6 6 0 001 1l-1-1zM290 270h-1 1z" class="cls-8"/><path d="M208 94l17-9 23 9 18-10 31 20 8-7 10 10 18-11 71 174h-91a93 93 0 01-15-15c-4-4-10-11-13-20-3-13 1-17-1-27-4-13-15-22-21-26-14-12-33-35-55-88z" class="cls-4"/><path d="M208 94v1h1zM210 100l2 1-2-2v-1l-1-2a13 13 0 001 4c1 0 0 0 0 0zM257 177l-1-1 1 1zM283 222v-1 1zM284 232v-1a2 2 0 000 1zM257 177l1 1-1-1zM216 111a7 7 0 000-1v1zM241 158v-1a3 3 0 00-1 0zM231 142zM217 115zM249 169zM227 88zM208 94zM290 248zM390 234c1 2-1-2 0 0 0 0 1 2 0 0zM216 111l1 1-1-1zM390 234zM322 271a2 2 0 00-1 0h1zM297 256l1 1-1-1zM337 271a6 6 0 001 0 4 4 0 01-1 0zM354 271h-1zM271 89s-2-1 0 0zM216 111zM338 269h3-3zM347 134v-1a3 3 0 000 1zM348 269a9 9 0 002 0zM271 89z" class="cls-5"/><path d="M257 91l1-1 3-1 4-3h1l2 1a22 22 0 002 1 1 1 0 011 1v-1l2 1a3 3 0 00-1 0l1 1-2-1 6 3c0 1-4-2-2 0l-2-2c2 2-1-1 0 1l6 4 1-1 6 5a8 8 0 014 2l-1-1 5 3-2-1 3 2 2 1 1-1 1-1 2-2 3-3h1v1l1 1 3 2 5 6 2-1h1v-1h1l1-1s1 0 0 0a102 102 0 0111-7v1a10 10 0 001-1l1-1a3 3 0 011 1l-1-1 1 1v1l1 2 2 5 2 7 3 6 2 7 2 3 1 2v1l1 1-1-1a22 22 0 012 6l3 5a8 8 0 01-1-2l1 3a53 53 0 003 6h-1l5 12h1v1s-1-2 0 0 0 1 0 0l1 2h-1l2 4 4 10 1 2 4 9 1 1v2l4 9v-1 2c3 5 4 12 7 16h-1l2 4v1c3 4 3 7 5 11l5 14h1a7 7 0 010 2v-1l4 10 2 6 1 2v1h-11 1-22a4 4 0 012 0 20 20 0 00-6 0h-5c-1 0 0 0 0 0h-15-7c1 0-1 0 0 0h-25-1l-1-1h1l1 1h2-3l-1-1-2-2a39 39 0 01-3-3l1 1a104 104 0 01-10-10 4 4 0 011 0l-1-1v1l-2-3-1-1v-1h-1v-1l-2-3a17 17 0 01-2-4l-4-10v-1-3 1a24 24 0 01-1-5v1l1-3-1 2v-3l1-3-1-4h1a8 8 0 010-1l-1-1a13 13 0 000-2 5 5 0 000-2v1-2c-1-3-1 1-2-2h1a37 37 0 00-5-8h1v1c-2-4-6-7-9-10l-4-3h1l-8-7v1l-2-3-2-2-1-1c-4-4-8-8-10-12 0 0 1 1 0 0l-2-3v1a14 14 0 01-2-2c2 2 1 0 0-1l-2-3-2-3 1 1-3-4 2 2a17 17 0 00-2-3v1l-1-3v1l-4-7 1 1-1-2-2-4-1-1v1a29 29 0 01-2-5 37 37 0 00-3-5l-4-6h1a32 32 0 00-2-4v-1l-1-2a6 6 0 011 1l-3-4 1 1a37 37 0 00-2-5v2c0-1 0-1 0 0l1 2v-1l3 6-1-1 1 3v-1l1 3 1 2-1-1 3 5 2 3v2l1 1v1l3 5c1 1-1-1 0 0l2 4s-1-2 0 0l2 5 4 5 4 6 3 4-2-1 1 2a11 11 0 012 1h-1l3 3 1 1 1 2s-1-2 1 0a8 8 0 011 1l-1-1 1 1v1a12 12 0 00-1-1 27 27 0 012 3h1l1 2 1 1a2 2 0 011 1l3 3 9 8c2 2 4 4 6 4v2l2 1a18 18 0 011 2l-1-1a52 52 0 004 4l1 2-1-1a12 12 0 011 1l1 1h-1l3 6a15 15 0 011 2 9 9 0 011 3v-2a15 15 0 010 2v9s1-1 1 2c-1 2-1 3-1 1v-1s0-1 0 0a23 23 0 000 2c0 1 0 2-1 1 1 2 1 1 1 0a29 29 0 000 7s0-1 0 0a9 9 0 001 3 5 5 0 011 1v2l2 6v-1l1 2v-1 2h1l2 4-2-2 2 1h-1l3 4 1 1h1a24 24 0 002 3l-1-1a17 17 0 012 2c0 1-1-1 0 0l4 4v2l4 4h1l-3-3 2 2-3-3h1l4 4v1a20 20 0 002 1l1 1 1 1h5-1 18-2a7 7 0 002 0h4a5 5 0 012 0l1-1 12 1h12c2 0-2 0 0 0h6-1 8a81 81 0 018 0h-1l2-1 3 1h-2 11a5 5 0 012-1 8 8 0 002 0l1 1h1l-1-2-1-1v-1l-2-4a27 27 0 011 3l1 1 1 3-1-2v-2a17 17 0 00-1-2 11 11 0 010 2 36 36 0 01-2-6l-3-9-6-14c0 2 0-2-1-1a12 12 0 01-1-2l-1-4 1 1-1-3-1-2 1 2-3-7 1 1-4-8c-1-1-1-1 0 0l-6-14a13 13 0 01-1-2 25 25 0 01-1-4v1l-4-10-2-6-6-13-6-15v-1l-1-3-2-5h-1l-5-15-2-4-3-8v1l-2-5v-1l-5-11 1 1-1-2-1-2-1-2a48 48 0 00-3 2l-5 3a20 20 0 01-4 3v-1l-3 3 1-1a10 10 0 00-3 2h-1v1l-1-1a2 2 0 010-1 7 7 0 01-3-1h1l-6-6 3 2 1 1s-2-1 0 0l-2-2-2-1-1-2-2 2h-1v1l-2 1a20 20 0 00-2 2v1l1-1 2-2a10 10 0 01-2 2l-1 2h-2v-1a5 5 0 01-1-1l-10-5a3 3 0 01-1-1l2 1-6-3-1-1a46 46 0 00-7-4l-3-2-1-1h-1l-1-1h-1l-1 1-2 1a3 3 0 011-1l-8 4-7 5-2-1-2-1-4-1a15 15 0 00-4-2l-2-1a25 25 0 01-5-1l-2-1-1-1h-2l-1 1 1-1-5 3a2 2 0 01-1 0l-3 2-4 1-3 3 1-1-1 1h3l2-1 1-1-2 1a8 8 0 002-1 3 3 0 001 0l2-2h1l1-1h1a37 37 0 004-2h2l1 1a22 22 0 013 1c-2-1 5 1 4 2l8 2a3 3 0 01-1 0l3 1h1l1 1h2l1-1v1h-1 1l1-1 1-1a6 6 0 012 0l2-2 3-1-1 1zm47 7zm3 2l-1-2v1l1 1zm-8 0l1-1-1 1z" class="cls-5"/><path d="M299 101a2 2 0 01-1 0h1zM256 176zM345 129zM240 155zM234 145v-1 1zM230 138zM298 254v0zM285 217v0zM338 269zM285 220a13 13 0 000-2v2zM213 104v-1zM213 103h-1a2 2 0 001 0zM212 102v1a4 4 0 000-1zM218 114zM219 117l-1-3 1 3zM225 131l-2-2c1 0 1 1 0 0l2 2zM229 139c-1-1 0 0 0 0 1 1 1 1 0 0zM272 190c0 1 0 0 0 0zM281 199l-1-1 1 1zM282 207v-1 1zM351 271h-1 1zM399 271a5 5 0 001 0 10 10 0 002 0h-2a10 10 0 00-1 0zM352 140l1 1-1-2v1z" class="cls-5"/><path fill="#e3a63f" d="M195 97l-12 85-13 86h15l15-171z"/><path d="M195 96h1v-1zM199 97a13 13 0 001-1l1-1a13 13 0 01-1 1 5 5 0 00-2 1v-1h-2a2 2 0 002 1 5 5 0 001-1v1zM195 147zM191 179v-1 1zM190 184zM195 147l-1 1 1-1zM201 103a1 1 0 000-1 3 3 0 010 1zM195 133v-1zM196 122h1a1 1 0 00-1 0zM199 105zM195 140l-1 1 1-1zM191 109zM195 97a1 1 0 001 0zM189 194zM173 264h-1-1l1 1a1 1 0 001-1zM201 103v1a2 2 0 000-1zM171 264v1zM187 217zM189 200zM187 226zM186 235zM187 137a2 2 0 011 0c-1 0-1-2-1 0zM201 103zM191 227v1a13 13 0 000-1zM178 203v-1 1zM191 232a2 2 0 00-1 1z" class="cls-10"/><path d="M188 127l1 1c0 2-1 1-1 1v7a1 1 0 010 1 2 2 0 011 0l-1 1v-1 4c-1 0 0-3-1-1l1-2h-2v4l1 1c0 3-2 2-1 4v2h-1l1 3c-1 0 0-2-1-1l1 2h-1v6h-1a36 36 0 01-2 9l1 1h-1l1 1h-1v8l-1-1 1 4v-1l-2 10v4l-2 4v3l-1 1h1l-1 3v3l-1-1v2h1a9 9 0 00-1 4l-1-1-1 8h1v1h-1v3h-1v8a35 35 0 00-1 5l1 1-1 1a40 40 0 00-1 5h1l-1 1c0 3-3 7-2 10v-1 3c0 1 0-1 0 0a10 10 0 01-1 4v1a7 7 0 000 1v1l-2 6h8a5 5 0 011 0h1a39 39 0 014 0h7v-4l1-1v-1l1-4c0-2-2-2-1-4v1l1-13v-2l1-1v-2-2-4-3-3l1-1v-2c1-1-1-4 1-5l-1-9 1 3v-7 1l1-8v0c-1 1-1-2-2-2 2 1 1-2 2-1v-1-2a5 5 0 010-3v-6c1 1 1-1 1-1v-1-3 1-2 1l-1-1 1-2a3 3 0 010-2h1l-1-3a1 1 0 001 0l-1-1h1l-1-2 1 1v-6c1 0 0 2 1 1v-8 1-3-6h1v-3-1c1-3-1-6 1-9 0 0 0 1 0 0v-2l-1 1a3 3 0 010-2h1v-1c1-1-1 0-1-2l1 1a7 7 0 010-2c0-1 0 0 0 0v-3 2a3 3 0 001-2v-2 1l-1-5 1 1 1-1v-2-1c0-1 0 0 0 0v-6l-1-5 1 1a5 5 0 000-3h1l-1-2a3 3 0 011 1v-2-1-2 0a2 2 0 010 2 2 2 0 00-1 2 9 9 0 010 2l-1-1 1 2-1-1v3s-1 0 0 0l-1 3 1 2-1 1v1h1l-1 4s0-1 0 0v2h-1v7l-1 4v3a2 2 0 010 1h-1v4c1 0 2-1 2 1l-1-1v1 0l-1 1v-1a4 4 0 010 2l-1 1 1 2h-1l1 3v-1 1l-1 6v4l-1 1a5 5 0 010 3v-1 3c-1-1-1 0-1 1l1-1a11 11 0 010 2h-1c-1 2 1 5-1 7l1-1-1 3v3l1 1-1 1v-1s0-1 0 0l-1 2h1l-1 4h1v2l-1 2v-1l-1 4v-1a5 5 0 010 1v1h1l-1 2v-1a3 3 0 010 1v3l-1 1h1v2-1l1 2-1-1v4h-1v4c0-1 0-1 0 0v-2l1 1v-2 4h-1v6-1 2l-1 1 1 2-1 1 1 4-1-1v4s0 2 1 1c-2 2-1 5-2 7v4 2c-2 1 0 3-1 4v9l-1 2v-1 8a14 14 0 000 2 10 10 0 010 2v-2h-1v-1a4 4 0 000 1 3 3 0 000 1v-1a4 4 0 011 2 3 3 0 01-2 0 1 1 0 000-1 7 7 0 00-2 0l-3-1a13 13 0 01-4 1l-1-1h-1a13 13 0 001-2h1l1-1v-2l-1 1 1-4v-4h1v-9h1v-1a4 4 0 010-2v-6l2-3v-9c2-1 2-6 3-9h-1l1-2 1-3h-1c2-3 0-8 2-9v-2a34 34 0 001-6v1c1-1-1-2-1-3h1c0-3 2-5 1-7a1 1 0 011 0v-4-4 1a4 4 0 010-3v-2a2 2 0 000-2l1-2a2 2 0 010-2v-4h1a26 26 0 01-1 3h2l-1-4a2 2 0 000-1 5 5 0 001-1v-2h-1v2a2 2 0 010-2l-1-1 3-2-1-6 1-1v1l-1-4c1-1 1 1 1-1 2-3-1-6 2-10h-1l3-15-1-2h1v-2c-1-2 2-3 1-6v-2-3l2-2-1-3-1 1v-1c-1 0-1-1-2 1v2h-1l1-1v2a1 1 0 00-1 0l1 2h-1c0 1 1-1 1 1l-1 1v-1 3l-1 2a5 5 0 010 2c-1-1 0 3-1 2v5a6 6 0 01-1 2l1 2h-1s0 2 1 1l-1 1v2l-1 2v-1zm-3 32zm-1 3l1-1-1 1zm5-5v0zM188 156zM195 146v0zM178 200v-1 1z" class="cls-10"/><path d="M198 132v-1a1 1 0 000 1zM199 125v-1a6 6 0 000 1zM200 120a1 1 0 00-1 0zM193 200zM194 176a5 5 0 010 1v-1zM191 226v1zM194 178a2 2 0 000-1 3 3 0 000 1zM202 97zM202 97v-1 1zM202 96zM201 105zM201 107a6 6 0 000-2v2zM198 115v-2h-1l1 2zM197 120h-1 1zM193 158c0 1 0 0 0 0zM195 166l1-1h-1v1zM191 170v-1 2-1zM186 233zM184 261a1 1 0 00-1 1 10 10 0 001-1zM182 208v-1 1z" class="cls-10"/><path d="M166 178l-14 92-151-1 19-56c11 2 28 3 47-2 16-4 23-10 38-17 13-6 33-13 61-16z" class="cls-11"/><path d="M166 179h-1zM162 179c-1 0-2 0-1 1l1-1h3a7 7 0 00-3 0c-1 0 0 0 0 0zM100 196zM63 211zM56 212h1a1 1 0 00-1 0zM100 196h-1 1zM153 181zM116 189a1 1 0 000-1zM129 184l-1 1a1 1 0 011 0v-1zM150 180zM107 192zM162 194s0-1 0 0zM166 178a1 1 0 000 1zM44 213zM33 271c-1-1 2-1 0-1 0 0-2 1 0 1zM153 181h-1a5 5 0 001 0zM33 270zM17 217zM37 214h-1 1zM14 228a3 3 0 000 1 2 2 0 010-1zM10 239a2 2 0 001 0zM157 228a2 2 0 011 0c-1 0 0-2-1 0zM153 181zM16 229l-1 2 1-2zM111 269zM14 236a5 5 0 00-1 1z" class="cls-12"/><path d="M159 216v1l-1 2v11a1 1 0 000-1v1-2a39 39 0 01-1 5v-3c0 1 1-1 0 0l-1 5 1 1c-1 3-2 2-2 5a4 4 0 010 3v-1 3 2h-1l-1 9c0-1 0-1 0 0a111 111 0 01-2 11v1h-4a33 33 0 01-5 0h1-20a42 42 0 00-6 0h-6 1a12 12 0 01-4 0h-4 1-2a26 26 0 00-5 0h1-10c1 0 1 0 0 0h-1c-1 0 0 0 0 0h-1v-1H76l-2 1h-7c-1 0-3 0-2-1l-7 1h1-2 1l-13-1-3 1c-2 0 1-1 0-1l-9 1-11-1H3a5 5 0 000-1 4 4 0 011-3v1l5-14a10 10 0 001-3v-1l1-3v1l1-3 1-5 1-3 2-4v-1l1-2 2-6 1-6h2-1 8c1 1-1 1-1 1h10l2-1c-1 1 3 0 2 1h1l3-1v1a15 15 0 013-1l8-1h3-1l4-1h-1 1l2-1a20 20 0 012 0 9 9 0 012-1c1 0 0 0 0 0l4-1h1c0-1 0-1 0 0l2-1 6-3-1 1 9-5-1 1 4-2h-1l7-4v1l4-2v-1l11-4s-1 0 0 0l2-1h-1a7 7 0 012-1h1l2-1a19 19 0 013-1l-1 1 3-1h-2a8 8 0 003 0l2-1h-1l5-2c-2 1 0 1 0 1h1l3-1h1c1 0 0 0 0 0a14 14 0 013-1 22 22 0 004-1l5-1c1 0 0 0 0 0a19 19 0 003-1l1 1 2-1a4 4 0 01-1 1l3-1h-1a17 17 0 004-1h-1v1h-2 1-6c-1 0-1 0 0 0h-3s-1 0 0 0l-4 1-2 1h-2-1c-1 0 0 0 0 0l-5 1s2 0 0 0l-3 1h1l-4 1-4 1-5 1-4 2 1-1-1 1a5 5 0 01-1 0l-5 2s2 0 0 1c0 0-1 0 0 0a5 5 0 01-1 0l1-1-1 1h-1a5 5 0 001 0 10 10 0 01-2 0l-1 1h-1l-2 1-3 2-8 4-4 2h-1a13 13 0 01-3 2l2-1a16 16 0 00-4 2h-2 1l-2 1c-3 1-5 3-8 3h1a27 27 0 01-3 0l-4 2-1 1c-2 0-2 0-1-1h1-2l-5 1-3 1h-2c-1 0 0 0 0 0a11 11 0 01-2 0h-2 1a14 14 0 01-2 0h1-1l-1 1h-3c3 0 0-1 2-1a9 9 0 01-1 0l-3 1-1-1-1 1a17 17 0 00-2 0h1a7 7 0 01-3 0h1-4l-1-1h-4-1 3l-2 1h3c-1 0-1 0 0 0h-5l1-1a18 18 0 00-4 0h-1l-1-1h-1v3-2a6 6 0 010 2 16 16 0 00-1 1l-1 1v3l-1 1-1 5v-1 1l-1 3a3 3 0 010 1v1c-2 2-2 6-3 8l-2 5-1 3c-1 1 0-1 0 0l-2 4-1 5s0-1 0 0a43 43 0 01-1 5H3v1l-1 2 1-1-1 2-1 2v1l-1 2h10a38 38 0 01-4 0 22 22 0 004 0 5 5 0 01-1 0 19 19 0 014 0l7 1h11c-2-1 1 0 1-1a5 5 0 011 0l3 1h-1 4-2 6-1 17a6 6 0 012 0 13 13 0 013 0h-1 62l-1 1 4-1h18a10 10 0 014 0h-1 4-1 1a8 8 0 000-1v-1a7 7 0 011-3 4 4 0 010-2l1-5v-1l-1 4c1 0 1-2 1 0a27 27 0 010-6 5 5 0 001-1 13 13 0 000-1 10 10 0 000-3s0-1 0 0v3a5 5 0 010-2v-1l1-4v-7a2 2 0 011-1 10 10 0 000 1v-4l1-2 1-13a2 2 0 010 1l3-19a8 8 0 000-3h1v-2l1-7v-3a1 1 0 010-1l1-3 1-3v-3l-1 2v-2s-1-1-1 2v2h-1l1-1a4 4 0 00-1 2 2 2 0 000 1v2c0 1 0-1 0 0v2a20 20 0 00-1 3v3a12 12 0 010 2c-1-2-1 3-1 3l-1 6a17 17 0 010 2v3c-1 1-1-1-1-1v6l-1 2v-1zm-6 41l1-1-1 1zm0 3v-1c0-1 0 0 0 0v1zm3-7v0zM156 252zM100 196zM115 269zM118 189zM126 187l1-1-1 1zM132 185zM37 216c-1 0 0 0 0 0zM67 212h-1 1zM16 229z" class="cls-12"/><path d="M64 212a6 6 0 002 0 11 11 0 00-2 0zM158 180h1zM159 180zM160 180h-1a2 2 0 001 0zM150 181zM148 182a18 18 0 002-1l-2 1zM137 182h2s-1 0 0 0h-2zM131 184c1 0 0 0 0 0-1 0-1 0 0 0zM87 202c-1 1 0 0 0 0zM79 208l1-1zM73 208h1-2 1zM11 237c0-1 0-1 0 0zM1 270a5 5 0 002 0 3 3 0 001 0H3a11 11 0 00-2 0zM106 271h-1 1z" class="cls-12"/><path d="M349 136l54 134h-91a93 93 0 01-15-15c-3-4-9-11-12-20-4-14 3-16-2-27-3-9-10-16-16-23l-8-7a82 82 0 0130-17c15-4 24-2 38-7a53 53 0 0022-18z" class="cls-11"/><path d="M349 136v1zM346 139v2a19 19 0 001-2v-1l1-1a7 7 0 00-2 2c0 1 0 0 0 0zM288 161zM262 182zM267 187zM288 161h-1 1zM340 146a5 5 0 001 0h-1zM305 158h1zM318 156a1 1 0 011 0h-1zM337 147h1zM296 159zM353 151zM349 136zM275 196c-1 0 0 0 0 0zM339 271c-1 0 2 0 0 0 0 0-2 0 0 0zM340 146v1a4 4 0 000-1zM339 271zM283 221zM279 202h1a4 4 0 00-1 0zM284 233a4 4 0 000 1v-1zM288 244v-1zM367 183a2 2 0 010-1v1zM340 146zM286 233l1 1-1-1zM398 259h-1a1 1 0 001 0zM288 239a6 6 0 001 1z" class="cls-12"/><path d="M361 171l1 1 1 2 1 3 3 5 1 1a1 1 0 00-1 0l1 1-1-1a39 39 0 012 4s-1-3-1-1l-1-2c0 2 0-1 0 0l2 5h1l1 6a4 4 0 012 2h-1l2 3-1-1 1 2 3 8s0-1 0 0a107 107 0 014 10l1 1s0 1 0 0v2a51 51 0 014 8c0 2 1 1 2 3h-1l5 11 2 4a41 41 0 001 5l1 2v1l1 1v1a11 11 0 012 4l1 3v-1 2h1a14 14 0 000 2v1h1-8c2 0 1 0 0 0s1 0 0 0-1 0 0 0h-2-10-10-8s1 0 0 0h-16c-2 0 1 0 0 0h-20-1s1 0 0 0h-14l-1-1-1-1-2-2-4-2h1a45 45 0 01-5-5l-5-6h1a11 11 0 00-3-3l-2-3 1 1-2-2a42 42 0 01-2-5l-2-3-1-4v-1l-1-2a21 21 0 000-3 6 6 0 010-1 2 2 0 010-2l1-5a21 21 0 000-6v4a16 16 0 000-5l-1-2-1-2 1 1a36 36 0 00-5-9l1 1-1-1-2-2v-1l-1-1h1l-3-2h1a14 14 0 01-3-3l1 1-6-6v-1l-2-1h1l-3-2h1l-2-2 1 2-2-1-1-2-1-1a7 7 0 01-1 0h1v-1h1a9 9 0 002-2v1-1h1l1-1 5-4-1 1a57 57 0 019-5l-1 1 4-2h-1l7-3v1l4-1 1-1 11-2v1l3-1h-1a8 8 0 012-1c-2 1 0 1 0 1l3-1h5-2a8 8 0 002 0h2l5-2c-2 1 0 0 0 0h1l3-1s1 0 0 0c2-1 0 0 0 0l7-4a17 17 0 002-1l2-2c1-1 0 0 0 0a12 12 0 002-2h1l1-1a4 4 0 010 1l2-3v1a13 13 0 002-3l-1 1c1-1 1 0 0 0l-1 1 1-1-4 4v-1l-1 2v-1l-2 1v1s-1 0 0 0l-4 2c-2 1 0 0-1 2h-2-1v1a17 17 0 00-2 1h-2v1h-3s1 0 0 0l-3 1-2 1h-3-5l-3 1h1-1a4 4 0 01-2 0l-5 1s2 0 0 1v-1a5 5 0 01-1 0h1-1-1a6 6 0 001 0 12 12 0 01-2 0l-1 1h-3a1 1 0 01-1 0l-2 1-8 3a37 37 0 00-5 2h-1a18 18 0 01-3 2l2-1a11 11 0 00-4 2l-2 1 1-1-2 2 1-1-7 5h1l-2 1-2 1-1 1a15 15 0 002 2h1a7 7 0 011 1h1v1s-1-1 0 0l1 2v-1l4 4s-1-1 0 0l2 2 1 1c1 1 0 1 0 0a19 19 0 012 4v-1a13 13 0 011 1l1 1s2 1 1 2l-1-1a8 8 0 011 1l2 2v1h1a17 17 0 001 2v-1a6 6 0 011 2s0-1 0 0l2 3v1l1 4c0-1 0-1 0 0a30 30 0 00-1-3l1 2-1-2h1a5 5 0 000 2 7 7 0 011 2h-1l1 7v-1 2l-1 1v4a7 7 0 000 3 14 14 0 011 2c-1 0-1 1-1-1v2l1 3a3 3 0 011 1 13 13 0 001 5 31 31 0 012 3l3 5 2 3v-1c-1 1 1 3 2 4l3 4 4 4c0-1 0-1 0 0h1l1 2-1-1 2 2 4 3 2 2 1 1h5a16 16 0 01-2 0h-3 3a8 8 0 001 0 5 5 0 01-1 0 19 19 0 015-1c-1 1 5 1 6 1h11 1a6 6 0 011 0h2l2 1h2l-2-1h6l-1 1 7-1h10a6 6 0 012 0 13 13 0 012 0h8l4 1 10-1a32 32 0 005 0h3l4 1c-1-1 0-1 1-1a6 6 0 001 0l-1-3v1a16 16 0 00-1-4h-1c0-4-4-9-4-11l-1-3-2-6v1c0-2-1-2-2-3v-1l-3-8c0-1-1-5-2-4l-2-4h1a11 11 0 01-2-3l-1-2a5 5 0 00-1-2 7 7 0 01-1-3 4 4 0 01-1-1h1l-2-5v-1l1 4v-1a26 26 0 01-2-5 5 5 0 000-1l-1-1a10 10 0 00-1-2s0-1 0 0v1l1 2a5 5 0 01-1-2l-1-1v-4l-4-6a2 2 0 010-1 11 11 0 001 1l-2-4-1-2h1c-2-4-4-6-5-12a2 2 0 010 1l-7-17a8 8 0 00-2-3h1l-1-2c-2-2-1-4-3-7v1l-1-4a1 1 0 01-1 0h1l-2-3v-3l-2-2v1-1c-1 0-1-1-1 2l1 2v-1a4 4 0 001 2l1 2s-1-1-1 1h1l1 2-1-1a19 19 0 002 3v3a12 12 0 012 2v3l3 5a15 15 0 010 2l2 2c0 2-1 0-1 0l1 2v1l2 2v2l-1-1zm17 38l-1-1 1 1zm1 3a100 100 0 000-1v1zm-1-8v1-1zM377 204v-1 1zM289 161h-1 1zM396 255zM307 159zM315 158h0zM321 157v-1zM281 201zM261 179zM286 232v1z" class="cls-12"/><path d="M262 180a7 7 0 00-1-1 11 11 0 001 1zM344 142h1zM345 142zM345 141v1a2 2 0 000-1zM338 148zM336 149a14 14 0 002-1l-2 1zM326 153h2v-1l-2 1zM320 155c1 0 0 0 0 0s-1 1 0 0zM275 166c-1 0 0 0 0 0zM268 172l1-1-1 1zM262 174v-1l-1 1zM287 242v-1 1zM309 268a4 4 0 001 2l-1-2zM402 263v1-2 1z" class="cls-12"/><path d="M298 181h1a3 3 0 010-2 1 1 0 00-1 0c0 1-1-1-1 1l1 1zM301 184l-1 1 1-1z" class="cls-13"/><path d="M302 183l1 1h1l-1-1-1-1z" class="cls-14"/><path d="M303 183zM302 180c-1 0 0 0 0 0z" class="cls-13"/><path d="M304 181l-1 1h1zM305 183h-1 1l1 1-1-2h-1v1h1zM306 183l1-1c-1-1-1 0-1 1v-1 1zM307 183v-2 2zM306 178h-1a8 8 0 000 2l1-2zM305 178zM308 182zM306 180v-1 1zM308 182l1-1zM310 183l-1-1h2l-1-1v0l-1 1c0 1-1-1 0 0l1 1zM308 179v-1l-1-1 1 2c-1 1-1-1-1-1v1h1zM309 179h1l-1-1 3 2h2l-1-1c-1-1 0 1 0 0l-1-1v1l-1-1h-1c0-1 0 0 0 0h-1v1-1 1zM308 177v1h1z" class="cls-14"/><path d="M311 179h1-1zM312 178v1-1z" class="cls-13"/><path d="M313 179v-1 1z" class="cls-14"/><path d="M316 181v0z" class="cls-13"/><path d="M318 183v-1 1zM312 181zM312 181zM316 182zM302 184zM301 183c1-1 1 1 2 1a4 4 0 01-1 0l-1-1zM305 180z" class="cls-14"/><path d="M287 187v1-1zM287 188h1l-3 1 2-1zM287 187h1v1z" class="cls-13"/><path d="M288 185s0-1 0 0z" class="cls-15"/><path d="M288 181zM288 181zM288 181a2 2 0 000-1v1c1 1 0 0 0 0z" class="cls-14"/><path d="M289 180l-1 1 1-1z" class="cls-15"/><path d="M289 181v0zM289 182z" class="cls-14"/><path d="M286 186a1 1 0 011 0z" class="cls-15"/><path d="M290 182zM281 191h2v-1l2-2v1-1h1l-3 1 4-3v-1l1 1h-1 1v-1l1 2v-2h1l-1 2h1l1 1-1-2h1c-1-1-1 1-1-1v-1c0-1 1 2 0 0v-1-1 0h2v-1h1a3 3 0 000-1v1l-1-2v2l-1-1-1 1v-1l1-1h2l1 1v-1l1-1a2 2 0 000 1v-1l1 1v-1c0-1 0 1 0 0l1 2v-2l1 1-1-1s1 0 0 0h2v-1 1s1 1 0 0v1l1-2v2h0l1-1v-1 1l1 1v-1c0-1 0 0 0 0v-1l1 1v-1l1 1-1-1 1 1v-1l1 1v2l-1-1v1-1a4 4 0 000 1c-1-1-1 1-1 1l-1-1s0 2-1 0a1 1 0 000 1h-1c-1-1-1 0-1 1v-1c-1-1 0 2-1 2h1v1a2 2 0 002-1v1c0 1 0-2 0 0v-1l1 1a14 14 0 01-4 2c0 2-4-1-4 2v-1a2 2 0 000 1h-3a7 7 0 010 1l-1-1v1h-1 1l-1-1v2c-2-2-3 1-4 0l-1 1 1 1h-1l1 1a4 4 0 01-4-2zM323 183l-1-2c-2-1-2 1-4 1a4 4 0 00-1-1l-1 1h-1l1 1-2-2h-1l-1-1v1l-1-1 1 1v-1c1 0 3 3 3 1 1 1 1 0 1-1-1 0-2 0-1 1l-1-1v-1l-1-2 1 3v-1h1l4-2c1 2 0-2 1 0v-1c2 2 3 5 3 7z" class="cls-14"/><path d="M341 192h1a6 6 0 013-2c-1 1 0 1 1 1l-1-1a3 3 0 01-3 0 3 3 0 00-2 1l1 1zM340 196h-2 2z" class="cls-13"/><path d="M345 195a10 10 0 00-2 1l-1 1c3-2 0 0 0 0h2a5 5 0 001-2c1 0 0 0 0 0z" class="cls-14"/><path d="M344 196h1-1zM350 193h-1a3 3 0 001 0z" class="cls-13"/><path d="M345 198v-2l-1 1a4 4 0 011 1zM341 199a3 3 0 011-1v1l-1 1h-1l-1 1a4 4 0 002-1h1l2-2a12 12 0 00-1 1v-2l-2 2z" class="cls-14"/><path d="M339 201s-1 1 1 1c1-1 0-1-1-1a3 3 0 012 0 9 9 0 00-2 0zM338 203h2l-2-1v1zM344 203l-1 1 1-2h1a2 2 0 00-1-1c0 1-2 2 0 2zM345 202zM337 204l1-1h-1v1zM342 203v1l1-2-1 1zM337 204a4 4 0 010 1 4 4 0 000-1zM335 205l1 1h-1-1l1 1h1v-2 1-1s1 0 0 0h-1zM339 207l1-1v1h1c-2 0 1-1-2-1l2-1a2 2 0 01-1 1 2 2 0 00-1 1zM337 209h-1 1l-4 1-3 2h1v1h2v-1h1c0-1 2 0 2-2v1a1 1 0 010-2 2 2 0 011 0 4 4 0 011 0h-1 1a9 9 0 00-1-2v2zM339 209v-1l-1 1z" class="cls-14"/><path d="M334 211h-1 1zM333 213l-1-1 1 1z" class="cls-13"/><path d="M330 213h0z" class="cls-14"/><path d="M327 213c1-1-1 0-1-1l1 1z" class="cls-13"/><path d="M323 212h0zM333 208zM333 208zM327 211zM341 197a1 1 0 01-1 0h1zM343 195c1 0 0 0 0 0v1l-2 1 2-2zM343 201z" class="cls-14"/><path d="M313 196zM313 196l1 1h-5c0-1 5 0 4-1zM314 196h1l-1 1z" class="cls-13"/><path d="M316 193h1-1z" class="cls-15"/><path d="M317 190zM317 190zM317 190a2 2 0 000-1s0-1 0 0v1h0z" class="cls-14"/><path d="M319 189l-1 1 1-1z" class="cls-15"/><path d="M319 190v0zM319 191z" class="cls-14"/><path d="M312 195z" class="cls-15"/><path d="M321 191zM302 199a3 3 0 002 0l1-1c-1 0 4-1 3-2v1-1h2c0 1-5 0-4 1-1-2 6-1 6-2v1l3-3v1l-1 1h1l1-1v1c1 1 1-1 2-1h-1 1l-1 2h2l1 1v-2l1 1c0-2-1 0-2-2l1 1-1-2c1-1 1 2 2 0l-2-1c1 1 1-1 2-1v0l4 1 1-1h1l1-1h-2v-1c0 2-2-1-2 1v-1l-1 1h-2v-1h3v-1h4v1l1 1v-1h1a15 15 0 003 0l3-1 1 2 1-1h2l-2 2 2-2a3 3 0 011 1 2 2 0 002 0l-1-1a2 2 0 001 0 8 8 0 002 1 10 10 0 003 0v-1h1l-2 1h3l-2 1 2-1a10 10 0 014 0l-6 1 1 1v-1a5 5 0 013 0 4 4 0 001 0 1 1 0 001 0l1-1v1l-2 1s-1 1 0 0l-2 1v2l1-1h1l-3 3v-1l-1 2h-1 1-1l-1 2h-1v1l-2-1-1 1 1-1a6 6 0 002-1l-1-1h0l2-1a1 1 0 010-2l2-1v-1a3 3 0 01-1 0l2-1a4 4 0 00-3 1 20 20 0 01-4 0l1-1-3 1h-1a5 5 0 01-2 1c-1 1-1 1 0 0l-1 1a14 14 0 005 0h-2 1v1l2-1-2 1-1 1a32 32 0 01-4 0h-6c-2 0-4-1-4 1v-1a1 1 0 000 1c-2-2-3 0-5-1v1l-3-1 1 1h-2v-1l-1 1c-2-2-5 1-7 0l-2 2h1-1v1c1 0 0 0 0 0a8 8 0 01-5-2zM317 215v1l6-2a4 4 0 002 0 3 3 0 00-1-1l2-1h-1l2-1-1-1 3 1c1 0 1-2 2-1v-1l2 1-1-1h1c0 1 0 1 0 0-2 2-5 1-6 3v1c1 0 2 0 1-1h1l1 1 1 2-2-2 1 1h-2 1c-3 1-5 4-7 6-2-2-1 2-3 1l1 1-1-1v1a8 8 0 01-2-7z" class="cls-14"/><path d="M324 240h1a2 2 0 010-1h1l-1-1c0 2-1 0-2 1l1 1zM327 244l-1 1 1-1z" class="cls-13"/><path d="M329 243v2c0-2 1-1 1-1v-1h-2z" class="cls-14"/><path d="M330 244v-1 1zM329 240v0z" class="cls-13"/><path d="M331 242h-1l1 1v-1zM331 244v-1l1 1c0 1 1-1 1 1v-3h-2l1 1-1 1c0 1 0 0 0 0zM333 244l1-1v1l-1-1v1zM335 244v-2l-1 2h1zM334 239h1-1a6 6 0 00-1 1c1 0 1 1 1-1zM334 239v-1zM336 244l-1-1 1 1z" class="cls-14"/><path d="M335 240c0 1-1 0 0 0h-1 1zM336 244l1-1zM338 244v-1l1 1v-2 1l-1-1-1 1h1c-1 1-1-1-1 1h1zM337 240h-1l1-1-1-1v2h1zM338 240l1 1v-1l2 2h2v-1c-1-1 0 1 0 0l-1-2-1 1v-1l-1 1v-1h-1v1l-1-1v1zM338 239c-1-1 0 1-1 1l1-1z" class="cls-14"/><path d="M341 240v0zM342 240v1-1z" class="cls-13"/><path d="M343 241v-1 1z" class="cls-14"/><path d="M345 243l1 1-1-1z" class="cls-13"/><path d="M348 245h-1 1zM341 243h-1zM341 243zM345 245zM328 245zM328 243c0-1 0 2 1 1a5 5 0 01-1 1v-2zM333 241z" class="cls-14"/><path d="M309 245v1-1zM309 246h1l-4 1v-1h3zM309 245h2l-1 1z" class="cls-13"/><path d="M311 243s0-1 0 0z" class="cls-15"/><path d="M311 239zM311 239zM311 239a2 2 0 001-1h-1 1v1c0 2 0 0-1 0z" class="cls-14"/><path d="M312 238v0z" class="cls-15"/><path d="M313 239v0zM313 240z" class="cls-14"/><path d="M309 244z" class="cls-15"/><path d="M314 240zM302 248a1 1 0 001 0l1-1 2-1v-1l1 1h-3l5-2v1l1-2v1h-1 2v-1 2l1-2h1l-1 2h1v1s0-1 0 0v-1h1c0-2-1 0-1-1h1c0-2-1 0-1-1 0-2 1 1 1-1l-1-1 1-1v0l3 1v-1h1v-1h-1v-1c0 2-1-1-1 1v-1l-1 1h-1v-1h2v-1h2v1l1 1v-1l2-1a1 1 0 000 1v-1l1 1 1-1v0l1 2v-2a1 1 0 002 0h-1 1v1s0 1 0 0h1l-1 1 2-2-1 2h1-1l2-1-1-1 1 1v1l1-1c0-1 0 0 0 0v-1l1 1h1v1-1l1 1v-1 3l-1-1v1-1a3 3 0 00-1 1h-1v-1c-1 0-1 2-2 1v-1a1 1 0 000 1h-2l-1 1v-1c0-1 0 2-1 1l1 1v1a3 3 0 002-1v1c0 1 0-2 0 0v-1l1 2a21 21 0 01-5 1c0 2-5-2-5 1l-1-1a2 2 0 000 1c-1-2-2 0-3-1v1h-2c0 1 0 0 0 0l-1 1c-1-2-3 1-5 0l-1 1c0 1 0 0 0 0v1a1 1 0 010 1 5 5 0 01-3-3zM353 246v-1c-2-2-3 0-5-1a4 4 0 00-1-1 3 3 0 000 1h-1v1l-1-1v1l-2-2h1-2l-1-1v1l-1-1h1c1 0 3 3 4 2v-1s-1-1 0 0h-1l-1-2v-2l1 3v-1h1l5-2c1 3 1-1 2 1v-1c1 3 2 5 1 7z" class="cls-14"/><path d="M66 96l136-60 125 55-13 7-12-10-7 8-28-19-20 10-22-10-22 12-22-7-20 10-19-9a239 239 0 01-27 18l-12-11-19 11z" class="cls-4"/><path d="M66 95l1 1zM71 98c1 0 3 0 2-1h-3a9 9 0 00-2-1 11 11 0 004 1l-1 1zM142 83zM188 85a1 1 0 00-1 0h1zM196 88zM142 83h0zM83 100h-1 1zM124 97h-1zM109 96zM86 101zM134 90zM85 89zM66 96zM212 85zM317 85c1 1-3-1-1 1 0 0 3 0 1-1zM83 100h1a6 6 0 00-1 0zM316 86h1zM244 87zM220 80h1-1zM258 83a6 6 0 001-1h-1a3 3 0 010 1zM270 80h-1zM127 70a3 3 0 01-1 0c0 1-2 2 1 0zM83 100zM257 81l2-1-2 1zM224 46h-1a2 2 0 001 0zM266 76h1l1 1-1-1zM126 70z" class="cls-5"/><path d="M112 77c2 0 1 0 1-1h2l4-2c1-1 5-2 6-4a1 1 0 011 0h-1l2-1a2 2 0 000 1v-1l-1 1 6-3-2 1-2 1c2 0-1 1 1 1l6-3v-1c4-2 4 0 7-2a7 7 0 013-2l-1 1 5-3-2 1 3-1 10-5v1l13-6 2-1 1-1h1a86 86 0 0110-5v1l5-3h-1l6-2 3-1 1-1h2l2 1 5 2 6 3 3 1v1h2l1 1h0a20 20 0 015 2l5 2a6 6 0 01-2 0l3 1a43 43 0 006 2h-1l11 5h1l2 1 4 2 9 4h2l8 4h1l2 1 8 4v-1l1 1 14 7 4 1c2 1-1 0 0 1l11 4a25 25 0 004 3l3 1a3 3 0 011 0 1 1 0 01-1 0l-1 1h1l-5 2-2 2h-2v1l-1-1-1-1-3-3-3-3-1-1-3-2-1 1-1 1a5 5 0 000 1 6 6 0 00-1 0 7 7 0 01-2 3v-1l-1 2-1 1h-1l-2-1-3-2-6-4a3 3 0 011 0 17 17 0 00-4-2l-1-1-3-2-3-2-3-2h-1v-1h-1a11 11 0 01-1-1h-1l-1 1h-1l-1 1-5 3h-1l-3 1a20 20 0 00-4 3l-2 1h-1l-1-1h-1l-4-2-6-3 4 2-10-4h1l-3-1-2-2-4 2-3 2a3 3 0 011 0l-2 1 1-1-3 2c1-1-3 2-2 0v1h-1l-3 2a23 23 0 01-4 2h1l-2 1-1 1h-2l-1-1-3-1-2-1h-2 1l-5-1h1l-3-1 2 1-2-1-3-1h-1a14 14 0 01-2-1c-1 0 0 0 0 0a23 23 0 01-3 1 14 14 0 00-2 2h-2l-2 2a4 4 0 011-1l-8 4 1-1-3 2-1 1h-2l-2-1-2-1-4-2s1 0 0 0l-8-4-1-1h-1l-2 1-2 2s-1 1 0 0c-5 3-8 7-13 9l1-1-3 3 1-1a12 12 0 01-2 2h-1l-3 2a30 30 0 01-2 1h1a11 11 0 00-2 0 9 9 0 01-2-1h1l1 1-1-1-1-1-2-2 1 1-6-4h1l-1-1a33 33 0 01-3-3l-2 1-1 1h1l-9 5-5 4v-1l-2 1v1a7 7 0 00-1 0h-1v-1h-2a6 6 0 011 0l-4-1h1a28 28 0 00-5-1l1 1v-1l2 1h-1l7 2h-1 2a3 3 0 01-1 0l1 1a14 14 0 012-2v1l1-1s1 0 0 0l4-3v1l3-3h2l1-1c1-1 0 0 0 0a26 26 0 003-2l2-1c1 0 0 0 0 0h1a4 4 0 001 1 10 10 0 011 1s-1-1 0 0l4 3 4 3 1 1 1 1 4-2 4-2-1 1 1-1a8 8 0 012-1l6-4s-3 1 0-1l-1 1a8 8 0 012-1l-1 1 1-2h1a9 9 0 00-1 1 18 18 0 012-1l1-1 2-1 1-1a2 2 0 011-1l2-2a9 9 0 001 0s0-1 0 0v-1h1l1 1 3 1 4 3 6 2 1 1 1 1h1l1 1 1-1-1 1-1-1 1 1 1-1h1a18 18 0 002-1l2-1h-1l3-1h-1l10-5h-1a23 23 0 012-1h3a10 10 0 001 0 10 10 0 013 1h1l1 1h-1l3 1v-1l6 3v-1c3 2 1 1 4 1 1 1-1 1 2 1a4 4 0 011 1 2 2 0 01-1 0h-1 2l1-1h1l1-1h2-1l1-1h1v-1l3-2c-2 2 1 1-1 2a15 15 0 011-1l4-2 1-1c-1 1-1 0 0 0a21 21 0 003-2l-1 1a13 13 0 012-2v1a8 8 0 012-2h1l1-1a2 2 0 000 1h1l4 3h1l-4-2 3 1-3-2h1l4 3 8 4-1-1 4 2 1 1a6 6 0 011 0 5 5 0 002 1h2l6-4-2 1 2-1 3-1a4 4 0 012-1v-1a19 19 0 003-1l2-1 2-1 1 1a13 13 0 012 1l5 4 4 2c1 1-1-1 0 0l4 3 6 3-1 1a31 31 0 013 1l2 1 2 1v-1 1l1-2 3-1-2 1 3-2a24 24 0 001-2h1v-1a6 6 0 011 0l1 1h-1l3 2v1l6 4-5-3a36 36 0 004 3 9 9 0 01-1-1 20 20 0 011 1l1 1 2 1 1-1 8-3 1-1 1-1 4-2-6-3-4-2c2 2-1 0-1 1a9 9 0 01-2-1l-3-2h1l-2-1-2-1 1 1-6-3h1l-8-3s-1 0 0 0l-12-5a11 11 0 01-2-1v-1a23 23 0 01-4-1h1l-10-3c1-1-2-2-4-3l-13-5-13-7h-1l-3-1h1l-5-2-14-6-3-1-8-4h1l-5-1v-1l-2-1-5 3a41 41 0 00-4 2v-1l-5 3-6 3v-1a18 18 0 01-3 2c-1 1-1 0 0 0l-4 2 1-1a9 9 0 00-2 2 12 12 0 01-4 1 6 6 0 01-2 1c-1 0 0 0 0 0l-7 3 4-2h-1a44 44 0 01-5 3 1 1 0 01-1 0 8 8 0 00-1 0l-1 1a18 18 0 00-4 1c1 0-1 1 1 1v-1h1l2-1a9 9 0 01-2 1l-2 1-4 1-9 5a3 3 0 01-1 0 13 13 0 001 0l-5 2-2 1h1l-16 7a3 3 0 011-1L96 82a14 14 0 00-4 2l-2 1-9 4-4 2a2 2 0 01-1 0l-3 2-4 1-3 2 1-1-1 1h3l2-1h1l-2 1a7 7 0 002-2 2 2 0 001 0l2-1h1v-1h2c1 0 0 0 0 0a32 32 0 003-2l4-1a20 20 0 013-2c-2 2 4-1 3-1l8-3a2 2 0 01-1 0 27 27 0 013-1l3-2c2 0-1 1 0 1l2-2a5 5 0 012 0l2-1 2-1c1-1 0 0 0 0zm48-22l-1 1zm4-2l-2 1 2-1zm-10 2a2 2 0 011 0l-1 1a1 1 0 010-1zM153 56h1z" class="cls-5"/><path d="M142 83a1 1 0 010 1zM219 45v-1 1zM121 97zM113 98l-1-1 1 1zM107 93zM219 79v-1 1zM184 82l1 1-1-1zM257 81zM187 83a12 12 0 00-2 0 17 17 0 002 0zM76 98h-1zM75 98zM74 98h1a3 3 0 00-1 0zM85 100zM88 98l-3 2 3-2zM100 92l-2 2c1-1 1-1 0 0l2-2zM107 94c-2 0 0 1-1 1l1-1zM158 91v0zM168 87l-1 1 1-1zM175 86l2-1-2 1zM267 79a1 1 0 000-1v1zM303 90a6 6 0 002 2l-2-2zM231 47h1-2 1z" class="cls-5"/><path fill="#ff9e00" d="M66 96l72-32 11 1 11-6 13 4 12-7 13 5 11-5 11 5 12-7 12 7 10-3 72 33-13 7-11-10-8 7-28-18-19 10-23-11-22 12-22-7-20 11-18-10a240 240 0 01-27 19l-13-11-18 11z"/><path d="M66 95v1l1-1zM71 97h2-3l-1-1a9 9 0 00-2 0 12 12 0 004 1c1 0 0 0 0 0zM142 83zM188 85a1 1 0 00-1-1l1 1zM196 88v-1a2 2 0 000 1zM142 83h0zM82 100zM124 96h-1a3 3 0 000 1zM108 96h1a2 2 0 01-1 0zM86 100l-1 1zM134 89zM85 89zM66 96v-1zM212 85c-1 0 0 0 0 0zM316 85c1 1-3-1 0 0-1 0 2 1 0 0zM83 100zM316 85zM244 87zM220 80l1-1-1 1zM258 82a5 5 0 001 0h-1zM270 80h-1zM126 70s-2 1 0 0zM82 100a1 1 0 011 0h-1zM257 80l2-1-2 1zM225 59l-1 1a2 2 0 001-1zM266 75l1 1 1 1-1-1-1-1zM126 70z" class="cls-17"/><path d="M111 77l2-1h2l4-3v1l6-4a1 1 0 011 0h-1l2-1a2 2 0 00-1 0h1l-1 1 6-3-2 1-2 1c2 0-1 1 0 0l7-2v-1a15 15 0 012-1 7 7 0 011 0 4 4 0 001 0 8 8 0 002 0 7 7 0 014 0l-1 1a8 8 0 002 0 4 4 0 011 0 5 5 0 011 0h1-2a8 8 0 001 0 6 6 0 001 0h1a4 4 0 010-1l1 1 4-3 3-2 2-1s0 1 0 0l1 1h2l3 1 3 1 2 1h2l1-1 2-1h1v-1l4-2 2-1 2-1h1l1 1h-1l5 1 3 1 4 2 2-1 2-1 4-2a4 4 0 011-1h4l5 4a5 5 0 002 0l2 1h1v-1h1l1-1h0a19 19 0 015-2l2-2h1v-1h1l-1 1 1-1a2 2 0 010 1h1a45 45 0 005 3h-1l3 2 4 1 6-2h-1 1c1 0-1 0 0 0h1l1-1v1a4 4 0 011-1h1a3 3 0 001 1l9 4h2l8 4h1l2 1 8 4v-1l1 1 15 7h-1l4 2h1l10 5a25 25 0 005 2l3 2h-1 1l-5 3-3 2h-2l-2-2-3-2-2-3-2-1-2-3v1l-2 1v1a6 6 0 00-1 1 8 8 0 01-2 2v-1l-2 2-1 1v1l-1-1-1-1-3-2-6-3a3 3 0 011 0 17 17 0 00-4-3h-1l-3-2c-1-1 0 0 0 0l-3-2-5-3v-1h-3l-1 1-1 1-5 2h-1l-3 2a21 21 0 00-4 2l-2 1a2 2 0 01-1 1v-1 1l-1-1-2-1-3-1-6-3 4 2-10-5 1 1-3-2-3-1-3 2-3 2a4 4 0 011-1l-2 1h1l-3 2c1-1-3 2-2 0l-1 1-3 2a22 22 0 01-4 2l-1 1h-1l-1 1-1-1h-1l-3-1-2-1-2-1 1 1-5-2 1 1-3-1h2-2l-3-1a19 19 0 01-2 0l-1-1c-1 0-1 0 0 0h-1l-2 1a13 13 0 00-3 2l1-1-1 1h-1l-2 1h1l-8 4 1-1-3 2h-1l-1 1h-2l-1-1-3-1h1l-4-2-9-5 1 1-1-1-1-1-2 2-2 1v1l-13 8h1l-3 2h1a13 13 0 01-2 1h-1v1l-3 1a31 31 0 01-2 2c-1 0 0 0 0 0v-1a11 11 0 00-1 1 9 9 0 01-2-2l1 1v1a4 4 0 001 0v-1h-1l-1-1-2-2v1l-6-4h1l-1-2a33 33 0 01-3-2l-1 1h-1c-1 1 0 0 0 0l-8 6-6 4 1-1-2 1h-1v1h-1v-1h-3a6 6 0 012 0l-5-1h2a27 27 0 00-5-1h1c-1 0 0 0 0 0l2 1h-1l6 1h-1l1 1h1a2 2 0 011 0 2 2 0 01-1 0h1l2-1 1-1-1 1 5-3 2-2h2l1-1h1v-1a25 25 0 003-1l1-1h1c0-1 0 0 0 0v-1a4 4 0 001 1 10 10 0 012 2c-1-1-2-2-1 0 2 0 3 2 4 3 1-1 3 2 5 3v1h1l1 1 4-2 4-3-1 1 1-1a8 8 0 012-1l-1 1 6-4c0-1-2 0 0-2v1a8 8 0 011-1l-1 1 2-1a11 11 0 00-1 1 18 18 0 013-2h1l1-1 2-2a2 2 0 011 0l2-2v-1h2l1 1 2 1 5 2 5 3 1 1 2 1h3-1l-1 1v-1 1l2-1h1a18 18 0 002-2l2-1-1 1 2-2v1l10-5h-1a22 22 0 012-1h3a10 10 0 001 0 10 10 0 012 1h2c2 0 2 1 1 1l-1-1s-1 0 0 0l3 2-1-1 7 2h-1l5 1v1c0 1 0 0 0 0h2v1-1h-1l1 1 2-1 1-1 2-1-1 1 2-1h-1l2-1v-1l3-1-2 1a16 16 0 012 0l4-3h1v-1a24 24 0 003-1h-1a13 13 0 012-1h-1a8 8 0 012-1h2v-1a2 2 0 001 0l1 1 4 2h1l-4-1 3 1-3-2c1 1 1 1 0 0 2 1 4 1 5 3l8 4-1-1a25 25 0 014 2l1 1a6 6 0 011 0l1 1a2 2 0 001 0l1-1h1l6-3-2 1 2-1 3-2a4 4 0 012-1v-1a18 18 0 003-1l2-1h2l1 1a15 15 0 012 1l5 4 4 2c1 1-1-1 0 0l4 3 5 3a26 26 0 013 2l2 1 1 1 1-1v0l1-1 2-2-1 2 3-3 1-2a1 1 0 001 0 5 5 0 011 0l1 1 2 2v1l6 4-5-3a35 35 0 004 3 9 9 0 01-1-1l1 1h1l1 1 2-1 8-3 1-1h1l4-2-3-2-3-1-4-2h-2a10 10 0 01-1-1l-3-2 1 1-3-2-2-1 2 1-7-3 2 1-9-4-12-5a11 11 0 01-2-1 21 21 0 01-3-2l1 1-10-4-5-3-6-3-3-1-1-1h-3a37 37 0 00-4 1l-5 2v-1h-2l-2-2h-1l-2-1a6 6 0 00-1-1l-2-1-1-1a3 3 0 00-1 0l-2 1a34 34 0 00-5 3 128 128 0 01-5 2v0a4 4 0 01-1 0h-1l-2-1-3-2-2-1-2-1-1 1 1-1-2 1c-1 1 0 0 0 0l-1 1a7 7 0 01-2 1l-4 1-2 1h-2l-2-1h1l-6-2h-1l-2-1h-1l-3 1h1a17 17 0 01-4 2c0 1 0 0 0 0l-3 2 1-1a9 9 0 00-3 2l-1 1h-1a2 2 0 01-1-1 6 6 0 01-2 0c-1 0 0 0 0 0l-7-2 4 1s-2-1 0-1h-5v-1h-1l-1 1a1 1 0 01-1 0 8 8 0 00-1 0l-1 1a17 17 0 00-3 2s-1 0 0 0h1v-1l2-1a9 9 0 01-2 1l-1 2a25 25 0 00-3 1h-4l-2-1a24 24 0 00-5 0h-1 0-2l-1 1a4 4 0 00-1 1h-2l-15 7-22 10a14 14 0 00-3 2l-1-1-2 2-9 3h1l-4 2a2 2 0 01-1 1l-4 1-3 1-4 2h2l-1 1h2l2-1 1-1-2 1a7 7 0 003-1 3 3 0 001 0l2-1s-1 0 0 0l1-1 2-1-1 1a32 32 0 004-2l3-1a21 21 0 013-2l4-1 7-4a2 2 0 010 1 28 28 0 012-1l4-2-1 1 2-2a5 5 0 012 0l3-2 2-1-1 1zm49-17h-1zm4 1l-2-1 2 1zm-9 0l1-1-1 1zM154 62v-1zM141 83h1-1zM220 62z" class="cls-17"/><path d="M121 96a1 1 0 000 1 1 1 0 000-1zM113 98l-1-1 1 1zM107 93h-1 1zM219 78zM184 82zM257 80zM187 83a11 11 0 00-2-1l2 1zM75 98zM75 98zM74 97l1 1a3 3 0 00-1-1zM85 100v-1 1zM88 98l-3 1 3-1zM100 92l-2 1v1l2-2zM106 94c-1-1 0 0 0 0 1 1 1 1 0 0zM158 91c1 1 0 0 0 0zM168 87h-1v1l1-1zM175 85v1l2-1h-2zM267 79c0-1-1-1 0 0zM303 90a6 6 0 002 2l-2-2zM230 54v-1l-1 1h1z" class="cls-17"/><path d="M303 81l1 1h1l1 1 2 1-1-1 3 1-3-1a20 20 0 01-2-1h1l-3-1zM301 79h-1l-2-1s-1 0 0 0l1 1-2-1a23 23 0 002 1l3 1 1 1h-1v-1a10 10 0 01-1 0l2 1a35 35 0 00-3-2h1zM303 81zM162 79a2 2 0 000 1l4-3s-1 1 0 0a9 9 0 00-2 1l-1 1-3 2 2-2zM91 90l1-1-1 1zM160 81l-2 1 2-1zM165 76h-1zM144 76zM176 68l-2 1c1 0 0 0 0 0l-1 1 1-1a12 12 0 01-2 2 9 9 0 002-1l1-1 1-1zM120 76zM120 76s1 0 0 0zM160 81z" class="cls-18"/><path d="M161 80l2-1 1-1zM147 74l-1 1-2 1 3-1a15 15 0 01-3 2l1-1a5 5 0 00-2 1 53 53 0 01-4 2 14 14 0 00-2 2l3-1h-1l1-1 1-1a6 6 0 011 0h-1l3-1 3-2h-1a22 22 0 012-1l2-1 1 1a26 26 0 002 3l2 2 1 1v1l2 2v-1 1-1c-1-1-1-1 0 0l-1-1-1-1v-1c0 1 1 1 0 0l-3-4-2-2v-1h-1v1l-3 1a16 16 0 012-1l-2 1z" class="cls-18"/><path d="M152 74v-1a2 2 0 000 1zM150 72l-1 1zM159 81h1-1zM160 81zM133 82z" class="cls-18"/><path d="M143 77l2-2-1 1 5-3 1-1h1l1 1s1 1 0 0l-1-1v-1l-1 1 1-1-2 1-2 1a6 6 0 01-1 1c-1 1-6 3-5 4l2-2zM157 80zM173 74l-1 1-6 3c0 1 0 0 0 0l-3 2-1 1-2 1a70 70 0 01-2 1l-1-1 1 1a6 6 0 00-1-1l1 1 1-1-1 1 1-1h1l1-1a8 8 0 001-1h1l1-1 1-1 3-2 2-1-3 3h-2a25 25 0 013-1l3-2c1-1 1 0 0 0a8 8 0 012-1zm-2 1l-1 1a7 7 0 001-1zM288 80zM204 68v-1zM218 69zM282 77v-1zM244 70zM218 69zM198 70v1zM199 70v1zM182 65h-1zM197 71zM292 78zM294 76h1-1zM253 74h0zM289 81a4 4 0 011 0h-1zM290 81zM248 75zM295 77h1a13 13 0 012 1 12 12 0 01-1-1l1 1c0-1 1 0 0 0l-4-2-1 1h-1 1l1-1h2l1 1h-1l-1-1h-1l-2 1 2-1 1 1h1l-1-1a7 7 0 010 1zM294 78zM183 67zM292 78zM187 70zM190 69zM187 70zM215 71zM209 69zM252 74zM187 70zM224 69zM227 68a31 31 0 003-1 10 10 0 01-2 0l-2 1-1 1c-1 1 0-1 0 0h-2 2-1l3-1zM227 68zM237 68v1z" class="cls-18"/><path d="M165 78a6 6 0 001-1h-1zM264 69h-1a5 5 0 001 0zM229 67a2 2 0 00-1 0 4 4 0 001 0zM264 69a2 2 0 011 0l1-1-2 1zM266 68z" class="cls-18"/><path d="M164 78l-1 1h-1l-3 2-1 1a63 63 0 010-1l-1-1a16 16 0 00-1-2v1l-2-2 2 1-3-4-1-2c1 1 0 0 0 0l-1-1v-1a10 10 0 00-2 1l-1 1-5 4a4 4 0 00-2 0l-2 2a13 13 0 002-2h1l-4 3a19 19 0 00-4 2l-1 1a1 1 0 000-1 35 35 0 00-3 2l-3 2c-1 0 0 0 0 0l-3 2a6 6 0 01-3 1 1 1 0 010-1 1 1 0 01-1 0 1 1 0 001 0 1 1 0 000 1h1a4 4 0 01-1 0v-1a1 1 0 010-1v1a3 3 0 010-1 2 2 0 010-1 3 3 0 000-1l1-1a13 13 0 011-3 4 4 0 00-1 1 8 8 0 011-2l2-3 1-2h-1l-1 1-1 1-3 1h-2l-6 3h1l-5 2-1 1v-1l-13 7 1-1h-1l-2 1s-1 1 0 0l-8 4 4-2h-1l2-1-2 1a16 16 0 00-1 1l7-4c1 0 0 0 0 0l3-1h-1l5-2 2-1h1l6-3c-1 0 0 0 0 0l4-2 6-3-3 2 2-1a15 15 0 00-2 1l3-2h1l4-2a13 13 0 00-2 1h-1a3 3 0 01-1 1l3-2 3-1h1l1-1h1l-2 2-1 3-1 2-1 1a32 32 0 00-2 4 2 2 0 010 1 4 4 0 000 1 1 1 0 001 0 3 3 0 01-1 0 2 2 0 001 0 1 1 0 011 0h-1a4 4 0 001 0l2-1h-2a100 100 0 016-3c1-1-1 1 0 0l5-4c2 0-2 2 0 1l-3 2 2-1 1-1-1 1 7-5 6-4h2l1-1a8 8 0 001-1l-2 1 2-1 1 1v-1a8 8 0 001 2l2 3 1 1v1a27 27 0 012 3v1h1a45 45 0 014-3c-1 0-1 1 0 0l1-1h1l3-2a12 12 0 00-3 1 13 13 0 00-2 2l5-4a58 58 0 00-5 3h1-1 1l-3 1h1a16 16 0 00-2 1h1l-2 1h-1v-1 1l-1-2v-1l-3-3a23 23 0 013 3l-1-1a50 50 0 012 3v1h1l-1-1-1-1 2 2v-1l3-1h-1l4-2-1 1a52 52 0 015-3l1-1h-1a23 23 0 002-1l1-1-1 1a7 7 0 002-1 15 15 0 01-3 2l1-1a11 11 0 01-1 1c1 0 1 0 0 0v1l1-1h1l3-3a29 29 0 012-1l1-1h1l2-1h-1l3-1c-2 1-1 0 0-1l1 1a10 10 0 001 1l1 1 3 1 2 1h-1c1 0 0 0 0 0a38 38 0 00-4-3l2 1a13 13 0 01-2-1l-1-1-1-1h-1l-1 1 1-1 1 1a12 12 0 00-1-1l-1 1h-1v1h-1l1-1 2-1h-1l1-1 2 2-1-1 2 1v1a3 3 0 011 0 7 7 0 001 1 23 23 0 014 3l-1-1a15 15 0 002 2c1 0 1 0 0 0l1 1h1l1-1a29 29 0 014-2v1l3-2 3-2h2l3 1h-2a22 22 0 00-3-1h-1v1h-1l-1 1h1-2l-2 2a10 10 0 012-1v-1l-3 3a4 4 0 010-1l-2 1-1 1h-1 2v-1l3-1a17 17 0 00-2 2h-1 1l3-2-1 1 1-1 3-2a7 7 0 00-1 1l1-1h1l1-1h3l1 1h3a11 11 0 002 1l-1-1a4 4 0 00-2 0h-3 1l-2-1h-1 2a11 11 0 001 0h-1l3 1h1l-3-1 5 1a20 20 0 003 1h2l1-1a20 20 0 01-2 1h-2 2a2 2 0 001 0l1-1-1 1h-2v1l-1-1h-1a10 10 0 00-1 0l3 1 3-1a14 14 0 002-2l5-1a18 18 0 002-1s-1 1 0 0h2a22 22 0 01-3 1s1 0 0 0a36 36 0 01-3 1h-1a4 4 0 00-1 0h1l2-1a26 26 0 01-2 1l-1 1s3-1 1-1l4-1 2-1-1 1 2-1h1l1-1 1 1c1 0 1 0 0 0l-1-1h-1 1l1 1h1l1 1 7 4c-1-1-1-1 0 0l-3-2a12 12 0 012 1l-3-1-4-3h-1v1h2l2 2a5 5 0 000-1 24 24 0 002 2l2 1h1l1 1a15 15 0 002 1l-2-1 2 1h1v1h2a17 17 0 00-3-1l3 1a11 11 0 011 1l-1-1a2 2 0 010 1 12 12 0 00-2-2v1l2 1 1 1h1v-1h2c0-1 4-2 2-2a28 28 0 003-2l-1 1a21 21 0 002-2s1 0 0 0l4-2 2-1h1l1-1 2 2a20 20 0 002 2h1l1 1 3 2 2 2-3-2s-1-1 0 0l-3-2a5 5 0 001 0l-1-1 3 3-2-1h1l1 1 4 3v-1l2 2-3-2 1 1 1 1 2 1 2 1 1 1-3-3h-1l1 1-1-1h-1 2l2 2 1 1 1 1a3 3 0 011 0l2-2v1a10 10 0 003-2h1v-1l1 1-1-1-1 1a7 7 0 00-1 1 21 21 0 00-2 1l2-1c1 0 0 0 0 0l-4 3h-1a28 28 0 00-2-2v1l-4-3-1-1-2-1v1l2 1 2 1 1 1 1 1a6 6 0 000-1v1l1 1 2 1 2-1 1-1-1 1 2-2-2 1 2-1 2-1h-1a20 20 0 012-1l2 1a7 7 0 01-1 0l-1-1v1h-1l-1 1a8 8 0 002-1 15 15 0 01-2 1l-2 2a1 1 0 000-1l-1 1-2 1h1a6 6 0 01-1 0h-1l1 1-1-1-1-1-2-2h-1a3 3 0 01-1-1l1 1-1-1-1-1a12 12 0 00-2-1 11 11 0 00-1-1 25 25 0 00-3-2s5 3 0 0l-2-1a12 12 0 00-1-1 11 11 0 001 1l-2-1-1-1-1-1a2 2 0 00-1 0l-3 2 1-1h-1 1l1-1-2 1h1l-3 1h1l-7 4a4 4 0 01-2 0l-1 1-2 1-2-1-1-1s1 0 0 0h1l1 1 1 1 1-1v1h-1l-1-1h-1l-1-1-3-1-1-1c1 0 1 1 0 0l-4-2a4 4 0 01-2-2l-4-2h-1c-1 0-1 0 0 0l-5 2h1l-8 2h-2v1h-2v-1a3 3 0 01-1 0h-1a4 4 0 00-1-1c1 1-1 1 1 1a27 27 0 01-5-1h2l1 1-3-1a4 4 0 01-1-1h0l4 1-5-1a3 3 0 00-2-1v1l-3 2 2-1 2-1h0a3 3 0 00-1 0l-3 2-4 2h1l-3 2h-1l-1 1-1-1a10 10 0 00-1 0v-1a26 26 0 00-3-2l2 1a58 58 0 00-6-4h-1 1l-2-1a1 1 0 010-1v1h1l2 1-2-1-1-1h-1l-1 1s0-1 0 0h-1 1l1-1v1h-1l-2 1h1l-3 1s1 0 0 0a10 10 0 00-1 1l1-1 2-1h-1 1l-3 2c-1 0 1-1 0 0l-2 1a11 11 0 00-1 1l-2 1h1l1-2-8 5 2-2 1-1c0 1-3 2-1 2l5-4-4 3 1-1-4 2 2-1a9 9 0 00-3 2zM94 88zm97-17l-6-4c3 2 5 4 0 0l3 2 2 2h1a3 3 0 001 0 14 14 0 00-2-1zm1 1l1 1-2-1h1zm1 0a2 2 0 01-1 0zm-20 0l-1 1 1-1zm2-1h-1a1 1 0 001 0zm7-4l1-1h0l-1 1-2 1 2-1zm93 5a2 2 0 000 1l-1-1a33 33 0 00-3-3 8 8 0 01-1-1v1l5 3zm-17 0l-3 2-4 2-1-1a9 9 0 001 1l2-1v1h-2a8 8 0 000 1l1-1h1l3-2-2 1 4-2a6 6 0 00-2 1v-1l5-2 2-1h-1 1l2-1 1-1h1v-1a9 9 0 00-1 1 8 8 0 01-1 1l2-1a9 9 0 00-1 0 9 9 0 001-1 26 26 0 01-2 1 8 8 0 00-2 1 26 26 0 01-2 1zm-47-3l6 2h1l6-2a23 23 0 00-3 1h2l2-1-1 1a16 16 0 00-2 0 21 21 0 00-4 1h2l3-1-1 1 1-1-1 1 3-1 2-1h-1a15 15 0 01-1 1v-1l-2 1 2-1s1 0 0 0l3-1h1a19 19 0 002-1l3-1v1h1a6 6 0 00-1 0v-1l2 1h-1l2 1-1-1 1 1a5 5 0 002 1l-2-1 5 2h-1a9 9 0 002 1l3 1h-1a16 16 0 002 2h2l-5-2h1l-5-3-2-1h1l-2-1-3-1a7 7 0 01-1 0l-2 1 2-1a6 6 0 00-1 0s1 0 0 0h-1l-9 3h1l-3 1 1-1a43 43 0 00-3 1h-2l-3-1zm-6-1l-1 1-2 1h1s-1 0 0 0l-2 1 1-1-2 1-1 1-2 1h1a19 19 0 01-2 1h-2l-1-1 1 1-1-1v1l-1-1 2 1 1 1 2-1h-1l3-2 4-2a9 9 0 002-1l1-1h1-1a6 6 0 01-1 1l1-1h-1c1 0 1 0 0 0zm-28 0z" class="cls-18"/><path d="M293 77h1a4 4 0 01-1 0s-1 1 0 0zM294 77h-1zM295 78a14 14 0 012 1l-2-1 3 2a17 17 0 00-3-2zM294 78h1-1zM276 72l-1-1a9 9 0 001 1zM115 77l-7 3zM252 75l5-3a25 25 0 00-3 1l-1 1h-1v1z" class="cls-18"/><path d="M252 74c1 0 0 0 0 0a5 5 0 011-1zM262 71zM245 71l-1-1 1 1zM246 71h-1zM262 72l1-1-1 1zM254 75s-1 0 0 0zM239 67h-1 1zM247 74h-1 1zM236 67zM236 67l1 1a7 7 0 00-1-1zM231 67h1c-1 0 0 0 0 0v-1h1-1l-1 1zM213 68h2a15 15 0 002 1l-4-1zM217 69zM236 69v-1 1zM211 67h0zM216 70l2 1a5 5 0 00-2-1zM206 66s1 0 0 0c1 0 2 0 0 0zM213 69l1 1h1l-2-1zM217 72c1 0-2-1 0-1h-2l2 1zM215 71zM200 72v-1zM209 70h2l-4-1a20 20 0 002 1zM193 70v1l-1-1h1zM192 70zM203 70l1-1a7 7 0 00-1 1zM188 67l1 1-1-1zM181 65h-1 1zM188 71h1l-1-1 1 1zM148 70l1-1a17 17 0 012-1l-1 1 1-1h1c1 2 0 1-1 0l-3 2 3-2 1 2 2 2-1-2 1 1 1 2c-1-1 0 0 0 0v1-1l-1-2-1-1-1-2-3 1-1 1h-1 1a20 20 0 00-2 1l-3 2h-1l-14 9 2-1h1a13 13 0 01-2 1h1l4-3s-1 1 0 0l3-2v1l3-3 4-3-1 1 2-1v1l3-3c1 0 0 0 0 0zM154 72zM127 83l1-1-1 1zM157 76l1 1-2-2zM156 74a4 4 0 01-1-1l1 2v-1zM154 76l-1-1 1 1z" class="cls-18"/><path d="M150 71a4 4 0 001 0zM151 72h-1 1zM122 85zM128 83c-3 1 1-1 0-1l-1 1-1 1a12 12 0 01-2 1h-1v-1a34 34 0 012-4c0-1-1 1 0 0l-2 3a5 5 0 000 1l-1 1h1a3 3 0 010 1h-1v-1a1 1 0 000 1h1v-1a44 44 0 005-2zM116 77zM117 76h1l-2 1a9 9 0 011-1zM120 75c-1 0-1 0 0 0l-2 1a9 9 0 002-1zM127 76v-1l-1 2 1-1zM127 75l1-1a5 5 0 000 1zM130 71h-2zM129 72h1v-2a1 1 0 000 1 1 1 0 010-1z" class="cls-18"/><path d="M128 74a14 14 0 002-3v1zM145 75l-1 1 1-1zM139 79zM136 82h-1l2-1s-1 0 0 0v-1l2-1-6 3v1a13 13 0 003-1zM138 81l1-1-1 1zM125 86v1l1-1a2 2 0 01-1 0zM127 86h-1zM125 86zM124 73a13 13 0 00-2 1l2-1zM98 85zM90 90zM90 90l-2 1-1 1 3-2z" class="cls-18"/><path d="M17 205h131v55H17z" class="cls-19" transform="rotate(-1 82 232)"/><path d="M142 233v-1l-1-1v-1l1 2v-1a13 13 0 000 2zM147 224a12 12 0 011-1 3 3 0 010-2 5 5 0 010 2v1h-1zM138 223a2 2 0 010-2l-1 1 1-2a17 17 0 010 3z" class="cls-20"/><path d="M81 217v17a27 27 0 00-1 4v3c0 1 0 0 0 0a23 23 0 000 4v-3-6-1-2-1-2-2-2-5-3-1-2-2-1-6l-1-1a132 132 0 000 16v8l-1 2v-2-2-1-4-8-1-4a14 14 0 000-3c0-1 0 0 0 0a10 10 0 000 2v24a20 20 0 010 3 8 8 0 000 1v9l-1 4v-6a40 40 0 010-5v-8-9a1 1 0 00-1-1v11a4 4 0 000 1 6 6 0 000 2v17c0 1 0 0 0 0v4l-1-9v-2-1-1-3l1-5v-4-1-1a33 33 0 010-4v-4-2l-1-1a14 14 0 000 3v29l-1 2a25 25 0 010-3v-4-1c0-1 0 0 0 0v-5-2-2l1-2v-2-7-1-3-3-4c0 1 0 0 0 0a3 3 0 00-1 1v18a23 23 0 010 2v12l-1 5v-5-1-1-2-2-4a36 36 0 001-4v-6a5 5 0 000-1v-1-1-4-1-4a31 31 0 00-1 4v13a29 29 0 010 4 2 2 0 010 1 33 33 0 000 5 29 29 0 000 4l-1 2v-6-1-4a26 26 0 000-4v-1-4a25 25 0 000-4h1v-4a6 6 0 000-2h-1a9 9 0 000-2 17 17 0 00-1 3v0a5 5 0 000-2 28 28 0 00-1 4 47 47 0 000 5 4 4 0 000 2v22l-1 1a36 36 0 010-3v-1-9a71 71 0 000-7c0-1 0 1 0 0v-3-8a13 13 0 000-3v6l-1 4v6a35 35 0 000 5l-1 8v-7-3-1-1-4l1-1v-7-2-1h-1v2a11 11 0 00-1 2 9 9 0 000 3 13 13 0 000 2 11 11 0 000 3v6a6 6 0 000 2v4a20 20 0 000 2l-1 2a14 14 0 010-3v-5-2-3a23 23 0 000-4v4a27 27 0 000 2 44 44 0 00-1 6 5 5 0 010 1 7 7 0 010 2v2a8 8 0 010-2v-10a6 6 0 000-2l-1 1v3a31 31 0 000 5v5l-1 3v-3a31 31 0 000-4v-4a32 32 0 000-4 14 14 0 000-2v-6a10 10 0 000-2v1l-1 5 1 1-1 4v4a31 31 0 000 4 14 14 0 000 3v2l-1 3v-6-6a15 15 0 000-2v-1a6 6 0 011-2v-4l-1 1a4 4 0 010 2v4a4 4 0 000 1 41 41 0 01-1 5v-5a16 16 0 000-3 17 17 0 001-4l-1 2v3l-1 2v5a6 6 0 000 2v2l-1-8 1-5a5 5 0 000-2h-1v1a3 3 0 000 1 16 16 0 010 2 14 14 0 01-1 2l1 1-1 2v-4-1-1a42 42 0 000-6l-1 2v4a17 17 0 010 4v1a11 11 0 000 3l-1 2v-4-3-5h-1a42 42 0 000 5l-1 4v2a61 61 0 010-6v-1-1-2a28 28 0 000-4 18 18 0 000 4 1 1 0 00-1 1v2a6 6 0 000 1v6l-1-7a28 28 0 000-4v-3l-1 1a38 38 0 000 4v6a24 24 0 010 3l-1 2a12 12 0 010-3 45 45 0 010-7v-4a9 9 0 000-2l-1 1a24 24 0 000 3 49 49 0 000 6 6 6 0 000 1 13 13 0 000 3 8 8 0 000 2l-1 4a16 16 0 010-4v-1-5-2-2-4a6 6 0 000-1v-1a11 11 0 000-2l-1 1a21 21 0 010 2v7a11 11 0 000 2 26 26 0 00-1 4v3a9 9 0 010 2l-1 2v-10-1a45 45 0 010-5v-1-2 1l-1 1v13l-1-2v-1-1-1-2-7a7 7 0 000-1h-1a14 14 0 000 3v6l-1 5a19 19 0 010-3v-2-2-2a8 8 0 000-2l-1 1v7l-1 2a7 7 0 010-3l-1-6v2a10 10 0 00-1 2v3a6 6 0 010 2 5 5 0 01-1-1v-1l-1-3-1 1v-2l-1-1v-1-1c0-1 0 0 0 0l-1-1h-2l-2-3-1-2-1 2-1-1c0-1 0 0 0 0h-1l-2 1h-1v1a16 16 0 00-1 2v1c0-1 0 0 0 0l1-1 1-1v-1a4 4 0 011-1 2 2 0 011 0 2 2 0 011 0l1 1v1l1-1v-1a1 1 0 001 1 9 9 0 001 2l1 1v2l1-1v-1l1 1 1 3a3 3 0 011 1 14 14 0 000 2l1-1a10 10 0 010 2l1 1a5 5 0 000 2h1l1-6v-1-2 2l1 3a20 20 0 000 2 3 3 0 000 2l1-4a6 6 0 011-2 24 24 0 010 4 7 7 0 010 1 6 6 0 000 3l1-2v-3-1-3-4l1-2v16l1-1a25 25 0 010-3 13 13 0 010-2l1 7v2a27 27 0 001-4l1-6v-2-3-2-1a34 34 0 010-5 14 14 0 010 3v15a15 15 0 011 3v1l1-1v-1-1a34 34 0 010-3 11 11 0 010-2l1 3a7 7 0 000 1v1h1v-3-5a20 20 0 001-4v-3 6a68 68 0 000 7l1-1a30 30 0 000-3v-1 4l1 2v-2l1-5v-2-1c0-1 0-1 0 0v8a10 10 0 001 3l1-6v-1-3-1 10a5 5 0 000 2h1a61 61 0 000-6v-1h1v-1 6a7 7 0 000 3v-1a53 53 0 001-6v-1 4a12 12 0 001 3v-1-2l1 6a7 7 0 000 2v-1a6 6 0 000-1h1v-1-1-2 8a1 1 0 011 0 21 21 0 010-2 3 3 0 010-1v-2-1-2a29 29 0 011-3 12 12 0 010-2v-2 6l1 1v-7l1 6v3a5 5 0 010 1l1 1v-3a24 24 0 010-2l1-1a21 21 0 000 4s0-1 0 0v10l1-4a36 36 0 000-6v-1a59 59 0 001 5v2a5 5 0 001-2v-4 8l1-2a18 18 0 000-3 24 24 0 000-2v-1-2 7a4 4 0 000 1 22 22 0 001 2v-4l1-1v4a4 4 0 000 1v1a7 7 0 000-1v-1l1-1v1l1-2v-2-2a22 22 0 010 3v5a10 10 0 000 2l1-2v-1-1a30 30 0 010-4 24 24 0 001 2v-2l1-1a2 2 0 000 1 28 28 0 000 6 4 4 0 000-1l1-1v-2a8 8 0 010-1v5c1 1 1-1 1-2 0 1 0 0 0 0l1-3v-1 6l1-3v-5a17 17 0 011 2 11 11 0 010 1l-1 2 1 2v-3l1-4a5 5 0 010 2v7h1v-11l1-5v-2 5a16 16 0 000 3v8l1 1v-4l1-1 1 1a13 13 0 010-2l1-8a12 12 0 010-3v7a13 13 0 000 3v1l1-3s0-1 0 0a6 6 0 010 1v9l1-3a29 29 0 010-3v-1-5a12 12 0 011 3v-4a25 25 0 010 5c0 1 0 4 1 3v-6l1-1v-4 4h1a17 17 0 000-3v-3-1-1-4-1a6 6 0 010 2 5 5 0 010 2v7l1 1a11 11 0 000 1v1l1-5v-5-1-6-6-1-2a6 6 0 010-1 6 6 0 010 2v4a37 37 0 000 5v8a12 12 0 000 2 23 23 0 000 4v1a32 32 0 001 6l1-4v-2-2-4-1-4-2a6 6 0 010 3 16 16 0 000 4 9 9 0 000 3v8l1-1v-4-1-1-1-3-3-4-6a26 26 0 000-3l1-2v7a16 16 0 010 3v1a6 6 0 000 1v1a16 16 0 000 2 12 12 0 010 4v6a58 58 0 000 7v-1a8 8 0 001-2 14 14 0 000-2v-3-1-2-2-2-5-2-1-2-4l1-3v-1a10 10 0 010 3v6a8 8 0 000 1v5a3 3 0 000 1 13 13 0 000 3v7a5 5 0 000 1 22 22 0 010 3l1-3v-2a9 9 0 010-2v-2-1l1-4v-3-1-3-3-1-1a11 11 0 010-4v10a6 6 0 000 2v4a12 12 0 000 2v7h1a15 15 0 000-2v-7-8l1-3v-6a12 12 0 010-1v-1a11 11 0 010 2v5a13 13 0 010 3 6 6 0 000 1v1a24 24 0 010 5v11a6 6 0 000 1l1-4a20 20 0 000-3v-2l1-5v-6-1-4-3 9a42 42 0 000 5 6 6 0 000 2v2a27 27 0 000 3v7l1-2v-5-1-2-2-3l1-3v-1-4-2 6a1 1 0 010 1 8 8 0 010 1 27 27 0 000 4v3a11 11 0 000 3 18 18 0 000 3 13 13 0 000 3v1c1 1 1-1 1-2v-1-2-1-1-1-4-3l1-1v-3-2a16 16 0 010-2v-2 11a4 4 0 000 1v3a23 23 0 000 4v5l1-1a9 9 0 010-1v-2a21 21 0 000-3v-1a24 24 0 000-4 13 13 0 000-1l1-9a20 20 0 010-3v-1 9a20 20 0 000 3v10a5 5 0 000 1v1h1a15 15 0 000-3v-4l1-1a8 8 0 01-1-1l1-8v-5 17a32 32 0 000 6l1-2v-6-3-5-6a12 12 0 000-1 7 7 0 011-3 14 14 0 010 3v10a26 26 0 000 4v1a14 14 0 010 2v5a22 22 0 000 4l1-1a13 13 0 000-2v-1-1-6l1-8a29 29 0 000-3v-2-3-1a21 21 0 010 4v11l1 1-1 2 1 6a14 14 0 000 2 10 10 0 010 1l1-4v-1-2-1-6a11 11 0 000-1 20 20 0 010-4 24 24 0 010 3v3a18 18 0 000 3v3a36 36 0 000 6h1v2l1-2v-2-3-3-2-1-4-5l1-1a6 6 0 010 1v1a13 13 0 000 2v6a4 4 0 000 1v4a28 28 0 000 4v-3l1-4v-2-3-1-2-2-4a29 29 0 000-4v-2 5a4 4 0 000 1v14a6 6 0 000 1v2l1 1v-2-2-1 7l1-1v-11a4 4 0 000-1v-4a15 15 0 010-3 6 6 0 010 2 26 26 0 010 3v4a3 3 0 000 1v6h1v-2l1 2c1 0 0 0 0 0v-3a14 14 0 011-2v-4-3l1 3a19 19 0 010 3v4 3a3 3 0 000-1v-1a8 8 0 011-1v-2s0 1 0 0a5 5 0 010-1v-2a31 31 0 000 3 17 17 0 001 4v-1-1a4 4 0 010-2h1v1l1-2a21 21 0 010 3 9 9 0 000 2v-5l1-2v-3 3l1-1a29 29 0 010-3 15 15 0 010-3v-3a4 4 0 000 1v3c0 1 0 0 0 0a4 4 0 000 1h1v1l1-1a6 6 0 000-2v-1a7 7 0 001-1v-1 1h1v-1 2h-1v3a5 5 0 000-1 6 6 0 011-1v-1l1-2 1-2v1l1-1a16 16 0 010-1l1-2v-3 1h-1v1c0-1 0 0 0 0l-1 1v-1a2 2 0 01-1 1v1h-1l1 1v1l-1 2c0-1 0 0 0 0a7 7 0 000-2v-1s0-1 0 0c0 0 0-1 0 0h-1v1s0 1 0 0a6 6 0 000-1v-1a3 3 0 000-1h-1c-1 0 0 0 0 0a9 9 0 000 1v2l-1 2v-4a4 4 0 000-2l-1 2v1a7 7 0 00-1-2v2h-1a8 8 0 010 3v-2a4 4 0 00-1-1h-1v0l-1 2a14 14 0 010 2v6a4 4 0 010 1v2a55 55 0 010-7 25 25 0 010-3v-1c0-1 0 1 0 0a10 10 0 00-1-3v1c0 1 0 0 0 0l-1 3v-5h-1v-1l-1 6v10a31 31 0 010-3 23 23 0 010-4v-7l-1-1a6 6 0 000 2v2a6 6 0 010 2v-4h-1v-3-2h-1a17 17 0 000 2v7a3 3 0 000 1 38 38 0 000 4v4l-1 1v-1-2-2-2a25 25 0 000-4h-1v15a9 9 0 010 2v2l-1-3 1-4a10 10 0 01-1-2l1-4v-2-2-1a18 18 0 00-1-3v-1a5 5 0 000 2v3l-1-5v8a11 11 0 000 1 10 10 0 000 2 7 7 0 000 1l-1 11v-23l-1-1a9 9 0 00-1 3v2a58 58 0 000 6 5 5 0 000 1v1a5 5 0 000 1v5a30 30 0 000 5v1a4 4 0 01-1-1v-2-2-6-1-2-2-1a5 5 0 000-1v-1-4-1-2h-1v8a17 17 0 000 2v3a7 7 0 000 1v2a13 13 0 010-2v-2-2-1-2a36 36 0 00-1-6v6l-1 2v1a22 22 0 000 4v4a4 4 0 010-2v-4-2-3-1-2a13 13 0 010-2v-1h-1a4 4 0 000 1 15 15 0 000 2v3c0 1 0 0 0 0v1l-1 6v-4-1-5l-1-1v14l-1 4a12 12 0 010 2v-4-9-5a8 8 0 000-2h-1v14a20 20 0 000 2l-1 1a24 24 0 010 3v2a4 4 0 010-2v-2-1-1-4a13 13 0 000-2v-3a28 28 0 000-4 46 46 0 000-6l-1-1v8a2 2 0 000 1 10 10 0 010 1v1a12 12 0 010 1v2a21 21 0 000 3 5 5 0 000 1v1a19 19 0 000 2l-1 1a17 17 0 010 3v-3-1-1-4-3-1-9a28 28 0 000-3h-1a6 6 0 000 2v9l-1 1v-9h-1a3 3 0 000 1v11a7 7 0 000 1l-1 9v-3-4a19 19 0 000-2v-1-2-4-1c0-2 0-6-1-5a43 43 0 00-1 6v20a9 9 0 010 2 10 10 0 010-2v-7-2-3-4-2-1a47 47 0 00-1-7 16 16 0 00-1 2v10a31 31 0 000 4v7a9 9 0 010 2v-7-2-2-3-2-7a12 12 0 00-1-2s0-1 0 0a32 32 0 000 5 9 9 0 000 2v14l-1 6a19 19 0 010-2v-2-11-2-1-1-1-1-1-1a30 30 0 00-1-6s0-1 0 0v6a19 19 0 000 3v4a26 26 0 000 5v4l-1 1v-7-8a27 27 0 000-5h-1a16 16 0 000 3v5c0 1 0 0 0 0a17 17 0 000 3v1a5 5 0 010 2v-3-1-2a18 18 0 010-2 13 13 0 010-3v-1-5h-1v-1l-1-2v2h-1v-1h-1v20a11 11 0 000 1v-4-6-6a17 17 0 010-3 55 55 0 010-6 22 22 0 010-2h-1a9 9 0 000 1 15 15 0 010 3l-1-1a13 13 0 00-1 3v-2h-1v22a24 24 0 000 3 34 34 0 010 4l-1-8a5 5 0 001-1l-1-17a11 11 0 010-1v-5l-1-5s0 1 0 0a35 35 0 000 4v3a7 7 0 010 1v3a46 46 0 010 5 4 4 0 010 1 8 8 0 000 1 6 6 0 010 2 3 3 0 010 1v2l-1 1 1 4a7 7 0 000 2 2 2 0 00-1 1v6a12 12 0 000 3v-9a3 3 0 000-1v-5-2-1-3-1-1-11a14 14 0 000-3l-1 1-1-4v10l-1-1v-8h-1a69 69 0 000 9zm64 7a2 2 0 010-1 4 4 0 000-1l1-2v-1 1l1-1c1 0 0 0 0 0v1a5 5 0 00-1 2l-1 1a1 1 0 000 1zm-58 31v-1l-1-9v-7-2l1 15v4zm1-2v-6 1a33 33 0 010 4v1zm-10 0a13 13 0 010-4 11 11 0 000-2v-6l1-7v-3-1 17a21 21 0 010 2v2l-1 2zm4-2h-1v-7-1-3a24 24 0 011-2c0-1 0 0 0 0v4a10 10 0 010 1v1a22 22 0 000 3v1a10 10 0 010 1 18 18 0 000 2zm10 0l-1-3 1 1v2zm-19 0a2 2 0 000-1v1zm-5-3zm15 0a12 12 0 010-3 4 4 0 010-1 19 19 0 010 4zm1-1a7 7 0 010-1v1zm4-1v-1 1zm4 0v-2 2zm2-1a41 41 0 010-5v-5-1 11zm-28 1v-1-3-6l1-5v-6a15 15 0 010 4v2a39 39 0 010 5 9 9 0 010 1l-1 7a9 9 0 010 2zm1-1c-1 1 0-1 0 0zm23-1v-4-2-7-2a3 3 0 010-2l1 10v5l-1 2zm-21-1v-1 1zm24-1a9 9 0 010-2 7 7 0 010-1v-3-1-1-1-2-11 7a12 12 0 000 3 22 22 0 000 3v7a7 7 0 010 2zm-24 0a20 20 0 010-3l-1-2 1-4a20 20 0 010 4v5zm15-2v-1a9 9 0 010 1zm-1 0c0 1 0 0 0 0zm51-2v-2 2zm-38 0v-1 1zm-25 0a4 4 0 010-2v-1 3zm10-1v-1 1zm19-2a6 6 0 010-3v3zm25-1l-1-1a1 1 0 011 1zm10-1a5 5 0 010-1v1zm-10 0l-1-3a14 14 0 011 3zm-43 0a1 1 0 010-1 24 24 0 010-4 6 6 0 010-2v7zm57-2v-1 1c0-1 0 0 0 0zm-39 1v-1a6 6 0 010-1 6 6 0 010-1v-1-3 7zm-11-1v-1 2zm45-4v-1zm7 0l1-1-1 1zm-47 1a3 3 0 010-2v2zm-8 0v-2 1a1 1 0 000 1zm47-2l1-4v3l-1 1zm-50 0v-4a14 14 0 010 4zm-12 0a1 1 0 010-1v1zm10 0v-1 1zm8-2h-1 1zm-7 1v-2 2zm12-1a19 19 0 010-3v-2 4a4 4 0 010 1zm-27 0v-1a3 3 0 010 1zm23-2v-2-2a17 17 0 010 4zm-7 0v-1 1zm-2-2l1 1-1-1zm5 1v-1a3 3 0 010 1zm61-2c0-2 1-1 0 0zm-66 1v-1 1zm2-2v-7-1 6a8 8 0 010 2z" class="cls-20"/><path d="M142 229l1-2v-1 2l-1 1v-1 1z" class="cls-20"/><path d="M287 199h95v55h-95z" class="cls-19" transform="rotate(-19 334 227)"/><path d="M374 214v-1-1 0a17 17 0 000 2zM376 205a14 14 0 01-1-2 5 5 0 010-2 7 7 0 011 2v2zM369 205a3 3 0 01-1-1v-1l1 2z" class="cls-20"/><path d="M328 212v3l1 2 1 2v1l3 8a36 36 0 001 4v1l1 2c0 1 0 0 0 0a33 33 0 001 4l1 1-1-1a4 4 0 011 2l-2-5-2-5v-1l-1-2v-2l-1-1-1-2v-2l-2-5-1-3v-1l-1-1v-2a5 5 0 00-1-1v-1l-2-5v-1l5 15a26 26 0 001 3h-1l2 5v2l1 2-1-4-1-2v-1l-1-4-3-7v-1l-2-4a18 18 0 00-1-3 14 14 0 001 3l4 11 1 4 2 6v1l1 2a10 10 0 000 1l3 10 1 4 1 1a59 59 0 01-3-7l-1-5-3-7-3-10a1 1 0 00-1 0 13 13 0 001 4l2 4v1a8 8 0 001 2 6 6 0 000 1 8 8 0 001 1v2l1 1 1 5 1 1 1 3v2l1 1v2l1 1v2l-3-9v-1l-1-1v-1l-1-3-2-5-1-3v-1-1l-1-4-2-4v-2l-1-1a20 20 0 001 4v2l2 6 1 1v2l1 3 1 1 1 3v2l1 2v2l1 3 1 2a39 39 0 01-2-7l-1-1c0-1 0 0 0 0l-1-4-1-2v-2l-1-2-1-2-2-7v-1l-1-2-1-4-1-3a4 4 0 000 1l1 3c0 1 0 0 0 0v2l1 1v2l1 1v1l2 6 1 3 1 2v2l1 3 2 4 1 5-2-4v-1-1l-1-2-1-2-1-4a47 47 0 00-1-4l-2-6a5 5 0 000-1v-1h-1l-1-5v-1l-1-3h-1l1 4 1 1v1l1 3v1l1 2v2l1 2 2 4a3 3 0 010 1 46 46 0 001 5 37 37 0 002 4v2l2 4v1l-4-11-1-1-1-4-1-3v-2l-1-3a34 34 0 00-1-4l-2-4a8 8 0 000-2h-1a11 11 0 000-2h-1a23 23 0 001 4l1 4a11 11 0 011 2 7 7 0 010-1l-2-6a7 7 0 00-1-2 40 40 0 001 5l2 5a5 5 0 000 1l3 7v1l1 4v1l1 1 1 4v2l1 1a6 6 0 010 1l-1-3v-1l-3-8-3-7c0-1 1 1 0 0l-1-2-2-8a19 19 0 00-1-3v1l1 4 2 5v2l1 1v2l2 5 2 8-2-7-1-2-1-2v-1l-1-3v-1l-3-7v-1-2h-1v2a16 16 0 001 2 13 13 0 001 3 20 20 0 000 2 16 16 0 001 3l1 1c1 1 0 0 0 0v1l1 3a8 8 0 001 2v1l1 3v3l1 1a21 21 0 01-1-3l-2-4a165 165 0 00-2-5 31 31 0 00-1-4l1 4 1 2 1 5a5 5 0 011 1 10 10 0 010 2l1 2a11 11 0 01-1-2l-3-9a8 8 0 00-1-2v1a24 24 0 001 3 43 43 0 001 5h1a313 313 0 001 5l1 3 1 4v1l-3-8-1-3-1-4-1-4-1-2-2-6a13 13 0 000-2v1l1 5 1 1 1 3 1 5 1 3a19 19 0 001 3v2a11 11 0 011 3l-2-5a2 2 0 000-1l-2-5a22 22 0 00-1-3 8 8 0 010-2 36 36 0 00-2-4v1a5 5 0 011 2l1 4a6 6 0 000 1l2 4v2l-2-6a21 21 0 00-1-3 24 24 0 00-1-3v1l1 3 1 2v2l1 2v1a8 8 0 000 2l1 2-3-8-1-5a8 8 0 00-1-1v-1 2c0 1 0 0 0 0v1a22 22 0 011 2 19 19 0 010 2l1 1v1l1 4v0l-1-2v-1-1l-1-3-1-1v-1a56 56 0 00-2-5v1l1 4a25 25 0 011 4l1 1a14 14 0 000 2l1 3v1l-2-5-1-3-1-5-1 1 2 4 1 5v2l-2-6v-1a4 4 0 000-1h-1v-2a38 38 0 00-2-4 24 24 0 002 4 1 1 0 000 1v1a8 8 0 001 2v3l1 2-2-6-2-3-1-4v2l1 3 1 4 1 2a34 34 0 011 3v2a17 17 0 01-1-3 62 62 0 01-2-7l-2-3a13 13 0 000-2v1a28 28 0 001 3l1 5a8 8 0 001 2 18 18 0 001 3 11 11 0 000 1l1 4a20 20 0 01-1-3l-1-1-2-6v-1l-1-2-1-4a9 9 0 00-1-1v-1a16 16 0 00-1-2v1l1 2 2 7a16 16 0 001 2l1 4 1 3a15 15 0 010 2v1l-3-8v-1l-2-5v-2l-1-1v1c0-1 0 0 0 0l1 4 1 2 1 2v3a7 7 0 011 2l-1-2v-1l-1-1-1-3-2-6a10 10 0 00-1-1v1a17 17 0 001 2l2 6 1 4-1-2-1-2v-2l-1-1a11 11 0 00-1-2l2 8v1a9 9 0 01-1-2l-2-6a7 7 0 000 2 13 13 0 000 2l1 2v1a8 8 0 010 2 7 7 0 010-1l-1-1c0-1 0 0 0 0l-1-3h-1v1a6 6 0 010-1h-1v-1-1h-1c-1 0 0 0 0 0v-1l-1-1-1 1-2-2-2-2v2l-1-1h-1l-1 2v1a16 16 0 000 2v1c0 1 0 0 0 0a2 2 0 010-1l1-1a2 2 0 010-1 4 4 0 010-1 1 1 0 011-1 1 1 0 011 0v1l1 1v-1a7 7 0 010-1 1 1 0 001 0 11 11 0 001 2l1 1 1 1v-1h1l2 3a5 5 0 010 1 13 13 0 001 1v-1a13 13 0 011 2l1 1a7 7 0 001 2l-1-6v-1l-1-2 1 2 1 2 1 3a5 5 0 001 1v-4a8 8 0 01-1-2 36 36 0 011 4 10 10 0 011 1 9 9 0 001 2v-2l-1-3-1-3-1-4-1-2 2 5 2 4v1l1 3v1l1 1v-1l-1-3a18 18 0 010-2l2 7 1 2v-1a35 35 0 00-1-4l-1-6-1-1v-3l-1-2v-1a45 45 0 01-2-5 21 21 0 011 3l4 10 1 4a21 21 0 011 3l1 1v-1l-1-1v-1-3a14 14 0 01-1-2l1 2a10 10 0 001 2v-2l-2-5a26 26 0 00-1-4v-3l1 5v1l3 6v-1l-1-3s0-1 0 0l2 3a5 5 0 001 2l-1-2-1-4-1-3v-1l3 8a13 13 0 001 3l1-1-2-5v-1l-1-3v-2l1 6 1 2 1 3a7 7 0 001 1c0 1 0 0 0 0l-1-6-1-1c0-1 0 0 0 0v-1l2 5a10 10 0 001 3l-1-6v-1 2l1 2a17 17 0 001 2v-1a5 5 0 010-2l2 6a9 9 0 000 1h1a7 7 0 00-1-1v-3l-1-1 1 2 2 6v-1-2a4 4 0 010-1l-1-2v-1-1l-1-3a14 14 0 01-1-2v-2l1 4 1 2c0 1 0 0 0 0l-2-6 2 5 1 2 1 1a8 8 0 010 1l1 1-1-3v-3s-1 0 0 0a31 31 0 001 3c0 1 0 0 0 0l1 4 1 1 1 4a21 21 0 00-1-3 50 50 0 00-1-6l-1-1 3 5v1l1 1a7 7 0 00-1-3l-1-3 1 2 2 5v-2a21 21 0 00-1-2l-1-3a11 11 0 01-1-2l2 3v1l1 2a4 4 0 000 1l1 2-1-4v-1l1 4 1 1v-1a5 5 0 01-1-2l1 2v-3l-1-1v-2l1 2 1 3 1 2a15 15 0 000 2v-2-1-1a38 38 0 01-2-4l1 3v-3l-1-1a3 3 0 001 1 40 40 0 002 6v-1a6 6 0 000-1l-1-2a11 11 0 010-2l2 5v-1-1l-1-2v-1l2 5v-3l-2-5 1 2 1 1v2l1 2-1-4-1-3a6 6 0 011 2l1 1 2 5-3-10-1-5-1-2 2 4v1a22 22 0 001 2l2 8 1 1-1-4 1-1v-1l-2-8a16 16 0 01-1-3l2 6v1a18 18 0 001 2l1 1-1-2v-1a9 9 0 010 2l3 7 1 1-1-3-1-3v-1c-1-2-2-3-1-4a17 17 0 011 2l-1-3a35 35 0 011 4l2 3-2-6v-1l-1-4 1 3 1 1a22 22 0 00-1-3l-1-3v-1-1l-2-4v-1a8 8 0 011 2 7 7 0 010 1l1 2 2 5v1a12 12 0 000 2l1 1v-1l-1-4-2-5v-2l-2-5-2-6v-1l-1-1a7 7 0 010-1 8 8 0 011 2l1 3a51 51 0 002 5v1a3 3 0 010 1l1 3 1 3 1 1a32 32 0 001 4v1a44 44 0 003 6l-1-4-1-2v-3l-1-3-1-1-1-4a7 7 0 010-2 9 9 0 010 3 1 1 0 011 0 21 21 0 001 4 12 12 0 001 2v2l1 3 2 3v-1l-1-3-1-2v-1l-1-4-1-3-1-3-2-5-1-4a8 8 0 01-1-2l2 6 1 1v3l1 1a8 8 0 000 1v1a23 23 0 001 2 8 8 0 001 2 8 8 0 000 1l2 5v1l3 6a11 11 0 00-1-2 19 19 0 000-3l-1-2-1-1v-2l-1-2v-1l-2-5v-3h-1v-3l-2-3v-3l-1-1a13 13 0 011 3l2 5a12 12 0 001 2v1l1 2v2a4 4 0 001 1 18 18 0 001 2s-1 0 0 0l2 7a6 6 0 000 1l1 2v-3l-1-1a13 13 0 010-2l-1-2v-1-1l-1-4-1-2-2-4v-2l-1-1v-2a16 16 0 01-1-3l3 9a9 9 0 001 2 20 20 0 000 2l1 2 1 1 2 8v-1-2l-2-7-2-7-1-3-2-5-1-2v-1a17 17 0 011 3 11 11 0 001 1l1 3a17 17 0 011 3v2a34 34 0 012 4l2 6v1l1 3a8 8 0 001 1l-1-3a27 27 0 00-1-3v-2l-2-5-1-5-1-2-1-4-1-2 3 7v1a5 5 0 000 1l2 4a8 8 0 000 2l1 1v1l1 3 2 5v-1l-1-5-1-1v-1l-1-2-1-3v-3l-1-1-1-4v-2l2 6a2 2 0 010 1v1a36 36 0 002 4v3a14 14 0 001 2 27 27 0 001 3 19 19 0 001 3l1 1-1-2v-1-2l-1-1v-1-1l-1-4-1-2v-1l-2-4v-1a22 22 0 01-1-3 4 4 0 010-2l3 11a4 4 0 001 1l1 3a35 35 0 001 4l1 3 1 1v-1l-1-1v-2l-1-2v-2a35 35 0 00-1-3l-1-1-2-9a27 27 0 01-1-2v-1 1l3 7a24 24 0 000 3l1 2 1 2 1 3v1l1 2 1 1a19 19 0 00-1-2l-1-4v-2a10 10 0 01-1-1l-2-7-2-5 4 11 2 4v1a47 47 0 002 6v-2l-2-6-1-3-1-5-2-5-1-1a9 9 0 010-3 21 21 0 011 3l3 9a36 36 0 001 4 5 5 0 011 1v2l1 1v2l1 1a31 31 0 001 4v-1a16 16 0 000-2l-1-1v-1l-2-6-2-7a37 37 0 00-1-3v-2l-1-3v-1a28 28 0 011 3l1 4 3 7v3l2 5 1 1v2a10 10 0 011 1v-1l-1-3v-1l-1-2v-1l-2-5v-2a29 29 0 01-2-4l1 3 1 3a23 23 0 001 3l1 3a50 50 0 002 5h1l1 2-1-2v-2l-1-3-1-2v-3l-1-1-1-3-2-5v-1a8 8 0 011 1v1a19 19 0 001 2v2l1 1 1 3v1l1 3a38 38 0 001 4v-3l-1-3-1-3-1-3v-1l-1-1v-3l-2-4-1-3v-2l2 5v1l1 4 1 1 1 5 1 2v1a8 8 0 001 1v2l1 1-1-3v-1l-1-1 3 6c0 1 0 0 0 0l-4-11a5 5 0 000-1l-1-4a23 23 0 01-1-3 8 8 0 011 2l1 3 1 4a6 6 0 000 1l2 6 1-1-1-1 1 1v-3a19 19 0 01-1-2l-1-4v-2a10 10 0 011 2 24 24 0 011 3v2l1 2 1 4v-2-1a14 14 0 01-1-2 9 9 0 000-1 6 6 0 010-2l-1-1 2 3a23 23 0 001 3 6 6 0 000-2 6 6 0 01-1-2c0 1 0 0 0 0l1 2v-1-2a32 32 0 011 3v2c1-1 0-3-1-5v-2l-1-3 1 2-1-3a21 21 0 01-1-3 14 14 0 010-3 6 6 0 000 1v1l1 2c0 1 0-1 0 0a6 6 0 000 1h1v-1a8 8 0 000-1v-1a9 9 0 000-2s-1-1 0 0v0s0-1 0 0a11 11 0 011 1v3a8 8 0 000-1 8 8 0 010-1v-1-2-2l1 1v-1l-1-2v-1-2h-1v1a2 2 0 010 1v2h-1l1 1v2a10 10 0 00-1-1v-2 1a5 5 0 010 1 7 7 0 00-1-1v-1a4 4 0 000-1c-1 0 0 0 0 0h-1a11 11 0 001 1v4l1 1v3l-2-7a6 6 0 00-1-2 6 6 0 000 2l1 2a9 9 0 01-1-1v-1a10 10 0 00-1-2l1 3h-1a11 11 0 011 2l-1-1a5 5 0 00-1-1v0 2a18 18 0 010 3l2 4v1l1 2-2-6a31 31 0 01-1-3v-1h-1a13 13 0 00-1-2v1l1 2v4a202 202 0 01-3-8l1 5 1 1v2l1 1v2l1 4-1-3a32 32 0 01-1-4l-2-7h-1a8 8 0 001 1v1a6 6 0 000 1 9 9 0 011 3l-1-4-1-1v2l-1-4a8 8 0 01-1-2v3l1 2 1 4a3 3 0 000 1l2 3v2l1 2v1l1 1-1-1v-1l-1-2-1-2v-1a38 38 0 00-1-4h-1l1 2 3 9 1 4a11 11 0 010 1v1l1 2-1-3-2-5v-1l-2-4v-2l-1-2v-1a25 25 0 00-1-3h-1a6 6 0 001 1v2l1 2-2-5h-1a24 24 0 002 4v1l1 2v2a14 14 0 001 1 9 9 0 000 1l3 11v1l-8-23v-1a12 12 0 000 3l1 3 2 5a8 8 0 000 1v1a6 6 0 001 1l1 4a44 44 0 002 5v1a6 6 0 01-1-1v-2l-1-1-2-7-1-2v-1l-1-2v-1c0-1 0 0 0 0l-2-5v-1l-1-1a51 51 0 002 7l1 3v1l1 2a7 7 0 010 3 18 18 0 010-3l-1-2-1-1v-1-1l-1-2a50 50 0 00-2-5 38 38 0 002 6v2a30 30 0 002 5v1l1 2a6 6 0 01-1-2l-1-3-1-2-1-3v-1l-1-2a21 21 0 010-2l-1-1a6 6 0 000 2v1l1 1v2l1 1 1 6 1 1v2l2 5v1l-4-13-1-1-1-5h-1l2 7 2 6 1 4a15 15 0 011 2v1l-2-5-3-9-1-4a11 11 0 00-1-2h-1a5 5 0 001 1v2c0 1 0 0 0 0a456 456 0 002 4v1l2 5v2l1 2v2a4 4 0 011 2 5 5 0 01-1-2l-1-2v-1l-1-5-1-1-1-3-1-4-2-6h-1v2l2 4v1a2 2 0 000 1 11 11 0 011 1v1l1 2v1l1 3a7 7 0 000 1v1a26 26 0 001 2v1a24 24 0 011 3v1l-1-4v-1l-1-1-1-4-1-2v-1l-3-9-1-3h-1a9 9 0 001 2v3l2 4v2l1 1v1l1 3v1l1 4 1 1-1-2c-2-5-3-11-6-16a4 4 0 000 1l1 1v2l2 6 1 1a9 9 0 000 1l2 8 1 4v-1l-1-2c0-1 0 0 0 0l-1-3-1-3-1-3v-1l-1-2-1-3v-1c-1-3-2-6-3-5l2 6 1 2v3l1 2 1 4 1 1 1 2 1 4v1a12 12 0 011 2 13 13 0 01-1-1l-2-8-1-2-1-2-1-4-1-2v-1a64 64 0 00-3-6c0-1 0 0 0 0a23 23 0 000 2l1 1 3 8 1 4 1 4 1 2v1a14 14 0 011 2l-3-7-1-2v-2l-1-2-1-3-2-6a15 15 0 00-1-3l-1 1a43 43 0 002 5 11 11 0 001 1v2c0 1 0 0 0 0l2 5 2 7 2 6-1-2-1-2-3-10-1-2v-1-1l-1-1v-1-1l-1-1a41 41 0 00-2-6 38 38 0 001 5v1a28 28 0 002 4v2a11 11 0 001 1 36 36 0 001 4l1 2v2l1 1-3-6-2-8a38 38 0 00-2-4 23 23 0 001 3l1 3v2a23 23 0 001 2v1a7 7 0 011 2l-1-3v-1l-1-1-1-2a18 18 0 010-3l-1-1-2-5v2l-1-3-1-1v1h-1l4 11 3 8v1a7 7 0 010 2l-2-6-1-5-2-6a21 21 0 01-1-3l-2-6-1-2a12 12 0 000 2 20 20 0 011 2h-1c0-1 0 0 0 0a19 19 0 000 2v-1h-1l1 3v2l5 14 1 2a28 28 0 001 3c0-1 0-1 0 0l1 3-3-7a6 6 0 000-1l-6-16v-1l-2-5a27 27 0 00-2-4l1 4 1 2v1l1 3 2 5a5 5 0 010 1 10 10 0 000 1 9 9 0 011 2 3 3 0 010 1l1 1v2l1 3a9 9 0 001 2 3 3 0 000 1l2 6a17 17 0 001 3v1l-3-9a4 4 0 000-1l-2-5v-2l-1-1-1-2v-2-1l-4-10a18 18 0 00-1-3v1l-2-3 3 11 1 1v1l-1-3-1-2-3-7c0-1 0 0 0 0l3 8zm46-7a3 3 0 010-1v-1c0-1 0 0 0 0v-2l-1-1 1 1-1-1 1-1v2a6 6 0 000 2v1a1 1 0 000 1zm-30 42a5 5 0 01-1-1l-3-8-2-7v-2s-1 0 0 0l5 14v2l1 2zm0-2l-2-6 1 1 1 4v1zm-6 2a18 18 0 01-2-4 15 15 0 000-1l-2-6-2-7-1-3v-1l1 4v1l1 2v1l1 3 2 4v3l1 2v2zm1-2l-2-7-1-1v-3l-1-2c0-1 0 0 0 0l1 3a11 11 0 011 2l1 3v1a17 17 0 011 2l-1-1a20 20 0 001 3zm7-3a6 6 0 01-1-2c0-1 0 0 0 0l1 2zm-13 4a3 3 0 000-1v1zm-4-1v-1 1zm10-4a14 14 0 01-1-3 5 5 0 010-1 28 28 0 011 4zm0-1v-1 1zm3-2v-1 1zm3-1l-1-1 1 1zm1-1a53 53 0 01-2-5l-2-4v-1a3 3 0 010 1l3 9h1zm-19 7l-1-1-1-3-1-6-2-5-2-5a22 22 0 012 3v2l2 5a13 13 0 010 1l2 7a16 16 0 011 2zm0-1v-1a5 5 0 010 1zm16-6l-2-4v-2l-3-7v-2a4 4 0 01-1-1l4 9v2l2 3h-1l1 2zm-15 3h-1 1zm16-6l-1-1a9 9 0 010-1l-1-3-1-2v-1-1l-1-2-3-10 1 2 1 5a16 16 0 001 3l1 2v1l1 3 1 4a10 10 0 011 1zm-17 5l-1-2v-2l-2-5a27 27 0 012 5l1 4zm10-4v-1 1zm-1 0v-1l1 1zm35-14l-1-1 1 1zm-26 9l-1-1 1 1zm-17 5a6 6 0 01-1-1v-2l1 3c-1 0-1 0 0 0zm6-3v-1 1zm13-6a8 8 0 01-1-2l1 2zm16-6v-1a1 1 0 010 1zm7-4a7 7 0 010-1v2zm-7 2a12 12 0 01-1-2 19 19 0 011 3zm-30 10a1 1 0 010-1 36 36 0 01-1-4 8 8 0 01-1-2v1l1 1 1 5zm39-14v-2 2zm-27 9a12 12 0 010-1v-1l-1-2-1-2 1 1v1l1 4zm-7 2l-1-1a7 7 0 011 1zm29-14v-1zm5-2v-1 1zm-32 12a4 4 0 010-2v2zm-5 1l-1-2 1 1a1 1 0 000 1zm32-12l-1-4 1 3v1zm-35 11l-1-3a20 20 0 011 3zm-8 3a2 2 0 01-1-1l1 1zm7-3l-1-1 1 1zm4-2v-1 1zm-4 1l-1-1 1 1zm8-3l-1-3-1-2 1 1 1 3a4 4 0 010 1zm-19 6v-1a5 5 0 010 1zm16-8l-1-1-1-2a24 24 0 012 3zm-5 2l-1-1 1 1zm-2-1l1 1-1-1zm4 0l-1-1a4 4 0 011 1zm41-16c-1-1 0 0 0 0zm-45 16v-1 1zm0-2l-2-7v-1l1 4 1 2a11 11 0 010 2z" class="cls-20"/><path d="M374 211l-1-3v-1a1 1 0 010 1v1l1 1-1-1 1 2z" class="cls-20"/><path fill="#fff" stroke="#fcfbed" stroke-miterlimit="10" d="M53 141h291v83H53z" opacity=".9"/></g></g></svg>