<svg xmlns="http://www.w3.org/2000/svg" viewBox="0 0 633 469"><defs><style>.cls-1{fill:#6f5248}.cls-2{fill:#fcfbed}.cls-3{fill:#fcfcef}.cls-6{fill:#34566e}.cls-8{fill:#e7b157}.cls-10{fill:#ef3940}.cls-12{fill:#ffaa20}.cls-13{fill:#61996b}.cls-14{fill:#75a67e}.cls-15{fill:#fff}.cls-16{fill:#6ea169}.cls-17,.cls-18{fill:none}.cls-17{stroke:#6ea169;stroke-linecap:round;stroke-linejoin:round;stroke-width:0}.cls-19{fill:#71a76b;fill-rule:evenodd}</style></defs><g id="圖層_2" data-name="圖層 2"><g id="圖層_1-2" data-name="圖層 1"><path d="M310 2a2 2 0 000 1 2 2 0 000-1zM310 3zM310 94a7 7 0 003-1 7 7 0 01-3 1z" class="cls-1"/><path d="M309 24v4h-1l1 1c0 1 0 1 0 0l-1 13v-1l1 1-1 1v6c0 1 0 2 1 1l-1 1v2h1l-1 1a9 9 0 000 2l1 7v-1l1 1h-1v12h-1v2l1-1v1h-1l1 1v5l-1-1a2 2 0 010 1h1a4 4 0 010 2v1h2-1a6 6 0 013 2 4 4 0 010 3 11 11 0 01-1 2 6 6 0 01-2 0 5 5 0 01-2 0 5 5 0 003 0 6 6 0 003 0 3 3 0 000-1 9 9 0 001-1 1 1 0 011 0l1-1-1 1v1a7 7 0 01-1 0 6 6 0 01-2 1 7 7 0 003-1 3 3 0 001-2c0-1 0 0 0 0l1-1a8 8 0 000-2v-1-3l1-2h-1a16 16 0 011-1l-1-1 1-15V48a9 9 0 000-2l-1-3 1-13v-3-9l1-2-1-1v-3a14 14 0 010-3 22 22 0 000-5l1-1V2s-8-2-10 1v1-1c0 1 0 0 0 0a3 3 0 010 1V3a2 2 0 010 2l-1 11v3a12 12 0 010 3v2zM422 184a3 3 0 000 2 2 2 0 000-2zM422 186zM421 288a6 6 0 003 0 7 7 0 01-3 0z" class="cls-1"/><path d="M420 210h1l-1 2v4l-1 14 1-1v1l-1 1 1 1h-1v3l1 2v3s0 1 0 0a3 3 0 000 1v3-1a12 12 0 000 3l1 8h-1v14h-1l1 1h-1v1l1-1v7a2 2 0 010 1c0-1 0 0 0 0a5 5 0 010 2v1h2-1a6 6 0 011 1 6 6 0 012 2 4 4 0 010 3 11 11 0 01-1 2 6 6 0 01-2 0 6 6 0 01-2 0 5 5 0 003 0 6 6 0 003-1 10 10 0 001-1 2 2 0 011 0l1-1-1 1a7 7 0 01-3 2 7 7 0 003-2 3 3 0 001-1l1-1v-1a9 9 0 001-2 1 1 0 010-1v-3-2a20 20 0 010-2v-1-17-18a12 12 0 000-3c0 1 0 1 0 0v-2-15-4l1-11v-2l-1-1v-3a18 18 0 010-4 28 28 0 001-6v-1s-7-2-9 0v2-1h-1c0 1 0 0 0 0a3 3 0 011 1l-1 1-1 12v3a1 1 0 010 1 15 15 0 010 3v3z" class="cls-1"/><path d="M102 193L315 73l197 111-21 12-18-17-12 13-44-32-30 18-35-19-35 21-35-12-31 18-29-17a377 377 0 01-42 32l-20-18-29 19z" class="cls-2"/><path d="M103 192l1 1h1zM111 195l3 1-4-1-2-1a25 25 0 00-3-1 30 30 0 007 2h-1zM223 170h-1zM297 173a4 4 0 00-1 0h1zM310 179l-1-1a7 7 0 001 1zM223 170v1h1zM129 201l-1-1 1 1zM194 192l-1 1zM171 193a2 2 0 001 1 6 6 0 01-2-1h1zM135 200h-1zM210 180a1 1 0 001 0h-1zM132 178zM102 193l1-1zM334 171c-1 1 0 0 0 0zM492 171c2 2-4-2-1 1 0-1 4 1 1-1zM130 201h1zM491 172h1zM386 178a4 4 0 00-1 0h1zM347 163l1-1zM407 167a16 16 0 001-1 7 7 0 01-1 1zM426 168v-1h-1zM196 141a7 7 0 01-1 1l1-1zM129 201a2 2 0 011 0h-1zM407 165l3-2-3 2zM348 93h-1a5 5 0 001 0zM421 161a20 20 0 002 2zM195 142z" class="cls-3"/><path d="M173 155c4-2 2-1 2-2l4-1 5-4h1l10-6 3-2a6 6 0 00-1 1l1-1-2 1 9-5s-6 3-2 2l-4 2h1l9-6h1l10-6a17 17 0 015-3l-1 1 7-4-3 2 4-3h1l15-9s-1 1 0 0l21-11 2-2h1l1-1h1l17-10-1 1 7-5v1l10-6 4-2 3-2h3l1 1 9 5 9 5 5 3 3 1 1 2 2 1c-1-1-2-1-1-2a51 51 0 017 5l7 4a17 17 0 01-2-1l4 2 9 5h-1l18 10c-2-2-2-2 0-1l1 1c1 0-2-1 0 0s2 1 0 0l3 2h-1l7 3 13 8 4 2 12 6 2 1c0 1 5 3 2 2l14 7-1-1 2 2 22 13 6 3c3 1-2-1 0 0l16 9a83 83 0 0010 6l6 3 2 2h1l-18 11-14-15-1-1-1-1-2-1-1 1v1h-1a34 34 0 01-2 3l1-1-5 5-4 4-7-5-7-5a7 7 0 011 1 45 45 0 00-6-5l-1-1-6-4 1 1-5-3-8-6a20 20 0 01-3-2l-1-1-2-1a6 6 0 00-1 1l-9 5h-1l-4 3-12 6-2 2h-3l-2-2-4-2-9-4 8 3-17-8 2 1-6-3-6-3-4 2-3 2a9 9 0 011 0l-2 1 1-1c2 0-4 4-4 4 1-2-6 3-3 1l-1 1h-1l-6 4 1-1a57 57 0 01-6 4v-1l-4 3-3 2h-2l-1-1-4-1-2-1-3-1h1l-8-2h2l-5-2 3 2-4-1-4-2a40 40 0 01-5-2c-1 0 0 0 0 0a7 7 0 01-1 0h-1l-1-1-3 2a24 24 0 00-3 2l1-1-1 1-2 1-3 2 1-1-12 8c-2 0 3-3 2-2l-6 3-5 3-1-1-2-1-4-2 1 1-7-4h1l-14-8 1 1-2-1-2-2-3 3-2 1-1 2-19 15 1-1-5 4a9 9 0 002-2 32 32 0 01-4 3l-1 1c0-1 0 0 0 0l-4 3-4 3 1-2-3 3-1-2a15 15 0 01-2-1l2 1 1 1-1-1h-1l-1-2-3-3v1l-8-7c3 2 0 0 1 0l-2-2a17 17 0 01-2-2 36 36 0 00-3-2h-1a2 2 0 000 1h-1s-1 1 0 0c-3 2 0 0 0 0l-14 9-9 7 1-1-3 2-1 1h-1v0h-1l-4-1a14 14 0 012 0l-7-2 2 1a72 72 0 00-7-2h1 1l3 1h-2l10 3h-1 2l1 1v-1c1 0 2 0 0 1h1v-1h1a10 10 0 012-1l2-2-1 1 8-5h-1l4-3 3-1 1-1h1l1-1 4-3 2-1a4 4 0 011-1c1 1 0 0 0 0s-1 1 0 0h1l4 5c0-1-2-2 0 0l5 5 7 6h1l1 1 1 1 7-4 6-4-2 1 2-1a21 21 0 013-2h-1l10-7s-4 2 0-1v1a22 22 0 011-2l-1 2 2-2h1l-2 1a47 47 0 014-3l1-1 3-2 2-2a5 5 0 012-1l3-3 1-1h1l1 1 2 1 4 2 7 4 9 5 2 2h1l1 1h3l1-1h-1s1 0 0 0l-1 1 3-2 4-2 4-2-3 1 5-2-1 1 16-10-2 1 3-1 1-1h1l1 1 9 2h2c3 2 4 2 2 2l-1-1h-1l5 2h-1l10 3s-1 0 0 0l7 2h1v1l1-1h1c2-2 1 0 0 0l8-5-1 1 2-1h-1a10 10 0 012-1l1-1 5-3-3 2a38 38 0 012-1c5-2 2-1 6-4l2-1 1-1 4-2-2 1a31 31 0 014-3l-1 1a15 15 0 012-1l1-1h1l1 1 2 1 2 1 7 4h2l-6-3 4 2-5-2c1 0 1 0 0 0l8 4 13 7-2-1 6 3 1 1a10 10 0 012 1l2-1h1a4 4 0 001-1l2-1 9-6-2 1a15 15 0 003-1l5-3a10 10 0 012-2c1 0 0 0 0 0l1-1 3-1 2-1 1-1 5 3a51 51 0 014 4l9 6 6 4c2 2-2-1-1 0l8 5h-1l9 6 2 2h2l1 2 5-6-1 2 2-3 3-3-2 3 4-5h1v-1l1 1 2 1 3 3 4 4v1l4 3 2 2 1 1 1 1h1a8 8 0 01-1 0l-1-1h-1l-1-2-3-3 3 3 1 2 2 1-3-2 2 1 1 1 3-2 3-2 12-6 1-1 1-1 3-1-3-2-3-1-4-3-8-4-2-1a25 25 0 01-3-1l-5-4 2 1-4-3-4-1 3 2-9-6 1 1-12-7c-1 0-1-1 0 0l-20-11h1a27 27 0 01-4-2s1 1 0 0l-5-2h2l-15-8-8-4h1l-20-11-21-12-1-1-4-2-7-4c-7-4-18-9-21-12l-6-2 1-1-13-7 2 1-8-3v-1l-2-1-2 2-2 1-4 2-8 4 1-1c-2 2-10 6-8 6-1-1-6 3-9 5v-1a46 46 0 01-5 4c-1 0-1 0 0 0l-5 3 1-1a24 24 0 00-4 2 32 32 0 01-6 3 17 17 0 01-4 3l1-1-10 6h-1l7-4c-1 0-4 2-1 0l-10 6-2 1-2 1a46 46 0 00-5 3s-2 1 0 0h1l1-1 4-2a23 23 0 01-4 2l-2 2-7 3-14 8a7 7 0 01-2 1l2-1-8 5-3 1h1c-9 4-14 9-24 13a7 7 0 011 0l-34 19a36 36 0 00-6 3l-4 3-14 7h1l-6 3a5 5 0 01-2 1l-5 3-6 3-5 3a9 9 0 013-1l-2 1c0 1-2 2 3 0l4-2 1-1-3 2a18 18 0 004-2 6 6 0 001-1l4-2h1c1-1-2 0 0-1a10 10 0 004-2l-1 1 5-3 6-3 4-3 6-3 11-6a5 5 0 01-1 0l4-2 5-3c3-1-1 1 0 1l3-3a13 13 0 013-1l3-2 5-2-2 1zm75-43l-1 1zm6-4l-2 2v-1a13 13 0 002-1zm-14 6a6 6 0 012-1l-2 1v1a1 1 0 010-1z" class="cls-3"/><path d="M239 116h-1l1-1zM222 170zM341 89h-1 1zM190 194zM177 197l-2-2 2 2zM167 188zM345 161h0zM290 170l2 1-2-1zM406 165h1zM294 171l-2-1 2 1zM118 197h-1zM117 197v-1a4 4 0 000 1zM115 196h2a8 8 0 00-2 0zM134 199zM138 196l-4 3 4-3zM157 185l-3 3c0-1 1-1 0 0 5-3-1 0 3-3zM167 190c-1-1 0 0 0 0 1 1 2 1 0 0zM249 185h-1 1zM265 177l-2 1 2-1zM276 173h-1l3-1-2 1zM423 165c-2-1-2-1 0 0zM478 185a17 17 0 003 3l-3-3zM359 96l1 1-2-1h1z" class="cls-3"/><path d="M105 203l19 5 11 3 26-17 23 21 40-29 26 16 31-14-42 280-237-1q13-43 29-88a1803 1803 0 0174-176z" class="cls-2"/><path d="M106 204l-1 1v1zM101 212v3l1-4 1-2a26 26 0 001-3 33 33 0 00-3 6c0 1 0 0 0 0zM44 343v-1 1zM14 427a4 4 0 000-1 4 4 0 000 1zM9 441v-1a5 5 0 000 1zM44 343l-1 3a11 11 0 001-3zM93 230l1-1-1 1zM58 307v-1zM70 279a2 2 0 00-1 1 7 7 0 011-1zM89 236l1-1-1 1zM50 327zM139 210s0 1 0 0zM105 203h1zM2 468c-1 0-1 0 0 0zM243 450c-1 2 0-5-1-1 0 0 0 4 1 1zM93 231l-1 1 1-1zM242 449v1zM67 468a3 3 0 00-1 0h1zM19 468h0zM92 468h1a7 7 0 01-1 0zM117 468h-1zM201 204a7 7 0 01-1 0s-3 2 1 0zM93 230a2 2 0 010 1v-1zM93 466h4-4zM266 278v-1a8 8 0 000 1zM109 466h2a3 3 0 001 0z" class="cls-3"/><path d="M177 211l2 1 3 2c1 0 0 0 0 0v1l2 1 1-1h1l1-1 2-2s1 0 0 0l11-8h-1l3-2a6 6 0 00-1 1l2-1-2 2 8-7-2 2-3 3c3-2-2 1 0 0l10-7v-1a31 31 0 016-4 17 17 0 002-1l1-1h1a10 10 0 011 0 23 23 0 013 2h-1l8 4-3-2 4 3 1 1 6 3 6 4 5-2c-1 0-2 1 0 0l23-10h1v-1h1v3l-1 6-1 10v-1l-1 9v-1l-5 27c1 1-1 9-1 10l-2 11v6h-1v5l-1 2 1-2a56 56 0 01-2 9l-1 9a19 19 0 010-3l-1 5h1l-2 11v-1l-3 21c0-3 1-2 0 0v1c0 1 0-2 0 0v1l-1 3v-1l-1 8-3 16v4l-2 14v3l-1 3-2 16v-2a10 10 0 010 3l-5 27v7c-1 4 0-2-1 1l-3 19a67 67 0 00-1 8l-2 10h-1l-3-1 1 1a17 17 0 01-4-1l1 1-46-1h-10 2-35a9 9 0 012 0 50 50 0 00-8 0h-9 1-25-10-45 8-39a10 10 0 011 0h-3-4-5c-1 0-1 0 0 0H3a2 2 0 010-1v-1 1a4 4 0 010-1l1-1v-1l1-5v1l5-17c0 2 1-2 2-2l1-4-1 2 2-9v3l2-6-1 3v-4l2-5a42 42 0 012-5s0 1 0 0l3-9v1-2l1-1 1-4v1l5-14-1 2 7-20v1l3-8v1l5-16v1l4-10v-1l10-24v1l2-6a10 10 0 00-1 2 39 39 0 012-4c-1 3 0 0 1-1v-1l2-5 2-5-1 2 3-7-2 4a42 42 0 003-5l2-4-1 1 4-11v1l2-2 2-7 1-1c1-3 0 0 0 0l7-16 4-11v2l3-7 1-1 1-4a16 16 0 010 2l3-7-1 3a82 82 0 003-8l-1 1v1l-1 3v-2l-4 10v-1l-1 3c-1 1-1 2-1 0l-2 4-1 2 1-1-4 9v-1l-2 6-2 2v1l-1 2v1l-4 8c0 2 2-2 0 1l-3 6c0-1 2-3 0-1l-3 8-4 9-4 11-3 7v-2l-1 2a24 24 0 01-1 3l-4 11s2-3 0 1v-1l-1 3 1-2-1 2-1 1 1-2a45 45 0 01-2 5v1l-2 3-1 3a5 5 0 010 2l-3 6h1-1l-6 18-4 10-1 2a71 71 0 01-2 7v-3a65 65 0 00-2 8l-2 4 1-2-2 5v-1l-6 18 1-2-3 8-3 9v2l-1 2v-1-1l-2 5c0 3 0 1 1-1l-4 11s1-1 0 0l-2 7-1 3c-1 3 0 1 0 0l-3 9v-2l-1 3 1-1a12 12 0 01-1 3v2l-1 1v2h3a1 1 0 010 1H1 0l1-3-1 3h6a7 7 0 001 0 16 16 0 014 0h2 6l-2-1a36 36 0 015 0h-1l9 1h11 1-7 5-6l1-1h9v1h16-2 28-3a17 17 0 004 0h6a12 12 0 013 0l1-1 20 1h12-1 17-1 12s-1 0 0 0h13-1 7-3 6v1l12-1h-1 6l1 1 12-1-10 1 9-1-3 1a91 91 0 0110-1l15 1h11l1-8 1-7v-2a26 26 0 010-3l1-6v2l2-5v-4l-1 3 2-11v2l2-15c0-1 0-2 0 0l3-24v1a30 30 0 011-4l1-6v2l2-18 2-9 3-23 4-25v-2l1-5v1l1-9 4-25 1-7 2-14v1l1-8v-1c1-7 3-13 3-20v2l2-11 1-10a49 49 0 011-7v1a19 19 0 000-3v-1-1l1-3v0l-2 1h-2v1a36 36 0 01-7 2 17 17 0 01-4 2h1l-11 5a1 1 0 00-1 0l7-3h-1l-10 5a20 20 0 00-2 1h-1v-1h-1a51 51 0 00-5-3s-2-1 0 0a7 7 0 011 1h1l4 3a27 27 0 01-4-3l-3-1-6-5-6-3-3-2-3-2-1 1h-1v1l-1 1a7 7 0 01-2 1l2-2-8 7c-4 2 1-2-3 1-9 5-13 11-23 17a8 8 0 011-1l-4 3-5-5-6-5-6-5-3-2-3-3-3 2-2 1a39 39 0 00-5 4h-1l-3 3a59 59 0 01-6 3l-3 2-2 1h-1v1l-1-1h-2l1 1-7-3a6 6 0 01-2 0l-6-2-6-2-7-1a10 10 0 013 1l-2-1c-1 1-3 1 3 3h4l1 1-3-1a20 20 0 004 1 7 7 0 002 1l4 1h2a12 12 0 004 1h-1l6 2a12 12 0 001 0h1l1 1 2-1 1-1h1l4-4c-2 3 6-4 6-3l11-8a6 6 0 01-1 1l2-1v1h1l5 4c2 2-2-1-1 0l3 2a14 14 0 013 3l3 2 3 4-1-1zm77-10l-2 1zm7-3l-3 1c-1 0 0 0 0 0a16 16 0 003-1zm-15 1a7 7 0 012 1l-2-1zM244 198h1zM44 342zM267 270v-1 1z" class="cls-3"/><path d="M61 304a2 2 0 000-1 4 4 0 000 1zM68 287l1-2-1 2zM73 274zM18 466h0zM17 420v0zM92 466zM16 425zM99 219v-1zM99 218zM100 216l-1 2a8 8 0 001-2zM91 236zM88 241l3-5-3 5zM78 262l2-5c-1 1-1 2-1 0l-1 5zM71 275c1-2 0 0 0 0 0 1 0 2 0 0zM32 373c0 2 0 0 0 0zM27 393l1-2v-1l-1 3zM21 403v-1l-1 3 1-2zM113 468h0zM189 468a19 19 0 004 1l-4-1zM267 290v2-3 1z" class="cls-3"/><path fill="#1f4f77" d="M290 195l26-3a1053 1053 0 0071 126c25 31 37 29 47 50 12 25-1 37 11 60 10 20 30 32 44 39H247l43-272z"/><path fill="#163d59" d="M248 468l240-1c-30-3-69-11-97-37-16-14-19-26-33-45-15-20-40-47-86-71l-24 154z"/><path d="M248 468v-2zM249 461v-1 2l-1 2v2a29 29 0 001-5zM264 367l-1 1 1-1zM275 316zM284 321zM264 367v-1a9 9 0 000 1zM251 448l-1 1h1v-1zM260 393v1zM257 413a2 2 0 000-1 5 5 0 010 1zM252 444v0zM262 379zM271 468zM248 468zM299 331zM418 449c-2-1 2 2 0 0 0 0-2-1 0 0zM251 448v-1zM418 449zM333 357h-1a2 2 0 001 0zM309 337v0zM344 369l1 1a9 9 0 01-1-1zM355 382v-1zM323 468a7 7 0 01-1 0h1zM251 448zM346 369l1 2zM446 467h-1a6 6 0 001 0zM353 377v1h1zM322 468z" class="cls-6"/><path d="M304 468h18a17 17 0 012 0 5 5 0 00-1 0h5-3 17a17 17 0 014 0h-1 6-2a23 23 0 003 0h13s-1 0 0 0h34l6-1h-1 41a4 4 0 01-1 0h4a16 16 0 012 0h6a17 17 0 01-2 0h24c-2 0-2 0 0 0h1c2 0 1 0 0 0h9v-1l-9-1a21 21 0 01-3 0l-9-2h-2-2l-4-1-6-1h1a8 8 0 01-2-1l-17-5-2-1h-3c-2-1 2 0 0-1l-3-1-3-1-6-3-2-1-2-1-2-1-4-3-4-2h1a14 14 0 01-2-1s1 1 0 0a93 93 0 01-22-20 19 19 0 00-2-3 16 16 0 01-2-3l1 1c-5-6-8-13-12-19a7 7 0 010 1 33 33 0 00-2-3 16 16 0 00-1-2v-1l-3-3-2-3-5-6-3-4a8 8 0 00-2-2l-2-3-1-1-2-2-2-2-2-2a26 26 0 01-3-3l-6-6-3-2-3-3a18 18 0 012 2l2 1-5-4-5-4 1 1-6-5-5-4a7 7 0 010 1l-1-1h1l-4-2-1-1-1-1c-1 0-1 0 0 0l-4-2-4-3-10-6-1-1-2-1v1l-5-3 2 1-4-2 2 1-2-1-1-1-2-1v5h-1v7l-1 1v2l-1 10v-2l-2 14v-1l-1 6v-1l-2 11-1 7v1l-2 17v-1l-1 4a10 10 0 000-1v4c0-1 0 0 0 0l-1 3v3l-1 5v-3a33 33 0 000 4v-1l-1 4v-1 8c0-3-1-1-1-1v2l-1 4v1c0 2 0 0 0 0l-1 11-1 8v-1l-1 5v1a26 26 0 01-1 3v-2 3l-1 6v-1c0 1 0 0 0 0a8 8 0 011-3v1l1-7v1-2c0-1 0-1 0 0l1-3v-2 1l1-6v-4l1-2v-1-1l1-6v-1l1-4s-1 2 0 0a54 54 0 011-5v-7l2-7a45 45 0 010-5v1l1-2a21 21 0 010-2v1l1-8v-1-1-1 1l1-3v-1a12 12 0 010-2 13 13 0 001-3 5 5 0 010-1v-4l2-13 1-7 1-1v-5a10 10 0 010 2l1-5v-3 1l1-3 2-12c0-2-1 2-1 1l1-5a24 24 0 001-3v-1h1l1 1 1 1-1-1 3 2c2 1 1 0 0 0l6 4v-1l4 3 2 1c2 1 1 0 0 0l6 4-2-1 2 1a9 9 0 011 1h1l3 2-2-1a32 32 0 011 1l5 3 1 1c-1-1-1-1 0 0l3 2-1-1a22 22 0 013 2l-1-1 5 4 1 1 5 4h1l-4-3 2 2-3-2h1l5 4h-1l8 7-1-1 4 3v1l3 2 1 2c3 2 4 2 6 5l-2-1a15 15 0 002 2l3 3a10 10 0 011 1h1l4 6 4 5 2 3 3 3h-1l4 4c1 2-1-1-1 0l4 5h-1l4 6 5 7s-1-1 0 0l1 2a29 29 0 011 2l-1-2a34 34 0 002 4 33 33 0 003 3l2 3 3 3 2 3 4 3-5-5 2 2 2 2-1-1 2 2 3 2 1 1a22 22 0 002 2l4 4 7 4 3 2 4 2h1l2 1 2 1 2 1h-1a28 28 0 012 1l3 1-2-1 3 2a33 33 0 004 1h-1l2 1 3 1a42 42 0 005 1h-1l16 4h-1a27 27 0 013 1h4-1l12 2 6 1h-1l6 1h5v-1h-22-4a49 49 0 00-6 0h-31 1l-5 1-1-1-13 1a2 2 0 011-1l-8 1h-6a43 43 0 01-5 0c-1 0 0 0 0 0h-4 1a22 22 0 00-3 0 33 33 0 01-5 0 17 17 0 01-3 0h1-8a1 1 0 00-1 0h5s-2 0 0 0h-8-7s-2 0 0 0a9 9 0 011 0h3a23 23 0 01-3 0h-18a6 6 0 01-2 0h2-28a7 7 0 011 0l-28 1a34 34 0 00-4 0h-19a5 5 0 01-1 0h-9a29 29 0 00-4 0 9 9 0 012 0h-2s-1 1 3 1h3-2a18 18 0 003 0 6 6 0 001 0l3-1c0 1-1 1 1 1 1 0-2-1 0-1a10 10 0 003 1h-1l5-1 4 1 4-1c-3 1 4 0 4 1l9-1h-1l4 1a34 34 0 014-1h-1 3a12 12 0 013 0h2a16 16 0 003 0h-1zm61 0zm5 0h-2c-1 0 0 0 0 0a12 12 0 002 0zm-11-1a6 6 0 011 0h-1zM358 467h-1 1zM263 368zM440 468v-1 1zM259 396zM257 408v0zM255 417zM309 336c1 1 0 0 0 0z" class="cls-6"/><path d="M271 314v-1l1 1-1-1a3 3 0 000 1zM345 368l1 1zM274 315l-1-1h-1 1zM249 457zM249 457v0zM249 459v-1a7 7 0 000 1zM251 444zM252 441l-1 3 1-3zM255 425l-1 4c0-1 0-2 0 0l1-4zM256 416c0 2 0 0 0 0 0-1 0-1 0 0zM267 347c0-2 0 0 0 0zM268 333v2-2zM270 325v1-2 1zM353 380v-1 1zM382 422a12 12 0 001 1 14 14 0 001 1l-2-2zM453 466h2-2z" class="cls-6"/><path d="M325 191l27-14 36 14 28-16 49 31 12-12 16 16 28-17 111 274H490a146 146 0 01-24-24c-6-7-14-17-19-32-6-20 1-26-3-42-5-21-23-34-32-41-22-18-52-55-87-137z" class="cls-2"/><path d="M325 190l1 1v1zM329 199c1 2 2 4 2 2l-3-3v-2l-2-3a32 32 0 003 6c0 1 0 1 0 0zM402 320v-1 1zM444 391a4 4 0 000-1 4 4 0 000 1zM444 406v-1a6 6 0 000 1zM402 320l2 2-2-2zM338 217l-1-1 1 1zM377 290a6 6 0 00-1-1zM361 265a2 2 0 001 1 5 5 0 01-1-1zM339 223zM390 307zM355 180zM325 190zM455 432c0-1 0-1 0 0zM611 410c1 3-2-4-1 0 0 0 2 4 1 0zM338 218v0zM610 410v1zM504 468a6 6 0 00-1 0h1zM466 444v0zM528 467a15 15 0 002 0 9 9 0 01-2 0zM554 467h-2zM425 182a6 6 0 01-1 0s-3-2 1 0zM337 217a2 2 0 011 1v-1h-1zM529 465h4-4zM544 253v-1a5 5 0 000 1zM545 465h3z" class="cls-3"/><path d="M402 185l2-2 4-1 6-4 1-1h1l1 1 3 1 4 2a2 2 0 010 1v-1a19 19 0 013 2 6 6 0 00-2-1l2 1-2-1 9 5-3-1-3-2c2 2-2-2 0 0l10 7h1c6 3 4 4 9 6a18 18 0 016 3h-2l8 4-3-2c3 3 2 2 5 3v1l3 1 11-11h1l1 1 2 2 4 4 8 8 2-1 3-1v-1c3-1 0 0 1-1h2l17-11-1 1a27 27 0 003-2l1-1h1v2-1l10 25 4 9 3 11 3 5 1 3 1 1 1 3-1-2a55 55 0 013 8l4 8a18 18 0 01-2-2l2 4 1 1 3 9 8 19c-1-3-1-2 0 0v1c1 1 0-2 1 0v1l1 3-1-1 3 7 6 15 2 4 6 13 1 2 1 3 6 15-1-2a9 9 0 011 3l10 25 3 7c1 3-1-2 0 0l7 18 9 22a16 16 0 011 3v-1l7 16 3 8 1 4 1 2h-20 2-33a9 9 0 011 0 50 50 0 00-8 0h-9a5 5 0 011 0h-16l-8 1-10-1h-31l-9 1-2-2-2-1 2 1 2 2h2l1-1h-2-2l-2-2a97 97 0 01-9-7c-1-2 1 0 2 1a156 156 0 01-15-16 8 8 0 011 1l-2-2 1 1-4-4-1-1v-2l-1-1c-1-1-1-1 0 0l-4-6 1 1a36 36 0 01-4-7v1l-4-8a44 44 0 01-2-8v-5l-1-1v1a42 42 0 010-9v-3-1-5-5h1v-2l-1-1v-2-3a10 10 0 00-1-2v1-3a6 6 0 00-1-2v1l-1-3 1 1a58 58 0 00-8-13l1 1 1 1c-4-6-10-11-15-16l1 1-6-5h1l-13-11v1l-1-2-2-2-4-4-1-1c-5-7-12-13-16-20l1 2-4-6a10 10 0 001 2 35 35 0 01-3-3c2 2 1-1 0-2l-4-4h1l-4-5 2 2-5-7 3 4a49 49 0 00-3-5l-2-4 1 1c-3-2-4-6-7-10l1 1-1-2-3-6-1-2c-2-3 0 1 0 0a67 67 0 01-4-6 88 88 0 00-4-9l-3-5-3-5 1 1-3-6v-1l-2-4a16 16 0 011 2l-3-7 1 2-4-7 1 1c-1-1 0 0 0 0a8 8 0 011 4v-2l4 10-1-1 2 3c0 1 0 2 0 0l2 4h-1l2 3-1-1 4 8 3 4 1 4 1 2c1 2 0-1 1 0l4 9c1 1-1-3 0 0l4 6c-1 0-2-3-1 0l4 7 5 8a30 30 0 002 4l4 6 5 6-2-2 2 3a27 27 0 012 2h-1l4 4 2 3 2 2 1 1-1-1a21 21 0 012 2l-2-1 2 2v1l-1-2 3 4 1 1 2 3 3 2a5 5 0 011 2l4 4 2 2 2 1 3 3 4 4 4 3h-1l9 6 1 2 2 2a34 34 0 013 3l-2-2 5 6 1 1 2 3-2-2 1 1 1 1 1 2 4 9 1 2 1 2a19 19 0 010 4v-2l1 2v6a42 42 0 000 4 23 23 0 010 5v2c0 4-1 4-1 2a3 3 0 011-1c0-1 0-3-1-1h1l-1 4v6a65 65 0 002 9 7 7 0 000 1 15 15 0 011 3l1 3c1 3 0 1 0 0l4 9-1-2 2 3-1-1a12 12 0 011 2l1 1 3 5-2-3 2 3h-1l5 6 1 1 1 1a51 51 0 004 4l-2-1a43 43 0 013 3l-1-1 7 7 1 2 6 6 1 1-5-5 4 3-5-4h1l7 7 3 3 1 1 2 2 4-1h4-2 6l2 1 6-1h14-3a15 15 0 003 0h7a11 11 0 013 0h48-1 12s-1 0 0 0h13-1 7-3 18-1a11 11 0 013 0h5l-1-3-1-2a296 296 0 01-1-2l1 2 2 3-1-2-1-3a38 38 0 00-2-3 26 26 0 011 3 91 91 0 01-4-10l-5-13-9-22-1-2a27 27 0 01-1-3l-2-6 1 2-2-5-1-3 1 3-5-11 1 2-6-14h1l-9-21a29 29 0 01-2-4s1 1 0 0l-2-5 1 1-8-16-2-9-9-21-9-23-1-2-2-4-3-8h-1l-9-24-2-5-5-14v1l-4-7v-1l-7-18 1 1-1-3-1-2-2-3-2 1-1 1-1 1-8 5v-1a50 50 0 01-6 5l1-1-6 4 1-1a25 25 0 00-4 3l-2 1-2-1a5 5 0 010-1 17 17 0 01-4-3h1l-9-8v-1l5 6c1-1-2-3 0-1l-3-3-4-4-1 1-1 1a3 3 0 01-1 0h1a21 21 0 00-2 1l-2 2a50 50 0 00-5 4c1 0-1 2 1 1l1-1v-1l3-3a26 26 0 01-3 4l-2 2h-1v1h-1v-1l-2-1a10 10 0 01-1-1l-14-8a7 7 0 01-2-1l2 1-9-5-2-2a115 115 0 00-10-6l-5-3-2-1-2-1-1-1-2 1h-1l-2 1a8 8 0 011 0l-12 6-12 7-6-2-6-3a39 39 0 00-6-2h-1l-4-1a65 65 0 01-6-3l-4-1-1-1-3-1-2 1h1l-7 3a5 5 0 01-1 1l-6 3-6 3-5 3a10 10 0 012-1l-2 1c0 1-1 2 4 0l4-2 1-1-3 2a19 19 0 004-2 7 7 0 001-1l4-2h1c1-1-2 0 1-1a11 11 0 003-2l-1 1 6-3a9 9 0 001-1h1l2 1 1 1 6 1c-4 0 6 3 5 3l13 4a7 7 0 01-1 0l4 2a4 4 0 012 0l2 1h3v-1c2 0 1 0 1 1h-1v0l2-1 1-1a14 14 0 013-1l4-2 4-2-1 1zm75 11l-2 1zm4 3l-2-2 2 2zm-12 1a6 6 0 012-1l-2 1zM468 202v-1z" class="cls-3"/><path d="M401 319h1a2 2 0 01-1 0zM541 245l-1-1 1 1zM376 286zM366 271l-1-2 1 2zM359 259zM466 442l1 1-1-1zM445 383v0zM529 465zM445 388v-3 3zM332 206v-1zM332 205v-1a4 4 0 000 1zM331 203l1 1a10 10 0 00-1-1zM340 222zM343 227l-3-4v-1l3 5zM352 249l-2-5c0 1 1 2-1 0l3 5zM359 261c-1-2 0 0 0 0 1 2 1 2 0 0zM426 341h-1 1zM439 356l-1-2v-1 1zM442 367v-1l1 3-1-2zM549 468v-1c-2 0-2 1 0 1zM625 467a19 19 0 004 0h-4zM551 263v1l-1-3 1 2z" class="cls-3"/><path fill="#e3a63f" d="M305 195l-19 134-21 134h24l24-268z"/><path d="M305 194h1l1-1zM311 195a17 17 0 002-1l1-1a17 17 0 01-2 1 6 6 0 00-2 1 3 3 0 01-1-1h-2a4 4 0 002 1 10 10 0 002-1v1zM305 273zM300 323zM299 332v-1a1 1 0 000 1zM305 273v0zM314 204a3 3 0 000-1v1zM307 251a2 2 0 00-1-1zM308 234l1 1a1 1 0 01-1-1zM311 208v-1 1zM305 263zM300 214zM305 195a1 1 0 001 0zM297 347c-1 0-1 0 0 0zM268 458c-1 2 0-2-1 0 0 0 1 2 1 0zM314 204v1a3 3 0 000-1zM267 458zM294 383zM297 356v1a4 4 0 000-1zM293 397a3 3 0 000 1 1 1 0 010-1zM292 412v-1zM294 258a2 2 0 011-1c-1 0-1-2-1 1zM314 204zM297 398v0zM279 361v-1a1 1 0 000 1zM297 407a5 5 0 00-1 1 1 1 0 000 1zM295 257z" class="cls-8"/><path d="M295 242l1 2-1 2v11a1 1 0 011 0l-1 2v-1 1-1l-1 6v-4c-1 1 1-2-1 0l-1 6 1 1c0 5-2 3-1 7v3l-1-1v3 3l-1 1v10h-1a88 88 0 01-2 14v2h-1l1 1h-1l-1 12v5-1c-1 5-1 11-3 15v6l-2 6v5l-1 1v1l1-1c0 3-2 5-2 5v4l-1 3c0-1 0 0 0 0a21 21 0 00-1 6v-1l-2 12h1v1s0-2 0 0h-1v1l-1 5-1 9v2l-2 8 1 2c-1 0-1 3-1 1l-1 9h1l-1 1-3 15v4c0 2 0-1-1 1l-1 10a5 5 0 00-1 1 2 2 0 000 1v1l-1 5h8a17 17 0 014 1v-1h2s-1 0 0 0h15l1-5v-4l1-6v-6 1l1-19 1 1v-5-1l1-4v-2-7-4l1-6h1l-1-3c2-3 0-7 1-8l1-14v-7c1-1 1 1 1 1v-12l1 1v-2 1c-1 1-1-3-2-3 1 1 1-4 2-2v-1s0-1 0 0v-4 1a11 11 0 010-5l1 1v-10c1 1 0-2 1-2v-2l-1 1 1-5v1-3 2l-1-2a17 17 0 011-3 7 7 0 010-3h1l-1-6 1 1v-1-1-2l1-8v1l1-12v1-5 1l1-10v1l1-6c0-1 0-2-1-1 2-5 0-10 2-15v1-4 1a7 7 0 01-1-2c0 2 1 0 1-1v-3a17 17 0 010-3c1-1 0 1 1 1l-1-5 1 3a7 7 0 000-3l1-3v1c-2-2 0-4-1-7 1 3 1 1 1 1l1-2v-3-1c0-2 0 0 0 0-1-3 1-6 1-10l-1-7v1a12 12 0 001-4v-1-2a4 4 0 011 1v-4-2-2 1a5 5 0 010 2l-1 1v-1a4 4 0 000 2 22 22 0 010 4l-1-1 1 2h-1v3h-1l1 1-1-1v6-1l1 4-2 1 1 1-1 1h1l-1 6s0-2 0 0v4l-1-1c1 2-1 4-1 5v6l-1 6v5a4 4 0 010 2l-1-1v7s2-2 2 1l-1-1a4 4 0 010 2v0l-1 1v-2a8 8 0 01-1 3l1 1-1 2v7-1 1c1 3-1 7-1 10v6l-1 2a11 11 0 010 4v-2 5c-1-1-1 1-1 2v-1a28 28 0 010 3l-1-1c-1 4 1 8-1 11 1 1 1-2 1-1l-1 4v6c0-1 1-1 1 1s-1 2-1 1v-1l-1 3c0 2 0 1 1 0l-1 6s0-1 0 0v6c-1 2-1 0-1 0l-1 5v-1a11 11 0 010 2v-1 2s1-1 1 1l-1 3v-2a7 7 0 010 1c0 1 0 0 0 0v5l-1 1c0-2 1-1 1 0v3-1 2l-1 6-1 1v5l1 1v-4-1h1l-1 6-1-1-1 9 1-1v4l-1 1v5 6c0-1-1 1-1-1v5a2 2 0 010 2l1 1c-2 2-1 8-2 10v7h-1l1 4c-1 2 0-1-1 0l-1 5v14l-1-1 1 2-1 2v2h-1l1 7v-1 4h-1v4a3 3 0 010-1h-1v-2 3a4 4 0 001 1l-1-1a5 5 0 011 2 5 5 0 01-1 0h-1-1c0-2-6 0-8-2a31 31 0 01-6 1h-2a7 7 0 00-1-1 4 4 0 01-1 0v-1-1l1-3c1-1 0 1 1 1l1-3v-2l-1 2 1-7 1 1v-8h1l1-13 1-2a10 10 0 010-4v1l1-10 2-5 1-13 3-14v-1-3 1l1-5h-1c3-5 2-12 3-15v-3h1a82 82 0 001-8l1 1c0-3-2-3-1-5l1-1c0-3 2-7 1-11l1 1v-6-6h1a9 9 0 01-1-4l1 1v-4 1a4 4 0 000-3l1-4a3 3 0 010-2c0-1 0 0 0 0l1-7h1l-1 4s1-2 1 0v-7a4 4 0 001-1 14 14 0 000-2l1-3h-1v1l-1 3a4 4 0 011-3l-1-2 2-4v-9l1-2a8 8 0 000 2v-6l1-2v1c2-6-1-10 2-17l-1 1 4-23v-4h1l-1-3c0-3 3-5 2-9v1l1-5a1 1 0 010-1v-3c0-3 1 0 2-4l-1-4-1 2v-1c-1-1-1-2-2 1v3h-1v-2a3 3 0 000 3 2 2 0 000 1v2l-1 1c1 1 1-1 1 1v2l-1-1v4c0 1 0 4-1 3a10 10 0 010 3c-1-2 0 4-1 4l-1 8a1 1 0 010-1 14 14 0 01-1 3l1 4c-1 1 0-2-1-1 0 0 0 3 1 2l-2 2 1 3-1 2c-1 1-1-1-1-1zm-5 51zm-1 4v-1h1l-1 1zm5-8v0z" class="cls-8"/><path d="M294 288a3 3 0 010-1 3 3 0 000 1zM305 273zM279 356zM309 249zM310 239l1-2a14 14 0 00-1 2zM311 231zM301 356v0zM303 319a12 12 0 010 1v-1zM297 398zM303 322a5 5 0 000-2 8 8 0 000 2zM315 196v-1zM315 195zM315 194v0zM313 207l1 1-1-1zM313 211a15 15 0 001-3l-1 3zM310 224v-3h-1c-1 3 1-1 1 3zM308 232c0-2 0 0 0 0 0 1 0 1 0 0zM303 291c0 1 0 0 0 0zM305 303v-2 2zM300 309v2-2zM292 409c0-1-1-1 0 0zM288 452a3 3 0 000 2 22 22 0 000-2zM283 368v1-1z" class="cls-8"/><path fill="#ed1c24" d="M315 1a63 63 0 01-5 53l20-9a306 306 0 0149-15 136 136 0 00-64-29z"/><path d="M315 0h1zM317 1l1-1-1 1-1-1c0 1 0 0 0 0a1 1 0 001 1zM344 9zM359 17zM362 19h-1 1zM344 9v0zM321 1zM336 7zM331 5zM322 2zM340 8v0zM316 8s0-1 0 0zM315 1zM366 22zM345 38v0zM321 1zM345 39zM376 29zM369 23v1a1 1 0 000-1zM376 30zM371 31h1zM318 22zM321 1zM377 32h-1 1zM313 53v1a1 1 0 000-1zM374 33a1 1 0 00-1-1v1zM318 22z" class="cls-10"/><path d="M317 17h1l-1 1 1 2h-1l1 2v0a7 7 0 010 2s0-1 0 0v-1h-1v2h1l-1 3 1 1h-1v5h-1a16 16 0 01-1 5v1a8 8 0 01-1 4l-1 2v-1a27 27 0 01-3 6v3l-2 2h1l2-2v1l1-1h1a7 7 0 011-1h1l2-1h-1 1a5 5 0 002-1l4-2c-1 0-1 0 0 0h1l1-1v1l3-2 1-1a22 22 0 002 0l1-1s1 0 0 0a26 26 0 003-1h1l5-2 1-1v1l4-2c1 1 3-1 4-1h1s-1 0 0 0l8-2 2-1 6-2h2c0-1 0 0 0 0l1-1h1l2-1h2l2-1 1 1 1-1a7 7 0 002 0h1l-1-1-1-1-2-1-1-1h-1l-2-2 2 1a20 20 0 01-3-2c-1 0 0 0 0 0l-3-2h-1-1v-1s0-1 0 0v-1h-2 1a3 3 0 01-2-1l-3-1v-1h-1 1l-2-1h1-2 1-1l-1-1a2 2 0 01-1 0h1l-2-1h-1v-1l-3-1h1l-4-2v1l-2-1h1a15 15 0 00-3-1l-2-1s-1 0 0 0l-5-2h-1a2 2 0 01-1 0c1 0 0 0 0 0h-1V5a5 5 0 01-1 0h-1 1a2 2 0 00-1-1h-3c1 0 0 0 0 0V3h-2c-1 0 0 0 0 0l-3-1h-3 1a3 3 0 00-2 0V1h-1a1 1 0 011 0h-2 1-2 1l2 1h-1 2v1h3l1 1V3c1 0 0 0 0 0l2 1h2l-1 1h4a20 20 0 002 1h1v1a1 1 0 011 0 8 8 0 012 1l1-1h-1a1 1 0 011 0l-1 1h2v1h3-1 1l3 2a14 14 0 002 0v1a3 3 0 012 0h-1a3 3 0 001 1l1 1v-1a7 7 0 011 1h-1l4 2v-1l1 1 2 1c-1 0 0-1 0 0l1 1 2 1c-1 0-1 0 0 0h1v1c1 0 0 0 0 0l2 1h-1a3 3 0 011 0h1l1 1h-1l2 1c-1 0 0 0 0 0-1 0 0 0 0 0h1l2 2 1 1h1l-2-1 1 1-1-1h1l1 1 2 2h1v1h0a1 1 0 001 0 1 1 0 010 1l-1-1v1s-1 0 0 0l-4 1a46 46 0 01-2 0l-2 1s1 0 0 0h-2l-2 1a9 9 0 01-2 1v-1 1h-1-1l-2 1h-1l-2 1a8 8 0 011-1 4 4 0 00-2 1l1-1a4 4 0 01-2 1h-3l-4 2v1h-2v-1h-1l-1 1h1-2l-3 2v-1l-4 2h-1a3 3 0 01-1 1l-3 1h-2a26 26 0 00-4 3l-4 1-1 1c-1 0 0 0 0 0h-2v1a3 3 0 00-1 0h-1v1s-1 0 0 0h-1l1-1a3 3 0 01-1 0 4 4 0 011 0 3 3 0 010-1 5 5 0 001-2v-2l1-2a3 3 0 010-1l1-1a1 1 0 000-1v-1a1 1 0 010-1l1-2v-1 2s0-1 0 0a6 6 0 010-2h1a1 1 0 000-1v-2 1l-1 1a1 1 0 011-1 6 6 0 01-1-1l1-1v-4-2s0 1 0 0v-6l-1-8v-1-1l-1-3V4s-1 0 0 0l-1-1V2l-1-1c0 1 0 0 0 0l-1 1 1 1h-1V2l1 1a1 1 0 00-1 0l1 1c0 1 0 0 0 0v1l1 1v2a2 2 0 010 1v1l1 2a3 3 0 010 1l1 1h-1v2c1 0 0 0 0 0v1c0 1 0 0 0 0zm0 18v-1zm-1 1l1-1v1h-1zm3-3v1a3 3 0 000-1zM319 33zM343 9zM311 55h-1 1zM336 5z" class="cls-10"/><path d="M333 4h-1a4 4 0 001 0zM330 3zM370 22zM358 15a3 3 0 011 0h-1zM378 32h-1zM359 16a1 1 0 000-1 2 2 0 000 1zM318 0zM318 0zM318 0zM322 1zM323 2a4 4 0 00-1-1l1 1zM327 4h-1c1 0 1 0 0 0h1zM330 5zM349 12c1 0 0 0 0 0zM353 13v-1 1zM355 15zM372 30v0zM358 34a1 1 0 00-1 1 6 6 0 001-1zM315 50h1-1z" class="cls-10"/><path fill="#ff9e00" d="M102 192l111-60 19 7 18-10 20 6 19-12 20 9 17-9 18 9 18-12 19 12 24-9 106 60-20 13-18-18-12 13-44-31-30 17-36-19-35 21-34-12-31 18-29-16a378 378 0 01-42 31l-20-18-29 19z"/><path d="M102 192h2zM111 195h2l-3-1h-2a27 27 0 00-3-1 29 29 0 006 2zM222 169l-1 1a6 6 0 001-1zM295 173a3 3 0 00-1-1l1 1zM308 178l-1-1a5 5 0 001 1zM222 169v1h1l-1-1zM129 200h-1 1zM193 192l-1 1zM170 192a2 2 0 001 1 6 6 0 01-1-1zM134 199l-1 1zM209 180zM131 178zM102 192zM332 171c0 1 0 1 0 0zM494 172c2 2-4-2-1 1 0-1 4 1 1-1zM129 200l1 1zM493 173h1zM384 177a3 3 0 00-1 0h1zM345 163l1-1-1 1zM405 168a13 13 0 001-1 7 7 0 01-1 1zM424 166l-1-1zM196 143a6 6 0 01-1 0c1 0-3 2 1 0zM129 200zM404 165l4-2-4 2zM351 128v1a6 6 0 000-1zM419 160l2 1zM195 143z" class="cls-12"/><path d="M173 156l2-2 3-1 6-4s1 0 0 0l11-6h-1l4-2a6 6 0 00-2 1l2-1-2 2 8-5-2 1-3 2c3-1-2 1 0 0l10-5 1-1 2-1 1-1 1 1h2a17 17 0 003 2 17 17 0 016 1h-2l8 3-3-1a12 12 0 003 1h3l15-10v1l1-1h1l1 1h2l6 2 10 3h1l3-2s1-1 0 0l1-1 1-1 6-4 4-2 2-1 1-1 1 1h2-1l8 3h-1l5 2 6 3 4-2 3-2 6-3a9 9 0 012-1h1l1-1h1l1 1a3 3 0 002 0l9 6a14 14 0 002 1 22 22 0 013 1v-1l1 1v-1h1l1-1 2-1 2-1h-2a50 50 0 018-4l3-2 1-1 1-1h0l-1 1 2-1c1 0 0 0 0 0v1h1c-1 0 0 0 0 0l9 6h-1l4 2 5 3 10-3c-3 0-2 0 0-1h1c1-1-2 1 0 0s2-1 0 0l3-1 6-2h1l2-1 1-1 9 5 4 2 11 7 3 1 2 1 13 8-1-1 2 1 22 13 6 3 1 1 15 9a72 72 0 008 5l6 3 2 1v1h-1a12 12 0 00-1 1l1-1-8 6-5 2-2 1-1 1-16-16-2-2-2 1v1h-1v2a22 22 0 01-4 3l1-1-3 4-3 3-8-5-8-6a8 8 0 011 1 45 45 0 00-7-4l-1-1-5-4h1l-5-3-8-6a15 15 0 01-2-1l-2-2-2 1-1 1a3 3 0 00-1 1l-8 4h-1l-4 3-12 7h-1v1h-1l-1-1-3-1-4-3-10-4c1-1 8 4 8 3l-17-8h2l-5-2-5-3-5 3-4 3a9 9 0 011-1l-2 1h1l-4 3c2-1-5 3-3 1l-1 1h-1l-5 4v-1a58 58 0 01-6 4h1l-4 2-1 1h-1l-1 1-1-1h-2l-5-2-2-1-3-1h1l-8-2h2l-5-1 3 1-4-1-4-2a41 41 0 01-5-2c-1 0 1 0 0 0h-1l-2 1-2 1a31 31 0 00-3 2s0-1 0 0h-1l-1 1-3 2 1-1-13 7 2-1-5 3-4 3-2-1-2-1-4-3 1 1-7-4h1l-14-7h1l-3-2-3 2-3 2-1 2-19 14 1-1-5 4a8 8 0 002-1 32 32 0 01-4 3c3-2 0 0-1 0v1l-4 3-4 3 1-2-1 1-1 1-1-1h-1a15 15 0 01-2-2l2 1 1 2-1-1v-1l-2-2-3-3 1 1-9-7c3 3 0 0 1 0l-2-2a17 17 0 01-2-1l-1-1v-1l-1-1-1 1a4 4 0 00-1 0l-1 1c-2 2 0 0 0 0l-13 9-9 7c-2 0 1-1 1-1l-3 1-1 1-1 1h-1a4 4 0 00-1 0l-4-2a14 14 0 012 1l-7-2h3a71 71 0 00-8-2l2 1c-1-1-1-1 0 0a8 8 0 013 1l-1-1 10 4h-2 4l-1 1 1-1h1v-1a10 10 0 012-1l2-1-1 1 8-5h-1l4-3 3-1 1-1 1-1h1l4-3 2-2h2s-2 1 0 0l4 4s-2-2 0 0l6 5 6 6 1 1 3 2 6-4 6-4-2 1 2-1a22 22 0 013-2h-1l9-7 1-1-1 1 2-2-1 2 2-2h1l-2 1a45 45 0 014-3l1-1 3-2 2-2a5 5 0 011-1l5-4 1-1v1h1l2 1 4 2 7 4 9 5 1 2 2 1 2 1 2-1h1-1l-1 1h-1 1l3-2 3-2 4-2-2 1 4-2v1l15-9c2-2-3 1-2 0l4-1 1-1h1l9 2 2 1 2 1-1-1h-1l5 2h-1l10 3s-1 0 0 0l7 2c1 0 0 0 0 0l1 1h3v-1c1 0 1 0 0 0v1h-1v1l1-1 1-1 3-1 3-2-1 1 2-2h-1a10 10 0 012-1l1-1 5-3-3 3a33 33 0 012-2c5-2 2-1 6-4h2l1-1 4-3-2 1a34 34 0 014-3l-1 1a17 17 0 013-1l1-1h1v-1 1h1l1 1 2 1 7 4h1l-6-3 4 2-5-3h1l8 4v1l13 7-2-1 6 2 1 2a4 4 0 011 0l3 1 1-1 3-1 9-6-2 2a15 15 0 003-2l5-3a10 10 0 012-2h1l4-2 2-2 2-1 2 2 2 1a42 42 0 013 3l9 6h-1l7 4c2 2-2-1-1 0l8 6-1-1 9 6h-1l4 2 2 1 2 2 3-3-1 1 2-3 3-3-2 3 4-5 2-2h1v-1a37 37 0 014 4h-1c3 1 2 2 5 4l8 8-7-6 6 5a24 24 0 01-2-2l2 2 1 1 2 1 3-2 12-6 3-2 4-2-5-3-3-2-7-5c2 2-2-1-2 0a25 25 0 01-3-1l-5-4 2 1-4-3-3-1 2 2-9-6 2 1-13-7c-1 0-1-1 0 0l-19-11a27 27 0 01-3-2l-5-3 1 1-15-8-7-5-5-3-6-3-9 3-7 3-8 3-3-2-3-2-2-1-3-2-7-4-1-1-3 2-3 1-5 4-5 3-2 1-1 1a1 1 0 01-1-1h-1l-1-1-3-1-5-3-7-4-1 1 1-1h1-1l-1 1-1 1-2 1a19 19 0 01-3 2h-1l-5 2-4 3-1-1-2-1-3-1h1l-10-4-1-1h-2l-2-1-2 1h-1l-1 1a45 45 0 01-5 4c-1 0-1 0 0 0l-5 3 1-1a22 22 0 00-4 3l-1 1h-3a5 5 0 01-1-1 16 16 0 01-4-1c-1 0 0 0 0 0l-11-3 7 2c0-1-4-2-1-1l-4-1h-2l-1-1h-2l-1 1h-1a19 19 0 00-2 1l-2 2a44 44 0 00-5 2c0 1-2 2 0 1l1-1h1l4-3a23 23 0 01-4 3l-2 2-3 1-2 1h-1l-15-5a6 6 0 01-2-1l2 1-1-1h-3l-2 1-1 1a7 7 0 00-2 1c-3 1 2-2-3 1l1-1-24 14a6 6 0 011-1c-12 6-23 13-35 18a36 36 0 00-5 4h-1l-3 2-14 7h1l-7 3a5 5 0 01-1 1l-5 3-6 2-5 4a9 9 0 012-1l-2 1s-1 2 4-1l3-2h1l-3 1a18 18 0 004-2 6 6 0 002 0l3-3c1 0-1 2 1 0l1-1a10 10 0 003-1l-1 1 6-4 5-2 5-3 5-2 12-7a5 5 0 01-1 1l4-2 5-4c3-1-2 1-1 1l4-2a13 13 0 013-1l3-2 4-2-1 1zm76-26l-2 1zm6 1l-3-1h1a13 13 0 002 1zm-14 2a6 6 0 011-1l-1 1zM239 134h1zM221 170zM345 133h-1 1z" class="cls-12"/><path d="M189 193a2 2 0 000 1 4 4 0 000-1zM176 196l-2-1 2 1zM166 187zM343 162h0zM288 169l2 1-2-1zM404 165zM293 171l-3-1 3 1zM118 196h-1zM117 196h-1a5 5 0 001 0zM115 196h1a8 8 0 00-1 0zM133 199zM137 196l-4 3 4-3zM157 185l-4 2c1 0 2 0 0 1l4-3zM167 189c-2-1-1 1-1 1 1 1 2 1 1-1zM247 184c1 1 0 0 0 0zM264 177l-2 1-1 1 3-2zM274 173v1l2-2-2 1zM421 164l-1-1 1 1zM476 183a17 17 0 003 3l-3-3zM360 120l1-1-3 2 2-1z" class="cls-12"/><path d="M260 322l-22 145-237-2 29-87c18 2 44 4 74-4 25-7 36-16 59-27 21-9 52-20 97-25z" class="cls-13"/><path d="M260 323h-2zM253 323l-2 1 3-1h1a13 13 0 002 0 16 16 0 00-4 0c-1 0 0 0 0 0zM155 350h0zM98 375a2 2 0 001 0h-1zM87 376h1a3 3 0 00-1 0zM155 350l-1 1 1-1zM239 326h1-1zM181 339h1zM201 332l-1 1a3 3 0 011 0v-1zM234 326l1-1zM167 345a1 1 0 00-1 0h1zM255 347s0-1 0 0zM260 322v1zM68 378zM51 467c-2 0 3 0 0-1 0 0-3 1 0 1zM238 326h-1 1zM51 466h-1zM27 384zM56 379zM22 401a7 7 0 00-1 1 4 4 0 011-1zM16 418v-1zM246 401a4 4 0 011 0s0-3-1 0zM239 326a1 1 0 01-1 0h1zM23 402l-1 3 1-3zM173 465h1a3 3 0 00-1 0zM20 413l-1 2zM247 401z" class="cls-14"/><path d="M249 382v2c0 3 0 1-1 2v5s0 1 0 0l-1 9a1 1 0 010 1v-1a10 10 0 010 3 3 3 0 000-1v1-2l-1 8v-5c0 2 1-2 0 0l-1 8v1c0 5-1 4-2 8a10 10 0 010 5v-1l-1 6 1-3-1 4-2 13s0-1 0 0l-3 18v3h-20 1l-20-1-7 1-8-1-4 1v-1l-2 1-1-1h-2 1a28 28 0 01-6 0h-6a10 10 0 012 0h-4a68 68 0 00-8 0h1-15c2 0 1 0 0 0h-1c-1 0 2 0 0 0s-1 0 0 0h-3 1-17-29 1-26c-3 0 1 0 0 0H51l-17-1a8 8 0 01-3 0s2 0 1 1l-15-1H3v-1a8 8 0 001-1v-1a11 11 0 011-4v2l7-23a5 5 0 010 1 26 26 0 002-6v-1l2-5v1l1-4 2-7 2-6 2-6 1-1v-4c2-3 2-7 4-9l3-10h2-2 6l7 1h-1l15 1a4 4 0 01-1 0h2-1c-1-1 4-1 4-1-1 0 5 0 2 1l2-1v1l5-1h-1a43 43 0 016 0h-1l13-2h4-1l6-2-1 1 4-1h-3l3-1 4-1a23 23 0 013-1v1a26 26 0 014-1 17 17 0 003-2v1-1h2l2-1a7 7 0 01-1 0l10-4-1 1 13-7 5-3v1l10-6-1 1 7-4h1c6-2 11-6 17-7h-1l4-2-1 1a17 17 0 013-2h1l4-1h-1l4-2-1 1 5-2-3 1a20 20 0 004-1l3-1-1 1a15 15 0 014-2 36 36 0 004-1c-3 1 0 0 0 1l2-1 4-1h1a34 34 0 016-2h3l3-1 8-2h-1a48 48 0 006-1v1l3-1a8 8 0 01-1 1l5-2c1 1-1 1-2 1a41 41 0 006-1h-1c1 0 0 0 0 0a5 5 0 01-3 0h1a9 9 0 00-3 0l-4 1h1l-3 1v-1l-3 1v-1l-2 1h1l-7 1h1l-4 1h-3-1l-1 1a33 33 0 00-4 1 7 7 0 01-3 0s3 0 0 0l-5 1h1l-6 2-6 2-8 2-5 2 1-1-2 1a14 14 0 01-2 1v-1l-3 2-4 2-1 1v-1a12 12 0 01-1 1l1-1-2 1s-1 0 0 0a12 12 0 001 0 25 25 0 01-3 1h-1l-3 1-2 1a3 3 0 01-1 1l-4 2-12 6-6 4h-2a30 30 0 01-4 3l1-1a41 41 0 00-5 2l-3 1h2l-4 1h1l-13 5h2l-6 1-6 2-2 1h-1 1v-1l-4 1h1l-8 1s1 0 0 0l-5 2h-2c-2 0-1-1 0-1a28 28 0 01-4 1h-3l1-1-2 1h1a6 6 0 01-2 0l-1 1h-4l3-1a20 20 0 01-2 0c-1 0 0 0 0 0l-6 1c1-1 0-1-1-1 2 0 1 1-1 1h-4 2a18 18 0 01-3 0c-1 0 1 0 0 0h-6l-2-1h-6-1 5-3 4l-1 1-6-1a42 42 0 00-4-1h-5l-1 1v2-2a10 10 0 010 2l-1 2-1 2-1 4-1 1-2 8v-2a9 9 0 000 2l-2 5a6 6 0 010 2v1l-5 13-3 8 1-1-2 6v-1c-1 0-1 5-3 7l1-1-3 8-2 9v-1l-1 2a14 14 0 01-1 3l1-2-2 4-1 3v2l-1 2h3-1 2a7 7 0 003 0h9-7a53 53 0 006 0 14 14 0 01-2 0 46 46 0 017 0l10 1h17c-2-1 2 0 2-1a14 14 0 012 0l4 1h-1 4 2-2 8-1 11s1 0 0 0h16a16 16 0 013 0s-1 0 0 0a31 31 0 014 0h-1 13l6 1 16-1 18 1 2-1h3l6 1v-1l18 1h15-1l6-1 1 1h28-1a26 26 0 015-1v1a10 10 0 002 0l1-1h2l-1 1h1l1-2v-2a18 18 0 011-4 9 9 0 010-3c0-1 0 0 0 0l1-8v-1 5a64 64 0 011-8 12 12 0 000-2l1-2a26 26 0 000-4s0-1 0 0v1a4 4 0 000 1l-1 3a13 13 0 011-4v-1l1-6c1-4 2-9 1-12a4 4 0 011-1v-6c1-2 1 2 1-2v1l3-21a4 4 0 010 1l4-29a20 20 0 001-5v-3l2-12v1l1-6a3 3 0 010-1v-4l2-5v-4a5 5 0 01-1 2v-2l-1 2v3l-1 1 1-2a10 10 0 00-1 3 3 3 0 000 1v3l-1 1c0 1 1-2 1 1a6 6 0 00-1 2v-1 5l-2 5a32 32 0 010 4l-1 4-1 10a3 3 0 010-1l-1 3v5c0 2 0-1-1-1 1 0 0 4 1 3a7 7 0 01-1 3v3l-1 3v-1zm-9 63v-1 1zm-1 6l1-3v1l-1 2zm4-11a3 3 0 010 1v-2a1 1 0 010 1zM243 438v1zM156 350zM179 465h1-1zM184 339zM196 335h2-2zM206 333zM57 381c-1 0-1 0 0 0zM104 374l-2 1 2-1zM24 402h-1z" class="cls-14"/><path d="M100 375a18 18 0 002 0h-2zM248 325zM248 325h1a2 2 0 00-1 0zM250 324l-1 1a5 5 0 001-1zM235 327h-1 1zM231 327h0zM214 329h3l1-1-4 1zM204 332c2-1 0 0 0 0-1 0-1 0 0 0zM135 361v0zM123 368h1l1-1-2 1zM114 369h1l-2 1 1-1zM17 415c0-1 0-2 0 0zM2 466a8 8 0 001 0h1a9 9 0 001 0H3zM165 468h-1 2-1z" class="cls-14"/><path d="M546 256l86 211H489a147 147 0 01-24-24c-5-7-14-17-19-32-6-21 4-24-3-42-5-14-16-25-26-35l-12-12c18-15 35-22 47-26 24-7 39-3 60-12a83 83 0 0034-28z" class="cls-13"/><path d="M547 256l-1 1v1zM542 261l-1 2 2-2 1-1a14 14 0 001-2 19 19 0 00-3 4v-1zM451 296h1a6 6 0 00-1 0zM411 328a2 2 0 00-1 0h1zM418 336v-1a2 2 0 000 1zM451 296h-2 2zM533 272v-1 1zM478 291l1-1zM499 288h-1a3 3 0 011 0zM528 274l1-1zM463 293zM554 279zM546 256zM431 351v0zM531 468c-2 0 3-1 0-1 0 0-3 1 0 1zM532 272v0zM531 467h-1zM444 390zM438 359v1a7 7 0 000-1zM445 408a7 7 0 000 1 4 4 0 010-1zM451 425v-1zM575 329s-2-3 0 0zM533 272a1 1 0 01-1 0h1zM447 408l1 3zM623 449v-1a3 3 0 000 1zM451 418a13 13 0 000 2zM575 329z" class="cls-14"/><path d="M567 311l1 2 1 3 2 4 4 8a1 1 0 010 1v-1a9 9 0 011 3 3 3 0 00-1-1l1 1-1-2 3 7-1-2-1-3c0 3-1-1-1 1l4 8s0-1 0 0c3 5 1 4 3 8a9 9 0 012 4l-1-1 3 5-1-2 1 4 5 12s0-1 0 0l6 16 1 2c1 1 1 1 0 0l1 1v1a125 125 0 016 14v-1l2 6v-1l7 18 3 6 2 8 2 3 1 2v2l1 1v-1a28 28 0 012 6l2 5a9 9 0 01-1-1l2 3c-1 0 0 0 0 0l1 3v1l1 1h-12c1 0 1 1-1 1v-1c-1 1 1 1-1 1v-1h-2 1-17l-3 1-10-1-2 1s-4 0-2-1l-11 1h1-3 1l-20-1h1l-6 1c-2 0 2 0 0-1l-13 1-17-1a8 8 0 01-3 0h1-23l-3-2-3-3-6-5 2 1a87 87 0 01-9-9l-7-9a4 4 0 011 1 28 28 0 00-4-4l-1-1-2-4c0-1 0 0 0 0l-2-3a69 69 0 01-4-7l-2-5-2-6v-1l-1-3v-1l-1-5a12 12 0 010-2 5 5 0 010-2l1-9a31 31 0 000-9l1 3v3c0 1 0 0 0 0a19 19 0 000-2 13 13 0 000-1v-2l-1-2v-1l-1-2-1-3 1 1a57 57 0 00-7-14 5 5 0 011 1l-1-2v1l-3-3c2 1-2-4 0-2l-1-1c-1-1-1-1 0 0l-4-4h1a37 37 0 01-4-4l1 1-9-9-1-2-2-2 1 1-5-4 2 1-3-3 1 2-2-2-2-2-2-1-1-1 1-1c1 0 0 0 0 0h1l1-1a24 24 0 003-3v1-1h1l2-2 9-5h-1l-1 1a101 101 0 0113-8l-1 1 6-3-1 1 11-5v1l3-1 4-1 1-1 18-3-2 1 5-1h-1a19 19 0 013-1c-2 1 0 1 1 1v-1h4l3-1-1 1 3-1a12 12 0 013 0h-3a19 19 0 003 0h4-1c2-2 5-2 8-3-3 1-1 0-1 1l2-1 5-1 1-1h-1c3-1 8-2 11-5a32 32 0 004-3l1-1 2-1h-1a26 26 0 004-3h1l2-2a7 7 0 01-1 1l4-4-1 2 4-5-1 1c0-1 0 0 0 0l-2 2 1-1-6 5 1-1-2 2c-1 1-1 1 0 0l-3 2-1 1v-1l-3 3a8 8 0 01-2 1l-2 1-1 1-2 1-2 1c-1 1 1 0 0 0l-4 2a6 6 0 01-2 1h-1l-4 2c0-1 2-1 0-1a7 7 0 01-2 1l-3 1h-3l-4 1-8 1-5 1 1-1-2 1a12 12 0 01-2 0l-8 1s3 0-1 1l1-1a10 10 0 01-2 1l2-1-2 1h-1a14 14 0 001-1 32 32 0 01-3 1h-3l-3 1a3 3 0 01-1 0l-4 2-13 4a66 66 0 00-7 3l-1 1a49 49 0 01-5 2l2-1-3 1a18 18 0 00-2 2l-3 1h2l-3 2v-1l-11 8 1-1-2 2-1 1h-1l-1 1-1 1 2 1v1h1a13 13 0 013 2l1 1 1 1h-1v-1l2 3c2 1 1 1 0 0l6 5h-1l4 4 2 2h-1a43 43 0 015 5l-1-1 1 2v-1l1 1 1 1 3 3-2-2a20 20 0 011 2 7 7 0 001 2 7 7 0 012 2l1 1c-1-1 0-1 0 0l3 3-1-1a14 14 0 012 3l-1-1 3 6v1a11 11 0 011 3 26 26 0 001 3l1 1a47 47 0 00-2-5l2 3-2-4 1 1a13 13 0 001 3 15 15 0 011 3h-1v3l1 2v3a22 22 0 010 3v-2l-1 5v5l-1 2a14 14 0 000 2v2l1 2a23 23 0 010 2l-1-2a6 6 0 001 2l1 5a6 6 0 011 2v1a28 28 0 003 6l1 4a28 28 0 011 2l5 7h-1a7 7 0 002 2 10 10 0 012 3l-1-1 4 6v-1l5 6v1l7 6h-1l2 1a14 14 0 012 3l-2-2 3 3 6 5 3 3h1l1 1h3a100 100 0 011 0h-3l-1 1h3a20 20 0 003-1 13 13 0 01-2 0 45 45 0 017 0l10 1h17c-2-1 2 0 2-1a14 14 0 012 0l4 1h-1 6-2 8-2 11c1 0 1 0 0 0h16a15 15 0 013 0 31 31 0 014 0h-1l13-1 6 1h16a80 80 0 008 0h11-1a14 14 0 012 0h1l-1-3v-1-1 1l-2-6h-1c-1-5-6-13-6-17l-2-4-4-9 1 1-3-5v-1l-5-13v1l-3-7-3-7 1 1a26 26 0 01-3-5h1l-2-4v1a12 12 0 00-1-3 18 18 0 01-2-5 9 9 0 01-1-2c0-1 0 0 0 0l-3-8 2 5v-1a64 64 0 01-3-7 2 2 0 010-1v1a12 12 0 00-1-2v-2a24 24 0 00-2-4s-1-1 0 0v2l2 3a13 13 0 01-2-3l-1-2-1-5-5-11a4 4 0 01-1-2l1 2-3-6v-3 1c-2-7-6-11-8-19a4 4 0 010 1l-11-27a20 20 0 00-2-4v-1l-1-2-4-11-2-5a3 3 0 01-1-1h1l-2-4c-2-3 0 0-1-4l-3-4a5 5 0 011 2l-1-2v3l1 3v1l-1-3a10 10 0 002 3 3 3 0 000 2l1 2v1c1 1 0-2 1 0a6 6 0 001 3l-1-1 2 4 2 5a29 29 0 012 3c-2-2 2 5 1 5l4 8a3 3 0 01-1 0l2 3 2 4c0 2-1-1-1 0l2 2a7 7 0 010 3l2 2c0 3-1 1 1 3 0 2-1-1-1-1zm25 59l-1-1 1 1zm2 5l-1-2 1 2zm-3-11a3 3 0 011 1l-1-1v-1a1 1 0 010 1zM590 362v1zM452 296zM621 443zM481 292zM493 290h2zM503 288zM439 358c1 1 0 0 0 0zM408 324zM447 408z" class="cls-14"/><path d="M410 326a15 15 0 00-1-1l1 1zM539 266v-1zM539 265h1a2 2 0 00-1 0zM540 264v1a5 5 0 000-1zM529 274v0zM526 277a33 33 0 003-2l-3 2zM511 284l3-2c0 1-1 1 0 0l-3 2zM502 287c1-1 0 0 0 0-1 0-2 0 0 0zM430 304c-1 0 0 0 0 0zM419 312h1v-1l-1 1zM411 316v-1l-2 2zM450 422v0zM484 463a9 9 0 002 2l-2-2zM629 456v1l-1-2 1 1z" class="cls-14"/><path d="M467 328h1a2 2 0 010-2l1 1-1-1c0 2-2 0-2 2h1zM471 332v-1l-1 1h1z" class="cls-15"/><path d="M473 330l1 1 1-1v-1l-2 1z" class="cls-16"/><path d="M474 330v-1 1zM473 327c-1 0 0 0 0 0z" class="cls-15"/><path d="M476 328l-1 1h1z" class="cls-16"/><path d="M477 330a1 1 0 01-1-1h2l-1 1h1v-2a2 2 0 01-2 0l1 1-2 1h2zM479 330l1-2c-1-1-1 0-1 1v-1 2zM481 329v-1h-1v1h1zM479 324h1l-1 1a6 6 0 00-1 1c1-1 2 0 1-2zM478 324h1zM482 328h-1l1 1v-1zM480 326v-1 1s0-1 0 0zM483 328v-1zM484 328h2l-1-2v1l-1 1h-1 1zM483 325h-1l1-1-1-1v2l-1-1v1h2zM485 324v1-1c1-1 3 2 3 2 1-2 2-1 3-1l-1-1c-1-1 1 1 0 0l-2-2v2l-1-1h-1c-1 0 0 0 0 0l-2 1 1 1-1-1v1c0-1 1 1 1-1zM483 323v1h1z" class="cls-16"/><path d="M488 324c0-1 0 1 0 0zM489 323v1-1z" class="cls-15"/><path d="M491 324l-1-1 1 1z" class="cls-16"/><path d="M494 325v0z" class="cls-15"/><path d="M497 327l-1-1 1 1zM488 327h-1zM488 327zM493 327zM473 332h-1l1-1z" class="cls-16"/><path d="M472 330c0-1 1 2 2 1a7 7 0 01-1 0l-1-1zM478 327c0-1 0-1 0 0z" class="cls-16"/><path d="M449 336v1-1zM450 337l-4 1 4-1zM450 336h1l-1 1z" class="cls-15"/><path d="M451 334l1-1-1 1z" class="cls-17"/><path d="M451 330zM451 330zM451 330a2 2 0 000-1v1h0z" class="cls-16"/><path d="M452 329v0z" class="cls-17"/><path d="M453 330v0zM453 331z" class="cls-16"/><path d="M448 335l1 1z" class="cls-17"/><path d="M454 331h0zM440 341a2 2 0 003 0v-2a10 10 0 011 0l2-1h-1v-1h2l-4 1 6-2 1-2v1h-1 2v-1l1 2 1-2h-1 1l-1 2 2-1v1h1l-1-1h1c0-2 0 1-1-1h1c0-1-1 1-1-1s1 2 1-1h-1v-1h4v-1l2-1-1-1v1l-1-1c1 2-1-1-1 1v-1l-1 1-2 1c0-1 2 0 1-1l2-1v-1h3l-1 1h2l-1-1 2-1a1 1 0 000 1l1-1 1 1v-1h1v0l2 1-1-1h1l-1-1a2 2 0 002 0h1v1l1-1h-1 1v1l1-2c1 1-1 1-1 2h1l1-2h1v2l1-2c0-1 0 1 0 0h1c1 1 1-2 1 0v1l1-1 1 1v-1 3l-1-1v1l-1-1a3 3 0 000 1c-1-1-1 1-1 1l-1-1c-1 0-1 2-2 1v-1a1 1 0 000 1 7 7 0 01-2 1v-1l-1 1c-1-1-1 1-2 1l1 1v1a4 4 0 003-2v1h1v-1l1 2a32 32 0 01-6 2c-1 2-7 0-7 2 0 0 0-1 0 0h-4v1h-2v1h-1v-1l-1 2c-2-2-4 1-6 0l-1 2c0 1 0 0 0 0v1a1 1 0 010 1 6 6 0 01-5-2zM503 326v-2a3 3 0 00-3 1 4 4 0 01-3 0 4 4 0 00-1 0l-2 1 1 1h-2l-2-1h-2-1 5v-1 1l-1-1-1-1-1-2c1-1 1 3 2 2v-1h1-1c3 0 5-2 7-3 2 2 1-2 2 0v-1c0-1 0 0 0 0 2 2 3 4 2 7z" class="cls-16"/><path d="M529 346h3l3-2c-1 1 0 1 1 1l-3-1a6 6 0 01-4 0l-3 1 3 1zM532 350h1a81 81 0 00-1 0z" class="cls-15"/><path d="M539 349a4 4 0 00-1 1 9 9 0 01-1 1h1l-1 1h1a7 7 0 002-2c1-1-1-1-1-1z" class="cls-16"/><path d="M538 351a7 7 0 011-1l-1 1zM545 346l-2 1 2-1z" class="cls-15"/><path d="M538 353l1-2-1 1a4 4 0 010 1zM535 354h1l-1 1-1 1a5 5 0 000-1v1l-1 1a1 1 0 001 0h1a13 13 0 013-3 13 13 0 00-2 1 18 18 0 001-3l-1 1a2 2 0 01-1 1zM532 358v2c2-1 1-1 0-2h0zM530 360a7 7 0 011 1h1l-1-2-1 1zM535 363a2 2 0 00-1 1 5 5 0 000 1v-1l1-1v-1a6 6 0 001-3l-2 2 1 2zM536 361v0zM529 362l1-1-1 1zM533 363v0l1-1-1 1zM528 363v0zM526 365c-1 1-1 3-3 2 1 1 1 2 2 1v-1h1l1-2h-1c0-1 2 0 1-1l-1 1zM529 367h1v1h1c-1-1 1-1-1-2h2l-1-1-2 2zM526 370c-1 2-4 1-5 2 0 2-3 2-4 3h2c0 1-2 0-1 1h3v-1h1l3-3v1-1l3-2c-1 0-2 0-1-1l1 1-1-2c0 1-2 1-1 2zM529 370c1-1-2-1 0-2l-1 2z" class="cls-16"/><path d="M522 374h-1 1zM520 376v-1 1z" class="cls-15"/><path d="M517 377h2a1 1 0 01-2 0z" class="cls-16"/><path d="M513 378c1-1-1 0-1-1l1 1z" class="cls-15"/><path d="M508 378h0zM522 370zM521 370h1a2 2 0 01-1 0zM513 375zM535 351a3 3 0 01-1 0h1zM536 349l1 1c0 1-1 0 0 0l-2 1a2 2 0 011-1v-1zM536 359s-1 0 0 0z" class="cls-16"/><path d="M491 350h-1 1zM491 350l1 1h-9l8-1zM491 350l3-1-2 1z" class="cls-15"/><path d="M494 347h2-2z" class="cls-17"/><path d="M496 343a2 2 0 000 1zM496 344zM496 343h1l-1 1h1l-1-1z" class="cls-16"/><path d="M499 343l-1 1c-1-1 0-1 1-1z" class="cls-17"/><path d="M500 344l-1 1 1-1zM499 345z" class="cls-16"/><path d="M489 349z" class="cls-17"/><path d="M502 345zM472 353a7 7 0 005 0v-2c-1 1 7 0 6-1l-1 1 1-1h3l-8 1c0-2 11-2 11-2v1l4-3v1l-2 1h3v-1c1 0 0 2 1 1 2 1 1-1 3-1h-1 2l-2 1 2 1 1 1v-2h2c0-1-1 1-2-1l1 1c1-2-2 0-2-2 1-1 2 2 3 0l-2-1 2-1 1 1v-1l6 1 1-1h2l1-1h-2l-1-1c1 2-2-1-2 1v-1l-3 1h-3s3 0 1-1h5l-1-1h7l-1 1 2 1v-1h4l2-1 2 2v-1h2v0h2l1 1a8 8 0 002 0l-2-1a3 3 0 002 0h-1a25 25 0 009 0h2l-2 1h3-1 2l-2 1 3-1a17 17 0 015 0h-4a8 8 0 00-4 1 3 3 0 003 0h-1a11 11 0 014 0 10 10 0 002 0h1l1-1h-1a3 3 0 011 0l-2 2-1 1a12 12 0 00-2 0v2a8 8 0 00-1 2 2 2 0 002-1v-1 1a12 12 0 01-1 1 16 16 0 00-2 3v-1a4 4 0 00-1 2l-1 1 1-1h-1l-2 4h-2v0l-1-1a1 1 0 000 1l1-2a6 6 0 002-1l-1-1h2l-1-1a3 3 0 001-2 4 4 0 011-2h1l2-1v-1a1 1 0 010-1h-1c-1 0-1 0 0 0l1-1-3 1a50 50 0 01-6 0l1-1a3 3 0 00-2 0 10 10 0 00-2 1h-2a5 5 0 01-3 1h2l-1 1a23 23 0 006 0h-1l1 1h1l1-1-2 2h-11 1c-2 2-13-2-13 1l-1-1a1 1 0 000 1c-2-2-5 0-8-1v1l-3-1v1h-3 1l-1-1-1 1c-4-2-8 1-12 0a3 3 0 01-2 1l1 1h-1c-1 0-1 1 0 0v1a17 17 0 01-9-2zM498 383l1 1c3 0 5-3 8-4a6 6 0 002-1l3-2h-1c1-2 3-1 3-2h-1 3c2 0 2-3 3-2v-1h2l-1-1c1 1 2-1 3-1 1 1-2 0-2 1l1 1c-3 2-7 2-8 4l-1 2c1 0 2-1 1-2h2l1 1 1 2c-1 1-2-3-3-2l1 1-2 1h1l-11 9c-2-2-2 3-4 1l1 2-1-1v1a7 7 0 01-2-8z" class="cls-16"/><path d="M508 422h1a2 2 0 011-2c0 1 0 1 0 0h-1c0 1-2-1-3 1l2 1zM511 426v-1l-1 1h1z" class="cls-15"/><path d="M515 424l1 2c-1-1 1 0 1-1v-1h-3z" class="cls-16"/><path d="M516 425v-1 1zM515 421v0z" class="cls-15"/><path d="M519 423l-2 1h1zM519 425v-1l1 1c0 1 1-1 1 1v-3a3 3 0 01-2 0v1l-1 1h1zM522 425l1-1-1 1v-1 1zM524 425v-2l-1 2h1zM523 420l2-1-2 1a6 6 0 00-1 1c1 0 2 0 1-1zM523 420v-1zM526 424h-1 1z" class="cls-16"/><path d="M524 421v-1l-1 1h1zM527 424v-1zM529 425v-1h2l-1-1v0l-2 1h1-2l2 1zM528 421h-1l1-1-1-1v2l-1-1v1h2zM530 420l1 1-1-1c2 0 3 3 4 2h3c1-1 0 0-1-1h1l-2-2v2l-1-2-2 1c0-1 1 0 0 0h-2v1-1l-1 2 1-2zM529 419l-1 1h1z" class="cls-16"/><path d="M534 420l1 1c-1-1-1 1-1-1zM536 420v1-1z" class="cls-15"/><path d="M538 421l-1-1 1 1z" class="cls-16"/><path d="M541 423v0z" class="cls-15"/><path d="M544 425h-1 1zM533 423zM533 423zM540 425v-1zM514 426a1 1 0 01-1 0h1zM513 424c1 0 1 2 2 1a13 13 0 01-1 1l-1-2zM522 422z" class="cls-16"/><path d="M484 427v1-1zM484 428h1l-6 1v-1h5zM484 427h2l-1 1z" class="cls-15"/><path d="M486 425h0z" class="cls-17"/><path d="M487 421zM487 421zM487 421a2 2 0 001-1v1c0 2 0 0-1 0z" class="cls-16"/><path d="M489 420v0z" class="cls-17"/><path d="M490 421v1h-1l1-1zM489 422z" class="cls-16"/><path d="M483 426z" class="cls-17"/><path d="M491 422h1a1 1 0 00-1 0z" class="cls-16"/><path d="M472 430a3 3 0 003 0l1-1h1l2-1v-1l2 1h-5l7-2v1l2-2 1 1h-2 2l1-1v2l2-2h-1 1l-1 2h2l-1 1h1v-1h2c-1-2-1 0-2-1h1c0-2-1 0-1-1 0-2 1 1 2-1l-2-1c1 1 1 0 1-1l1 1v-1l4 1v-1h2v-1h-1v-1c0 2-2-1-2 1v-1l-1 1h-2v-1h3v-1h4l-1 1h2c-1 0 0 0 0 0l2-1h1l1 1 1-1h1v0l2 1-1-1h1-1a3 3 0 003 0h1v1l1-1h-1 1l-1 1 3-2c0 2-2 1-2 3h1v-1c0-1 2 1 2-1h-1 2l-1 2 3-2h-1v-1l2 1h1-1l1 1 1-1 1 1v-1l-1 3h1c-1 1-1-1-2-1v1-1a3 3 0 00-1 1h-2l-1-1s-1 2-2 1v-1a1 1 0 000 1 10 10 0 01-3 1v-1l-1 1h-1l-2 1 1 1v1a6 6 0 004-2l-1 1c1 2 1-1 2 0v-1 2a49 49 0 01-8 1l1 1h-5c-2 0-4-1-4 1v-1a1 1 0 000 1c-2-2-3 0-5-1v1h-3 1-2c0 1 0 0 0 0l-1 1c-2-2-5 1-8-1l-1 2c-1 1 0 0 0 0v2a8 8 0 01-6-3zM552 425v-1a4 4 0 00-4 0 7 7 0 01-3 0 4 4 0 00-2-1l-2 1s0 1 0 0h-2l1 1-2-2h-3l-1-1v1l-2-1c0-1 1 2 2 1l-1-1c3 0 5 3 7 2l1-1h-3v-2-2l1 3v-1h1l8-3c2 3 2-1 3 1v-1h1v7z" class="cls-16"/><path d="M26 380h206v55H26z" class="cls-18" transform="translate(-9 3)"/><path d="M222 407h-1v-1-1 1l1-1v2zM230 399a10 10 0 011-2l1-2a3 3 0 010 3 7 7 0 00-1 0c0 1 0 0 0 0l-1 1zM215 397v-1-1a11 11 0 010 2z" class="cls-19"/><path d="M126 392v5l-1 2v10a18 18 0 000 4v1a13 13 0 010 2v1a15 15 0 00-1 4v1l1-1-1 2a40 40 0 010-6v-5-1-3-1-2-1-3l1-4v-4-1-1-3a2 2 0 00-1 0l1-1v-6h-1a84 84 0 000 15l-1 3-1 5v4a27 27 0 010-4v-1-2-4-7-1-1-4a9 9 0 000-3 7 7 0 00-1 3v24a12 12 0 010 2v1l-1 10v5l-1-7a27 27 0 011-5v-8l-1-10-1 3v5l1 1-1 1a3 3 0 001 2 4 4 0 00-1 1v8l1 1-1 1v9l-1 2v-9-1-2-1l1-3v-5-3-2-1a20 20 0 010-3v-4a16 16 0 000-2l-1-2a9 9 0 000 4v20l-1 1v8l-1 1a16 16 0 010-3v-3-1l1-1v-4-2-2-2-3-7l1-1v-2-4a30 30 0 000-3l-1-1a2 2 0 000 2v9l-1 1v7a15 15 0 010 3v7l-1 4v-1-2-3-3a23 23 0 000-5 42 42 0 001-6 3 3 0 000-1v-1-5-1-3-1a22 22 0 00-1 5v1a25 25 0 010 4v3l-1 2v3a20 20 0 010 3 1 1 0 010 1 21 21 0 000 6 18 18 0 000 4l-1 1v6s0 1 0 0v-12-1-4a17 17 0 000-3v-1-5a15 15 0 001-3v-1-3a4 4 0 000-2l-1-1a5 5 0 000-2h-1a11 11 0 000 4v4l-1 3 1-2v-6a3 3 0 000-2h-1a18 18 0 00-1 5 31 31 0 000 5v16l-1 4v5a25 25 0 010-4v-1-8a48 48 0 000-8l-1 1a19 19 0 000-3v-8a9 9 0 001-3h-1a44 44 0 00-1 5v7l-1 1a13 13 0 000 3 22 22 0 000 4l-1 9a57 57 0 010-7v-3-2-1l1-3v-2-6-2-1h-1v1h-1a7 7 0 000 3 6 6 0 000 2 9 9 0 000 3 8 8 0 000 2l-1 1v2a30 30 0 000 3 4 4 0 000 2v4l-1 3v1a10 10 0 010-2v-5-2-3a15 15 0 000-4l-1 3a16 16 0 000 3 28 28 0 00-1 5v5-2-9a4 4 0 000-3l-1 1v4l-1 4v2a31 31 0 000 3l-1 4a44 44 0 010 4l-1 1v-8a23 23 0 000-4v-4a21 21 0 001-4 9 9 0 000-2l1-6a7 7 0 000-3l-1 1-1 5v10a21 21 0 000 4 9 9 0 00-1 3 15 15 0 000 2l-1 2v-5a1 1 0 000-1v-5a10 10 0 000-3v-1a4 4 0 011-1v-5l-1 2a3 3 0 01-1 1v4a3 3 0 000 2 26 26 0 010 4l-1 2v-6a10 10 0 001-4 11 11 0 000-3l-1 2v3l-1 2a17 17 0 000 2v3a4 4 0 00-1 1v-6-5a4 4 0 000-2l-1 1a7 7 0 010 1 10 10 0 01-1 3 8 8 0 010 2v7l-1 1v-2-2-1-1-3-1-1l1-6-2 2v9a7 7 0 00-1 2v3l-1 1a53 53 0 010-6v-2-6l-1 1a29 29 0 00-1 4v5a13 13 0 01-1 2 40 40 0 010-6v-1-1-1-1-5 1a11 11 0 00-1 4 1 1 0 000 1v1a4 4 0 000 2l-1 3v2l-1-6a17 17 0 000-4v-4l-1 2v4a29 29 0 000 4l-1 2a16 16 0 010 3l-1 1v-2-7-4-3l-1 2a14 14 0 000 3 31 31 0 000 5 4 4 0 000 2 8 8 0 00-1 3 5 5 0 000 2l-1 3v-3l-1-1a54 54 0 010-6v-1-2l1-5a4 4 0 00-1-1h1a6 6 0 000-1 7 7 0 00-1-2l-1 1a14 14 0 010 2v7a8 8 0 000 3 17 17 0 00-1 3l-1 4a6 6 0 010 2s0 2-1 1v-9-1a29 29 0 010-5v-2-1 1h-1v4a12 12 0 000 2 25 25 0 000 2v1l-1 3v-1c0-1 0 0 0 0l-1-1v-1-3-6-2l-1 1a9 9 0 000 3l-1 6-1 4a13 13 0 010-2v-3-2-1-2l-1 1-1 7-1 2v-3l-1-6h-1l-1 2a7 7 0 000 1v3l-1 1v2a5 5 0 01-1-2l-1-3-1-1-1 1-1-1v-1c0-1 0 0 0 0v-1l-1-1c0-1 0 0 0 0l-1-1h-1-2l-3-3-2-2-1 2-2-1h-1a9 9 0 00-1 0 17 17 0 00-3 1l-1 1a17 17 0 00-2 2l-1 1h1l1-1 2-1 1-1a5 5 0 011-1 6 6 0 012 0 5 5 0 012 0v1h1v1l1-1v-1h1a2 2 0 001 1 9 9 0 002 2v1l2 2v-1l1-1 2 1 1 3v1a8 8 0 001 2l1-1a7 7 0 011 2l1 1a4 4 0 000 2h1a39 39 0 002-6v-1-2l1 1v3a12 12 0 000 3 2 2 0 001 2l2-4a4 4 0 010-2 16 16 0 011 3 5 5 0 010 2 4 4 0 000 2l1-2 1-3v-4-4l1-2v11a22 22 0 010 3v1a16 16 0 000 2l1-1a17 17 0 011-3 8 8 0 010-3l1 8v2l1-1a19 19 0 001-4l1-6v-1a23 23 0 001-3v-2-1-5a9 9 0 010 3v10 4a10 10 0 010 4l1 1 1-2v-1c0-1 0 0 0 0a23 23 0 011-4 7 7 0 010-2 26 26 0 001 3 4 4 0 000 2v1l1-1a27 27 0 010-3l1-5a12 12 0 000-4l1-2v12h1a20 20 0 001-3v-1l1 4v2l1-2 1-5a23 23 0 000-2v-1-1l1 9a6 6 0 000 3h1l1-6v-1-4l1-1-1 6v2a25 25 0 011 3 3 3 0 00-1 2h1a39 39 0 001-6v-1h1v-1 5a5 5 0 000 3h1a36 36 0 001-6l1-1v1l-1 1 1 2v3l1-2v-1 7h1l1-1v-1-1-1l1-1a13 13 0 010 2v6a1 1 0 011 0v-2-2l1-2v-1-1a20 20 0 011-3 7 7 0 010-2v-2 4a22 22 0 000 2l1 1 1-7a47 47 0 010 5 24 24 0 010 3l1 1a4 4 0 010 1l1 1 1-3a15 15 0 010-3s0-1 0 0a14 14 0 001 3v1a24 24 0 010 3v6l1-4a23 23 0 001-6v-1a38 38 0 000 6h1v2a4 4 0 001-3l1-3v8l1-2v-3a15 15 0 000-3h1v-3 8c0 1 0 0 0 0a14 14 0 000 3l1-4c1-1 0-2 1-1v6h1a4 4 0 000-1v-1-2l1 2 1-3v-1l1-2a15 15 0 010 2v6a7 7 0 000 1l1-2v-1l1-5a18 18 0 000 3l1-2 1-2v8l1-1c0-1 0 0 0 0a3 3 0 000-1v-2a5 5 0 011-2v6l1-2 1-1v-2l1-1v5l1-2 1-6a12 12 0 010 2 7 7 0 010 1v2l1 3 1-4v-4a3 3 0 011 2v2a40 40 0 000 5h1l1-11a36 36 0 011-5v-1 4a7 7 0 010 1 10 10 0 000 2v8l1 2 1-5h2a9 9 0 011-1v-9a8 8 0 011-2 54 54 0 010 5v2a8 8 0 000 2l1 1v-2l1-1a4 4 0 01-1 2l1 8s0 1 0 0c1 1 0-2 1-3a19 19 0 010-3 6 6 0 000-1l1-4a7 7 0 010 2h1v-3a16 16 0 010 4l1 4 1-7h1v-4 4a1 1 0 001-1 11 11 0 000-3l1-2v-1-2-4-1a4 4 0 010 2l1 2-1 1v6l1 1v3h1v-5l1-6-1-1 1-6v-6-1-1a4 4 0 010-1v2l1 3-1 6v1a30 30 0 000 4v3a8 8 0 000 1v5a20 20 0 001 7l1-1a27 27 0 000-4v-2-2l1-4a9 9 0 000-1 28 28 0 000-4v-2a4 4 0 010 3 1 1 0 010 1 10 10 0 000 3v7a24 24 0 001 4v-1l1-4v-1-1-1-3-3l1-3v-6a16 16 0 000-4v-2 11a4 4 0 000 1v1a11 11 0 000 3 4 4 0 000 2 4 4 0 000 1v13h1a5 5 0 000-3 9 9 0 001-2v-3-1-1-3-1-6l1-2v-3-4a27 27 0 010-2v-1 2l1 6a5 5 0 00-1 2l1 1a12 12 0 010 2h-1l1 1a2 2 0 00-1 2 9 9 0 001 2l-1 1 1 6a3 3 0 00-1 1 14 14 0 011 3l1-3v-1a6 6 0 010-2l1-2v-1-1-4-2-1-4-2-2-1l1-3a69 69 0 010 9 4 4 0 000 2v4a9 9 0 00-1 2l1 8 1-1a10 10 0 000-2l1-7v-7-3l1-6a8 8 0 010-2v-1 3a9 9 0 000 1v3a8 8 0 010 3v2a15 15 0 010 5v7a21 21 0 010 3v2l1-4a13 13 0 001-3v-2-5l1-6v-1-4l1-3v8l-1 1v1a26 26 0 000 4 4 4 0 000 2v2a18 18 0 000 3 4 4 0 000 1 45 45 0 000 5l1 1v-2l1-5v-1-2-2l1-3v-2-2-4l1-2v6a1 1 0 01-1 1l1 1v5l-1 1v1a7 7 0 000 3 12 12 0 000 3 9 9 0 000 3l1 2 1-3v-1-2-2-1l1-4v-3-1-3-1a10 10 0 010-3l1-2v11a2 2 0 000 1 28 28 0 000 3 15 15 0 000 4l-1 3 1 2v-1l1-1v-2a14 14 0 000-3v-1a16 16 0 000-4 8 8 0 001-1v-9a13 13 0 010-3l1-1v9a13 13 0 000 3v9a10 10 0 010 2v1h1a9 9 0 000-3 30 30 0 000-4l1-1-1-1a61 61 0 001-8v-5a103 103 0 010 11v6a22 22 0 000 6l1-2 1-6v-3-5a56 56 0 000-5 9 9 0 001-2v-3a9 9 0 010 3v10a17 17 0 000 4v1a9 9 0 010 2v5a15 15 0 000 4l1-1a8 8 0 001-2v-1c1 0 0 0 0 0v-1-6l1-8a19 19 0 000-3v-2a31 31 0 010-3l1-1a14 14 0 010 4 33 33 0 000 4v16a9 9 0 000 2 6 6 0 011 1l1-4v-1c0-1 0 0 0 0v-2-1a47 47 0 000-6 7 7 0 000-1 13 13 0 011-4 15 15 0 010 3v3a11 11 0 000 3 21 21 0 000 3 23 23 0 000 6h1v2l1-2v-2l1-3v-3-2-1-4l1-5v-1a3 3 0 010 1v1a8 8 0 000 2v6a3 3 0 000 1v4a17 17 0 000 4l1-3a24 24 0 000-4v-2l1-4v-2-2-4a17 17 0 000-4l1-2a44 44 0 010 5 2 2 0 000 1v6l-1 5v3a4 4 0 000 1v2l1 1v-3-1l1-1v7l1-1v-11a3 3 0 000-1v-4l1-4v3a17 17 0 01-1 3l1 4a2 2 0 00-1 1 43 43 0 001 6l1-2v2h1a18 18 0 000-3l1-2 1-4v-3l1 3a12 12 0 01-1 3l1 1-1 1v2l1 4v-1-1l1-1a6 6 0 010-2v-1h1a3 3 0 010-1v-2a19 19 0 000 3l1 4v-1l1-1v-2l1 2a14 14 0 001-2v-1 3a7 7 0 000 2l1-5 1-2v-3 2h1a21 21 0 010-3 9 9 0 010-3l1-3a3 3 0 000 1v3s0-1 0 0a3 3 0 000 1h1l1 1v-1a4 4 0 001-2v-1l1-1 1-1v1l1-1v2h-1v1c-1 0 0 2-1 1v1l1-1a5 5 0 011-2v-1l2-1 1-2h1l1-2 1-1v-3 1h-1s0 1 0 0l-1 1h-1a2 2 0 01-1 1v1h-2l1 1v2h-1a5 5 0 000-1v-1-1c0 1 0 0 0 0l-1 1v1h-1v-1-1a2 2 0 000-2v1h-1a7 7 0 000 1v1l-1 1v2l-1 1v2s0 1 0 0v-7a3 3 0 000-2l-1 2v2l-1-1a5 5 0 000-3l-1 3h-1l-1 2v-1a2 2 0 00-1-2l-1 1v-1 2l-1-1-1 1v9l-1 2v-6a15 15 0 010-3l1-2-1 1a6 6 0 000-3h-1v1a15 15 0 00-1 2v3l-1 1 1-8h-2v-1l-1 5v7l-1 4a20 20 0 010-3 14 14 0 010-4v-7-1a4 4 0 00-1 2v2a4 4 0 010 2 37 37 0 010-4h-1l-1 1v-4-2h-1a11 11 0 000 2v1l-1 2v5a24 24 0 000 4v6-1l-1-1 1-3v-2-1a18 18 0 00-1-4h-1v12l-1 3a7 7 0 010 1v3a24 24 0 000-3v-4a6 6 0 010-2v-4-2-2-1a11 11 0 000-3l-1-1a3 3 0 000 2v3l-1-5h-1v8a6 6 0 000 1 6 6 0 000 2 4 4 0 000 1l-1 11v1l-1-24-1-1a6 6 0 000 3l-1 2a40 40 0 000 6v2a3 3 0 000 1v5a20 20 0 00-1 5v-2-2-6-1-2-2-1a4 4 0 000-1v-1-4-1a10 10 0 000-2 1 1 0 00-1 0l-1 8a12 12 0 000 2l-1 2v4a8 8 0 010-2v-2-2-1-2-6h-1l-1 6v11-2a33 33 0 010-3l-1-3 1-3-1-1 1-2a9 9 0 01-1-2v-1h-1a3 3 0 000 1 10 10 0 00-1 2v3c0 1 0 0 0 0v15l-1 1v-13-1-5l-1-1-1 7v7l-1 4a7 7 0 010 2v-4-9-5a5 5 0 000-2 1 1 0 00-1 0v1h-1v3a21 21 0 000 4v6a12 12 0 000 2l-1 1a14 14 0 010 3v-2-1-1-4a7 7 0 000-2v-3a18 18 0 000-4 29 29 0 000-6h-1v1l-1 5v1a1 1 0 000 1 9 9 0 010 1v1a8 8 0 010 1v2a13 13 0 000 3v2a12 12 0 00-1 2v1a11 11 0 010 3v-3-1-1-4-3-1-9a18 18 0 00-1-3 1 1 0 00-1 0 4 4 0 000 2v2h-1v14l-1 3v-18h-1a3 3 0 000 1 15 15 0 000 2v1l-1 7v1a4 4 0 000 2v8a37 37 0 00-1 4v-1a19 19 0 010-2v-4-3a14 14 0 000-3v-1-2-3-1c0-3 0-7-2-6a26 26 0 000 6v7l-1 5v9a6 6 0 010 2 6 6 0 01-1-2l1-8-1-2 1-3v-4-2l-1-8h-1a11 11 0 000 2v11a21 21 0 00-1 3v8a6 6 0 010 2v-8-2l-1-2 1-2v-3-7a8 8 0 00-1-2h-1a20 20 0 000 5 5 5 0 000 2v14l-1 6a12 12 0 010-2v-2-11-2-1-1-1-1c0-1 0 0 0 0a7 7 0 000-1l-1-7h-1v6a13 13 0 000 4v11l-1 1v-6-8a18 18 0 00-1-5h-1a10 10 0 000 4v4a4 4 0 000 1 11 11 0 000 2v1a3 3 0 010 3v-4-1-1a12 12 0 010-3 8 8 0 010-2v-2l-1-5-1 2v-3l-1-1s0 2-1 1c0-1 0 0 0 0l-1-1h-1v13a66 66 0 000 7 8 8 0 000 2l-1 1v-6l1-5a65 65 0 010-7 10 10 0 010-3 35 35 0 010-6 13 13 0 01-1-2 6 6 0 00-1 2 9 9 0 010 2h-1l-1-1a9 9 0 000 3l-1-2-1 1s0-1 0 0l-1 2v18l1 1a15 15 0 00-1 3 22 22 0 010 4v-7a3 3 0 000-1l-1-17a8 8 0 010-2v-5l-1-5v1a23 23 0 00-1 4v2a5 5 0 010 1v3a30 30 0 010 6 3 3 0 010 1 6 6 0 000 1 4 4 0 010 2v2l-1 1 1 4a4 4 0 000 2 1 1 0 00-1 1v6a8 8 0 000 4v-9a2 2 0 000-1v-6-2-1-2-1-1-12a9 9 0 00-1-2h-1l-1-4-1 12v-1-2l-1-8h-1v9zm100 7a1 1 0 010-1l1-1a3 3 0 000-1l2-1v-2 1l1-1-1 2a5 5 0 00-1 2l-1 1a1 1 0 00-1 1zm-91 32v-2a67 67 0 01-1-9v-7-1l1-1v15a18 18 0 000 2 17 17 0 010 3zm1-3l1-6v1a21 21 0 010 5h-1zm-14 0a8 8 0 010-4 7 7 0 000-1 47 47 0 000-6l1-8v-3 10l-1 5v1a12 12 0 010 2v4zm5-1a56 56 0 010-7v-2-2a17 17 0 010-3v4a6 6 0 010 1l1 1-1 3c-1 1 1 1 1 1a7 7 0 010 2l-1-1a11 11 0 000 3zm15-1v-3 1a13 13 0 010 2zm-28 0zm-8-2v-1 1zm24-1h-1a7 7 0 011-2 2 2 0 010-2 12 12 0 010 4zm1-1v-1 1zm6-1v-1 1zm7 0v-1 1zm2 0a25 25 0 010-6 39 39 0 010-4v-2 12zm-43 0h-1v-1a24 24 0 010-2l1-7a50 50 0 010-5l1-6a10 10 0 010 4v2a25 25 0 01-1 5v2l-1 7a6 6 0 011 1zm1 0v-1a2 2 0 01-1 1zm37-1v-5l-1-2v-7-2l1-2v16s0-1 0 0a15 15 0 010 2zm-34-2zm38-1h-1v-1a4 4 0 010-2v-2-2l1-1-1-1 1-2v-11 2a44 44 0 010 5v1a8 8 0 000 2 13 13 0 000 3v7a4 4 0 010 2zm-38 0a15 15 0 010-2l-1-3 1-4a13 13 0 010 5v4zm24-1v-1a6 6 0 010 1zm-2 0v-1 1zm80-4v-1a13 13 0 000 1zm-60 1v-1 1zm-39 0v-1-2a20 20 0 001 3h-1zm16-1v-1 1zm30-2v-3 3zm38-1v-1a1 1 0 010 1zm17-1v-2 2zm-17-1v-2a8 8 0 010 3zm-67 1v-1a16 16 0 010-4 4 4 0 010-2v7zm90-3v-1 1zm-61 2v-1a5 5 0 010-1l-1-1h1v-1-2c0-1 0 0 0 0v6zm-18 0v-2 2zm71-5v-2zm12-1v-1 1zm-74 2a2 2 0 01-1-1l1 1zm-13 0v-2l1 1a1 1 0 00-1 1zm74-3l1-3v3l-1 1zm-79 1v-3a9 9 0 010 3zm-19 1a1 1 0 010-1v1zm17-1v-1 1zm11-1v-1 1zm-11 0v-2 2zm20-1h-1a12 12 0 010-3v-2l1 2v3zm-43 1v-1a2 2 0 010 1zm37-3v-1-3a11 11 0 010 4zm-12 0v-1 1zm-2-1v0zm7 0l1-1a2 2 0 01-1 1zm96-3c0-1 1 0 0 0zm-103 2v-1 1zm2-2v-6-2 5l1-1-1 2v2z" class="cls-19"/><path d="M222 404l1-3h0v1l-1 1v1z" class="cls-19"/><path d="M449 371h148v55H449z" class="cls-18" transform="rotate(-19 523 399)"/><path d="M586 377c0 1 0 0 0 0l-1-1v-1l1 2v-2a13 13 0 000 2zM590 368a10 10 0 010-2 3 3 0 010-2 4 4 0 010 2v2zM579 369a2 2 0 01-1-1v-1a14 14 0 011 2z" class="cls-19"/><path d="M516 384l1 3v2l1 2v1l3 8a24 24 0 001 4v1a17 17 0 011 2v1a21 21 0 001 4v0l1 2a54 54 0 01-2-6l-2-5v-1l-1-2-1-2v-1l-1-2v-2l-2-4-1-4v-1l-1-1v-2a4 4 0 000-1h-1l-1-6h-1a115 115 0 005 15v2l1 6 1 1v2l-1-3v-2l-1-1-1-4-3-8v-1l-1-4a12 12 0 00-1-2l-1-1a9 9 0 001 3l4 11 1 5 2 6v1a18 18 0 011 2 7 7 0 000 1l3 10 1 3v1l-2-6a38 38 0 01-2-5l-2-8-3-9a1 1 0 00-1 0l1 4 1 4 1 1v1a4 4 0 001 1 5 5 0 000 2l1 2v1l2 5v1c0 1 0 0 0 0l1 3 1 2v3l1 1v2l-3-9v-1l-1-1v-1l-1-3-2-5v-3l-1-1v-2a29 29 0 01-1-3l-1-4-1-2-1-1a13 13 0 001 4l1 2 2 6v2l1 4 1 1 1 3v2l1 2v2l1 3 1 2a23 23 0 01-2-3l-1-4v-1l-1-4-1-2v-2l-1-2-1-2-2-7v-1l-1-2-1-4-1-3s0-1 0 0a3 3 0 000 1l1 3v2l1 1v2l1 1v1l2 7a20 20 0 011 2v2l1 2 1 3 1 5 1 4-1-4-1-1v-1l-1-2v-2l-1-4a30 30 0 00-1-4l-2-6a4 4 0 000-1l-1-1-1-4v-2l-1-3h-1a29 29 0 001 4v2a34 34 0 011 3l1 2 1 2v1l1 3a27 27 0 011 3 2 2 0 010 1 31 31 0 002 5 26 26 0 001 4v3l1 4v1l-3-12-1-1-1-4a23 23 0 00-1-3v-1l-1-4a21 21 0 00-1-4l-1-4a5 5 0 00-1-2h-1a7 7 0 000-2l-1 1a16 16 0 001 3l1 4 1 3-1-2-1-5a5 5 0 00-1-2h-1a26 26 0 002 5 42 42 0 001 4 3 3 0 000 2l3 7v1l1 4 1 1 1 5v2l1 2a33 33 0 01-1-3l-1-1-2-8a65 65 0 00-3-7c0-1 0 1 0 0a26 26 0 00-1-2l-2-8a12 12 0 00-1-3h-1l2 5 1 5 1 2v1a20 20 0 001 2 31 31 0 001 5l2 8-2-7-1-2-1-2v-1l-1-3v-1l-2-7-1-2v-1h-1v2a10 10 0 001 2 8 8 0 000 3 12 12 0 001 2 10 10 0 001 3v2l1 3a5 5 0 001 2v1l1 3a19 19 0 001 3v1a13 13 0 01-1-2l-2-5v-2l-1-3a20 20 0 00-2-3l1 3a25 25 0 001 3 40 40 0 001 5 5 5 0 010 1 6 6 0 011 2v2a7 7 0 010-2l-3-9a5 5 0 00-1-3l-1 1 2 4a26 26 0 001 4v2l1 3 1 3 1 5v1l-3-8a31 31 0 00-1-4l-1-3a28 28 0 00-1-5 13 13 0 00-1-2l-1-5a9 9 0 00-1-3l-1 1 2 6v1l1 3 1 4a28 28 0 002 4 12 12 0 000 3 21 21 0 001 2v3l-2-5a1 1 0 000-1l-2-5a14 14 0 000-2l-1-1a5 5 0 010-2l-1-4-1 1a3 3 0 011 2l1 4a4 4 0 000 1 35 35 0 011 5l1 2-2-7a15 15 0 00-1-3 16 16 0 00-1-3v2l1 2v2l1 3v3a5 5 0 001 1v2l-3-7-1-5a5 5 0 00-1-2 8 8 0 010 1 3 3 0 000 1 13 13 0 010 2 12 12 0 011 3l1 2 1 3v2l-1-2v-2h-1v-1l-1-3v-1l-1-1a39 39 0 00-1-6l-1 2 1 4a15 15 0 011 3l1 2a9 9 0 000 2l1 3v1l-2-5-1-3-2-5v1a38 38 0 001 4 44 44 0 001 5 17 17 0 010 2 52 52 0 01-2-6v-1a5 5 0 000-1h-1v-2a25 25 0 00-1-4h-1a15 15 0 001 5l1 2a6 6 0 000 1l1 4v2l-2-7a25 25 0 00-1-3l-2-4v2a34 34 0 001 4 39 39 0 001 4l1 2a22 22 0 011 3v1a11 11 0 01-2-2 40 40 0 01-2-7l-1-3a9 9 0 00-1-3v2a20 20 0 001 3 42 42 0 002 5 5 5 0 000 2 12 12 0 001 2 7 7 0 000 2v4a13 13 0 01-1-3v-1l-2-6v-1l-1-2-1-4a5 5 0 00-1-1v-1a9 9 0 00-1-2v1a20 20 0 010 3l2 6a11 11 0 001 3 24 24 0 001 3v4a9 9 0 011 1v2l-4-9v-1a39 39 0 01-1-5l-1-1v-2 1l-1 1 2 4v1l1 3v3l1 2-1-2v-1h-1v-1l-1-3-2-6a6 6 0 00-1-1v1a12 12 0 000 2l2 6 1 4a18 18 0 01-1-2l-1-2-1-2v-1a7 7 0 00-1-2v1l2 7v1a6 6 0 01-2-2l-2-5h-1v2a10 10 0 001 1v4l1 2a5 5 0 01-1-1l-1-1-2-3v1l-1-1h-1v-1-1h-1v-1h-1-1l-1 1-3-3-2-1-1 2-1-1-2 1-1 1v1l-1 1a16 16 0 000 2v1c0 1 0 0 0 0a2 2 0 011-2v-1l1-1a3 3 0 010-1 3 3 0 012 0 3 3 0 011 0h1v-1h1a1 1 0 001 0 9 9 0 002 2l2 2v-1l1-1 1 1 2 2a3 3 0 010 1 11 11 0 001 1l1 1v-2a10 10 0 011 2l1 1a5 5 0 001 2v-1a52 52 0 000-5l-1-1v-2l1 1 1 3a16 16 0 001 2 3 3 0 001 2v-5a5 5 0 010-2 22 22 0 011 4 7 7 0 011 1 6 6 0 001 2v-2l-1-3-1-3-1-4v-2l1 5 2 4v1a26 26 0 011 3 1 1 0 001 0v1l1 1v-1a21 21 0 01-1-3 11 11 0 010-3l2 7 1 3 1-1a25 25 0 00-1-4l-1-6v-2l-1-2-1-2v-2l-1-5a13 13 0 011 4l3 9 1 4a14 14 0 011 3l1 1v-1-1-1a32 32 0 010-3 11 11 0 01-1-2l1 3a6 6 0 001 1v1l1-1-1-3-1-4a17 17 0 00-1-4v-3l1 4v1l3 7v-1a26 26 0 000-3v-1l1 4 1 2v-2l-1-5v-4l3 8a8 8 0 001 3v-1l-1-5v-1l-1-3v-2l1 6 1 2 1 3a5 5 0 001 1c0 1 0 0 0 0a53 53 0 00-1-6v-1c0-1 0 0 0 0v-1l2 5a6 6 0 001 3 48 48 0 00-1-7v-1 1l1 2v1a11 11 0 001 3l1-1-1-2 2 5a6 6 0 001 2 6 6 0 000-2v-1-2l-1-1a17 17 0 011 2l2 6a1 1 0 010-1 21 21 0 010-2 3 3 0 010-1v-2l-1-1v-1a29 29 0 01-1-4 10 10 0 010-2v-1l1 3v3h1l-1-7 2 5 1 3a5 5 0 011 2h1l-1-3a20 20 0 010-3 19 19 0 001 3h1v4l1 1 2 4-1-3a32 32 0 00-2-6v-1a56 56 0 002 5h1l1 2a5 5 0 00-1-3v-3 1l2 6v-2a16 16 0 000-2 19 19 0 00-1-3v-1l-1-2 2 4v1l1 2a21 21 0 001 3v-4l-1-1 2 3a4 4 0 000 1 5 5 0 000 1l1 1v-1-1l-1-1v-1l1 1v-4l-1-2a19 19 0 011 3l1 2 1 2a10 10 0 001 2v-2l-1-1v-1l-1-4a22 22 0 001 2v-2-1a2 2 0 001 1 25 25 0 002 6v-1a4 4 0 000-1v-1-1a7 7 0 01-1-2l2 4v-1l1-1-1-2v-1l2 5v-3l-1-5a15 15 0 011 2 9 9 0 010 1l1 1 1 3-1-4-1-3a4 4 0 012 1v2l2 5v-1l-2-10a50 50 0 01-1-5l-1-1 2 4a13 13 0 001 2l3 8v-3-1l2 1a12 12 0 01-1-2l-2-8a11 11 0 01-1-3l2 6 1 1a11 11 0 001 2v-1-1a5 5 0 010 1l3 8 1 1-1-3a26 26 0 01-1-4l-1-5a10 10 0 011 3l1-1-1-3a22 22 0 011 4c1 1 1 4 2 3a59 59 0 00-2-6l1-1-1-4 1 3v1h1a15 15 0 00-1-3l-1-3v-1-1l-2-4v-1a5 5 0 011 2l1 1v2l2 5v1a8 8 0 001 2v1l1-1-1-5-2-5v-1l-2-6-2-5v-1l-1-2a5 5 0 010-1 6 6 0 011 2l1 3a34 34 0 002 6v1l1 4 1 2a11 11 0 001 2 20 20 0 001 4v1a28 28 0 003 6v-1l-1-4v-2l-1-2-1-3v-1a35 35 0 00-1-4l-1-2a6 6 0 011 2 1 1 0 010 1 13 13 0 001 4 8 8 0 001 2l1 2 1 2 1 3h1l-1-4-1-2v-1l-1-3-1-3-1-4-2-5a23 23 0 00-1-3l-1-3 3 7v1a15 15 0 011 2v1a7 7 0 000 1l1 1a15 15 0 001 2 5 5 0 000 2 5 5 0 000 1l2 5v1a52 52 0 003 7v-1a7 7 0 000-2 11 11 0 00-1-3l-1-2v-1-2l-1-2v-1l-2-5-1-3v-3l-2-3v-3-1a8 8 0 011 3l1 5a7 7 0 001 2l1 1v2l1 1a2 2 0 000 1 11 11 0 001 3s-1 0 0 0l2 7a4 4 0 000 1 20 20 0 011 2v-3-1a9 9 0 01-1-2v-2-1l-1-1-1-4v-2l-1-1-1-3v-3l-1-1v-1l-1-3 3 9a5 5 0 001 1v3l1 1a12 12 0 000 2l3 7a13 13 0 000-2l-2-8-2-6-1-3-1-6a11 11 0 01-1-1v-2l1 3a10 10 0 001 1l1 3a12 12 0 010 3 6 6 0 001 1v1a21 21 0 012 5l2 5v1a30 30 0 011 3v1a5 5 0 001 1l-1-4a19 19 0 00-1-3v-2l-1-5-2-5v-2l-1-4-1-2 2 7 1 1a4 4 0 000 1 38 38 0 001 4 5 5 0 001 2l1 1v1a24 24 0 001 3l1 5 1 1v-2l-1-5-1-1v-2l-1-1-1-3v-3l-1-1-1-4v-2l2 6a8 8 0 011 1 22 22 0 001 5v1l1 2a9 9 0 001 2 17 17 0 001 3 12 12 0 001 3v-2l-1-2v-1-1-2a58 58 0 00-2-6l-1-1-1-3v-1a14 14 0 01-1-3v-2l3 10a3 3 0 001 1l1 4a21 21 0 001 3l1 3 1 2v-1a8 8 0 010-1l-1-2a20 20 0 000-3l-1-1a21 21 0 00-1-4 10 10 0 000-1l-2-9a18 18 0 01-1-2v-1 1l3 7a17 17 0 000 3l1 2 1 2 1 3v1a14 14 0 011 2 5 5 0 000 1h1a13 13 0 00-1-2 41 41 0 00-1-4v-1a7 7 0 010-1l-3-8-1-5 4 11 1 4v1a29 29 0 002 5v-1l-1-6-1-3-1-5-2-5a11 11 0 000-2l-1-2a14 14 0 011 2l3 10a23 23 0 001 3l1 1a4 4 0 010 1 13 13 0 010 2l1 1v2l1 1a20 20 0 001 3h1a11 11 0 00-1-2v-1-1-1l-2-5-2-7a25 25 0 00-1-4v-2l-1-3v-1a18 18 0 011 4l1 3 3 8v1l1 1 1 6 1 1a13 13 0 000 1 8 8 0 011 1v-1l-1-3v-1-2l-1-1-1-5a10 10 0 000-2 18 18 0 01-2-4 23 23 0 011 3l1 3a15 15 0 001 3l1 3a32 32 0 002 5h1l1 2v-2l-1-2v-3l-1-2-1-3v-1l-1-3-2-6v-1a5 5 0 011 2 11 11 0 001 3v2l1 1v2l1 1v1l1 3a24 24 0 001 4v-3a35 35 0 00-1-4l-1-2-1-4v-2l-1-2-1-4a23 23 0 00-1-3l-1-3 2 5a4 4 0 000 1l2 4v2l2 5v2l1 1a6 6 0 000 1l1 1v-1l-1-2v-1l2 7 1-1-4-11a3 3 0 000-1l-1-3a14 14 0 01-1-4l1 2a24 24 0 011 3l1 4a3 3 0 000 1 62 62 0 003 6v-2l1 1a26 26 0 000-3 13 13 0 010-2l-1-4-1-2 1 2a16 16 0 011 3l1 1v3l2 4v-2-1a8 8 0 01-1-2v-1a4 4 0 010-2v-2a28 28 0 001 3 15 15 0 001 4v-1-1a4 4 0 010-2l1 2s0-1 0 0v-2-1a19 19 0 011 3 8 8 0 001 1l-1-5-1-2v-3l1 3v-1a28 28 0 01-1-3 13 13 0 01-1-3v-3a4 4 0 000 1v1l1 2c0 1 0-1 0 0a4 4 0 001 1l1 1v-2a6 6 0 000-2v-1a6 6 0 000-1v-1l1 1v-1 5a5 5 0 001-1 5 5 0 010-2v-1-2l1-2v0a16 16 0 010-2v-1-2h-1v2h-1a2 2 0 010 1v1h-1l1 1v2s0 1 0 0a6 6 0 00-1-1v-1-1 1h-1v1s0 1 0 0v-1a3 3 0 00-1-2v1a7 7 0 000 1v5l1 2h-1l-2-6a4 4 0 000-3h-1v2l1 3v-1l-1-1a6 6 0 00-1-2v3c0 1 0 0 0 0a7 7 0 010 3l-1-2a3 3 0 000-1l-1 1v-1 1h-1v2a12 12 0 011 2l1 4v1a3 3 0 011 1v2a49 49 0 01-2-6 21 21 0 01-1-3v-1h-1a9 9 0 00-1-2v1a20 20 0 000 2l1 2v2l-2-8h-2l1 5v1l1 2v1l1 2 1 4a30 30 0 01-1-3 20 20 0 01-1-4l-2-7h-1a6 6 0 000 2v2a6 6 0 011 2l-1-4h-1v2l-1-5-1-1h-1a13 13 0 001 2v2l2 4v1a34 34 0 001 4v2l1 2v1l1 1-1-1v-1l-1-2v-2l-1-2a24 24 0 00-1-3h-1v2l3 9 1 4a10 10 0 011 1v3a31 31 0 00-1-3l-1-5a9 9 0 01-1-1l-1-4-1-2v-2a15 15 0 00-2-4 4 4 0 000 2v2l1 1-2-5h-1l2 4v1l1 3a8 8 0 000 1 10 10 0 000 1 5 5 0 001 1l3 11v1l-8-23h-1a8 8 0 000 3l1 2a53 53 0 002 6 5 5 0 000 1 4 4 0 000 2l2 4a27 27 0 001 5v0l-1-2v-1l-2-7-1-1v-1l-1-2v-1-1l-1-1-1-4-1-1v-1a1 1 0 00-1-1l2 8a17 17 0 001 3v1l1 1a5 5 0 000 1v2a12 12 0 010-2l-1-2-1-1v-2c0-1 0 0 0 0l-1-2a32 32 0 00-2-5c-1 1 0 3 1 6l1 1v2a19 19 0 001 4l1 1v2l-1-2-1-3v-2l-1-3-1-1v-1a13 13 0 01-1-2l-1-2c0 1 0 0 0 0a4 4 0 000 2v2l1 2v1c0 1 0 0 0 0l2 6v1l1 1v1l1 5v1l-4-13v-1l-2-4-1-1 2 8 2 6 1 4a12 12 0 010 1l1 2-2-5-3-9-1-4a7 7 0 00-1-3l-1 1a3 3 0 000 1v1l1 1v1a29 29 0 001 3v1l2 5a16 16 0 000 2l1 2a19 19 0 010 2l1 2-1-2-1-2v-1l-2-4a10 10 0 000-2l-1-3a25 25 0 00-1-4 40 40 0 00-2-6h-1v2l1 5 1 1a10 10 0 010 1v1a11 11 0 011 2v2a18 18 0 001 2 4 4 0 000 1l1 1a17 17 0 000 3 16 16 0 011 3v1l-1-3v-1l-1-2-1-4-1-2v-1l-3-8v-1a26 26 0 00-1-2 1 1 0 00-1-1 5 5 0 000 3l1 1v1l1 4 1 2v1l1 2v3l1 1 1 3v1l-1-1-5-17h-1a3 3 0 000 1l1 2v2l2 6v1a6 6 0 001 1l2 8 1 4v-1l-1-2-1-3-2-3a17 17 0 000-3l-1-1v-2l-1-3-1-1c-1-3-2-6-3-5a36 36 0 002 6l1 2v3l1 2 1 4 1 1v3l1 3 1 2a8 8 0 010 2 8 8 0 010-2l-3-7-1-2v-3l-2-4v-2c0-1 0 0 0 0a41 41 0 00-3-7h-1a15 15 0 001 2v2l3 8a31 31 0 001 3l1 4 1 2v1a8 8 0 010 2l-2-7-1-2v-1l-1-3-1-2-2-7a11 11 0 00-1-2h-1a28 28 0 002 5 7 7 0 000 2l1 1v1l1 4 1 1 2 7 1 5a19 19 0 01-1-2v-1l-4-11v-1l-1-1v-1-1l-1-1v-1-1l-3-6 1 5v1a16 16 0 001 4l1 2 1 1a23 23 0 001 4v2l1 1v3l-2-7-3-8a26 26 0 00-2-4 14 14 0 001 3l1 3v1a6 6 0 000 1 15 15 0 001 2v1a5 5 0 011 3l-1-3v-1l-1-2a17 17 0 01-1-2 12 12 0 010-3l-1-1-2-5s0 1 0 0v2l-1-3h-1v1h-1l-1-1v1l4 11 2 8a10 10 0 000 1l1 1-2-5-2-5-2-7a14 14 0 01-1-2 48 48 0 01-2-6 19 19 0 01-1-2 8 8 0 000 2 13 13 0 011 2h-1-1a12 12 0 001 2l-1-1-1 1c0-1 0-1 0 0v2l1 3 5 14 1 1a21 21 0 001 3h-1a30 30 0 011 4l-2-7a4 4 0 000-1l-6-16a11 11 0 01-1-2l-2-4-1-5-1 1a32 32 0 001 3l1 3a5 5 0 010 1l1 2a39 39 0 012 6 4 4 0 010 1 8 8 0 000 1 6 6 0 011 2 2 2 0 010 1l1 1v1l1 4a6 6 0 001 2 2 2 0 000 1l2 6a11 11 0 001 3v1l-3-10a3 3 0 000-1l-2-5-1-1v-2l-1-2v-1l-1-1-3-11a12 12 0 00-1-2l-1 1-2-4 3 12 1 1v1l-1-3-1-2-3-8-1 1 3 8zm71-16v-1a3 3 0 000-1v-2-1 0s0-1 0 0l1 1a5 5 0 000 2l-1 2zm-53 51v-1-1l-3-8-3-7v-1-1l5 14 1 2a23 23 0 010 3zm0-3l-1-6v1a29 29 0 012 4v1h-1zm-9 3a12 12 0 01-2-3 10 10 0 000-2l-2-6-2-7-1-2v-1l2 3v3l1 1v3l2 5a17 17 0 011 3v1l1 2zm3-2h-1l-2-7v-1l-1-3a23 23 0 01-1-2h1l1 3a6 6 0 010 2l1 1a19 19 0 000 2l1 1a10 10 0 010 2v-1a15 15 0 000 3zm10-5l-1-2v1l1 1zm-20 7h0zm-6 0v-1 1zm16-6a10 10 0 010-3 4 4 0 01-1-1 18 18 0 011 4zm1-1a5 5 0 010-1v1zm4-3c0-1 0 0 0 0zm4-1v-2 2zm2-1a35 35 0 01-2-5l-1-5-1-1 1 1 3 9v1zm-30 10v-1l-1-2-2-7-1-5-2-5a14 14 0 012 3v3a34 34 0 011 4 9 9 0 011 2l2 6a8 8 0 010 2zm1-1h-1a3 3 0 011 0zm25-9h-1l-1-5v-1l-3-7v-2l-1-1 4 8v1l1 2 1 3h-1l1 2zm-24 6zm26-9h-1a8 8 0 010-2 5 5 0 010-1l-1-2-1-2v-1-1l-1-2-3-11 1 3 1 4 1 1a11 11 0 000 2 19 19 0 001 3v1l1 2 1 4a6 6 0 011 2zm-26 8a20 20 0 01-1-2l-1-2-1-5a17 17 0 011 5l2 4zm16-7v-1a7 7 0 010 1zm-1 1l-1-1 1 1zm53-21v-1 1zm-40 14l-1-1 1 1zm-27 9l-1-2v-1l1 2v1zm11-5h-1v-1l1 1zm19-8l-1-3 1 3zm26-10v-1a1 1 0 010 1zm11-5a4 4 0 010-1v1zm-11 4l-1-3a11 11 0 011 3zm-46 15a1 1 0 01-1 0 22 22 0 01-1-4 5 5 0 010-3v2l2 5zm60-22v-1l1 1h-1zm-41 14c0 1 0 0 0 0a7 7 0 01-1-1v-1-1l-1-2c0-1 0 0 0 0l1 1 1 4zm-12 4v-1 1zm47-20v-1zm8-3v-1 1zm-50 18a3 3 0 01-1-1l1 1zm-9 2l-1-1 1 1zm50-18v-4l1 3-1 1zm-54 18l-1-3a12 12 0 011 3zm-13 5v-1 1zm11-5v-1 1zm8-3l-1-1 1 1zm-8 2v-1 1zm13-5a18 18 0 01-1-2v-2 1l1 3zm-29 10v-1a3 3 0 010 1zm25-11l-1-1-1-2a16 16 0 012 3zm-8 3l-1-1 1 1zm-2-1v0zm5-1v-1a3 3 0 010 1zm65-24c-1-1 0 0 0 0zm-70 25l-1-1 1 1zm1-2a1 1 0 01-1-1l-2-6v-1l2 4v-1 3a7 7 0 011 2z" class="cls-19"/><path d="M586 374v-3s-1 0 0 0v3l-1-1 1 1z" class="cls-19"/><path fill="#f2f2f2" d="M117 254h386v130H117z" opacity=".9"/></g></g></svg>