<svg xmlns="http://www.w3.org/2000/svg" viewBox="0 0 309 309"><defs><style>.cls-10{fill:#ffa053}</style></defs><g style="isolation:isolate"><g id="圖層_2" data-name="圖層 2"><g id="圖層_1-2" data-name="圖層 1"><circle cx="147.5" cy="147.2" r="142" fill="#fefef1"/><path d="M165 112l85 85 5 5c4 10-15 29-25 26l-5-5c-11-21-17-32-25-41l-5-5-46-48-35-32-8-9a5 5 0 01-2-1c-2-5 4-12 5-13 6-8 15-8 15-8a5 5 0 012 2l3 3 5 5 31 36z" stroke-width="2" stroke="#000" stroke-miterlimit="10" fill="#fd903c"/><path d="M241 221c-3 2-7 4-10 3-2 0-4-2-5-4l-6-18c-3-8-9-15-15-21l-32-35-28-29-32-30-4-5c-1-1-4 1-2 3l33 31 28 29 33 36a156 156 0 0111 13 49 49 0 015 9l6 18a13 13 0 005 5 11 11 0 0010 1 23 23 0 004-3c2-1 0-4-1-3z" fill="#fc7500"/><path d="M165 111l86 86 5 5c3 10-16 29-25 25-2 0-4-2-5-5-12-20-18-31-26-40l-5-5c-9-9-24-24-45-48l-35-33-9-8a5 5 0 01-1-2c-3-4 4-11 4-12 7-8 15-8 16-8a5 5 0 011 1l4 4 5 5 30 35z" stroke-width="5" fill="none" stroke="#000" stroke-miterlimit="10"/><path d="M153 128a70 70 0 00-15 61c-5 1-32 4-55-15a73 73 0 01-25-41l50-25c21-17 30-27 33-33 1-2 4-7 7-7a137 137 0 0031 27c1 0 5 2 4 3l-2 2-28 28z" fill="#dfecf6" stroke-width="2" stroke="#000" stroke-miterlimit="10"/><path d="M135 169a90 90 0 01-44-22 3 3 0 00-4 5 96 96 0 0046 23 3 3 0 004-2 3 3 0 00-2-4zM74 139l6 7a3 3 0 002 1 3 3 0 002-1 3 3 0 001-2v-1a3 3 0 00-1-1l-6-7a3 3 0 00-2-1 3 3 0 00-3 3v1a3 3 0 001 1z"/><path d="M171 96l-26 34a173 173 0 00-10 16 52 52 0 00-7 20 58 58 0 002 21c1 4 7 2 6-2-3-11-3-24 3-35a146 146 0 0111-16l11-15 14-18a3 3 0 000-5 3 3 0 00-4 0z" fill="#b9d5ea"/><path d="M152 128a70 70 0 00-15 60c-5 1-32 4-55-15a73 73 0 01-26-40l51-25c21-17 29-27 33-33 1-2 4-8 7-7 2 0 3 2 4 3 17 17 24 22 27 23 1 1 4 2 4 4l-2 2c-3 1-10 8-28 28z" stroke-width="4" fill="none" stroke="#000" stroke-miterlimit="10"/><path class="cls-10" d="M185 147zM184 146l1 1-1-1zM184 149c0-1 0 0 0 0zM185 148zM205 161zM204 163zM204 160v0zM194 153l1-1-1 1zM204 171v-1 1zM200 167a1 1 0 011 0zM203 160zM204 172a4 4 0 010 1 1 1 0 010-1zM204 163zM199 166a3 3 0 011 0h-1zM194 153zM186 148c1 0 0 0 0 0zM228 183zM224 178z"/><path class="cls-10" d="M215 180v1h1l1 1 1 1h1l2 1c0-1 0 0 0 0l1-1c0 1 0-1 0 0v1h1s-2 0-1 1l2-1h1v-1h1v1l1-2 1 1v-1 0h1l1-1v-2l-1 1v-1l-1 1 1-1v1l-1-1-1 1v-1h-1v-1 1c-1-1-2 1-1-1h-1-1l-1 1v-2 1c0-1-2 1-1-1l-1-2a5 5 0 010 1v-2 1-1c-1 1-1-1-3 1v-2l-1 2-1-1 2-2h-1 1l-1 1v-1h1l-3-1h-1l-1 1 1-1h-1l-1 1v-3 1l-2-2 2-2v1c1-2-2 0-1-2v0h-1v1l-1 1h-1l1-2v-1h-1a3 3 0 01-1 1s0-1 0 0c-1 2 1-1 1 0v2a5 5 0 00-1 0c1-1-1-1-1-2l1-2h1v-1l-1 1v-1 0a3 3 0 00-1 1h-1a1 1 0 01-1 0l2-2v-1h-1l-1 1v-1 1-1c-2 1 0-1-1-1v1-1h-1v-1 1-1h-1a5 5 0 011-2l-1 1h0-1v1c-2 1-1-2-2-2l1-1v-1h-2v1l1-1-1 2c0 1 0 0 0 0l-1-2-1 1c1-1 2-2 1-3v1h-1v2l-1-2v-2l-1 1v-1l-1 1-2-3a2 2 0 01-1 0 1 1 0 010 2v-1 1-1-2l-1 1h-1 1l-1-1v-1 1h-1l1 2c1-1 1 1 1 1l2 2v1-1 1h1v-1 2c2 0 2 2 2 3h1v1a3 3 0 001-1 2 2 0 000 1h1v3l1-1a1 1 0 001 2 2 2 0 000-1v1l1 2 1-1a3 3 0 011 1v1-1l1 1v2l1-1-1 2h1v2h1l1-1v1-1 2h1l-1 1h1v-1l1 2h1l2 1a5 5 0 00-2 0l2 1v1l1-1v1c3 0 2 3 3 3h1v1l1-1zm-10-8zm-14-17zm18 13v-1 1zm2 2v-1 1zm0 6v-1 1s1-1 0 0c0 1 0 0 0 0zm-4-4h-1v-1l1 1zm-6-6zm-1-1v-1 1c0 1 0-1 0 0zm9 8l1-1v1h-1zm-11-11l1-1-1 1zm2-1l-1 2 1-1h-1zm-2 2c1 0 2 0 1 1l-1-1zm-2-2c-1 0 0 0 0 0v-1 1zm2 2v-1zm-2-3l1 1-1-1zm-7-9v1zm3 3zm3 2l-1 1 1-1h-1v1c-1 0 0-2-1 0l1-2a1 1 0 001 1zm4 3a1 1 0 01-1 1l1-1zm0 1v-2 1zm1-1l-1 1 1-1v1zm4 7c2-2 1-2 1-3l-1 2c-1 0 1-1-1-1l1 1h-1 1zm3 2zm9 6l1 1-1-1zm4 4v-1c0-1 0 0 0 0v1zm2 2l1-1zm1-1v-1zm3 1l-1 1zm-1 1v-1l-1 1h1v-1 1zm-2-1a1 1 0 011 0v-1s1 0 0 0h1l-1 1a2 2 0 01-1 0zm1 3v-1zm-7-7v-1l1 1h-1zm-9-7v-1 1zm-1 0v-1 1zm5 4v1zm2 4c0-1 1-1 0 0v-1 1zm5 4zm-7-5l1-1s-1 0 0 0h-1v1zm7 6v1-1zm-6-3zM223 178z"/><path class="cls-10" d="M209 165h-1a1 1 0 011 0zM208 164zM187 147c0-1 0 0 0 0zM187 149a1 1 0 000-1v1zM187 148zM190 150h-1l1-1v1zM190 151zM191 151l-1 1v-1h1zM198 154zM198 156h1l-1 1zM194 160v-1 1zM200 157v-1a1 1 0 010 1zM201 157v1-1zM202 159zM213 170h-1 1zM222 177z"/></g></g></g></svg>