<svg xmlns="http://www.w3.org/2000/svg" viewBox="50 70 309 309"><defs><clipPath id="clip-path" transform="translate(53 78)"><path d="M129 97a148 148 0 00-22 41c-7 21-7 37-7 49 0 0 0 19 10 30a10 10 0 004 3 11 11 0 003 1l45 3 12-1a22 22 0 009-6c9-9 12-22 14-34v-22c-5-24-30-41-29-65a64 64 0 00-39 1z" fill="none"/></clipPath><style>.cls-8{fill:#fffae1}.cls-9{fill:#fbec9f}.cls-10{fill:#ff8564}.cls-12{fill:#fff9de}</style></defs><g style="isolation:isolate"><g id="圖層_2" data-name="圖層 2"><g id="圖層_1-2" data-name="圖層 1"><circle cx="200.3" cy="225.7" r="142" fill="#fdfcef"/><path d="M87 250l100 2a50 50 0 0011 0 51 51 0 0010-2c1-4 2-15-5-21-2-2-4-4-17-4l-20-1-60 1a17 17 0 00-8 2c-9 5-11 17-11 23z" transform="translate(53 78)" fill="#c4afb5"/><g clip-path="url(#clip-path)"><path d="M129 89c-4 24-20 43-28 66-4 11-5 23-2 34a51 51 0 007 15 50 50 0 005 7 11 11 0 006 4h10l10 1 20 1 10 1a31 31 0 009-1c5-1 9-5 13-9 6-9 10-19 11-30a82 82 0 001-19 49 49 0 00-4-15c-3-9-9-16-14-24s-10-16-11-25a34 34 0 01-1-7 2 2 0 00-1-1l-22-3c-7 0-13-1-19 2-2 1-1 3 1 3 6-3 13-2 19-1l21 2-2-2c0 19 14 33 22 49a66 66 0 016 12 49 49 0 012 17 95 95 0 01-2 17 65 65 0 01-4 14 40 40 0 01-10 13 18 18 0 01-6 4 26 26 0 01-9 1l-38-3h-10a8 8 0 01-4-1 15 15 0 01-3-3 47 47 0 01-8-13c-4-11-5-22-2-33 6-23 21-42 28-64a74 74 0 002-8c0-2-2-3-3-1z" transform="translate(53 78)" fill="#fff"/><path class="cls-8" d="M129 95l-1 1 4 4a58 58 0 0114-12l-3-4 3 3a56 56 0 00-14 12l-4-3 1-1zM136 95zM186 212a82 82 0 007-9 85 85 0 01-7 9z" transform="translate(53 78)"/><path class="cls-8" d="M86 189l-1 2-8 11-3 4-2 3-6 7 5 3 2-4a92 92 0 016-11 111 111 0 0110-12 114 114 0 0112-12l9-6 1-1a153 153 0 019-6l9-5a87 87 0 0010-9l-4 3a148 148 0 0014-15c6-6 7-7 1 0l21-26 14-19-18 15a488 488 0 00-65 62c-23 26-46 55-67 83l5 3c14-25 30-46 45-63a699 699 0 0124-26l-7 6-4 5 20-20 5-5 9-9 18-16 3-3 5-5a115 115 0 0014-18l10-16-15 12-19 17 5 2a7 7 0 012-3 7 7 0 014-3l-3-4-4 11a174 174 0 01-8 17l-1 1-1 1v2l-5 6-4 6-4 6 18-9 3-2-3 1-6 4a2 2 0 00-1 1l-5 5-10 11-18 20-10 10 4 4c4-4 5-6 0 0l16-17-8 8a502 502 0 0144-42l-7 6 21-17-4-4-7 7 7-7 4 4-6 5 6-5-4-4a562 562 0 00-41 44l6-6c-5 5-13 14-22 27l3 3c17-18 39-41 61-61l-3-3-45 53 3 2 11-15-7 9 14-18-4 5-4 6 8-10 11-13a356 356 0 0133-33l-3-3-62 88 3 3 34-37a365 365 0 0135-31l-3-3a719 719 0 00-52 55l-3 3 4 3c5-6 2-2 0 0l-4-3 1-1-1 1 4 4 9-11 9-9c4-4 0 1-2 3l12-12-6 5a23 23 0 00-2 2l19-16-1 1 7-5-3-3-18 24c-9 11-18 23-26 37l-9 13 12-11 47-46-3-3-11 13 11-13 3 3-1 1 1-1-3-3a235 235 0 01-14 17l-4 4-3 4 3 2a97 97 0 0126-26l-3-3c-6 11-14 21-20 30l-11 15 13-13 14-11s4-5 14-12l-1-1-14 22-2-2a37 37 0 019-5l6-3-4 6-1 2a5 5 0 000 1 79 79 0 01-8 9l-6 5a72 72 0 006-6 79 79 0 0010-11l4-6-7 2a35 35 0 00-5 2l-2 1-3 2 4 4 12-17-12 17-4-4a35 35 0 0110-5l8-2-5 6-2 2 2-2 5-6-9 2a36 36 0 00-9 5l4 4 13-18 2-3 12-15-15 11-3 2-1 1-6 4-19 16 4 4 9-12 12-18 9-13-13 9a102 102 0 00-15 13 105 105 0 00-12 14l4 4 13-14-2 2 11-13-5-4-23 23-1 1-23 22 5 4 11-17 9-12 24-31 13-17-17 13a311 311 0 00-46 42l4 4a708 708 0 0154-59l-3-4a379 379 0 00-38 35l-31 34 4 3 62-88 12-17-16 14a351 351 0 00-28 27c-7 6-10 11-14 15l2-3a359 359 0 00-23 31l4 3 46-53-4-4c-20 19-41 40-61 62l4 3a568 568 0 0157-64l-3-4a521 521 0 00-67 62l4 4 66-72-20 12h-1l1-2 1-2 1-2 3-6a177 177 0 009-21l2-4h-4a12 12 0 00-3 1 13 13 0 00-7 6 13 13 0 015-5h1a14 14 0 00-3 2 13 13 0 00-3 5 12 12 0 00-1 3l-1 6 5-4 19-16-4-4-3 5-5 6a170 170 0 01-14 16l-22 20a472 472 0 00-59 64 355 355 0 00-29 44l4 2a1442 1442 0 01103-120l28-24-3-3a641 641 0 01-30 36 90 90 0 01-10 8l-11 8-11 7a120 120 0 00-11 8 117 117 0 00-9 10 112 112 0 00-8 9l2-2-5 8a116 116 0 00-8 13l-7 16 11-14a219 219 0 0017-22 220 220 0 0016-29l4-8-8 6a57 57 0 00-12 13l4 3 30-43c10-14 23-25 35-35l-4-4a237 237 0 00-22 30 232 232 0 00-12 21l2-5-6 14 4 2 10-16 13-19 7-11 14-19 16-22 10-13-13 11a245 245 0 00-21 19l-19 20v-1l-18 22 3 2a165 165 0 0121-24 169 169 0 0118-15l3-3 4-2-2-3-24 18c-8 7-16 15-22 24l3 3 33-38 12-13-15 10-22 14 3 3 1-1 14-21 5-8-8 4a62 62 0 00-7 5l-4 3a53 53 0 00-5 6l3 2a38 38 0 003-7 18 18 0 002-4h-2a76 76 0 01-6 9l3 2a62 62 0 0115-12l-3-3-1 2 1-1-7 11-8 10-7 11 11-7 8-6-8 6-11 7 7-11 7-10-4 6 5-7-8 11-8 11 12-7 4-3-4 3 22-15-3-3-4 4-6 6-8 9-15 19 4 3a111 111 0 0120-23l24-18-3-5a170 170 0 00-47 45l5 4 27-31a263 263 0 0130-29l-4-4q-21 27-40 56l2-3-22 34 5 3a233 233 0 0122-40l5-6 3-3 7-9-4-4a221 221 0 00-32 33l-34 46 5 3a52 52 0 0111-12l-4-4a212 212 0 01-12 23zM179 109z" transform="translate(53 78)"/><path class="cls-8" d="M232 187z"/><path class="cls-8" d="M165 137zM174 115v1h-1v1h1-1l-2 3-1 1-1 1h1l-1 1v1h-1l-1 3a43 43 0 01-3 3h-1l1 1h-1l-1 1v1l2 4h1-1 1v-1l1-1h1v-1l3-4 4-5v-1h1a46 46 0 012-4l1-1 2-3v-1l1-1a4 4 0 010-1 5 5 0 001-2h1l-4-2h-1 1-1l-2 3-1 1a10 10 0 01-1 2zM106 175h-1 2-1zM106 176h1a1 1 0 010-1h-1v1h1-1s1 0 0 0zM106 175zM130 187h1-1zM147 189zM131 187zM129 189zM135 187zM127 189l1-1h-1zM142 190zM142 190zM131 187zM130 187zM134 187c1 0 0 0 0 0h1-1 2-1c1 0 0 0 0 0a2 2 0 01-1 0l-1-1v0h-1l-1 1a14 14 0 002 0h1zM133 187zM134 187zM131 187zM131 187zM136 189z" transform="translate(53 78)"/><path class="cls-8" d="M135 187h-1l1 1a3 3 0 01-1-1s-1 0 0 0a1 1 0 00-1 0s-1 0 0 0h1v1h1zM131 187zM129 186v-1l1 1a4 4 0 001 0s0 1 0 0h-2 1c-1 0 0 0 0 0a1 1 0 01-1 0zm0 0zM108 177zM122 186zM119 185z" transform="translate(53 78)"/><path class="cls-8" d="M162 257z"/><path class="cls-8" d="M116 183h-1 1z" transform="translate(53 78)"/><path class="cls-8" d="M172 264z"/><path class="cls-8" d="M123 187zM123 186zM126 188zM123 186z" transform="translate(53 78)"/><path class="cls-8" d="M161 255z"/><path class="cls-8" d="M108 176zM114 181zM109 176zM109 176zM116 180zM108 176h-1a2 2 0 001 1 2 2 0 01-1-1l1 1-1-1h1zM109 176zM127 185zM126 185zM124 187s0 1 0 0zM126 185zM121 183zM122 184zM114 182zM126 185z" transform="translate(53 78)"/><path class="cls-8" d="M172 262z"/><path class="cls-8" d="M119 183h-1s1 0 0 0h1v1-1zM119 183zM117 182zM130 187h-1 1zM113 180zM118 183zM113 180v-1a1 1 0 010 1zM113 179z" transform="translate(53 78)"/><path class="cls-8" d="M130 187a4 4 0 011 0l1 1h-1l1-1v1h1c-1 0 0 0 0 0h3-1 1l1 1h0a2 2 0 002 0h-1 7a11 11 0 002 0h2-1v0a4 4 0 01-1 1h-2a3 3 0 01-1 0h-1a5 5 0 01-1 0h0a4 4 0 00-1 0 3 3 0 01-1 0h-1-1a2 2 0 01-1 0h-1a5 5 0 01-1 0 2 2 0 01-2 0v-1h-1c-1 0 0 0 0 0a1 1 0 01-1 0h-2 1-2a2 2 0 001 0h2v1h1a1 1 0 01-1 0v-1 1h-1v-1 1l-1-1h-1-1 1v-1c1 0 0 0 0 0h-1s-1 0 0 0h-1c1 0 0 0 0 0v-1 1l-1-1v1h1-1 1-1-1v-1h-2-1v-1 0l1 1v-1 1s0-1 0 0h0a1 1 0 001 0v-1h-1 1-1a1 1 0 01-1-1v1l-1-1v1h1s1 0 0 0h-2v-1 1h1l-1-1a1 1 0 011 0h-1a2 2 0 01-1 0 1 1 0 00-1 0h1-1 1a3 3 0 010-1h-1 1-2l-1-1h1v1h1l-1-1-1-1v0h-1l1 1a2 2 0 01-1-1h1-1v-1h-1l-2-1-1-1 1 1v-1s0 1 0 0h-1 1-1s-1 0 0 0h-1 1v-1c0-1 0 1 0 0h-1v1c0-1 0 0 0 0v-1l-1-1v0l-1-1 1 1v-1a1 1 0 000 1 1 1 0 000-1l1 1h1l1 1v-1h-1c1 0 0 0 0 0l-1-1h-1 1-1v-1 1h2c-1 0 0 0 0 0v1c0-1 0-1 0 0h2l-1 1h1s1 0 0 0a1 1 0 001 0l1 1h-1s1 0 0 0l2 1h1v1l-1-1c0-1 0 0 0 0a3 3 0 001 1s0-1 0 0h1a1 1 0 001 1s1 0 0 0h1a7 7 0 011 1h1v0a1 1 0 011 0h-1l1 1h-1 2-1 1-1a1 1 0 011 0h2v1a2 2 0 001 0l1 1v-1 0h1v0l-1 1h1s-1 0 0 0h1l-1 1h1c1 0 0 0 0 0a4 4 0 00-1 0h1a1 1 0 00-1 0h2zm17 2zm-22-3l1 1v-1a2 2 0 00-1 0 7 7 0 00-1 0h1zm0 0h-1 1zm-1 0zm4 1zm0 0zm-1-1h-1 1-1 1zm-16-8l1 1-1-1zm3 2a4 4 0 011 1v-1 0h-1 1a2 2 0 00-1 0 1 1 0 01-1 0s0-1 0 0v-1h-1 1-1 0l1 1h1zm7 5l-1-1-1-1a1 1 0 001 0h-1 1v-1h-1v1h1-1l-1-1h-2l-1-1v1h1v1h2l1 1h0l2 1zm1 0h1c-1 0-1 0 0 0h2a2 2 0 00-1 0h-1s0-1 0 0l-1-1v1c0 1 0 0 0 0zm5 3zM108 176s0 1 0 0zM108 176zM108 175s0 1 0 0z" transform="translate(53 78)"/><path class="cls-8" d="M162 254h-1 1z"/><path class="cls-8" d="M110 179v0zM143 191h1zM114 182a8 8 0 01-1-1l1 1zM114 182z" transform="translate(53 78)"/><path class="cls-8" d="M167 257zM168 261z"/><path class="cls-8" d="M115 183z" transform="translate(53 78)"/><path class="cls-8" d="M167 257z"/><path class="cls-8" d="M115 180z" transform="translate(53 78)"/><path class="cls-8" d="M169 262z"/><path class="cls-8" d="M116 181v-1 1zM117 182zM117 182zM118 183zM120 186zM120 186h-1z" transform="translate(53 78)"/><path class="cls-8" d="M171 260z"/><path class="cls-8" d="M121 186h-1 1zM120 184zM121 186z" transform="translate(53 78)"/><path class="cls-8" d="M174 263z"/><path class="cls-8" d="M121 183zM121 183zM123 185zM122 183s0 1 0 0zM124 187v0zM124 188zM123 185h-1 1z" transform="translate(53 78)"/><path class="cls-8" d="M178 266zM179 267z"/><path class="cls-8" d="M126 185h-1 0zM133 190c-1 0 0 0 0 0h-1 2l3 1h-1v-1l1 1v-1h-4zM132 190zM137 191zM131 190zM132 190h-1 1z" transform="translate(53 78)"/><path class="cls-8" d="M185 266z"/><path class="cls-8" d="M133 188z" transform="translate(53 78)"/><path class="cls-8" d="M186 265z"/><path class="cls-8" d="M139 191zM137 190v1h2a1 1 0 01-1 0h1a10 10 0 00-2-1zM143 191zM143 191h-1 1zM142 191z" transform="translate(53 78)"/><path class="cls-8" d="M193 269z"/><path class="cls-8" d="M140 191h1zM141 191z" transform="translate(53 78)"/><path class="cls-8" d="M194 269z"/><path class="cls-8" d="M141 191z" transform="translate(53 78)"/><path class="cls-8" d="M187 266h1-1z"/><path class="cls-8" d="M135 188h0zM136 187v1h1v-1h-1zM136 187zM138 189zM138 189zM138 189zM142 191zM146 191zM148 189zM148 189zM149 104l1 2-1-3 1 1-1-1v-1l-1-2v1-1h-1v-1c-1 1 1 4 1 5h1z" transform="translate(53 78)"/><path class="cls-8" d="M145 100l1 2h-1l2 2 1 3v-2l1 1-1-2-2-3v1l-1-4c-2-2-2 0-3-1l3 3zM148 104z" transform="translate(53 78)"/><path class="cls-8" d="M149 105a6 6 0 00-1-1v1a13 13 0 012 1l-1-1 1 1 2 2-5-5 2 2zM161 95a3 3 0 001 1l-1-1zM146 102l-1-1 1 1zM170 124v-1zM142 94zM178 133l-1-2 1 2a3 3 0 00-1-1l-4-4c-2-1 0 0 0 1a4 4 0 011 0l3 3zM171 109zM172 109h-1 1zM148 103l-2-1 1 1zM152 107v1l1 1-1-2zM141 94l3 2-2-2c1 2-4-3-3-2l-2-2 4 3-2-2c1 1-2-2 1 0a22 22 0 00-3-2l-3-2h1a11 11 0 012 2h-1v0l-1-1a21 21 0 012 3l-2-2c2 2 1 2 0 1a10 10 0 011 1l-2-2c2 2-2-1 0 1l11 10a7 7 0 01-1 0 26 26 0 014 3l-3-3a18 18 0 004 3l-10-10 2 1a10 10 0 012 2 2 2 0 001 0zM145 99zM143 96l1 1-1-1zM151 106l1 1a5 5 0 00-1-1zM148 104v-1 1zM156 103z" transform="translate(53 78)"/><path class="cls-8" d="M144 95l2 2v2l-2-2a7 7 0 001 2c0-1 1 0 0 0l2 1 1 1-1-1 2 1-2-2 1 1c-3-3 2 0-2-4l1 2zM151 106zM137 97l-3-2 1-1a3 3 0 011 1c0-1 1-1-1-2a5 5 0 012 1l1 1 3 3-3-3 2 1-2-1 1 1-2-1 3 2h-1l6 5a28 28 0 00-5-3l-1-1-2-3v1l1 2-1-1s1 1 0 0zm0-1v0zM141 103zM164 128zM171 137l1 1a2 2 0 00-1-1zM139 104v1zM128 116a5 5 0 001 0 1 1 0 00-1 0zM171 137zM172 134v-1a2 2 0 000 1zM165 128a2 2 0 000-1zM172 129zM167 129l-1-1a2 2 0 001 1z" transform="translate(53 78)"/><path class="cls-8" d="M202 188v1-1z"/><path class="cls-8" d="M146 106v-1 1zM135 114a6 6 0 011 0h-1zM161 124zM161 124zM160 124zM147 106l-2-3-1-2a17 17 0 01-1-2v1-1l-2-3 1 6c0-1 0-2 1-1l1 2c-1-2 0 0-1 0h2l1 2 1 1zM158 121zM139 101l-1-1a8 8 0 001 1zM138 101zM173 132zM138 101zM141 110h1a4 4 0 00-1 0zM144 111v1zM125 111zM138 101h-1zM148 118zM147 118l-1-1 2 2a8 8 0 012 1l1 1a7 7 0 01-2-2l1 1-2-2h1c0 1-3-2-2 0zM146 117zM143 116zM153 109h-1 1zM147 117zM150 121zM150 119h0zM151 119z" transform="translate(53 78)"/><path class="cls-8" d="M153 109h1v1l-2-4-1-1 1 1 1 1-2-3 2 3c-1-2 3 1 0-1l4 3-3-2v-1h1l-3-2 1-1a37 37 0 004 3l-4-3 2 1-3-2h2c1 1 5 5 3 2l-1-1v1h2l-1-2a22 22 0 012 3l-3-4h1a26 26 0 003 3l-1-1 3 3c2 1-3-3 0-1a15 15 0 00-2-2l1 1-1-2h-1l-2-2 4 2-2-3a10 10 0 013 2l-2-3 1 1h1a7 7 0 001 0 11 11 0 01-2-1l1 1c2 0-2-4-1-4l3 2a17 17 0 01-2-1 10 10 0 011 1c3 1-3-4-1-3l3 3 2 1 1 2h1a8 8 0 001 1l-1-1 3 4-1-1s-1 0 0 0l1 1 1 1-3-1 3 3-2-2 2 3a14 14 0 00-2-2c-1 0 1 2-1 1a35 35 0 014 4l-3-3-2-2 2 2-2-1 2 2a1 1 0 000-1v1a22 22 0 002 2l-1-1 2 1v1l-1-1v1l-1-1h-2l5 4c1 2-3-1-1 1l-2-2s2 2 0 1l-2-2 1 1 2 1 1 2a8 8 0 00-2-1l1 1-1-1c2 2-2-1 2 3l-4-3-1-2-2-1 1 1 1 2 4 4-4-2 1 1h1v1l1 1-2-1 2 2-2-1 2 2-2-2c-2 0 3 4 1 3a11 11 0 00-2-2v1a2 2 0 001 0 42 42 0 013 4h1l-1-1c2 2-1-1 0 0 3 2 2 2 3 4l3 1-1-1-2-1 1-1-2-1-1-1-1-1 3 2-2-3-2-1 4 3-2-3 2 3h1v1l-2-1a16 16 0 013 2c-1 0 5 4 3 4a17 17 0 00-2-2 5 5 0 000 1l2 1c1 1-3-2-1 0 1 1 0 0 0 0l-4-2 3 2a35 35 0 01-3-2l1 1 2 2a7 7 0 01-1-1s-2-2-1 0a24 24 0 01-3-4c-1-1-1 0 0 0a33 33 0 01-4-3l1 1-1-1-2-2 1 1 5 5-2-1 1 1-2-2v0h-1l1 1-5-5v1a5 5 0 012 2h-1c0-1 0 0 0 0l4 4a9 9 0 012 2l1 1a9 9 0 00-2-3c-1-1 1 1 0 0l-1-1 2 1-1-1 2 2c1 1 0 0 0 0l-1-1 2 2 1 1 1 1h1-1l-2-1 1 2a21 21 0 00-2-2l1 1-2-1-2-2c0 1 7 7 4 5h-1v1l-3-2a25 25 0 00-3-3l3 2a16 16 0 00-1-1l1 1-2-2 2 2-2-3a42 42 0 013 3l1 1-1-1a5 5 0 011 0l1 1-3-3h-1a36 36 0 00-3-3l-5-5 1 2 2 1 1 1h-2a11 11 0 00-2-2 5 5 0 01-1 0 22 22 0 013 2l-4-3 4 5-2-2 6 5a49 49 0 00-4-3l-1-2 1 1 1 1 2 1 1 1c1 2-2-2-1 0l1 1 2 2c1 1-3-3-1 0l2 2v1l-1-1h1c-2-1 0 0 0 0l-2-1c2 1-1-1-2-3l2 3-1-1a17 17 0 01-3-3 9 9 0 011 1l-1-2 1 1-2-2h-1l8 8h-2l-2-2 1 2-1-2a3 3 0 000 1c1 0-1-2 1-1l2 2-2-2a21 21 0 01-2-2v0a42 42 0 00-5-5l3 3a17 17 0 012 3l-1-1v1l-1-2 2 3-2-2a25 25 0 003 3l-1-1 2 2 1 1s-3-3-2-1l2 1-2-1-59-4 15-18a1 1 0 000-1 22 22 0 005 1 1 1 0 000 1l-19 76 54-58a14 14 0 012 2l-40-21h-1l-24 84 66-62s-2-3 0 0c2 0-3-4-1-2l-2-2c-2-2 0 0-1 0a7 7 0 00-1-1l1 1c1 1 0 1 0 0l-33-17a14 14 0 002 1c0-1 1-1-1-1h2l-2-1s2 0 0-1h-2l-1 1-2-2 3 1-1-1h1l-1-1c-1 0-2 0-1 1a6 6 0 01-2-2c-1-1 1 0 1-1 1 1 6 2 4 3l1 1 3 1-2-2 3 2 1-1h1c-1-1 1-2-3-3 2 1 0-1 0-1h-2a19 19 0 00-3-3 12 12 0 012 1c1-1 2-2 0-4 1 0 4 2 3 0l-1-1s1 2 2 1v-1-1l2 1v2l-1-2c-2 0 0 1-1 1l2 1c2 1 0 2 3 3 1 0-4-4-1-3l2 3h1l-1-1c2 1-2-2-2-4l-5-3c0-1 1-1 3 1a5 5 0 001 2 9 9 0 012 2l4 3-2-3a4 4 0 010 1v-1h1l-2-3c-1 0-3-2-4-1a13 13 0 013 2v1l-1-1-3-3 1-1 5 3 2 2-1-1a2 2 0 001 1l-2-3 3 3 3 2a2 2 0 01-1-1l1 1v1l2 2 1 2v-1a17 17 0 011 2l-1-1 1 2v-1 2-1a42 42 0 003 4v1c1 0 1 0 0 0l2 2h1a21 21 0 00-2-1h1a24 24 0 01-3-3l2 1c0 1-1 0 0 0l2 3-1-2-1-1h1a2 2 0 000 1l1 1-2-3c-1-1 0 0 0 0l1 1 2 3 2 2v1h1-1c0-1 0-1 0 0h1-1l1 1-1-1h1c-1 0 0 1 0 0h-2 1l-3-1a15 15 0 002 1h1l-26-15-1-1a48 48 0 014 4c1-1-1-3-2-4l3 2-4-3 1 1v-2l8 6a18 18 0 01-1-2c0 1 1 1 0 0l-3-2-4-4 2 1h-1a9 9 0 012 2c1 0 3 3 4 2l-1-1a4 4 0 001 1l-1-1 3 3a24 24 0 004 4l-3-3 1 1-2-3a5 5 0 001 1l-5-4c2 2-2-1 0 0a20 20 0 00-3-3l1 1-1-1 1 1c-1-1 3 2 0-1h1l-3-3a19 19 0 012 2c2 1-1-1-1-2l3 3-1-2a7 7 0 01-1-1l1 1-1-1a10 10 0 012 1c0 1-2-1 0 0v1c0-1 4 3 3 1l1 1-3-3-2-1h1l-2-1 3 2a45 45 0 01-4-3c-2-2 2 2 0-1l2 2-2-2 5 4v1l2 1a14 14 0 002 2l-2-2-1-1-2-2 1 1v-1l-6-5 1 1 13 12h3l3 3h-1l-2-2 1 2 2 1 2 1-1-1-3-3-1-1zm11-12v0zm-7 21h1c-4-2-7-5-6-5v-1l-1 1 6 6h1zm-7-5l1 1a10 10 0 01-1-1zm2 2zm3-2h0zm-2-1l2 1-2-1zm-5-3l3 3a3 3 0 001 1h1l-1-1a12 12 0 01-2-2l-1-1h-1zm3 8l1 1 1 1s-3-2-1 0l-3-2c-1-2 0-1 1-1l1 1zm-5 0a5 5 0 00-1 0l5 4 4 1 2 1-2-1 2 1h2a65 65 0 01-6-2 29 29 0 00-3-2h1l2 1-1-1 3 2a20 20 0 002 1l-1-1 3 2-5-3 2 1-4-2a15 15 0 00-2-1l-1-1h-1l-1-1 1 1s1 1 0 0h-1zm9 5l-6-5h-1c-2-2 3 3 0 1l-4-4 1 1h-1l-2-2h1l2 1-3-3c1 1-1 0-1 1l-3-3 1 1a15 15 0 00-3-3l1 1 1 1 1 1a16 16 0 01-1-1l1 2c1 0 0-2 2 1v-1l2 3c1 1-1-1 0 0l2 2c-2-2-2-1-2 0l1 1 1 1v-1 1a17 17 0 00-2-2s-1 0 0 0a5 5 0 00-1-1l2 3 4 3v1l1 2-3-3h1l1 1a16 16 0 00-1-1 6 6 0 01-1-1l3 2h1l-3-2 1 1h2-1a12 12 0 01-3-2h-1s-2 0-1 1h-1l1 1 7 3h-1 1l2 2-1-1h1-1 1l-3-4a16 16 0 01-2-1l2 1a28 28 0 003 3 4 4 0 001 1 10 10 0 00-2-2s4 2 2 0l2 2c2 1-2-2-1-2l1 1-2-3 2 1zm-1-3h-1l-1-2a13 13 0 01-3-2l2 1c1 1 2 1 0 0 2 2-3-3-2-1l-1-2a19 19 0 004 3l-1-1a14 14 0 00-2-2s-1-1 0 0a4 4 0 001 1 22 22 0 002 1l-1-1-1-1-1-1c1 1 0 0 0 0l-2-1v-1l-1 1 2 1-3-2 2 3-1-1 3 4s-1-2 1 0l1 1 3 2zm17 8z" transform="translate(53 78)"/><path class="cls-8" d="M149 110a6 6 0 00-1-2l1 2zM150 111v-1 1zM157 120l-1-1 3 4-2-3c-1-2-1-2 0 0z" transform="translate(53 78)"/><path class="cls-8" d="M214 203l-1-1 1 1z"/><path class="cls-8" d="M132 102v0zM183 117l-1-2a6 6 0 001 2zM135 114l-3-3c-2 0-1 1 0 2s2 1 0 1zM125 110l4 3c0-1-2-1-1-2z" transform="translate(53 78)"/><path class="cls-8" d="M214 203zM179 194v-1l-1 1h1z"/><path class="cls-8" d="M125 115h1z" transform="translate(53 78)"/><path class="cls-8" d="M214 203z"/><path class="cls-8" d="M156 122h-1 1z" transform="translate(53 78)"/><path class="cls-8" d="M218 215v-1 1z"/><path class="cls-8" d="M160 124zM147 119h-1a3 3 0 001 0zM147 119h-1 1z" transform="translate(53 78)"/><path class="cls-8" d="M147 118c-1 0-1 0 0 0v1l1 1-1-1v-1zM173 137a6 6 0 01-3-1l2 2 1-1zM172 138z" transform="translate(53 78)"/><path class="cls-8" d="M187 187l-1-2v1l1 1z"/><path class="cls-8" d="M173 137c1 1 0 0 0 0zM151 119s2 2 0 0zM169 133a12 12 0 01-1-2l1 2z" transform="translate(53 78)"/><path class="cls-8" d="M205 197h-1l1 1v-1z"/><path class="cls-8" d="M135 105l4 4c2 1-1-2-1-2a22 22 0 01-3-2zM138 107zM148 113z" transform="translate(53 78)"/><path class="cls-8" d="M137 106l2 2-3-4 1 1zM175 134l1 1-1-1zM176 135zM148 114h0z" transform="translate(53 78)"/><path class="cls-8" d="M226 210zM230 212v-1h-1l1 1z"/><path class="cls-8" d="M137 101l2 2v-1c-2-1 0 0 0 0zM178 126v-1a8 8 0 00-2-1l3 2a20 20 0 01-4-4l1 2a12 12 0 011 1l1 2a11 11 0 012 1 3 3 0 000 1h1v1h2l-2-2a12 12 0 011 1l-1-1 1-1 1-2-1-1-3-2h1l-3-2 2 2-2-1c1 1-3-2 0 1l-2-2 1 2 1 1-2-2 1 2a14 14 0 01-2-2l3 3a9 9 0 001 2zM176 124h-1 1zM183 125c1 0 1 0 0 0z" transform="translate(53 78)"/><path class="cls-8" d="M178 128a12 12 0 012 1l-1-2zM182 130l-1-1h-1a7 7 0 002 1z" transform="translate(53 78)"/><path class="cls-8" d="M201 181v-1 1z"/><path class="cls-8" d="M152 104c-1-1-1 0 0 0z" transform="translate(53 78)"/><path class="cls-8" d="M195 174l-1-1 1 1z"/><path class="cls-8" d="M178 118zM178 121l4 3v-1 1-1l-2-1 3 1v-2l-3-3c-1 0-2 0 0 2a10 10 0 00-1-1l2 1v1c2 1 1 1 0 1 0-1-3-3-1-2a16 16 0 01-2-2v3zM181 116zM180 116l2 2 1-1-2-1s1 1 0 0z" transform="translate(53 78)"/><path class="cls-8" d="M184 119a19 19 0 00-4-3c0-1 2 2 1 0h-1z" transform="translate(53 78)"/><path class="cls-8" d="M235 198l-1-1 1 1z"/><path class="cls-8" d="M181 119l-1-2zM182 119zM181 119h1zM181 119l3 1-2-1z" transform="translate(53 78)"/><path class="cls-8" d="M197 175v-1h-1 1v1z"/><path class="cls-8" d="M146 96h-1a5 5 0 001 0zM138 89l2 1 2 2a18 18 0 00-2-1 16 16 0 002 2l3 3c0-1 2 0 0-2l-8-6 1 1zM134 86l1 1-1-1zM158 103a20 20 0 00-2-1h1a7 7 0 011 1zM157 103v-1 1zM158 103zM183 119c1 1 1 0 0 0zM183 113v1a4 4 0 000-1zM161 94zM161 94l-1-1 1 1zM203 186c0 3-2 6-2 4a25 25 0 01-2 6l2 2a7 7 0 01-2 5c-1 0-2 0-1-2a107 107 0 01-4 11l4-6-3 6c-2 2-3 5-2 7a116 116 0 006-12v1l5-10v3a22 22 0 002-7 3 3 0 00-1-3c-1-1-2-1 0-8a11 11 0 01-2 3z" transform="translate(53 78)"/><path class="cls-8" d="M179 173l-1 6-7 6c1 1-2 6 1 3a14 14 0 012-3c1 1-1 4-2 6s-2 3 0 3l5-10c5-5 8-8 11-9a7 7 0 000-3l5-22 11 31a4 4 0 011 2v-1h3l-4-51-18 38-4 5 2-6 20-45 6 59 1 5a8 8 0 002-4l23-58-54 41c-4 2-7 7-10 9h2s1 1 5-2zM205 183zM162 152c-2 1-2 2-2 3l18-14c-2 0-7 3-4 0-2 0-6 4-6 6v-2c-3 4-8 4-6 1l-6 14c4-3 1-4 6-8zM112 103l-2 3a15 15 0 002-3zM154 164l-2 5a17 17 0 002-5zM158 119l-1 2 1-2zM105 148l1-1a13 13 0 00-1 1z" transform="translate(53 78)"/><path class="cls-8" d="M177 182l4-9c0 2 2-2 2 0l1-3-1 1c1-5-2-4 2-12-5 4-5 6-6 9l-1 3-2 9zM153 120v0zM154 122l-1-1s-1 2 1 1zM154 162a4 4 0 010 2l2-3-2 1zM156 152l6-6 2-3-8 9zM95 158l4-5v2c0 2-2 6 1 3l5-10-4 5-2-1c0-1-1-3-6 4-1-4 5-11 9-14 3-1 2 0 1 2l-2 6c4-5 3-5 3-8 7-6 10-16 17-18 4-5 3-6 4-9-1-3-7 6-11 6h2l-5 4c5-4 2 2 0 5l-4 4 2-3-5 5-4 6v-3l-9 16 1-5-7 12-5 6-5 6 2-1a15 15 0 01-4 6l-126 92 170-54c1-1 2 0 2 1 2-5 15-11 19-18l14-31a19 19 0 01-2 3c-4-1-5 1-3-4-3 4 0 4-6 9 2-3 0-5-5-1-11 12-15 24-23 36L24 343l54-161 2-5 6-6 4-6 4-5c0 4-2 8-5 13l4-5c2-1 3-4 4-6z" transform="translate(53 78)"/><path class="cls-8" d="M119 198a8 8 0 00-1 0 3 3 0 001 0zM88 174l1-1zM148 161l1-3-1 2v1zM153 161v1h1l-1-1zM154 119l1-2-1 2zM110 145c-4 5 2 2-4 9l2-2a54 54 0 01-3 5l-4 5-2 3-2 3-4 5c0-2-4 3-5 1l-3 6a20 20 0 00-2 5l-14 96 40-73a5 5 0 000-2c3-1 6-6 9-8-2 1 2-6-4 1v-1c-4 2-5 5-7 7l-58 76 37-94a20 20 0 012-4c2-2-2 6 0 3l8-11c3-4 4-7 2-8 3-4 4-4 6-5 1-4 6-10 10-15s8-8 6-10l-7 10zM140 168h-1 1z" transform="translate(53 78)"/><path class="cls-8" d="M150 127l-2-4 10-14 37 40a101 101 0 00-11 8l1-2-11 9-10 9c-2 2-8 6-7 4a16 16 0 01-3 3c-1-1 3-3 2-3l-1 1c0-2-5-2 3-8 4-1-5 4-2 5 3-2 2-2 2-3 3-3 3-2 4-1 0-2 5-4 6-7 6-5 1 2 5-1v-4l7-5c4-4 3-5 2-6s-2-3 3-7c-1 1 2 2 6 1l-26-27a28 28 0 00-4 4 53 53 0 003-6l28 31-8 5c4 0 2 1 0 3s-5 3-2 4c1-4 6-7 9-9v1a10 10 0 002-2l-32-34c-1 3-2 6-6 10-2 3-2 2-2 1l-3 4zm4-6l3-4a9 9 0 00-3 4zM203 187l-1 1a5 5 0 001-1zM143 161l2-2a21 21 0 00-2 2zM194 177l-2 4a12 12 0 002-4zM176 165l-1 1z" transform="translate(53 78)"/><path class="cls-8" d="M149 159a10 10 0 002-1l-2 1zM194 176v1zM117 175v2a7 7 0 000-2zM127 178a11 11 0 00-1 2zM157 199l1-3a13 13 0 00-1 3zM119 184a4 4 0 000 1v-1zM182 202h-1zM181 213l-1 1-18-12 1-1-1 1 18 12a15 15 0 001-1zM186 121l3-1c0-2-1-3-3 1zM172 176a10 10 0 011 3l-1-3zM173 179l-1 2a14 14 0 001-2zM193 157a2 2 0 00-1 1l1-1z" transform="translate(53 78)"/><path class="cls-8" d="M165 199l2-6c0-2 1-3-3 2-1-2 4-7 6-10-2 2-1-2-2-2a24 24 0 01-3 6c-2 0 0-4 2-6-3 2 2-5-2-2a92 92 0 00-10 17l31 21a44 44 0 004-11l-6 10-26-19a38 38 0 015-7l1 3a21 21 0 00-5 5l24 17 5-8-6 7-22-15 3-4c2-2 3-2 3-1a32 32 0 01-3 5l2-2z" transform="translate(53 78)"/><path class="cls-8" d="M166 199a3 3 0 000 1zM120 174v-1 1zM180 198zM104 198zM140 229c1 0 0 0 0 0zM104 199v-1 1zM168 144a7 7 0 001 0h-1zM177 163zM174 119a23 23 0 00-2 3 17 17 0 002-3zM104 198a6 6 0 010-1 5 5 0 000 1zM153 184zM143 195a4 4 0 000-1c-2 5-8 12-6 14 1-2 7-8 7-6l6-8c-4 4-2-1 0-5 3-2 1 2 3 0l5-7-5 5v-3l-1 1c-5 11-3-1-9 10z" transform="translate(53 78)"/><path class="cls-8" d="M143 194a8 8 0 001-2 3 3 0 00-1 2zM154 199zM168 140c1 0 7-3 6-4l-5 3zM194 152l1-2a4 4 0 000-1 7 7 0 00-1 3zM143 204a5 5 0 001-2 5 5 0 00-1 2zM190 151l-3 1-1 6a24 24 0 014-7zM186 158z" transform="translate(53 78)"/><path class="cls-8" d="M165 142l-1 1v-1l-4 3a18 18 0 01-1 1 1 1 0 000-1l-1 1-10 14a49 49 0 01-8 8c2-2 5-4 3-5-4 3-8 3-13 10l4-3-7 11c-4 1 3-6 4-8-6 8-15 9-16 14-2-1-5-3-10 1 5-1-1 4 3 3-1 3-6 4-5 6v-1a28 28 0 00-3 1l-21 13 15-17a17 17 0 005-9v-3a19 19 0 011-4 96 96 0 019-12l4-5 5-5a8 8 0 008-3c0-2 6-10 5-12-6 5-3 6-5 9-5 2-2-1-7 2l8-9c3-4 6-7 8-7v1c5-4 10-1 16-12l3-5a2 2 0 000 1 28 28 0 013-3l6 7c-4 2-5 1-11 7l1-1c-5 2-9 8-12 11-3 0 0-2 0-4-8 5-15 15-18 20l-6 4c3-3 5-8 3-8-2 3-1 3-5 6l1-7c-9 5 1 5-7 7-2 2-3 5-2 6l-6 2c1 1 0 2-1 3l-3-3a87 87 0 016-8c-1-1-4 2-5 4-1-2 2-6 4-8 4 1 14-17 15-11 8-12 22-28 27-37 3-1 8-6 6-2 8-9 10-16 18-24l-2 4 7-8 5 7a53 53 0 00-14 6l2-3-2 2-5 3 1-1c-10 4-18 9-26 15l-24 18-42 27 33-37 2-3a20 20 0 00-2 3l-26 39 34-29c4-3 4-5 4-6l-5 3-20 12 16-17 6-10c1 0 3-1 2 1 10-8 10-18 21-29l-9 18 5-2-4 7c4-2 5-8 7-7l-2 4c4-3 3-5 6-7-4 9-17 23-23 31v-2a25 25 0 01-3 3l-7-10a27 27 0 006-4c2-3-2 1-5 2 0-2 1-2 3-4 2 1 14-8 18-7 7-5 5-5 4-6s-2-1 5-4l5-1c7-5 16-12 26-15l-2 1c-1 1 1 1 2 1a47 47 0 008-4l32-16-22 30c-3 3-5 6-8 7-3 8-11 19-17 27-4 0 7-11 8-15l-6 7c4-4 4-7 5-10-5 5-5 9-9 14l-4 2 1 2-1 1-8 10c3-1 4 0 6-2-1 0 0-3 3-5-1 3 3-2 3-1a169 169 0 00-12 15h-2c-5 4-8 10-11 13v-2l-15 16-6 13-21-20a57 57 0 004-6c0-2 5-5 9-8s10-7 12-10l-4 7c4-3 5-8 8-7-9 6 2 1-2 5 4-4 9-7 10-10-7 6 1-4-6 2a64 64 0 0118-17h5l1-3c3-2-5 6 2 2a26 26 0 015-6l20 24c-5 6-12 11-11 16-6 3 6-10-2-5 3-5 9-9 9-12-4 5-3 0-6 3l-2 5 1-1-11 14-13 14-6 13a62 62 0 01-8 12c1-3-6 8-4 0-4 4-6 9-5 10l4-4a14 14 0 01-2 4 26 26 0 01-3 4l-26-23a12 12 0 012-1v1c5-3 1-3 4-6 2 1 8-6 11-8l3-5c-1 3 5-4 6-3 3-4 4-7 9-11-1 2 5-3 7-2 4-3 7-6 9-10s6-7 11-10c0 1-1 3 2 1l7-6 1-2 4-6a41 41 0 016-6l63-57-32 90a14 14 0 01-1 1l2-1 105-85-138 51-8 6-1 3c-2 0-4 1-5 3l-4 3c2-4 10-11 17-17l107-82-72 120a54 54 0 00-3 6 24 24 0 006-5L322 30l-157 72c-7 2-14 8-20 12l5-2-5 4 6-2-12 10c5-4 8-3 5-2-6 3-4 5-7 8 2-1 4-3 3-1-8 4-9 7-17 10 3 2-7 7-7 10l3-2-4 6c-8 3 3-6-7 0-8 7-6 9-12 15 1-4 5-9 10-13l-4 1c1-2 8-8 12-10-4 6 3-2 7-3-1-2-5 1-1-3a82 82 0 01-10 8c11-9 5-14 16-21-4 4 4 1 5 1l8-8-4-1c3-3 6-4 9-5a18 18 0 009-6l-4 1-2 2c6-6 11-8 17-10l186-57-146 100a65 65 0 00-7 5c0 1 2 2 0 6 0-2-2 0-1-4-3 2-4 6-5 9 5-5 0 4 0 5-3 3-1-1 0-4-2 3-6 4-5 7-2-1 1-10 4-14l-2 3 4-6c-4 2-5 1-5-1l1 1c2-2 3-5 2-5-1-3-4 3-6 4l-3 4-3 17c-3 6-6 7-10 10l1 3c-4 4-7 8-7 4l1-2a2 2 0 010-1l-5 9c4-10-2-2-4-6l-5 9c4-4 1 1 0 3-2 0-4 7-7 10a33 33 0 00-4 5 65 65 0 00-3 6l1 10c4-6 3-2 4-1l-1 2 2-1c3-7 7-14 7-18-3 1-2 4-4 6a17 17 0 013-6l4-8h3l3-6c-1 3 1 2-2 8 2 0 3-6 6-9l-1-3c1 1 6-6 4 0l-4 10 2-2-4 8v-3c-6 13-6 1-11 14 0 5-2 9-7 16 2-5-1-1-2-4a14 14 0 00-3 5l-45-30 2-6c2-1 4-1 0 4 1 1 2-1 3-3s3-3 4-3c6-8 7-12 8-17s3-9 12-17l1 1a133 133 0 0112-15l12-13 10-6c-1 2-4 8-1 7a20 20 0 00-7 4 52 52 0 01-7 6l3-1-7 7c1 0 5-3 2 0l-5 3c-5 7 0 6-7 13 0-3 1-7 3-10-3 3 3-5 0-3a21 21 0 01-5 7 45 45 0 00-6 8 8 8 0 012-3l-9 9c3-2-5 9-3 9l8-9a91 91 0 018-9l-4 12a2 2 0 000 1c0 3 2 2 5 4 2-7 6-9 10-16 0-2-5 2-7 5l4-6v2l12-13-3 6a32 32 0 016-4c-2-1-3-2-1-4 8-8 14-11 19-13v-1c-2 0 4-8 5-12l3-1 25 22a33 33 0 01-5 4c1 3 5 3 9 1a5 5 0 001-1l-14-66-21 35c-2 5 0 4-1 8l-7 11v-4c-5 4-7 10-8 8l6-10-3 2c3-7 4-1 9-8-4 0 1-1 2-5-3 1-10 12-11 7 2-3 8-6 13-9l36 31a10 10 0 00-3 5c-5 7-5 10-6 14-3 2-5 7-7 10l-1-1-3 5c0-3 4-5 7-9l-2-1c5-3 4-8 5-12-2 6-10 14-8 17l-4 2v2c-3 1-3-2-1-7h2c1-3 1-6 5-11l-1 4c4-7 8-13 8-16a318 318 0 00-20 26c2 5 2 10 4 13-3 7-8 15-12 19l-1-1a23 23 0 00-4 7c-3 2-1-3-2-2l-4 8-43-29v-1 2l42 28 6-10-1 1c4-3 6-12 9-12 1-2-1 5 4-2 4-3 3-6 2-7s-6 6-5 3c-2 3-2 5-6 9 2-3 4-9 6-10 3-8-2-9-4-6 2 0-7 13 1 5-1 5-6 12-8 18l-4 6v-4l-2 7-37-24 1-4c-2 6 3-2 6-4-1-2 0-6-3-3s0 2-3 6l2-7v-4c5-7 2 6 7-4l-4-1 13-14 10-13c0 3 2 5 5 3l-10 13c-1 1 1-7 5-11-5-1-6 13-10 11-10 11-3 11-12 20 2 1-1 3 0 5 5-1 9-14 15-20a7 7 0 00-1 3 33 33 0 006-10c2-7 4-2 7-5l3-6 6-4-2-2c2-3 4-3 5-7l-2-1-6 8c2-5-1-3 2-7-2 6 4-3 6-3l1-4v1c3-1 2-3 5-6-4 3-7 4-10 10a93 93 0 017-13l9-9c-5 7 6 2-5 13l1-1c-3 0-5 7-7 11 2 0 0 3 4-1-2 1 1-6 6-10l2 3 5-7v1c3-1 5-7 10-11l8-11 47-91-24 106c0 2 0 3 2 1l26-19-53 1 106-57-79 75c-4 4-3 9-5 14l4-5c-1 8-2 5-1 13h-3c-5 10-12 24-13 31-3 7-7 6-11 17 0 2 4-1 0 6-1 0 1-8-3 0 0 4-2 7-5 11l-34-21a23 23 0 004-7c3-2 7-8 8-6-4 5-9 12-9 14h-2l32 19v1l-32-20a7 7 0 010-1l-1 1 34 20 5-12c-1-1-4 3-4 5-3-1 6-16 0-11-4 7-2 12-4 17l-28-17a12 12 0 012-3 10 10 0 01-1 4l25 15c1-3 3-6 2-9l-4 6v2l-21-13 1-3v1c9-8 4-10 9-20-5 4-3-4-7-1 4-5 7-9 10-8-6 12 2 3-3 14 2-1 1 5 6-1 3-7-4 1 0-6h2c1-4 3-3 4-8v1c4-3 2-6 6-8-2 0-1-1-1-3l60-127-33 142a30 30 0 00-1 5 27 27 0 013-4l90-95-120 78a29 29 0 00-10 8c1 2 2 2 0 6l4-5-1 3-5 4c4-6 1-5 1-8l6-8c1 1 2 0 3-1l132-96-99 115-11 16 1-4c2-6-3 3-4 3l-1 4s0-2-1 0a14 14 0 00-1 6 13 13 0 01-2 5c-1 0 0-5-3-2-1 0-6 2-9 9l-2 5a4 4 0 000-1l-2 2-16-11 2-2a8 8 0 01-1 3l14 9c1-3 5-5 5-9l-1-2c2-3 3-7 3-10l-5 11c-2 0-1-4 0-5v2a15 15 0 004-8 36 36 0 014-9h1l4-9c2-3 3-6 3-10v3a30 30 0 011-4h-1l-7 18h1l-3 3-5 12a12 12 0 004-3c0-2 5-8 3-8 3-2 5-8 7-10-4 3 1-4 0-5l4-4-7-4h-1v-1l9 5a5 5 0 00-2 3c-1 3 2 0 3-2l-12-7c0 2-1 2-1 0l14 8-14-8c-2 8-7 17-10 25l3-4-4 7-3 4 5-9-3 4c-1 2-2 4-3 3l-3 11 3-4c0 2-3 5-6 9l6 4 6-6-4 7-10-6a34 34 0 006-8c2-5-4 1-2-3a10 10 0 00-4 5l-1 1 3-9c1-4 4-7 4-10a3 3 0 000 1 37 37 0 008-13l-3 5 2-7c-3 4-2 1-4 3l4-8c2-1 1 2 2 2l4-6 22 13a11 11 0 00-2 3c5-6 1 3 0 6l1-1c0 3-1 4-3 5 1-3 3-5 1-5a37 37 0 00-3 5v-2l-6 8 1 8c-2 1-3 4-4 7v-2c-3 3-8 10-8 13l-36-22 1 1 34 20c0-4 6-18-4-3L99 329l55-132c4-8-1-7 0-12 2-3 1-4 2-7l-3 6c-1-2 4-7 4-10 0 4 4-6 3-3a34 34 0 007-19c5-3 3-8 8-15l-2 5c0 5 5-7 3 0 0-2-1-1-1 1-1 2-2 5 0 5l4-5-1 2 7-8h-2c5-7 9-17 12-25l23 15-6 6c2 2-2 7-6 13s-9 12-10 16c0-2-2-5-3-5 1-1 1-6 4-9 1 0 5-3 4 0 7-9-3 0-2-4-8 10-10 18-14 25h-1l-2 6c3-4 5-2 1 3v-1c-3 2-7 9-10 14l-1 4c-4 4-6 2-9 3-6 7-6 13-9 19l-7 8-27-18c0-1 1-1 1 1l25 16a8 8 0 010-1 10 10 0 000 1l-25-16c2-7-4-10 7-19l-1 4c7-12 16-30 21-34 1 4 4 1 8-2s9-8 12-8c-2 0 1-4 1-5a5 5 0 003-4c-4 4-2-6-6 3a32 32 0 012-11l29 26a46 46 0 01-8 10l-2-2 7-5c-2-1 0-3 1-4l-26-23a9 9 0 000 1l1-1 25 22c-5 4-6 3-6 2s-1-2-6 4l-3 4c1-1 1-2-2 0l-1 3c-3 1-2-1 0-3s3-4 0-3l6-10 2-5a15 15 0 00-6 8c-1 3-2 6-6 9h-2c-2 3-1 5-2 7l-3 2-7 17c5-7 7-9 10-11l11-11c-2 2-9 11-7 14l-2-2c-3 5-5 9-10 14l2-4c-5 7-13 9-14 16a24 24 0 003-4l-9 12-3 10c-1-1-5 4-5 1-5 4-5 8-6 12l-35-23v-1c3-4 2-1 1 2l32 21c2-3 3-5 2-6l-4 4-28-18c5-8 9-15 10-20l-3 2 4-6v-2c3-3 4-2 3 1 2-3 2-8 6-11-2 7-8 13-9 17a34 34 0 019-12c3-2 6-6 10-13 1 0 0 3 2 0 4-6-1-3-1-6-2 6-5 7-8 9v-2l4-3-1-2c1 1 6-2 8-7-4 3-3 2-6 1 2-7 6-4 8-12 1 1-3 7 1 2 3-3 1-4 2-7 0 4 2 4 2 9l-6 10 5-5c-4 6-1 6-1 7 9-9 3-9 8-15 1-4-4 5-2 0 4-6 0-2 4-9v1c2-1 2-4 4-6 1-3-8-2-1-12l1 1 6 21 20-25 7 7-9 6c-2-1-1-3 2-5l4-4 1-1h-1l-4 4 3-5 2 2c-2 2-4 4 0 4l1-2-5-5c-5 8-10 12-14 22 5 0 9-12 15-16a31 31 0 00-4 7l8-10 7-8-10 5-8 5-1 2a93 93 0 018-5c-6 4-10 9-9 12l1-1-1 2zm-61-26a1 1 0 000 1l2 7 1-3a2 2 0 001-1l-1 1-4 6 1-11zm14 108l16-23c-7 6-12 11-14 11-1 0-2-1-1-3a81 81 0 017-12l1-2a44 44 0 00-4 6l-5 7-1 10-1 10-8-6v-2a3 3 0 00-1 1l10 7 3-4zm-2 1c4-4 2-4 2-5l-3 5h1zm1-5a5 5 0 01-1 1zm49-75v1l3-3a12 12 0 00-3 2zm-8 8l1 2 2-3a3 3 0 00-3 1zm-25 25l-2 6v5l2-2a293 293 0 014-7c-1 2-3 3-4 1 6-2 1-5 5-10 0-2-5 5-5 7zm35 26a16 16 0 002 0v2l-12 30 6-34v-3c4-6 10-10 10-18a15 15 0 016-4 42 42 0 01-2 4c-4 19-9 7-12 22l2 1zm39-78a2 2 0 000 1l2-8 2-10-5 8c-6 12-12 21-17 27 3 0 9-6 12-8l-1 4h-2l-3 6c2 0 5-4 8-6l6-13-7 5 9-11-8-5-1 3 2-2 6 3-3 5c-1-1 4-7-1-4a21 21 0 012-3h-1c-2 6-7 13-9 16h-3c-3 4 1 4-3 9 3-7-3 0 0-5-2 1-3-1-5 4 1 6-5 5-4 11-3 2-1-4-4 1-1 8 0 8 2 9 4-6 0-8 3-13v12a11 11 0 002-4 15 15 0 00-1 6v3c3-6 5-11 7-11l1 1c2-2 2-5 2-7 2-5 3-11 5-11v2l7-15zm-34 19a20 20 0 0010-1c-3 2-8 7-13 15v-1c-8 6-8 17-17 26 2-6 2-6 2-13l-2 6c-1-3-4 3-6 6v-5l5-7c0 1 9-6 12-11-2-1-9 10-8 3-2 5-4 4-6 9 1-5-2-2-1-6l-4 7c-1 0 6-11 0-7-2 4-8 11-6 12h-1c-4 5 1 4-4 10l3-3c1-2 0-3 3-8 2 0-4 5 1 4 2-1 6-11 6-7l-4 5c2 2-1 5 1 6-2 4-6 6-6 10 0 2 4 1-1 6-3 1-7 6-10 11l12 8 6-10 2-4c-1-1-5 7-5 4l4-7 1 1 3-7c0 3-4 7-1 8l5-6-1 2c5-6 2-7 3-9 2-8-7 4-8 2l12-18v4c4-4 1 1 6-5-3-2 4-9 5-14 3-1 3-2 0 3 2 0 6-6 8-8l2-5c-2 1-2 0 0-4v-1c-6 6-14 14-16 19v-2c-6 6-8 18-14 19h-3l-2 6v-2l-6 10v-1l-3 13v2a12 12 0 01-2 4 11 11 0 01-2 2 30 30 0 004-4l-3 5-2-2 3-4c-1-2-3-2-7 2l10 6-9-6c1-2 0-3-1-1a1 1 0 01-1 0l12 8c1-2 3-6 1-5 5-8 17-19 23-33-5 10 6-5 0 5 7-6 2-7 7-14 1 0-3 4-2 6 8-11 10-21 18-32l2 1h1l-10-9zm-17 21l-4 6-4 7c4-3 8-4 4 1 0-1-2 0-1-2-4 3-11 9-8 9 4-8 5 1 7-5-1 4-3 6-5 9 1-3-3-2-7 2l-8 10c3 0 1 4 6-1a24 24 0 01-7 8l2-4-6 4-3 3a3 3 0 011 0l-1 4c3-5 2-1 3-1-1-1-2 3-4 5l5-2c0 2-6 5-3 5l12-17-3 2c5-8 6-3 13-11 1-4 10-12 8-14l3-2 5-5c0-5 8-14 5-12s-4 7-8 7l4-5-4 2c2-1 1-2-2-3zm11 13z" transform="translate(53 78)"/><path class="cls-8" d="M179 205c0 2-3 6-1 6-2-1 4-7 1-6zM175 209v2l-8-5a4 4 0 011-1l-1 1 8 5 2-5-2 3zM180 209a16 16 0 014-8c2 1 1 2 0 4s-2 5-1 6a23 23 0 004-8 22 22 0 013-7l-7 6c-2 3-4 6-3 7zM182 215l2-4-2 5z" transform="translate(53 78)"/><path class="cls-8" d="M150 189c-1-1-1 0-2 1l40 23v-3a19 19 0 00-1 3l-38-23a7 7 0 001-1zM178 114l15-18 64-75-89 38 87-36-62 73-15 18z" transform="translate(53 78)"/><path class="cls-8" d="M183 125l11-19 68-97-38 117-1 2 1-2 76-116-107 96c-8 8-6 15-15 21zM177 116c3 0-3 8 0 8 3-6 0-4 4-9z" transform="translate(53 78)"/><path class="cls-8" d="M235 213v-4 4zM204 231v-2l-3 4 3-2z"/><path class="cls-8" d="M152 150l-1 1z" transform="translate(53 78)"/><path class="cls-8" d="M232 207l-2 4v2l2-6z"/><path class="cls-8" d="M203 136l2-4c0 1-5 4-2 4z" transform="translate(53 78)"/><path class="cls-8" d="M186 254l-2 4 2-4z"/><path class="cls-8" d="M190 163c3-1-5 6 0 3 3-4 1-3 0-3zM146 200a6 6 0 00-1 2l1-2zM146 200l4-4-4 4zM133 212l-1 1c0-2 0-1-1 1l4 3v-3 3l-3-2 1-3z" transform="translate(53 78)"/><path class="cls-8" d="M161 124l2-1 44 38c-4 4-5 5-6 4-4 4-1 5-3 9l9-13-44-38zM198 174l-1 2a14 14 0 001-2z" transform="translate(53 78)"/><path class="cls-8" d="M215 285l-1 5 1-2v-3z"/><path class="cls-8" d="M153 131l4-2c-1-2-5 3-4 2zM176 156l-4 5c1-2 5-2 4-5zM143 150c1-1 3-2 4 0 0-2 0-6-4 0z" transform="translate(53 78)"/><path class="cls-8" d="M237 225h-1l-2 4 3-4z"/><path class="cls-8" d="M156 147c-1 5 9-5 5 4 8-9-3-1 2-8-3 4-6 5-7 4zM163 143a22 22 0 002-2l-2 2zM144 193a10 10 0 001-2 10 10 0 00-1 2zM184 168l4-7c-3 5-12 14-9 15l7-9zM89 206l2-3-3 3c1-1 1 2 1 0zM87 207l1-1a2 2 0 00-1 1zM153 181a24 24 0 004-5c-1 0-5 4-4 5z" transform="translate(53 78)"/><path class="cls-8" d="M198 299l-3 4 3-5v1zM215 280h1l2-5-1 1-2 4z"/><path class="cls-8" d="M101 202c-3 3-2 7-1 7l4-7c-3 1-1 2-4 5zM127 198c0 2-5 8-6 7v-2-1l-1 7-40-35c4-2 4 0 2 2l36 31a50 50 0 011-5l2-4a31 31 0 00-5 8l-33-28a52 52 0 017-7 16 16 0 01-6 2c-1-2 6-6 10-10-3 1-2-1-1-3a3 3 0 001-1v-1h-1c-4 4-8 5-11 7 4 0 0 3-4 6l45 40a26 26 0 004-6l2-4 1-1v3c0-2 4-7 3-8l10-12a5 5 0 011-1v-1l37-40-38-45-15 11 10-5c-3 6 5-3 5 0a19 19 0 01-7 5c0 1 4 0 4 2a17 17 0 007-7L262-78l-86 214c-1 3-2 6-6 9 0-1 1-4-3 0l1-1c-6 8-8 3-9 10l-2-1-10 14v-1l-6 9a69 69 0 00-7 9l2-7c-4 3-3 6-5 9 0-1-2-1 0-4l-7 16c-1 4 1 0 3 0z" transform="translate(53 78)"/><path class="cls-8" d="M90 171a20 20 0 003-3l-3 3zM124 111l4-4a31 31 0 00-4 4zM107 150c-3 1 1-3 1-4l-9 8 1 2zM96 155a7 7 0 01-2 3l5-4c0-1-1-1-3 1z" transform="translate(53 78)"/><path class="cls-8" d="M178 265l-2 2-2 2 4-4z"/><path class="cls-8" d="M94 185l-4 5-26 55 39-44 2-2-2 2-44 34 32-45a31 31 0 003-5z" transform="translate(53 78)"/><path class="cls-8" d="M165 289L64 403l68-142 3-4h-1l-2 4-61 148 94-120z"/><path class="cls-8" d="M97 142l-2 2a19 19 0 002-2z" transform="translate(53 78)"/><path class="cls-8" d="M131 113c-5 3-4 1-2-1s5-6 3-6l-5 5v-1l-7 5 4 1c-9 7-4 1-11 5l-10 8 1-1a3 3 0 00-2 1l-21 19 38 38 9-10c4-6-5 2-3-4l-10 11-31-31c4-3 6-5 5-6h2l2-5-4 3c2-6 16-16 19-16-7 6-1 5-13 13 1 0 4-1 2 1 11-10 23-18 34-29zM175 114v0zM171 118l-3 7 8-8-1-2-4 5zM164 133c3-5 1-7-2-5 3-5 4 0 5-5-2-1-5 5-6 6z" transform="translate(53 78)"/><path class="cls-8" d="M188 243v-2l-3 3 3-1z"/><path class="cls-8" d="M135 163l3-3a4 4 0 00-2-1zM145 152l4-4zM142 155l3-3-3 3zM138 160c1 0 3 1 7-4l-3-1z" transform="translate(53 78)"/><path class="cls-8" d="M158 231l2-4-3 4h1z"/><path class="cls-8" d="M124 133a23 23 0 002-3 7 7 0 00-2 3zM130 110c5-3-4 7 4 0 2 1 0 5-4 8-1-1 3-4-1-3-1 4-2 4 0 5-3 5-2 6-3 10 3-6 15-14 18-22a5 5 0 000-4l30 35a6 6 0 001 2l-33-38a45 45 0 01-4-3c-1 0-9 8-8 10zM121 114a15 15 0 00-3 4l3-4zM134 145l-2 4 5-5a4 4 0 01-3 1zM139 142l-2 2a12 12 0 002-2zM133 145a4 4 0 001 0h-1z" transform="translate(53 78)"/><path class="cls-8" d="M157 140c1 1 2-2 3-3a16 16 0 00-3 3zM113 89h-3a6 6 0 003 0zM115 98a1 1 0 010-1 1 1 0 000 1zM115 97l6-7 2-3c-2 3-8 8-8 10zM219 192l-1 1h1l2 1v-1l3 1-1-1h1l-1-1h2c-1-2-5 0-6 0z" transform="translate(53 78)"/><path class="cls-8" d="M225 189l-3 1v-1h-3 1l-4 1h2a2 2 0 01-1 2h2v-1l3-1h4c3-1 1-2 2-3l-3 2zM219 192zM173 141l-1 1 1 1 2-1h-1l1-1 2-2-6 3 2-1zM156 102a1 1 0 001 0 5 5 0 00-1 0zM169 142l-2 1a14 14 0 002-1zM198 128h1l-1 1v-1zM158 138zM212 127l-2 1 1-1a2 2 0 00-1 0l-6 2h2l4-1zM176 106zM177 106h-1 1zM171 141l-2 1h2a1 1 0 010-1zM177 139h2a17 17 0 00-2 0zM157 140c-1-1 3-1 3-2h-2c2 1-5 3-3 3-3 2-4 1-3 0l4-2-2 1c0-1-4 0-1-2l-3 1c-3 1-1 1-3 3a5 5 0 011-1v1a4 4 0 012-2v1h-1c0 1 3 0 2 1a9 9 0 01-2 1l4-1-3 1c3-1 3 1 2 2a3 3 0 011-1c1 1-1 2-2 2 2 0-1 3 2 2l14-5a2 2 0 01-1 0l4-2-3 1 4-3-14 3c2-1 1-1 1-2l3-1a7 7 0 000-1zM165 140zM161 139zM175 139l1-1a5 5 0 01-1 1zM172 141h-1a4 4 0 001 0zM169 126z" transform="translate(53 78)"/><path class="cls-8" d="M159 137s2-2 3-1l2 1-3 2h3l1 1 2-2c1-1-1 0-1-1l2-1c-2 0 0-2-4 0l1-1c-4 2 0-3-4 0a2 2 0 001 0zM174 138zM164 152l-4 2-1-3a2 2 0 011 0c-1 0-1-2-3-2l2-1h-1l2-1 4-2-4 2 2-1-1 2h1l-2 1 3-1v1l7-3-4 3h-2c-2 2-1-1-3 1 1 0 2 0 1 1h2l-1 1h1zm-1 0c-1 0-1 0 0 0zM222 183zM206 146c1 0 1 0 0 0zM219 146h0zM221 180zM217 160zM219 146zM214 139a3 3 0 00-1 0 1 1 0 001 0zM206 144a1 1 0 00-1 0zM207 133h-1a1 1 0 001 0zM207 142zM213 188zM218 188h0zM215 167a5 5 0 01-2 1l2-1zM193 194l1-1a4 4 0 00-1 1zM194 193h1zM188 177a2 2 0 001-1l-1 1zM218 188h5l2-1h-1 2l3-1-6-1c1 1 2 1 1 2h-2v-1l-1 1-2 1h-1zM200 193zM169 155h-1a3 3 0 001 0zM210 189s-1 0 0 0zM170 157zM211 134zM170 157zM183 164l1-1a2 2 0 00-1 1zM185 160zM223 162zM170 157a8 8 0 01-1 0 6 6 0 001 0zM194 162zM194 164h-1 3l2-2v-1a3 3 0 01-3 1l2-1-1-1v1l-2 1h1c1 0-3 1-1 2zM193 164a2 2 0 00-1 0h1zM192 169zM179 140c-1 0-2 1 0 0zM206 176h-1 1zM198 162zM202 178a11 11 0 01-2 1h2v-1zM202 179z" transform="translate(53 78)"/><path class="cls-8" d="M179 139v-1h1l-5 1-1-1h1c1-1 3-3 1-2l-4 1 3-1c-2 0 2-3-1-1 2-1 5-3 4-4l-3 2h-1 1c2-3-3 0-4 0l-1-2 3-3-4 1h2l-3 2c1-1-2-1 0-2 1-1 6-4 3-4l-2 1 1-1s2-1 0-1c1-2-1-1-2-1a8 8 0 013-1h-6l1-1a10 10 0 004-1l-1-1 3-1c2-2-4 2-1-1l-3 2 2-2h-3l-1 1-2 1c3-2-1-2 3-4l-5-2 2-2c0-1-4 1-4-1h2c-2 0 1-2-1-3h2a5 5 0 01-3 0h1c1-1 0-2-2-2l-3-2 3-1h-2a4 4 0 011-1c2-2-5 0-4-2h5l2-1 2-1c1-1-2 0 0 0l1-1h-1c4-1 5 1 6 1h-2l1 2 1-1 1-1c-1 1 0 2-2 3 1 1 5-2 4-1l-1 1 3 1a5 5 0 00-2 1c0 1 3 1 1 2a20 20 0 016 0c-3 2-3 0-5 1l1 1h0l-1 1 2-1a1 1 0 00-1 0l2 1 2-2h-1l1-1a2 2 0 002 1l-2 1 1 2h-1v2l6-1c2-1-2 3 2 2a23 23 0 01-3 1s2-1 0 0l-2 1a2 2 0 002 1c-1-1 3-2 1-2 3 0 4 0 3 1a3 3 0 00-1 1h1l-2 1c3-1 0 2 4 0-1 2-2 0-3 2h-3l-2 2 2-1c2 0 2 2 3 2h6l-3 2h2v-1l1 1h-1 2v2l2-1-1 2 3-1-3 2c-1 2 5-1 4 1l-2 1 1 1a19 19 0 015-2c2-1 1-1 0-1l-1 1c2-2-1 0 0-1h5c2-2 2-3 1-4l-1 1-2 1v-1l-2 2c1-2-1 0-1-1l-1 1 2-3c-3 2-1 0-4 1l-2 1 4-3h-4 4l1-1c1-1 1 0 1 1-2 0 0 0-2 2l3-2v-1l5-1-3 2a4 4 0 002 1l2-2c1 0-3 3-1 3l1-1c2 0-2 2-3 4a23 23 0 014-2l-4 2h2l3-1-2 1s-2 2 0 1l-5 1h-1a13 13 0 01-3 2h0l-2 2 7-2-1 2 2-1-2 2a4 4 0 01-1 0 13 13 0 002 0l-7 4h2l2-1c-2 1 0 1 0 1-1 1 0 1 1 2l5-3 2-1 2-1a5 5 0 00-5 0c-1 1 1 0 1 1l-2-1 1-1h-1l3-1v-1l-2 1 2-2h2l1-1 1 1h-1c2 1-3 3-1 3h3l-3 2h3-3c-2 2 1 1-1 2 1 2 9-3 7 1h-1c2 1 1 2 2 3l-2 2a9 9 0 00-4 2l2-4a7 7 0 00-1 2v-2l-1 1 1-1-4 1 5-2 2-1h-3 1v-2l-3 1v3a15 15 0 00-5 1 65 65 0 00-5 3c2-1 0 1 2 1l2-2h1-1v2h-2l-1 2 3-2c1 1-1 3-3 4h1l5-2c-2 1-1 1-1 2a35 35 0 006-4l-5 2h-2l1-1c1-1-2 0 1-1h2l1-1c2 0-2 2 0 1h1c2-1-1-1 3-2 1-1-3 3 0 2h3c-1 1 1 0 1 1h-1 1c-2 1-1 0-1-1l-2 1-3 1h4l-2 1h1c-1 1-3 2-4 1a4 4 0 011 0h-2l1-1h-3a5 5 0 001 3l10-4c1 0 2 1 1 2h-1l1 1-3 1 2 1-3-1a1 1 0 001 0c0-1-3 0 0-2-1 0 2 0 1-1l-2 1-2 1 1 1c-1 0-3 0-1-1l-7 3c1 0 2 1 4-1h4-1l1 1a8 8 0 00-2 0h3c-2 0-1 1-2 2l4-2h-1l2-1h2c0 1-5 2-2 2l2-2c0 1-2 4 0 4a21 21 0 00-6 3v-2h3c4-2-3 0 1-2 1-2-5 1-3-1l-2 1c-3 2 0 1 0 2a2 2 0 00-1 1h1c2 0-1 1-2 2h2l-2 1 2-1c0 1-1 1 1 1l1-1 1-1h2l-2 1h1-1c-1 1 1 0 1 1l1-2a7 7 0 012 1v1c-1 0-6 3-5 1 3-1 0-1-1-1l-3 2h3l-3 1v1h-1v2c1 0 1 1 4-1-2 2 1 1 2 1l1-1a14 14 0 004 0 11 11 0 01-2 1c0 1 0 3 3 2l-2 3h3c-1 0-3 0-2 1 2-1-1 1 1 1-1 1 0 2-2 2l-1-1 2-1c1-1-2 0-1-1l-1 1c-3 1-2-1-5 1 0 1 6-1 3 1h-3l-1 1 2-1v1c-2 2 3 0 4 0l6-2-2 2c-3-1-3 1-6 1l-4 1h3a3 3 0 01-1 0l2 1h-1c-1 1 2 0 0 1l3-1 3-2h-3v1a9 9 0 00-1 0l1-1 4-1 1 1c-3 1-4 3-5 4l-2 1h1a2 2 0 00-1 0h3l-3 1-3 2a1 1 0 011 1h-5-2l1 1a7 7 0 01-2 0h1c1-1-2 0-2-1-2 0 1-2-2-1l1-1h-5l-1 1v-1h-3a2 2 0 00-1 1h2v1l4-1-2 1c0 1 1 0 0 0l-3 1c2 0 2 2 3 2l1-1v1h-1c-2 0 0 0-1 1h3v-1c2 0 1 1 0 2-2 1 0-1-1-1l-4 1h1l-1 1-4-1a7 7 0 001 0l-1-1h1-2l-2 1c-1 0-1 0 0 0a19 19 0 012-1l1-1h-4v1c-1 0-2 0 0-1h1l1-1h-1l-5 1c1 0 0 0 0 0 1-1 0-2-1-1 1-1 8-1 6-3l-5 2a4 4 0 000-1h-2l1 1h-2c3-1 1-1 2-2h-2c2-2-1-1 0-2l3-1-1 1a3 3 0 002-1l2-1 2-2a5 5 0 00-1 1l-1-3c-5 2-3-1-7 0a35 35 0 005-2h3l-3 1c1 1 2-1 4-2h-6 1-1l-3 1h1c1-1-1-1-1-1h-2l5-3h-5c1-1 1-2 3-2-1 0-8 4-5 0h1c0-1-4-1-3-2 5-2 4-4 9-6h-2-1c0 1-4 2-2 2l-6 1 2-1-1 1 2-1c1-2 5-2 4-3h-1l1-1-2 1c3-2 3 0 5-2l5-1c0-2-5 1-4 0l1-1a22 22 0 00-4 2l1-1-6 1c3 0-1 2 1 3-1 0-2-1-4 1l2-1c-2 0-3 0-2-1h1c-2 0 2-3-1-2v1l-1-1-4 1 3-2h-3l4-2-3-1a3 3 0 01-1 1v-1l-1 1a4 4 0 013-2h-1 2c-2 0 3-3 0-3l2-1-4 2-1 1-1 1 1-1-2 1c2-1 3-3 2-3l-3 3c-3 1 2-2-1-1l2-1-3 1 6-3 1 1 1-2c1 1 2 0 3-1 2-2-3 1-3 0l-1 1-3 1 1-1h-1l-6 3a10 10 0 001-1l15-8a6 6 0 010-4c3-2 3 0 4-1v1c-1 0-1-1-3 1l3 1c3-2-1-1 1-3h1v-2h-1a4 4 0 010 1l-4 1h-1zm-20-37l1-1a3 3 0 01-1 1zm34 44v-3c-4 3-7 6-8 4a1 1 0 000 1l9-2v-1zm-7 4h1a4 4 0 01-1 0zm2-1zm-3-8v-1 1zm-2 2l2-1v-1a11 11 0 00-2 2zm-4 5l5-1a1 1 0 001-1v-1a7 7 0 01-1 1l-2 1c2-2-3 1-2 0l-1 1zm25 35h-1l-2 1c1-1 4-3 1-3a21 21 0 013-2 1 1 0 010 1c5 0-4 3-1 3zm1-9l-6-1a12 12 0 00-3 2l-2 1 1-1h-2l-2 2 5-1 1-1c-1 1 0 1 1 1s2-1 0 0l3-2v2l-2 2h1l-2 1-3 1c4-1-1 1 2 1l-3 1a16 16 0 006-2h-3l4-1h1a5 5 0 001 0l2-1v-1l1-1h-1s-2 0 0-1h1l-1-1zm-7-20c-4 2-7 4-5 6h-1c-2 2 4-1 2 2a25 25 0 00-5 1h1c-2 1-1 1-1 2l-2 1v-1l2-3-4 3h1l-4 2h1l-4 2h2 2l1-1-2 1 2-1c1-1-2-1 1-2v1l4-2s-2 2 0 1l3-1c-3 2-1 3-1 3h2c1-1-1-1 1-1v1h1-3v1a2 2 0 00-1 1l3-1 4-3 2 2a7 7 0 00-2 0c-1 1-2 1-1 2 3-2 2 0 4-1l-2 1-1 1h2a5 5 0 013-1c0-1 2-3 0-2v-1c2-1-3 0 0-2l2-1h-2 1l-1-1h1l-5 1a7 7 0 01-2 1h-1l2-2 1 1a11 11 0 003-2l2-1a4 4 0 00-3 1c-1-1 2-4-1-4 2 0 2-2 3-1 2-2-3 1-3 0l2-1c0-1-5 0-4-1l1-1zm-3-1l-1-1-2 1a5 5 0 01-3 2 10 10 0 012-1c1-1 1-3-1-1 3-1-3 2-1 1l-2 1a7 7 0 003-3l-1-1-3 2v-1a2 2 0 001 0l2-2h-1a4 4 0 010 1h-2l-1 1c1-1 0 0 0 0l-2 1h-1l1 2 1-2c2 1-2 2-1 3h3l-1 1 5-1s-2 0 0-1h1l1-1 3-1zm9-21zM213 189h2-2z" transform="translate(53 78)"/><path class="cls-8" d="M212 190h1l-1-1zM201 194h2l-5 1h4c1-1 2-2-1-1z" transform="translate(53 78)"/><path class="cls-8" d="M249 274h1l-1-1v1z"/><path class="cls-8" d="M226 174c2 0 0 0 0 0zM187 98l-2-2a16 16 0 002 2zM214 167h5c2-2-5 0-3-2zM224 163l-5 1h2z" transform="translate(53 78)"/><path class="cls-8" d="M241 261h-1 1zM273 238l1-1-1 1z"/><path class="cls-8" d="M221 159h-1z" transform="translate(53 78)"/><path class="cls-8" d="M236 263h1-1z"/><path class="cls-8" d="M194 176h0z" transform="translate(53 78)"/><path class="cls-8" d="M273 235h-2 2z"/><path class="cls-8" d="M187 177h-2 2zM196 167zM196 167c1 0 1 0 0 0zM195 165c-1 0-1 0 0 0h2-1-1zM219 143l-2 2 3-1-1-1zM220 144a2 2 0 000 1v-1z" transform="translate(53 78)"/><path class="cls-8" d="M235 253h-3 3z"/><path class="cls-8" d="M219 142c1 0 0 0 0 0zM195 158c-1 0 0 0 0 0s2-1 0 0zM213 143a5 5 0 01-2 1l2-1z" transform="translate(53 78)"/><path class="cls-8" d="M248 235h1-1z"/><path class="cls-8" d="M177 168c1-1 3-3 5-3 1-2-3 1-3 1a8 8 0 01-2 2zM179 166v-1a1 1 0 000 1zM186 155a4 4 0 001 0 5 5 0 00-1 0zM177 164h3-5l2 1zM214 134h1v-1l-1 1zM215 133zM188 155v0z" transform="translate(53 78)"/><path class="cls-8" d="M263 212l1 1-1-1zM266 208h-2 2z"/><path class="cls-8" d="M170 158l2-1v-1l-1 1zM200 116v1l-2 1 3-1c-1 2-4 2-5 2l3 1a5 5 0 011-2c2-1 1 0 2 1a4 4 0 012-2 1 1 0 001 0 7 7 0 001-1v-1c-3 2-1-1-2 0l-1-1a4 4 0 012 0h-2l-1-2a4 4 0 011 0 3 3 0 00-1 0l-3-5-1 1-3 2v-1l-3 2c-1 2 4-1 4 0-2 1-3 1-2 2h-1c2 0-2 2 1 0l-1 1a2 2 0 012 1l2 1-2 1h1l-2 1h4l2-2zM199 120c-1 0-1 0 0 0zM198 106v0zM204 119l2-1-1-1-2 2z" transform="translate(53 78)"/><path class="cls-8" d="M206 116a8 8 0 01-1 1 3 3 0 001-1z" transform="translate(53 78)"/><path class="cls-8" d="M222 217h-1 1z"/><path class="cls-8" d="M171 134v0z" transform="translate(53 78)"/><path class="cls-8" d="M213 220h-1 1z"/><path class="cls-8" d="M189 107zM193 110c2-2 2-1 5-2h-2l1-1a18 18 0 01-3 1l3-2-1-1-3-3-4 3c1 0 0 2 2 1a5 5 0 00-1 0h2l1-1c2-1 2 0 1 1-1 0-3 2-2 0l-3 1c2 1 1 3 4 3zM185 99h1a1 1 0 00-1 0zM185 100l3-1v-1l-2 1h1zM190 99a8 8 0 00-4 1c-1 1 2-1 0 0s0 1 0 1z" transform="translate(53 78)"/><path class="cls-8" d="M244 181h-1v1l1-1z"/><path class="cls-8" d="M190 103v-1l-2 1zM190 101zM190 102v-1a6 6 0 010 1zM190 102c1-1 3-1 2-2l-2 2z" transform="translate(53 78)"/><path class="cls-8" d="M213 216h-1 1z"/><path class="cls-8" d="M160 134a6 6 0 00-1 0 3 3 0 001 0zM149 138c2-1 3 0 3-2h3l-3 1 3-1a38 38 0 004-2c-1 0 0-2-2-1l-9 5h1zM146 141h0zM169 122a8 8 0 00-2 1h1l1-1zM168 123zM169 122zM190 100v-1 1zM182 93l1-1-1 1zM155 102a4 4 0 01-1 0 3 3 0 001 0zM154 102h-1v-1l1 1zM92 189l1-1h-3l2-1a22 22 0 01-2-1v1l-2-1h-1l1 2h-1a1 1 0 011 1l-1 1h5v-1z" transform="translate(53 78)"/><path class="cls-8" d="M88 194l3-1 1 2 2-2h-1c2-1 2 1 4-1h-3a2 2 0 010-3l-2 1a1 1 0 011 0l-3 2h1a36 36 0 01-5 1l-1 2 1 2 1-1 1-2zM92 190zM161 201v-1l-1-1-1 3 1-1v1l-1 3 3-6-1 2zM199 209a1 1 0 000 1 5 5 0 000-1zM163 197l1-1a20 20 0 00-1 1zM152 228v-1 1zM173 192a1 1 0 000-1v1zM143 238l1-2v2l1-1h-1l3-6-1 1a2 2 0 01-1 0l-2 4zM187 225zM187 226v-1 1zM162 199l1-2-1 2zM160 205h-1v2a15 15 0 001-2z" transform="translate(53 78)"/><path class="cls-8" d="M172 190l-1 4 2-2c-2 1 1-5 0-5 0-3 1-3 1-2l-1 5 1-3c0 1 2-3 1 1l2-3v-4a7 7 0 01-1 1v-1a5 5 0 01-1 3s0 1 0 0v-1l-1 1a11 11 0 011-2l-2 3 1-2c-1 3-2 2-2 0a5 5 0 010 1v-3c-1 2-1-2-2 1l-6 14a3 3 0 010-1l-1 4 2-3-1 5 7-13c-1 2 0 2 1 2l-2 3a6 6 0 001 1zM167 196zM170 193zM162 204l-1 1v-1a2 2 0 001 0zM162 200v-1a4 4 0 000 1zM174 208z" transform="translate(53 78)"/><path class="cls-8" d="M173 193l-1 3-2 1v-4l-1 3h-1l-1 2v1l1-1v2c1-1 1 2 2-2v1c2-4 2 2 3-3l-1 1zM163 204zM161 186l1-3c1-1 1 1 2 1a2 2 0 010 1l2-1a3 3 0 010 2h1l-1 1-1 4 1-3-1 1v-2l-1 1 1-2-1 3-1-1c-1 1-1 6-3 8l1-6 1-1c0-3 1 0 2-3l-2 1 1-1-2 2v-2c0 1-1 1 0 0zm0 0h0zM96 202zM134 220zM124 229zM100 205a2 2 0 010-1zM117 217a4 4 0 000-1 1 1 0 000 1zM125 229h-1zM133 230zM136 221zM142 230h0zM136 224v-1a1 1 0 000 1zM100 192h1zM96 195zM114 210a5 5 0 011-1l-1 1zM115 177l-1 1a10 10 0 001-1zM114 178zM127 185a2 2 0 000 1v-1zM96 194c-1 1-4 0-3 2h-2l-2 1h1l-2 1c0 1-2 0-2 2h7l-2-2 2-2c-1 2 1 2 1 3l-1-3c1-2 2-1 3-1v-1zM110 181v1zM155 188h1a3 3 0 00-1 0zM153 187zM138 232zM153 188v-1zM140 191v1a2 2 0 000-1zM141 195zM111 219zM153 187h0zM132 200h1zM132 198c-1 0-1-1-2 1a3 3 0 010 3v1a3 3 0 012-2l-1 2h1l-1-1 1-2v-2zM132 198a2 2 0 001-1l-1 1zM129 193zM158 206c0-1 0-2 0 0zM115 197zM129 203a2 2 0 001-1 2 2 0 00-1 1zM116 193a14 14 0 011-1l-1 1c0-1 0 0 0 0zM116 193z" transform="translate(53 78)"/><path class="cls-8" d="M159 207v-1 2a1 1 0 010-1 2 2 0 000 1l2-4h2c-1-1-1 0-1 1s0 4 1 1h-1l2-3-1 3c1-2 1 3 2 0l-1 5 1-4h1v1c0 3 1-2 2-3h2v5l2-4-1 2v-4c0 1 2-1 2 1l-1 1c1 1 0 7 2 3v-1 1c1 0 0 3 1 1 1 2 1-1 2-1a8 8 0 01-1 3c1 1 2-2 3-5l1 2a11 11 0 00-1 3s0-1 0 0l-1 3c1 2 1-4 1 0l1-3v2l2-2-1-2 1-2c0 4 2 0 2 4a13 13 0 012-1 5 5 0 002-2v3c1 0 2-4 3-2l-1 1c1-2 2 2 3 1l-1 1a6 6 0 011-2v1c1 1 2 0 3-1l2-3v4l1-2a4 4 0 010 1c2 3 2-5 3-3l-1 5v4c1 2 1-2 1 0v1c0 4-2 4-3 5v-2h-1c0 2 0 1 1 1l-1 2a1 1 0 00-1-1l-1-2c-1 1 1 5-1 4v-2l-3 3a5 5 0 000-2c-1-1-1 1-2-1a17 17 0 01-3 6c0-3 1-3 2-5h-1l1-3-2 3v-1 2a1 1 0 000-1l-2 1 1 3v-1 2a2 2 0 00-2 1v-2h-1v-1c-1-1-2 0-2-2l-3 6c0 2-1-3-3 0a21 21 0 012-2c-1-1-2 2-1-1v-2a2 2 0 00-1 1v2c-1 2-2 3-3 2a3 3 0 000-2v2-3c-1 3-2-2-3 3l1-4 2-2c-1 1 0-2-1-2v1c-2 3-3 1-4 1-1 3-3 6-4 5 1-1-1-1 1-4-1-1-2 0-2 1l1 1c-1 2-2 1-2 1l1-1c-1-1-1 1-2 2 1-2 0-1-1-2l-1 2v-2c-1 1-1 3-2 2v-3c0-1-3 5-3 2v-2h-1v1a17 17 0 01-3 4c0 2 1 1 1 1l1-2c-1 3 1 0 1 1-2 3-3 2-4 3 0 3 1 4 2 4v-3h2v-2c0 2 1-1 1-1v-1l1 3c1-3 1 0 2-2v-1l1-1-1 4c1 1 2-3 3-3l-2 3v1l-2 1v-3l-1 3 1 1c-1-1-3 6-4 4l1-4a4 4 0 00-1 1l-1 3c-1 1 0-5-1-2v1c-2 1-1-3-1-5a20 20 0 01-2 3l1-3-1 1-1 3v-2-1c0-2 2-4 3-4l-1-1h1a12 12 0 011-4v0l1-3-1 1-4 6v-2l-1 2v-4a15 15 0 00-1 1c2-2 1-3 2-7l-1 1-1 2c1-2-1 0-1 0v-1h-1l-3 5v3l-1 1a5 5 0 003-3c1-1 0 1 0 0 1-2 1-1 2-1l-1 2 1-1-1 3h1v-2 3l-2 2v1h-1l1-1c-2 1 0-4-2-2l-2 2 1-4-2 2 1-2v-3c-1 0-4 9-5 5v-1c-2 1-2-1-3-1v-3a9 9 0 002-4v4a7 7 0 000-2l1 2v-2 2c1-1 2-4 3-3l-3 4v2c1-3 1-1 2-2l-1 1 1 1 2-3-2-1a14 14 0 003-5v1l2-7-2 2v2l-1 1v-1l-1-1 1-2v-1l-2 3v-5l-3 5v-3a35 35 0 00-2 8l2-5 2-1-1 1c0 1 2-1 1 1l-2 2v1c-1 2 1-2-1-1l-1 2c0 1 2-1 0 3-1 1 0-5-1-2-1-1-2 1-3 2h-1v-1 1c1-2 0 0 1 0v-2c0 2 2-1 3-2-1 1-2-1-3 2v-2 1l2-4a4 4 0 01-1 1l2-1-1 1c1 0 2 0 3-2a4 4 0 00-3-2l-4 10-2-1v-1h-1l1-3-1 1 2-1a1 1 0 00-1 1c0 1 2-2 1 0v3l1-2 1-3h-1s2-2 1 0c2-2 3-6 3-7l-2 4c-1 2-2 1-3 2a9 9 0 001-2l-2 2v-2l-2 4 1-1-1 2-1 2c-1-1 2-5 0-3l-1 3c-1-1-1-5-2-4a22 22 0 002-5h2l-2 3c-2 4 2-2 0 2 1 2 3-4 3-1l1-2c1-4-1-1-1-2a2 2 0 000-1h-1c-2 2 0-1 0-2l-1 1v-2l-1 2v-1l-1 2v1l-1 2 1-3-1 1h-1c0 1 0 3 1 2a7 7 0 01-2 1c-1 1-1-1-1-1 1 0 2-6 3-4-1 3 1 0 1-1l1-2c0 1-2 3-2 1l2-3h-1c1-2-1 0-1-2l-2 3c0-2-1 0-2 1v1a15 15 0 00-3 4 12 12 0 011-3 6 6 0 00-1 0 1 1 0 00-1 0 3 3 0 00-1 1l-1-4c-1 1-1 3-2 2l1-2c-2 2-1-2-3 0v-3a1 1 0 003 0l-1 2c0 2 1-1 1 0v-1c2-3 3-1 3-4 0-1-3 4-3 1 1-1 1 1 3-2v-1l-2 1h1c0-3-3 2-5 3l-2 5c-1 0-2-1 0-3a4 4 0 002-2 6 6 0 012-2l2-4c-2 1-1 2-3 2a3 3 0 011-1l-2 1 1-1c0-2-2 1-1 0l-3 2v4l3-3h-1a8 8 0 001-1v2c-2 0-2 2-3 3l-2-1c2-2 1-4 1-6l2-2h-2a1 1 0 001-1l-3 2 2-3c1-1 3-4 1-4a1 1 0 01-1 1l1-2h1l1 1 1-2 2-1h-1a6 6 0 012-2l-1 1h2v1h1l2-1-1 1a38 38 0 004-3l1-1c0-1 0 0 0 0l2-2a3 3 0 000-1l-1 2-1-1c0 2-1 2-2 3v-2h1l1-3-3 1v0h1v-1l-3 2a2 2 0 001 0c-1 1-1-1-1-1l1-1 1 1 2-3c1 0 0 0 0 0l4-3-1 1c-1 1 0 1 0 0 1 0 0 0 0 0l1-1 1-2h1l-2 3v1l2-3v-1h1l-2 2 1-1-1 1h1l3-4c-1 1 0 0 0 0h1a29 29 0 01-2 3l-1 3 3-5a5 5 0 000 1l1-2 1-1-1 3 2-2c-1 3 1 0 1 2v-1l-1 3v-1a3 3 0 00-1 2v2h-1v3a5 5 0 000-1l3 1c3-5 3-1 5-4a35 35 0 00-2 5s-1 2-2 1l1-2-2 4c2 0 4-3 5-4l-1 1 1-1c0-1 1-4 2-2h-1 2l1-1-2 5c1 1 2-2 4-3l-1 4c1-1 4-9 3-4v1c1 0 4-2 3 0-2 4 0 5-2 10l2-2c-1 1-1 1 0 0l1-3 3-5v2l-1-1-1 2c1 2-2 5 0 5v-1 1l1-1-2 4c-1 2-3 2-3 5 0 1 2-5 3-3l-1 1a23 23 0 002-4 2 2 0 000 2l4-6c-2 2-1-2-3-1l3-3-1 2 2-1-1 1c2-1 0 3 2 0h1l2-3-1 3c0 2 2-1 2-2 0 3-1 1-2 4 1 1 2 1 3-1a3 3 0 010-1h1v-1a4 4 0 01-1 3c1 0 2-2 1 0h-1c1-1-1 5 1 3v2l1-4v-3l1 2v1a18 18 0 011-5c1-2 0 3 1 1v2l1-3-2 6-2 1v1l-1 3c0 3 2-2 2-2v-1l2-2c-1 2 0 0 0 0l3-7v1l-6 17a5 5 0 013 3l-2 4-1-1c1-2 2 0 2-3-1 1-1-1-3 2-1 3 1-1 1 2h-1l2 2a4 4 0 010-1l2-4v-1zm39 5a7 7 0 000 1 3 3 0 010-1zm-54-1l2 2c0-5 0-9 3-8a1 1 0 00-1-1l-5 8h1zm2-8l-1 1h1a4 4 0 010-1zm-1 2v1zm9 4h-1l1 1v-1zm-1-2v2a11 11 0 000-2zm-1-7l-2 5a1 1 0 000 1 6 6 0 011-1 5 5 0 010-2c0 3 1-3 1-2v-1zm-40-9v-1l1-1c0 1-1 4 1 2a24 24 0 01-1 3c-4 3 1-5-1-3zm5 8c3-4 4-4 5-4a12 12 0 001-4l1-2-1 2 1-2v-2l-2 3v2h-2c0 1 0 2 1 0l-2 3c-1 1-1 0-1-1l1-2c0-2-2 2-2 1l2-3v-3c-1 3 1-2-1 1l1-3-3 5 2-2-2 4v1a5 5 0 00-1 1l-1 1v3l1-1s1-1 1 1l-1 1a2 2 0 012 0zm18 10c1-5 2-8 0-8 1-3-3 2-2-1a24 24 0 003-5l-1 1c1-2 0-1-1-1l2-3v4l1-4c0 1 0-1 0 0l1-4 1-3c0 1-1-1-1 1 0-1-1 2-2 1v2l2-2c-1 1-1-1-2 2 0 1 2-1 0 2l-2 3s0-2-1 0l-1 2c1-3-1-3-1-3l-1 1v2h-1-1l2-2v-1a2 2 0 000-1l-2 3c-2 2 0 2-1 5h-3a7 7 0 002-2v-2l-3 3 1-1-1-2v1a5 5 0 01-2 3c0 1 0 3 2 1l-1 1c0 2 3-2 2 1l-1 3 1-2v1h1l3-4a7 7 0 010-1l1-1v3h-1a11 11 0 00-1 4l-1 1 1-2c1 0 1 4 4 2-2 1 0 2-2 2 0 3 2-2 2-1l-1 1c1 2 4-3 4-2v2zm3-2h1l1-1a5 5 0 011-4 10 10 0 01-1 2c0 1 1 3 2 0-2 2 1-4-1-2l2-2a7 7 0 00-1 5l1-1 1-3 1 1a2 2 0 00-1 1 10 10 0 000 2 6 6 0 011-1v-1l1-2c-1 2 0 0 0 0l1-2c0-1 0 2 0 0l-2-1v2-3c-1 1-2-1-3 2v-1c-1 2-3 2-3 4 1 0 2-2 1 0l-1 1v1l-1 3zm7 22zM100 192l-2 1 2-1z" transform="translate(53 78)"/><path class="cls-8" d="M101 190l-1 1h1zM109 182l-2 1 4-3h-1a7 7 0 01-2 1c-1 1-1 3 1 1zM113 178l-1 1 1-1zM101 213c-1 1 0 0 0 0s0-1 0 0zM188 239l4-1a37 37 0 00-4 1zM115 210l-4 3c0 3 3-3 3 0zM111 219l2-4-2 2z" transform="translate(53 78)"/><path class="cls-8" d="M176 259l1-1h-1v1zM168 297v2-2z"/><path class="cls-8" d="M115 220v-1z" transform="translate(53 78)"/><path class="cls-8" d="M178 254v1-1z"/><path class="cls-8" d="M123 189v0z" transform="translate(53 78)"/><path class="cls-8" d="M170 299h1v-1l-1 1z"/><path class="cls-8" d="M128 184l1-2-1 2zM128 198zM128 198v0zM130 198c0-1 0-1 0 0l-1 1 1-1zM126 231v-3l-2 2 2 1zM124 230z" transform="translate(53 78)"/><path class="cls-8" d="M187 261l1-2-1 2z"/><path class="cls-8" d="M127 232v0zM135 204l-1-1s0 3 1 1zM131 227a5 5 0 010-3v3z" transform="translate(53 78)"/><path class="cls-8" d="M188 283h1-1z"/><path class="cls-8" d="M142 184l-2 5 1-2a9 9 0 011-3zM141 187v1a1 1 0 000-1zM143 200a5 5 0 000 1 4 4 0 000-1zM144 187l-2 2 3-3-1 1zM136 234l-1 1v1l1-2zM136 236h-1 1zM142 201h-1 1z" transform="translate(53 78)"/><path class="cls-8" d="M192 310zM193 315h1v-1l-1 1z"/><path class="cls-8" d="M153 187l-1 2h1c0-2-1 0-1-1zM161 238c-1 1-1 0-1-1l1-2-2 3c0-2 2-4 3-5-1-1-2 1-3 1a5 5 0 010 2c0 2-1 1-1 1a4 4 0 01-1 3l-1 1a7 7 0 000 1c1-1 1 1 1 1 1-4 2 0 2-1l1-1a4 4 0 01-1 2c1-1 2 0 2-2l2 1 8 1a15 15 0 01-1-2v-3h1v-3c0-2-1 4-2 3v-3c-1 1 0-4-2 0l1-2a3 3 0 01-2 2v-1c-2 2-1 1-3 1l1-2-1 1 1-2-3 3v3zM159 234zM172 243h-1 1zM155 238v2l1 1v-3z" transform="translate(53 78)"/><path class="cls-8" d="M156 242a7 7 0 010-1 3 3 0 000 1z" transform="translate(53 78)"/><path class="cls-8" d="M219 278z"/><path class="cls-8" d="M167 204c0-1 0 0 0 0z" transform="translate(53 78)"/><path class="cls-8" d="M223 269z"/><path class="cls-8" d="M177 235zM172 237c1 2-1 2-1 5l1-1v1-1a13 13 0 011-3v4h2v0h4l1-5c-1 0-2-2-3 1a4 4 0 000-1v3c-1 2-2 1-3 0 2-1 1-4 3-2v-3c-2 1-3 0-5 2zM188 237zM188 236l-1 3h1v-2c0 1 0 2-1 1zM186 241v-4c1-1 0 2 1 0 0-2-1-1-1-1z" transform="translate(53 78)"/><path class="cls-8" d="M234 318v-1 1z"/><path class="cls-8" d="M181 238l1 1v-2zM183 239a1 1 0 000 1zM182 239h1a7 7 0 01-1 0zM182 239v3-3z" transform="translate(53 78)"/><path class="cls-8" d="M225 272h1v-1l-1 1z"/><path class="cls-8" d="M174 196v-1a3 3 0 000 1zM177 185v3l-1 3v-3a7 7 0 000 3l-2 4c1-1 2 2 3-1a92 92 0 001-10c0-1 0-2-1 1zM177 181c0 2 0 0 0 0zM177 210a8 8 0 001-2l-1 1a4 4 0 010 1zM177 209zM177 211v-1a1 1 0 000 1zM185 241c-1 1 0 0 0 0s0-1 0 0zM197 237h0zM200 208a5 5 0 010-1 4 4 0 000 1zM200 207v-1 1l1-1-1 1zM137 149l-1 1 2-1c2 0 0 1-1 1h2v-1h2v-1c0 1 0 0 0 0h1l-5 1zM142 146l-3 1 1-1a12 12 0 00-3 1h1l-4 1h2l-1 1h2l3-2h-1l4-1 2-2-3 2zM137 149zM104 114h-1v1h2c1-1 0-1-1-1h2l2-1-7 1h3zM102 84a2 2 0 001 0h-1zM100 114h-2a20 20 0 002 0zM132 109v-1l-1 1zM91 108zM144 109h-2 2a2 2 0 00-1 0l-6 1h1l4-1zM120 90zM121 90h-1 1zM102 113l-2 1h1a1 1 0 011-1zM108 113h2-2zM89 110c0-2 4-1 4-1a15 15 0 00-2-1c1 1-5 1-4 2-3 0-4 0-3-1h5-3c1-1-3-1 0-2h-3c-3 0-1 1-4 2a6 6 0 012-1l-1 1a5 5 0 013-1v1h-1c-1 0 2 0 1 1a13 13 0 01-2 0h4l-3 1c3-1 2 0 1 1a5 5 0 011 0l-3 1c3 0-1 2 2 2l15-1a3 3 0 01-1 0 14 14 0 014-1h-3l4-1-14-1c2 0 2-1 2-2l3 1a6 6 0 000-1z" transform="translate(53 78)"/><path class="cls-8" d="M96 111h1a1 1 0 00-1 0zM93 110zM106 112h1a3 3 0 00-1 0zM103 113h-1a6 6 0 001 0zM106 102h-1 1z" transform="translate(53 78)"/><path class="cls-8" d="M92 108h3v-1c2 1 1 1 1 2l-3 1h3l1 1c1 0 3 0 2-1 2-1-1 0-1-1h2c-1 0 1-1-3-1h2c-5 0 1-3-4-2l1 1zM105 112zM91 120l-4 1v-2a2 2 0 011 0c-1-1 0-2-2-2a3 3 0 012-1h1v-1h4l-3 1 1-1-1 1h1l-2 1h10l-5 2-1-1h-4c2 0 2 0 1 1 0 0 3 0 2 1h-2 1zm-1 0v-1 1zM140 143zM133 120zM145 120zM139 141zM139 129zM144 120h1zM142 116zM133 119a2 2 0 00-1 0zM138 112h-1 1zM135 118h-1a2 2 0 001 0zM131 148zM136 147zM135 134a8 8 0 01-1 0h1zM112 156h1a5 5 0 00-1 0zM113 156h1zM108 142a2 2 0 001 0h-1zM136 147l3-1h2a22 22 0 012-1h-1l2-1 2-1-5 1v1l-2 1 1-1-1 1-3 1zM119 155h-1 1zM95 123h-1a4 4 0 001 0zM128 150zM96 125h-1zM141 113zM96 125h-1zM106 132l1-1a2 2 0 00-1 1zM109 129zM144 130zM95 125zM117 131zM116 132h-1l3 1a4 4 0 012-2v-1a4 4 0 01-2 1l2-1h-1l-2 1c2 0-3 1-1 1zM115 132zM113 137zM109 113v1l1-1zM125 141zM121 131a4 4 0 00-1 0 4 4 0 001 0zM121 143a17 17 0 01-1 0h1zM121 143z" transform="translate(53 78)"/><path class="cls-8" d="M110 113h1a1 1 0 01-1-1h1-6 2c1-1 4-2 1-2v1h-4 3c-1-1 3-2 0-2l5-1h-5-2l-1-2 5-2h-5c-1 1 2 0 3 1a26 26 0 00-4 1c1-1-2-1 1-2 1-1 7-2 3-2h-1c1-1 3-1 1-1h1c1-1-2-1-2-1a11 11 0 013 0c1-1-3-1-5-1l1-1a14 14 0 004 0h-1l4-1h-1-3l2-1h-3-3c4 0-1-1 4-2l-4-2 3-1s-4 0-3-1h1c-1 0 2-1 1-2a4 4 0 001 0 8 8 0 01-2 0h1c1-1 0-1-1-2l-3-1h4v-1a16 16 0 01-3 0 6 6 0 012 0h-4l5-1 2-1h2c2-1-2 0 0-1a7 7 0 002 0h-2c4-1 5 0 6 1h-1v1l1-1h2c-2 1-1 2-3 2 1 1 5-1 4 1h-2l3 2a8 8 0 00-2 0c-1 1 2 1 0 2a26 26 0 015 1l-4-1v1l-3-1 3 1-1 1 2-1a1 1 0 00-1 1h1a15 15 0 003 0l-1-1h2a1 1 0 001 1h-2v1h-1c-1 1 1 1-1 2h6c2 0-3 2 0 2h-2c-1 0 2 0 0 0h-3l2 1c0-1 3 0 2-1l2 1a5 5 0 00-2 1h0c2 0-2 2 3 1l-4 1-2-1-2 1h1c3 0 2 1 2 2h6l-4 1c-1 1 1 1 2 1v-1c2 0 2 0 1 1h-1 2c-2 0 0 0-1 1l3-1-3 1h3l-2 1c-2 1 4 0 2 2a7 7 0 00-2 0h1a30 30 0 015 0c2 0 1-1 1-1l-2 1c3-1-1-1 0-1l5 1 3-2h-4c1 0 0 0 0 0h-2-1l-1 1 3-2h-6l5-1h-4 4l1-1 1 1-3 1 3-1h1 5l-4 1a4 4 0 002 0l2-1c1 1-4 2-1 2v-1c2 0-2 2-4 3l4-1a24 24 0 01-4 1h2l3-1a5 5 0 01-2 1s-3 1 0 0a16 16 0 01-5 1h-1a22 22 0 01-4 1h0l-3 1h1l7-1-2 1h2l-3 1h1l-7 2h1a3 3 0 013 0c-2 0 0 0 0 0h-1v1l6-1 3-1a10 10 0 001 0 7 7 0 00-4 0h1-2l2-1h-1 2c2-1 0-1 0-1h-2 5l2-1v1h-1c2 0-4 1-1 1h2l-3 1h2l-2 1-3 1c1 1 10-2 7 0h-2l2 2-3 1a17 17 0 00-4 1l3-2a11 11 0 00-1 1v-1l-1 1 1-1-3 1a30 30 0 014-1l2-1h-2a4 4 0 011 0l1-1h-4l-1 2a25 25 0 00-4 1l-7 1 3 1 2-1h1-1v1a8 8 0 00-3 0 4 4 0 01-1 1 14 14 0 014-1l-4 3 6-1-3 1a62 62 0 008-3 34 34 0 00-6 2h-2l2-1c1 0-2 0 1-1h3c2-1-2 1 0 1l1-1 3-1c1 0-4 2 0 1h-1 3c-1 1 1 0 1 1h-1v-1l-2 1h-3 4l-2 1h1a11 11 0 01-5 1 6 6 0 012 0h-2l1-1h-3a2 2 0 000 2l10-3c1 0 2 1 0 2-1 0 0 0 0 0l-3 1h2-2c1-1-2 0 0-1l2-1-2 1-2 1s1-1 0 0c0 0-2 0 0 0a27 27 0 00-7 2l4-1h3a13 13 0 00-2 1l3-1-2 1a17 17 0 004-1h-1 2l2-1-3 1 3-1-2 3a37 37 0 00-5 2v-1h3c4-2-3 0 1-2h-2l-3 1c-3 1 1 0 0 1a4 4 0 00-1 0c-1 1 0 1 1 1l-2 1h1l-2 1 2-1c1 0-1 1 1 1l2-1v-1h3l-3 1h1 0l1-1a10 10 0 013 0l-1 1-5 1h-1l-3 1h3l-4 1c-2 1 1 1 0 1h3 2l1-1a22 22 0 004-1 20 20 0 01-2 1c0 1-1 2 2 1 0 1-4 2-2 2h2l-2 1c3-1-1 1 1 1l-2 1h-1l2-1c1-1-1 0-1-1l-1 1-4 1h3l-4 1v1l1-1c-2 2 3 0 4 0l6-3-2 2-6 2-4 2c2-1 2-2 3-1a6 6 0 01-1 0h2-1c-1 1 2 0 0 1l3-1 3-3a16 16 0 01-3 2h-1l1-1 4-1s1 0 0 0a16 16 0 00-4 4l-2 1h1a2 2 0 00-1 0l3-1a30 30 0 00-4 2l-2 2a2 2 0 011 0l-1 1c-3 0 0-1-2-1l-2 1-2 1h1a9 9 0 01-2 1l1-1h-2c-2 0 1-1-2-1h1l-5 1h-4a3 3 0 00-1 1l3-1v1l3-1-1 1c-1 1 1 0 0 0l-3 1 3 1v1l-1-1-1 1h4v-1 2c-3 1-1-1-2-1l-3 1v1l-5 1a8 8 0 001-1v-1c-1 1 0 1 0 0l-2 1-1 1-1-1a25 25 0 013-1c-1 0 2-1 0-1l-3 2c-2 0-2 0-1-1h2v-1l-5 2c1-1 0-1-1-1h0c1-1 7-2 6-3l-5 1h-2v1h-1c3-1 1-1 2-2h-3c3-1 0 0 1-1l3-1h-1a4 4 0 002 0l2-1 2-2a7 7 0 00-1 1c1-2-1-2-1-3-5 2-3-1-6 0a43 43 0 005-2h2a10 10 0 01-2 1c1 1 2-1 4-1h-6-3 1l-1-1-2 1 6-3h-5l3-1c-1-1-9 2-5 0h2l-3-2 10-5a9 9 0 01-2 0s1 0 0 0c-1 1-6 1-3 2h-7l2-1v1a5 5 0 012 0c1-2 5-2 4-3h-1 1-1l4-1h6c0-1-5 0-4-1h1a33 33 0 00-4 1 3 3 0 001-1l-6 1c2 0-2 1 0 2h-4l2-1h-2 1c-1-1 3-2 0-2v1l-1-1h-3l2-1c2-1-1 0-2-1h4c1-1 0-2-2-1a4 4 0 01-1 0h-1a5 5 0 012-1s-2 0 0-1l1 1c-1 0 4-2 2-2l2-1-4 1-2 1h-1 1-2c2-1 4-1 3-2a22 22 0 01-4 2c-3 0 2-1-1-1h0l6-1h1l2-1h3c2-1-4 0-3-1l-2 1h-2 1c1-1-1-1-1-1l-7 1h1l17-3a3 3 0 011-3l5-1-1 1h-3l3 1c3-1-1 0 1-1h1l1-2h-1a4 4 0 010 1h-5zm-4-29h1a5 5 0 01-1 0zm14 35l1-2c-4 3-8 4-8 3h-1v1l9-2c2 0 0 0 0 0zm-8 3h2-1a6 6 0 01-1 0zm3 0v-1zm-1-7h1s-1 0 0 0zm-2 1h2v-1a16 16 0 00-2 1zm-5 4l5-1a2 2 0 001 0v-1a9 9 0 01-1 0 7 7 0 01-2 1h-2c-2 0-2 1-1 1zm16 26l-1 1h-2c1-1 4-3 1-2a29 29 0 013-2 1 1 0 010 1c4-1-4 2-1 2zm2-7h-6a14 14 0 00-3 2l-2 1 1-1h-2l-2 2 5-1 1-1 1 1c1-1 2-2 0-1l3-1v2l-3 1h2-3l-2 2h1l-2 1a21 21 0 005-2l-3 1 5-1v-1a6 6 0 002 0h1l1-2h0s-2 0 0-1h1l-1-1zm-2-14c-4 2-8 3-7 4-3 2 4 0 1 2a35 35 0 00-5 1h1c-2 0-1 0-1 1l-3 1v-1l3-2-4 2c1 0-1 0 0 0l-4 1 1 1c-1 0-2-1-4 1h2 1l2-1-2 1 2-1 2-1h-1l4-1v1l3-1c-3 2-2 3-1 3h1l1-1h1-1 2l-3 1-1 1a2 2 0 00-1 0l3-1c3 0 3-1 5-2l2 1a11 11 0 00-3 1l-1 1 4-1-2 1c-2 0-1 1-1 1h1a7 7 0 013-1h1c0-1 2-2 0-2h1c1-1-4 0-1-2h3-2l1-1h-1 1l-5 1a9 9 0 01-2 0s-1 0 0 0l1-1 1 1a16 16 0 004-2 3 3 0 001-1 6 6 0 00-2 1c-1-1 3-3 0-3h2c3-2-2 0-2-1h2c1-1-4 0-4-1h2zm-3-1h-2a7 7 0 01-4 1 13 13 0 012 0c1-1 2-2-1-1 3 0-3 1-1 1h-2a10 10 0 004-2h-1l-3 1v-1a3 3 0 001 0 12 12 0 002-1h-1l-2 1h-1c2 0 0 0 0 0l-2 1c-1 0 1-1-1-1-1 1 0 1 1 2l1-1c2 0-3 1-2 2h3l-1 1 5-1s-2 0 0 0l2-1 3-1zm15-13z" transform="translate(53 78)"/><path class="cls-8" d="M131 149a5 5 0 002-1l-2 1zM130 150l1-1h-1zM120 155h1c-3 2-1 0-4 1h3c2-1 2-2 0-1z" transform="translate(53 78)"/><path class="cls-8" d="M168 235h1-1z"/><path class="cls-8" d="M145 136c1 0 0 0 0 0s-1 1 0 0zM134 88l-2-2a7 7 0 002 2zM135 133h4c2-1-4 1-2-1zM144 130l-4 1h2z" transform="translate(53 78)"/><path class="cls-8" d="M161 226h-1 1zM195 207l1-1-1 1z"/><path class="cls-8" d="M143 128h-1z" transform="translate(53 78)"/><path class="cls-8" d="M156 227l-1 1h2l-1-1z"/><path class="cls-8" d="M114 142h0z" transform="translate(53 78)"/><path class="cls-8" d="M195 205h-1 1z"/><path class="cls-8" d="M107 142l-2 1 2-1zM118 134h-1a1 1 0 001 0zM118 134v0zM117 133c-1 1-1 1 0 0h2-1-1zM145 118a4 4 0 01-2 2l3-1-1-1zM146 119z" transform="translate(53 78)"/><path class="cls-8" d="M155 219h-2 2z"/><path class="cls-8" d="M146 118c1 0 0 0 0 0zM119 128c-1 0 0 0 0 0s2-1 0 0zM140 119a8 8 0 01-2 0h2z" transform="translate(53 78)"/><path class="cls-8" d="M172 205v1h1l-1-1z"/><path class="cls-8" d="M99 135l5-2h-2a11 11 0 01-3 2zM102 133zM111 125h1a4 4 0 00-1 0zM100 132l3-1-5 1h2zM144 113h0zM145 113zM113 126c1 0 1-1 0 0z" transform="translate(53 78)"/><path class="cls-8" d="M193 191v1-1zM197 189h-1 1z"/><path class="cls-8" d="M95 126l2-1c-2 0 0 0 0 0zM138 101c1 0 1 1-1 1a6 6 0 00-2 0h4-6l2 1a8 8 0 012-1c2 0 1 1 1 1a7 7 0 013-1 2 2 0 001 0h1l1-1h-3v-1a7 7 0 012 0h-2v-1h1a5 5 0 00-1 0l-1-4-1 1-3 1v-1l-4 1c-1 1 4 0 4 1h-3c2 0-3 1 1 1h-2l2 1h-1c3 0 1 0 2 1h-3 2a10 10 0 01-2 0l3 1a7 7 0 003-1zM135 103zM140 95zM140 104a8 8 0 012-1h-2z" transform="translate(53 78)"/><path class="cls-8" d="M143 102a13 13 0 01-1 0v1a5 5 0 001-1z" transform="translate(53 78)"/><path class="cls-8" d="M154 189h-1 1z"/><path class="cls-8" d="M104 108v0z" transform="translate(53 78)"/><path class="cls-8" d="M144 190l-1-1 1 1z"/><path class="cls-8" d="M132 94h-1 1zM134 96h5l-1-1h1-1a25 25 0 01-2 0l3-1-2-2h-4c0 1-2 2 1 1a7 7 0 00-1 1l2-1h1c2 0 2 1 0 1h-2a10 10 0 01-2 0c1 1-1 2 2 2zM131 88h1a1 1 0 00-1 0zM131 88h3-2s1 0 0 0zM136 89a12 12 0 00-4 0c-2 0 2 0 0 0h-1z" transform="translate(53 78)"/><path class="cls-8" d="M188 170h-1 1z"/><path class="cls-8" d="M134 91h-2zM135 90zM134 91l1-1a6 6 0 01-1 1zM134 91l3-1-3 1z" transform="translate(53 78)"/><path class="cls-8" d="M146 187l-1-1 1 1z"/><path class="cls-8" d="M94 106h-1a3 3 0 001 0zM83 107l3-1h3-3a7 7 0 003 0h4c-1 0 1-2-1-2l-10 2c-1 0-2 1 1 1zM79 108h0zM107 99a11 11 0 00-2 0l1 1a4 4 0 011-1zM106 100zM107 99zM136 89c1 0 0 0 0 0s-1 0 0 0zM130 81h0zM101 84v0zM101 85l-1-1h-1l2 1zM187 142l-2 1a9 9 0 003-2l-2 1h2v-1h2v-1h1c-1 0-1 0 0 0a7 7 0 011-1l-5 3z" transform="translate(53 78)"/><path class="cls-8" d="M192 139l-3 1 1-1a24 24 0 00-3 2h1l-4 1 2-1a4 4 0 01-1 1h2l3-2h-1l4-2 2-1a34 34 0 00-3 2zM187 142zM160 134a8 8 0 00-1 1 18 18 0 013-1h-1 1c-2 0 1-1 2-2l-6 3 2-1zM157 123a5 5 0 001 0h-1zM157 136l-2 1 2-1zM185 121h-1zM148 137zM196 117h-2 2a4 4 0 00-1 0l-5 3 1-1 4-2zM172 116zM173 116h-1 1zM158 135l-1 1 1-1zM164 132h0zM147 138l4-2-3 1c2 0-4 3-3 3h-3l5-2a11 11 0 00-3 1c1 0-3 1 0-1a26 26 0 00-3 2l-3 2 1-1v1a13 13 0 012-2v1h-1 1l-1 1a26 26 0 013-2l-3 2c3-2 3-1 1 0a13 13 0 011-1l-2 2h1l14-6a6 6 0 01-1 0 32 32 0 014-2l-3 1a23 23 0 004-2l-13 5 2-1a12 12 0 013-1 1 1 0 000-1z" transform="translate(53 78)"/><path class="cls-8" d="M153 136h1a1 1 0 00-1 0zM150 137h0zM162 133l1-1a5 5 0 00-1 1zM159 134l-1 1 1-1zM162 128h-1a1 1 0 001 0z" transform="translate(53 78)"/><path class="cls-8" d="M150 136l2-1h1l-2 2a9 9 0 002-1h1l2-1v-1l-1 1 2-1c-1 0 1-2-3 0h1c-4 1 2-2-3 1l1-1zM162 133zM149 142l-4 2v-1a4 4 0 011 0h-2a6 6 0 012-2s0 1 0 0h1l4-2-4 2a8 8 0 002-1 5 5 0 01-1 1l1-1-2 2 3-2-1 1 7-4a33 33 0 00-5 3h-1l-3 2h1l2-1-2 1h1zm-1 0zM191 137h-1a1 1 0 001 0zM186 127zM197 123l1-1a3 3 0 00-1 1zM190 136zM192 129l-1 1a4 4 0 001-1zM197 123zM195 121h-1a1 1 0 001 0zM186 126zM191 121h-1a1 1 0 001 0zM188 125z" transform="translate(53 78)"/><path class="cls-8" d="M235 221z"/><path class="cls-8" d="M186 140h0zM187 133l-1 1 1-1zM163 152h1a8 8 0 00-1 0zM164 152h1zM162 146a2 2 0 001 0h-1zM186 141l3-2h2l2-1h-1l1-1 3-1-5 2c1 0 1-1 0 0l-1 1v-1l-1 1a6 6 0 01-2 1l-1 1zM169 150h1zM152 142h-1zM152 143zM194 120zM153 143h-1zM161 142h1a6 6 0 00-1 0zM164 140zM196 128s0 1 0 0zM152 143zM172 138h-1zM170 139l2-1a9 9 0 012-1l1-1a9 9 0 01-3 2l2-2v1l-2 1-2 1zM170 139h-1a2 2 0 001 0zM167 142zM165 132s-2 1 0 0zM178 140h-1 1zM175 137a8 8 0 00-1 0h1zM174 142l-2 1h2v-1zM174 143z" transform="translate(53 78)"/><path class="cls-8" d="M166 131l-1 1 1-1-3 1-1 1 1-1 1-1-4 2a22 22 0 013-2c-1 1 3-2 0 0l4-3-3 2h-1 1c2-2-2 0-3 1l-1-1a46 46 0 005-2l-5 2 2-1-3 2 1-1 3-2h-1l1-1h-2a27 27 0 013-1l-4 2 1-1 3-2h-1l4-1c1-2-4 2-1 0a20 20 0 00-3 1l2-1-2 1-1 1a6 6 0 01-2 1c3-3-1-1 3-3l-3 1a15 15 0 012-2l-3 1h1v-1a8 8 0 001-1 17 17 0 01-1 1c1-2-3 1-3 1a22 22 0 003-3l-2 2a15 15 0 011-1c1-2-4 2-3 1l4-3 1-1 2-2c1-1-2 2 0 0a12 12 0 001-1l-1 1c3-3 4-2 5-3l-1 1v1l1-1 1-1-2 2 4-2-2 1 3-1a15 15 0 00-2 1c0 1 2 0 0 1a26 26 0 015-2l-4 2-2 2 3-2-1 1 1-1a2 2 0 000 1l1-1a19 19 0 002-1h-1l2-1h1l-2 1 1 1h-1l-1 1 6-2c2-1-2 2 1 1l-3 1s2-1 0 0l-2 1h1l2-1 3-1a9 9 0 00-2 2l1-1-2 1 3-1-3 2-2 1-2 1 1-1h2l6-2-4 2h1l1-1 1 1h-1l2-1-1 1 2-1-2 1 3-1-3 2 3-1a15 15 0 00-2 1 2 2 0 001 0l4-2 1-1-2 1c3-1-1 0 0 0l5-2 2-2-1 1-2 1a8 8 0 01-2 1h-1l-1 1 2-2-2 1h-1l-1 1 4-2-4 1 4-1v-1h1l-2 1a21 21 0 013-1v-1l5-1a24 24 0 00-3 1 6 6 0 001 0l2-1c1-1-4 2-1 1l1-1-4 3 3-1-3 1h1a16 16 0 013-2 9 9 0 01-2 1c0 1-2 2 0 1a32 32 0 01-4 2h-1l-3 2h-1a9 9 0 00-2 1h1l6-3-1 1h1l-2 1h-1 1l-6 3h1a6 6 0 012-1v1c-1 0 0 0 0 0l5-2a12 12 0 013-2l1-1a12 12 0 00-4 2h1-2l2-1-1 1a19 19 0 012-2c2 0 0 0 0 0l-2 1a21 21 0 013-2h2l1-1h1l-1 1-2 1 3-1a28 28 0 00-3 2l2-1-3 1-2 1c1 1 9-4 6-2l-1 1h1l-2 2a32 32 0 00-4 2 24 24 0 003-2l-2 1 1-1a10 10 0 01-2 1l2-1-3 2 4-2 2-1h-2l1-1-3 2-1 1-4 2v-1l-6 4 2-1 2-1 1-1v1l-1 1a14 14 0 00-2 1 6 6 0 01-1 0 28 28 0 013-1 15 15 0 01-3 2l5-2-2 1 7-4-5 3-2 1 2-1c0-1-2 0 0-1l2-1h1c2-1-2 1 0 0h1c1-1-1-1 3-2 1-1-4 2-1 1l3-1c-1 0 0 0 0 0h-1 1c-2 1 0 0 0 0l-2 1-3 1 3-1-1 1a21 21 0 01-3 2l1-1-2 1 1-1-3 1v1l10-5v1h-1l-2 2 1-1-2 1a4 4 0 001 0c1-1-2 0 0-1l2-1-2 1-2 1s1 0 0 0h-1a54 54 0 00-6 4l4-2a21 21 0 013-1h-1 1l-2 1 3-1-2 1a34 34 0 003-2h-1l2-1v1l2-1-2 1 2-1s-3 2-1 2a99 99 0 00-3 1l2-1c1-1-5 2-2 0l-3 1-1 1a8 8 0 000 1c-1 0 0 0 0 0h1l-2 1h1l-2 1 2-1s-1 0 0 0l2-1 1-1 2-1-3 2 1-1v1c-1 0 0-1 0 0l1-1a19 19 0 013-1h-1c-1 1-6 4-5 2 1 0 1 0 0 0 3-1 0 0-1 1a16 16 0 00-2 1l2-1-3 2-1 1c1 0 1 1 4-1h1l1-1 4-2-2 1h1s-3 2-1 2l2-1-2 1h1a8 8 0 01-3 2h-1a15 15 0 012-1c2-1-1 0 0-1l-1 1-4 2 2-1-3 2h-1 2l4-2 5-3-2 2-6 2a37 37 0 00-3 3l3-2-1 1 1-1-1 1h1a17 17 0 012-2l3-2a33 33 0 01-3 2h-1 1l4-2s1 0 0 0a34 34 0 00-4 3 11 11 0 00-3 1h2a5 5 0 00-1 0l3-1-4 2-2 2a4 4 0 011-1 1 1 0 00-1 1h-1l-1 1-2 1a7 7 0 00-2 0h1a19 19 0 01-2 1h-1a3 3 0 011 0h-2 1l-5 2h-1l-2 1a6 6 0 00-1 1 9 9 0 002-1c-1 1 1 0 0 0a22 22 0 013-1l-2 1s1-1 0 0l-2 1h2l1-1-1 1-1 1 3-2v1h-2l-3 2-4 2 1-1c1 0 0 0 0 0-1 0 0 0 0 0h-2l-1 2-1-1 3-1c-1 0 2-1 0-1a17 17 0 01-3 2c-1 1-1 1 0 0a5 5 0 001-1v1l1-1h-1l-4 2h-1 0c1 0 7-3 5-3l-4 2-1 1s-1 0 0 0h-2l2-1-2 1 1-1 2-2v1a9 9 0 002-1l1-1 2-2-1 1v-1l-5 2 4-3h2a26 26 0 01-2 1l4-2-5 2v-1l-1 1-2 1c1-1 0 0 0 0h-2l5-2-4 1 3-2-4 2 1-1h-2l9-5a19 19 0 01-2 1v-1l-3 2-5 3 1-1a10 10 0 012-1l4-2h-1a6 6 0 001-1l-1 1 4-2a28 28 0 005-2l-4 1 1-1-3 2a6 6 0 001-1l-6 3c2-1-2 1 0 1a23 23 0 00-4 2l2-1h-1l1-1c-2 1 2-2-1 0-1 0 0 0 0 0l-3 1a25 25 0 012-1h-2l4-1h-2a7 7 0 01-2 1l1-1-1 1a13 13 0 012-2h-1 2l2-2a13 13 0 001-1 35 35 0 00-4 2l-1 1-1 1 1-1-2 1 3-2-4 3c-2 1 2-2 0-1a9 9 0 001-1 18 18 0 00-2 1l6-2 2-1a17 17 0 003-2l-3 1-1 1-2 1 1-1h-1l-6 4 1-1 15-8 1-2 4-2-1 1-2 1h2l2-2c-1 0 0 0 0 0l1-1a5 5 0 01-1 1l-4 1-1 1zm-6-10zm15 10l1-2-8 5c-1 0-1 0 0 0l8-4c1 0 0 0 0 0zm-7 4l1-1a11 11 0 01-1 1zm2-1zm0-3v-1 1zm-2 1l1-1-1 1zm-5 4l4-2a4 4 0 001-1h-1a15 15 0 01-2 2c3-2-2 1-1 0l-1 1zm12 8l-1 1h-2c1 0 4-2 1-1l3-2c4-1-4 3-1 2zm3-4v-1l-5 2a33 33 0 00-4 2l-2 1 2-1-2 1a21 21 0 00-2 2l4-2 1-1h1c1 0 2-1 0 0a29 29 0 003-2v1l-3 1h2l-3 1-2 2 1-1a18 18 0 00-2 2 50 50 0 005-3l-3 1 4-2h1a13 13 0 001-1h1l1-1 1-1c1 0 0 0 0 0h-1 1zm-1-7l-6 4h-1c-2 2 4-1 1 1l-4 2h1-1l-3 2v-1l3-1-4 2c1-1-1 0 0 0l-4 2h1a17 17 0 00-3 2l2-1h-1 2l1-1a22 22 0 01-2 1l2-2 2-1v1l3-2c1 0-1 1 0 0l3-1-2 2 1-1 2-1v1l1-1a24 24 0 00-3 1l-1 1 3-1 4-3h1l-2 1-1 1 3-1-1 1-1 1 1-1a16 16 0 012-1h1c0-1 2-2 0-1l1-1c1-1-3 2 0 0l2-2-2 1h1v-1l-4 2-2 1 1-1h1a37 37 0 003-2 6 6 0 002-1 13 13 0 00-2 1c-1 0 2-2 0-1l2-1-2 1 2-1-4 1 2-1zm-2 0h-1l-2 1a16 16 0 01-3 2l2-1c1-1 2-2-1 0 3-1-3 2-1 1l-2 1a23 23 0 004-3h-1a17 17 0 00-3 2s-1 0 0 0a5 5 0 001-1l2-1h-1l-1 1-2 1c2-1 0 0 0 0l-2 1c-1 0 2-1 0 0v1l2-1-3 1c2 0 1 1 4-1l-2 1 5-2s-2 1 0 0l2-1a19 19 0 003-2zm13-12z" transform="translate(53 78)"/><path class="cls-8" d="M182 143a11 11 0 002-1l-2 1zM180 144a6 6 0 011-1zM170 150l2-1-4 2 3-1c1-1 2-2-1 0z" transform="translate(53 78)"/><path class="cls-8" d="M219 230h1-1z"/><path class="cls-8" d="M196 132c1 0 0 0 0 0s-1 0 0 0zM183 107h-2a10 10 0 002 0zM187 133l4-1c2-2-4 2-2 0zM196 129l-4 2 2-1z" transform="translate(53 78)"/><path class="cls-8" d="M214 228h-1 1zM247 207l1-1-1 1z"/><path class="cls-8" d="M195 128h-1z" transform="translate(53 78)"/><path class="cls-8" d="M210 230h-1 1z"/><path class="cls-8" d="M168 144s1-1 0 0z" transform="translate(53 78)"/><path class="cls-8" d="M247 206h-1 1z"/><path class="cls-8" d="M161 147l-2 1a9 9 0 002-1zM172 139h-1zM172 139v0zM171 139c-1 1-1 0 0 0a5 5 0 001 0l1-1-1 1h-1zM198 122a8 8 0 01-2 1l2-1zM198 122z" transform="translate(53 78)"/><path class="cls-8" d="M210 226l-2 1h1l1-1z"/><path class="cls-8" d="M198 121c1 0 0 0 0 0zM173 135v1s2-2 0-1zM193 123a20 20 0 01-2 2l2-2z" transform="translate(53 78)"/><path class="cls-8" d="M227 213l-1 1 1-1z"/><path class="cls-8" d="M155 146l5-3-2 1a26 26 0 01-3 2zM158 144zM167 137zM156 144l3-1-4 2 1-1zM196 119h1l1-1-2 1zM198 118zM168 137z" transform="translate(53 78)"/><path class="cls-8" d="M246 199zM249 196h1-2 1z"/><path class="cls-8" d="M152 143a12 12 0 002-1c-2 1 0 0 0 0zM190 115c2-1 1 0 0 0a11 11 0 00-2 1l3-1a26 26 0 01-5 2h2a15 15 0 012-1l1-1a15 15 0 012-1 3 3 0 001 0l1-1 1-1-2 1a13 13 0 011-1l-1 1h-1l1-1h-1l-1-1a14 14 0 01-1 1l-3 1c-1 1 0 0 0 0l-3 2 3-1-2 1c1 0-3 2 0 0l-1 1h2-1 2l-2 1 1-1a20 20 0 01-2 1l3-1a13 13 0 002-1zM188 117zM192 110v0z" transform="translate(53 78)"/><path class="cls-8" d="M192 115a16 16 0 012-1l-2 1zM196 113l-2 1a9 9 0 002-1z" transform="translate(53 78)"/><path class="cls-8" d="M211 213h-1 1z"/><path class="cls-8" d="M160 132c-1 0 0 0 0 0s1-1 0 0z" transform="translate(53 78)"/><path class="cls-8" d="M202 217h-1 1z"/><path class="cls-8" d="M184 113zM186 114l5-3-1 1 1-1h-1l-2 2 3-2-1-1h-1l-1-1-4 2c0 1-1 2 2 1a8 8 0 00-2 0l3-1c2-1 2 0 1 1h-2a13 13 0 01-2 1l1 1h1zM182 109zM181 109l3-1-1-1-1 2 1-1z" transform="translate(53 78)"/><path class="cls-8" d="M186 107a14 14 0 00-4 2c-1 1 2-1 0 0s-1 1 0 1z" transform="translate(53 78)"/><path class="cls-8" d="M239 188h-1v1l1-1z"/><path class="cls-8" d="M185 110l-2 1zM185 109a1 1 0 000-1zM185 109zM185 110l2-2-2 1z" transform="translate(53 78)"/><path class="cls-8" d="M203 214v1h-1 1v-1z"/><path class="cls-8" d="M151 135zM141 140l3-2 2-1a22 22 0 00-2 1 20 20 0 003-1l4-2h-2l-9 5h1zM138 142c2-1 0 0 0 0zM162 126l-1 1a11 11 0 011-1zM161 127zM163 126h-1zM186 108v-1 1zM179 106v-1a3 3 0 000 1zM156 124zM156 124l-1 1v-1 1l1-1zM188 219l-1 1 2-1-1 1 1-1 1-1 1-1v-1c0 1 0 1 0 0a5 5 0 011 0l-4 3z" transform="translate(53 78)"/><path class="cls-8" d="M192 215l-2 2v-1a20 20 0 00-2 2l-2 2 1-1a3 3 0 010 1l1-1 2-3v1l3-3 1-2a30 30 0 00-2 3zM188 219zM156 210a6 6 0 00-1 0l1 1a11 11 0 012-1h-1l1-1 2-1-6 3 2-1zM152 191a2 2 0 001 0h-1zM153 211l-2 1 2-1zM181 197l1-1-1 1zM144 211h-1 1zM193 192l-2 1 1-1a5 5 0 00-1 0l-5 3h1l4-2zM169 191v-1zM170 190h-1 1zM154 210l-1 1h1a1 1 0 010-1zM160 208l2-1-2 1zM142 212l4-2a20 20 0 00-2 1l-4 2-3 1 5-2-3 1c1-1-3 0 0-2a15 15 0 00-3 1l-3 3a9 9 0 011-1v1a7 7 0 012-2v1h-1 1l-1 1a16 16 0 013-1l-3 1c3-1 3 0 2 1a7 7 0 011-1l-3 2c3-1-1 2 2 1l14-6a4 4 0 01-1 0 20 20 0 014-2l-3 1 4-2-13 5 1-2a7 7 0 013-1 2 2 0 000-1zM149 211zM146 211zM158 208h1a4 4 0 00-1 0zM155 210h-1 1zM157 202z" transform="translate(53 78)"/><path class="cls-8" d="M145 210l3-1h1l-3 2a5 5 0 003-1v1c1-1 4-2 2-2h0l2-1-3 1 1-1c-4 1 1-2-4 0h1zM158 208zM145 219l-3 1-1-1a3 3 0 011 0l-2-1a4 4 0 012-1l1-1 4-2-3 2 1-1-1 1h1l-2 2 3-2v1l7-4a19 19 0 00-5 3h-1l-3 2h1-1 2l-1 1s1-1 0 0zm0 0v0zM190 213v1a1 1 0 000-1zM183 203zM193 198l1-1a4 4 0 00-1 1zM190 213h-1zM189 205a7 7 0 00-1 1 4 4 0 001-1zM193 198zM191 197zM183 202zM187 196zM185 201h-1a3 3 0 001 0z" transform="translate(53 78)"/><path class="cls-8" d="M236 300z"/><path class="cls-8" d="M187 218zM186 210a15 15 0 01-1 1l1-1zM168 235h1a8 8 0 00-1 0zM169 235v-1zM163 227a3 3 0 001 0h-1zM187 218l2-2 2-1 2-2-1 1 1-1 2-2-4 3s1-1 0 0l-1 2v-1l-1 1-2 2zM173 231zM150 219l-1 1a6 6 0 001-1zM150 220zM190 196v-1a1 1 0 000 1zM150 220zM160 221l1-1a4 4 0 00-1 1zM162 218zM193 203zM150 220l-1 1 1-1zM170 216zM169 217v1l2-1a7 7 0 012-2v-1a6 6 0 01-2 2l1-2-2 2-1 1zM169 218a5 5 0 00-1 0h1zM167 221zM161 208s-1 1 0 0h1zM178 219c-1 0 0 0 0 0z" transform="translate(53 78)"/><path class="cls-8" d="M173 214a6 6 0 000 1 4 4 0 000-1zM175 222l-2 1 1-1h1zM174 222z" transform="translate(53 78)"/><path class="cls-8" d="M162 207a2 2 0 001 0v-1l-4 2h-1l1-1 1-1-4 2 3-2c-1 1 3-2 0 0l4-3-3 2h-1 1c2-2-2 0-4 1v-2a33 33 0 004-2l-4 2 2-1-3 2c0-1-2 0 0-1s7-4 3-3l-1 1 1-1s2-1 0 0l1-1-2 1a18 18 0 013-2l-5 1h1a21 21 0 003-2h-1l4-1c2-1-4 2-1 0a15 15 0 00-3 1l2-1h-2l-1 1-2 1c3-2-1-1 3-3h-4a8 8 0 013-1h-3l1-1c-1 1 2-1 0-1a5 5 0 002 0 10 10 0 01-2 0h1c1-1-4 0-4-1l3-1a14 14 0 01-2 0 8 8 0 011-1h-3l5-1 2-1h2c1-1-2 0 0 0a8 8 0 001-1h-1 5a12 12 0 01-1 0v1l1-1h2l-3 2 4-1h-2 3a15 15 0 00-2 1c-1 1 2 0 0 1a46 46 0 015-1l-4 1-3 1h3-1l2-1a2 2 0 00-1 1h2a23 23 0 002-1h-1a17 17 0 002-1l-1 1v1h-1l-1 1 6-2c2-1-2 2 1 1l-3 1s3-1 0 0l-2 1h1l2-1h3a9 9 0 00-2 0h1l-2 1 4-1-4 2-3 1-1 1 1-1h2l6-1-4 2 1-1h1l2-1-1 1 2-1-2 2 3-1-3 1c-1 1 5-2 3 0a13 13 0 00-2 1h1l5-2v-1l-2 1 1-1 4-1 2-2h-1l-2 1c1 0 0 0 0 0a8 8 0 01-2 1l-1 1h-1l3-2-3 1v1h-2l4-2-3 1 3-1 1-1h1l-2 2a23 23 0 012-2h1l4-2a27 27 0 00-3 2 6 6 0 001-1l3-1-2 1h1l-4 3 4-2-3 2 1-1a18 18 0 013-1 10 10 0 01-2 1h-1a28 28 0 01-4 2v1h-1l-3 2 1-1-1 1-2 1 7-3-2 1 2-1-3 2h1-1 1l-6 3h1a5 5 0 012-1c-2 1 0 0 0 0l-1 1h1l5-3a13 13 0 012-2c0 1 0 1 0 0h1a14 14 0 00-3 1c-1 1 1 0 0 0l-1 1 1-1h-1a19 19 0 013-1v-1l-2 1a22 22 0 013-1l1-1 1-1h1l-1 1c1-1-4 2-1 1l2-1a30 30 0 00-3 2l2-1-2 1-2 2s8-5 5-2h-1 2l-3 2a34 34 0 00-3 3 26 26 0 003-3l-2 1h1a10 10 0 01-2 1l2-2-4 2 4-2 2-1-2 1a7 7 0 011-1l1-1-4 2v1l-4 2-5 4 2-1 1-1 1-1v1l-1 1a14 14 0 00-2 1 5 5 0 01-1 1 24 24 0 013-2l-3 3 5-3-2 2 6-5-4 3-2 1 2-1c0-1-2 0 0-1l2-1 1-1c2-1-2 2 0 1l1-1 2-2c2-1-3 3 0 1l2-1h1-1 1-1l-1 1-3 2 3-2-2 1h1a21 21 0 01-4 2 9 9 0 011 0l-1 1v-1l-2 1v1l9-6v1c-1 0 0 0 0 0l-2 2 1-1-2 1a5 5 0 001 0c0-1-2 1 0-1l1-1-1 1a27 27 0 01-3 2h0a51 51 0 00-6 4l4-2a21 21 0 013-2l-1 1 1-1-2 2 3-2-2 2a32 32 0 003-3l-1 1 2-2v1l2-2-2 2 2-2c0 1-3 3-1 3l-5 3 2-2 2-1c1-1-4 2-2 0l-3 2c-2 2 1 0 0 1l-1 1h1v-1l-2 2h1l-1 1 2-1s-1 1 0 0l1-2h1l2-2-2 2h1 0c0-1 2-2 0-1a21 21 0 013-1h-1l-4 3-1 1a14 14 0 00-2 2l2-2-3 3c-2 2 0 0 0 1l3-2h1l1-1a41 41 0 003-3l-2 2 2-1c0 1-3 3-1 2l1-1-1 2 1-1a8 8 0 01-2 2l-1 1a13 13 0 012-2h-1l-1 1-3 3 2-1-3 2v1l1-2v1l3-3 5-4-2 2-4 4-4 3 3-2a8 8 0 01-1 0h1v1a15 15 0 012-2l3-3a28 28 0 01-3 2v1-1a41 41 0 004-3c-1 1 0 0 0 0a27 27 0 00-4 4 10 10 0 00-2 2l1-1a5 5 0 00-1 1l3-2-3 3-2 2a3 3 0 011 0l-1 1-1 1-2 1a6 6 0 00-1 1c0 1 0 0 0 0a15 15 0 01-1 2v-1l-1 1v-1l-2 1 1-1-4 3-1 1-2 1a4 4 0 00-1 1l2-2v1a15 15 0 013-2l-1 1c0 1 1-1 0 0l-2 2 2-1h1l-1 1-1 1 3-2v1h-1l-3 2c0 1 0 1 0 0v1l-4 2h1v-1c-1 1 0 0 0 0a12 12 0 01-1 1l-2 1c0 1 0 1 0 0l2-2c-1 1 1-1 0 0l-3 2c-1 1-1 1 0 0l1-1h1l-1-1-4 4c1-1 0-1 0 0v-1l-1 1 5-5c-1 0-3 3-5 3h1l-2 1h1-2l2-1-2 1c2-3-1 0 0-2v1l2-2s-1 0 0 0a6 6 0 001-1l1-1 1-1 1-2a10 10 0 000 1l-1-1c-5 4-3 1-6 3l5-4 1-1a16 16 0 01-2 2l4-3-5 3v-1l-1 1-2 1c1-1 0 0 0 0l-2 1 5-4-4 2 2-3c-1 1-7 5-4 2h1c0-1-3 0-2-1l8-7a13 13 0 01-2 1s1 0 0 0l-3 2-5 3 2-1h-1a6 6 0 012-1l4-3-2 1 2-1-2 1 4-3a19 19 0 005-2l-4 1h1l-3 1a4 4 0 001 0l-6 2c3 0-1 2 1 2a16 16 0 00-4 2l2-2-2 1 1-1c-1 1 3-2-1-1h1-1l-3 2a14 14 0 012-2l-2 1 4-2h-3a5 5 0 01-1 0h1l-2 1a8 8 0 013-2h-1 2c-2 0 3-3 1-3l2-1-4 2-1 2h-1l-2 1 3-3a34 34 0 01-4 3c-2 1 2-2 0 0l2-1-3 1 6-3h1l1-2c1 1 2-1 3-1l-3 1-1 1-2 1 1-1h-1l-7 4 1-1 16-8v-3l4-2v1l-3 1h3c3-2-1 0 1-2h1l1-1h-1a5 5 0 01-1 1l-4 1v1zm-7-16l1-1a6 6 0 01-1 1zm17 16l1-1c-4 3-7 5-8 4v1l8-4c1-1 0 0 0 0zm-7 5l1-1a8 8 0 01-1 1zm2-1zm-1-4v-1 1zm-2 1l2-1-2 1zm-4 5l4-3a3 3 0 001 0 2 2 0 010-1l-1 1a11 11 0 01-2 1l-1 1-1 1zm16 10l-1 1-1 1c0-1 3-3 0-1l3-3c4-2-4 4-1 2zm1-5h1l-6 2a21 21 0 00-2 3l-2 1 1-1-1 1-2 2 4-2 1-1c-1 0 0 0 0 0 1-1 2-2 0-1 2-1 2 0 3-2v1l-2 2 2-1-3 2-2 2c3-2-1 2 1 0l-1 2a32 32 0 004-4l-2 1 3-2v-1a10 10 0 002-1h1v-1l1-1c1-1 0-1 0 0h-1l1-1h-1zm-2-8l-6 5c-2 2 3-1 1 1l-5 3 1-1c-2 2 0 1 0 1l-3 2v-1l2-2-3 3c1-1 0 0 0 0l-3 2h1a11 11 0 00-4 2h2l1-1 1-1a12 12 0 01-2 1l3-1c1-1-2 0 1-2v1l3-2c1 0-1 1 0 0l3-1c-3 2-2 2-1 2l1-1 1-1h1a17 17 0 00-3 2s-1 0 0 0a4 4 0 00-1 1l3-2 4-3h1a19 19 0 00-2 1l-1 1 3-2-1 1-1 1h1a11 11 0 013-2c0-1 2-2 0-1l1-1c1-1-3 2-1-1l2-1-1 1 1-1h-1l-4 2a18 18 0 01-1 1l-1 1 2-2a27 27 0 004-3 4 4 0 001 0 11 11 0 00-2 1c-1 0 2-3 0-2l2-1-2 1 1-1-3 1 1-1zm-3 0l-1 1h-1a12 12 0 01-3 3l2-2h-1l-1 1-2 1a17 17 0 003-2h-1l-2 2v-1a4 4 0 001 0l1-2v1h-2l-1 1c1-1 0 0 0 0l-2 1-1 1h1l1-1c2 0-2 2-2 2 2 0 1 1 3-1l-1 1 4-2v-1h1l1-1 3-2zm12-13z" transform="translate(53 78)"/><path class="cls-8" d="M183 221a8 8 0 002-1l-2 1zM182 223l1-1zM174 231l2-1-4 3 3-2c1-1 1-2-1 0z" transform="translate(53 78)"/><path class="cls-8" d="M223 313h1v-1l-1 1z"/><path class="cls-8" d="M194 207c1-1 0 0 0 0s-1 1 0 0zM182 185l-2-1a5 5 0 002 1zM185 210l4-2c2-2-4 2-2 0zM193 203l-3 3 1-1z" transform="translate(53 78)"/><path class="cls-8" d="M216 309l-1 1h1v-1zM244 282l1-1-1 1z"/><path class="cls-8" d="M192 203l-1 1z" transform="translate(53 78)"/><path class="cls-8" d="M212 313l1-1-1 1z"/><path class="cls-8" d="M168 224h0z" transform="translate(53 78)"/><path class="cls-8" d="M244 281l-1 1 1-1z"/><path class="cls-8" d="M162 228l-1 1 1-1zM171 218zM171 218s-1 0 0 0zM170 217v1c-1 0-1 0 0 0l1-1h-1zM194 197a8 8 0 01-2 1l2-1s0-1 0 0zM194 197z" transform="translate(53 78)"/><path class="cls-8" d="M211 307l-2 1 2-1z"/><path class="cls-8" d="M194 196c1-1 0 0 0 0zM171 213v1c0-1 2-2 0-1zM189 199a17 17 0 01-2 1l2-1z" transform="translate(53 78)"/><path class="cls-8" d="M224 291h1-1z"/><path class="cls-8" d="M154 226l5-4-2 1a17 17 0 01-3 3zM157 223zM164 214h1zM155 223l2-1-4 2 2-1zM193 194h1-1zM194 193zM166 214c-1 0 0 0 0 0z" transform="translate(53 78)"/><path class="cls-8" d="M242 274zM245 271h1-1v1-1z"/><path class="cls-8" d="M150 221l2-1h-1zM187 190l-1 1a11 11 0 00-2 1l3-2a25 25 0 01-5 3l2-1a14 14 0 012-1h1a15 15 0 013-1 3 3 0 000-1h1l1-1-2 1a14 14 0 011-1l-1 1-1-1h0l-1-2-1 1-3 2-3 1 3-1-2 1c1 0-3 2 1 0l-2 1h2-1 2l-2 1h1a17 17 0 01-2 1l3-2a12 12 0 003-1zM184 192zM188 186zM188 191a17 17 0 013-1h-1l-2 1z" transform="translate(53 78)"/><path class="cls-8" d="M192 189h-2a9 9 0 002 0z" transform="translate(53 78)"/><path class="cls-8" d="M206 288v-1 1z"/><path class="cls-8" d="M156 206v0z" transform="translate(53 78)"/><path class="cls-8" d="M197 291h-1 1z"/><path class="cls-8" d="M180 189zM183 189l4-2h-1 1l-3 1 3-2h-2l-4 1c0 1-1 2 2 0l-2 1 2-1h2l-2 1a19 19 0 01-3 1h3zM180 186zM179 186l3-1-2 1 1-1z" transform="translate(53 78)"/><path class="cls-8" d="M184 185a24 24 0 00-4 1c-1 0 2-1 0 0s-1 0 0 0z" transform="translate(53 78)"/><path class="cls-8" d="M236 265h-1 1z"/><path class="cls-8" d="M182 187v-1l-1 1zM183 186a1 1 0 000-1zM182 186h1z" transform="translate(53 78)"/><path class="cls-8" d="M182 186l3-1-2 1z" transform="translate(53 78)"/><path class="cls-8" d="M199 288l-1 1 1-1z"/><path class="cls-8" d="M147 208h-1a4 4 0 001 0zM136 212l3-1 2-1a13 13 0 00-2 1 11 11 0 003-1l4-2h-2l-9 4h1zM133 214c1 0 0 0 0 0zM158 200a17 17 0 00-2 0 7 7 0 012 0zM157 200h-1 1zM158 200zM184 185c1 0 0 0 0 0s-1 0 0 0zM179 183zM151 191zM151 191h-2 2z" transform="translate(53 78)"/><path class="cls-9" d="M141 177zM138 170zM137 184v1zM132 157h0zM143 160zM136 188c-1 0-1 0 0 0zM136 192zM139 190zM139 190zM149 128a2 2 0 000-1zM147 143zM148 126zM133 185l1-2-1 2zM145 141zM148 126zM136 151zM137 150zM149 127zM148 131h1a2 2 0 00-1 0zM142 161z" transform="translate(53 78)"/><path class="cls-9" d="M196 234z"/><path class="cls-9" d="M143 155zM142 156zM138 159zM139 156z" transform="translate(53 78)"/><path class="cls-9" d="M190 239z"/><path class="cls-9" d="M137 144l-3 8a4 4 0 01-1 2v-1l-1 1s1 0 0 0v1l-2 2v1l-1 3 5 4h1-1l-5-4v1l5 3v-1h1l1-2v-1h1l1-1a4 4 0 011-1v-1 1l1-1 1-1 1-1h-1l1-1v1l1-1h-1 1v-1h2c-1 1 0 0 0 0l-4-3a3 3 0 010 1c1 1 0-1 0 0v1l-1 1h-1v2l1-2v1a10 10 0 01-1 1v1l-1 2v-1 2l-1 2h-1l1 1-1 1s0-1 0 0a6 6 0 010 1v-1l-1 1 1 1h-1a3 3 0 010 1l-1 1a2 2 0 010 1c-1 0 0 0 0 0l-1 1h-1v1l-1 1a10 10 0 00-2 3l2-1-1 2a7 7 0 00-1 2 4 4 0 001 0l1-1h1a1 1 0 01-1 0h2a16 16 0 012-1h1l1-1h2v-1a1 1 0 011 0 1 1 0 01-1 0h-1v2l-1 2h-1l1 1h-1v2c1 0 1 0 0 0v1l-1 1h-1a6 6 0 001-1v-1l-1 2-1 1 1-1v3h-2 1a5 5 0 01-1 1v0l1 1h-1 2s-1-1 0 0h1a1 1 0 011 0h1v1a9 9 0 012 0h1l-1-2-2 3h0-1v1h-1v1h-1 1l-2 1h2l1-1c-1 0 0 0 0 0h1v-1s0 1 0 0v1l1-2h1v-1 1l1-1v-1h1-1v-1 1a4 4 0 00-1-1 14 14 0 01-3 0l1-1h-1 1-1v-2h1l1-1h-1a1 1 0 001-1 2 2 0 010-1v1a8 8 0 001-3h1v-1l1-1v-1a2 2 0 001-1 3 3 0 00-1-3 2 2 0 00-1 0h-1-1c1 0 0 0 0 0h1-1a1 1 0 01-1 1v-1l-1 1 1-1-1 1h-1 1v-1 0l1-1v-1h1a3 3 0 01-1 0h1v-1a1 1 0 011 0h-1a2 2 0 010-1h1a7 7 0 001-3v1-1h1v-1c0-1 0 0 0 0a9 9 0 011-2 12 12 0 011-2v-1 1l1-2 1-2v1a1 1 0 000-1v-2l1-1 2-9-6 6 9-1-5 4 2-8-6 5h-1a1 1 0 000 1h-2 1l-3 2h-1v1a20 20 0 00-3 2l-1 1v1-1l-1 1-1 1v1l-1 1 5 4a5 5 0 011-1v-1l1-1 1-3h1-1l3-4v-1l3-4a4 4 0 010-2 16 16 0 012-3l1-1h-1 1v-1h1v-2s0-1 0 0a7 7 0 001-4 7 7 0 010 1l-1-2-1-3-4 2 1-5 4 6v-1l-5-1v1a3 3 0 01-1 1v-1l-1 1v1h-1-1c0 1-2 1-1 2h-1a1 1 0 010 1h-1l-6 6a40 40 0 01-2 3l-1 1-24 24 29-19h1-1l-30 14 26-20v1l-17 26 21-22h1a15 15 0 004-3l1-1 1-1 1-1v-1l1-1 1-1 1-1 2-1a7 7 0 011-2 98 98 0 016-9l1-1a2 2 0 00-1-1l-3 1a14 14 0 00-3 1h-1a2 2 0 01-1 0 4 4 0 01-1 0l-6 1-3 1h-2l-5 1 4 8 11-9 8-7v-1s0-1 0 0v-1h-1l1 1a1 1 0 01-1 0l-1 1h-1l1-1-1 1h-1s1 0 0 0l-1 1c0-1 0 0 0 0h-2s1 0 0 0v1h-1l-1 1v-1 0l-6 3v-1c-1 2-2 1-3 2l-6 4h1a1 1 0 01-1 0l-9 13 12-8h1a21 21 0 004-1h1a1 1 0 011 0v1s1 0 0 0h-1s1 0 0 0v1a9 9 0 00-2 2h-1v1-1l-2 2v1l-2 1 5 5a10 10 0 012-2l2-2a33 33 0 013-3v-1l2-1-1 1v-1h1l3-3h1v-1s1 0 0 0h1a4 4 0 011-1l-5-2h-1v1a1 1 0 01-1 1v-1 1l-1 1h1a14 14 0 00-2 2l-1 1zM138 159v-1zM140 158zM138 161h-1 1zM134 168zM135 181zM136 180zM137 162zM136 179h1zM135 181zM131 177z" transform="translate(53 78)"/><path class="cls-9" d="M190 256z"/><path class="cls-9" d="M134 183h-1 1zM138 176a1 1 0 000-1v1z" transform="translate(53 78)"/></g><path class="cls-10" d="M126 224a450 450 0 0046 0l3-11c0-2 1-5-1-7a8 8 0 00-4-2 79 79 0 00-36-4 17 17 0 00-7 2c-3 2-4 5-5 8a40 40 0 000 11 5 5 0 000 2 2 2 0 002 1M112 95a95 95 0 0116-3c18-1 35 2 53 2l4-1a5 5 0 001-3 64 64 0 00-1-14c0-2-1-4-3-5a8 8 0 00-4-1l-62 2a5 5 0 00-3 0 5 5 0 00-2 3 45 45 0 00-3 15c0 1 1 4 3 3" transform="translate(53 78)"/><path d="M163 186a27 27 0 01-7 9c-3 2-7 4-11 4s-7-3-8-7c-1-2 0-5 1-7 4-12 10-24 9-37a77 77 0 0012 23 22 22 0 012 4c1 1 4 7 2 11" transform="translate(53 78)" fill="#ffd13d"/><path d="M160 184a24 24 0 01-9 10c-4 2-8 2-10-1a4 4 0 01-1-1 7 7 0 010-4 65 65 0 012-7l6-15a54 54 0 002-18l-6 1a80 80 0 0011 22l3 4 1 2v1a17 17 0 011 4 8 8 0 010 1v1c0-1 0 0 0 0a3 3 0 001 4 3 3 0 004-1c2-3 2-6 0-10a32 32 0 00-4-8 76 76 0 01-11-22c-1-3-6-2-6 1 1 12-4 23-8 33l-3 9a11 11 0 004 8c4 4 10 4 15 2 6-2 11-7 13-13a3 3 0 00-1-4 3 3 0 00-4 1z" transform="translate(53 78)"/><path class="cls-12" d="M133 106a72 72 0 01-4 6h3c0-1 0 0 0 0l-3-1-1 1h3v1a2 2 0 00-3 0 2 2 0 000 1 2 2 0 002 1 2 2 0 001-1 18 18 0 001-3 1 1 0 00-1-1 2 2 0 00-2 0 3 3 0 000 3 1 1 0 001 1 2 2 0 002-1 72 72 0 004-6 2 2 0 10-3-1z" transform="translate(53 78)"/><path class="cls-12" d="M130 113a2 2 0 000-3 2 2 0 000 3z" transform="translate(53 78)"/><path class="cls-12" d="M131 114a1 1 0 00-1-1 1 1 0 00-1 0h-1v1a2 2 0 000 1 1 1 0 000 1 1 1 0 001 0 1 1 0 001 0l1-1a2 2 0 000-1zM116 138a2 2 0 000-3 2 2 0 000 3z" transform="translate(53 78)"/><path d="M143 59c-3-2-7-6-5-9 3-4 9-3 13-3s6 4 2 7-8 4-13 3c-6-2-9 8-2 10 9 2 19-1 24-9 6-7 3-18-6-20-8-2-20-1-26 6-6 8-1 17 6 22 4 5 11-2 7-7z" transform="translate(53 78)"/><path d="M114 76c4-3 10-3 15-4l14-1a119 119 0 0120 0 45 45 0 019 2c8 2 10 8 8 16l4-4-76 1 5 4c-1-4-2-10 1-14 4-5-3-12-7-7-5 7-5 15-3 24a5 5 0 004 3l76-1a5 5 0 005-3c3-10 2-21-7-26-5-3-11-4-16-5a115 115 0 00-24 0l-19 2c-6 1-11 2-16 6s3 12 7 7z" transform="translate(53 78)"/><path d="M126 94c-6 22-24 39-30 61-6 23 1 51 15 69 4 5 11-2 8-7a71 71 0 01-11-65c7-19 22-35 27-56 2-6-8-8-9-2z" transform="translate(53 78)"/><path d="M105 75c-17 2-31 11-33 28l-3 29-1 31-1 25c0 8-2 18 1 25 3 8 10 12 17 14h14l17 1h87c5 1 10 1 14-2 7-5 10-13 11-21v-29l-1-32-1-28c0-8 0-17-3-25s-9-15-18-18a38 38 0 00-20 0c-6 2-3 12 3 10a28 28 0 0113-1c8 2 12 9 14 16l1 18 1 21 1 55c0 7 1 14-2 21-2 3-4 6-8 6l-16-1h-60l-31-1c-7 0-15 2-21-4-6-4-3-14-3-20l1-24a1302 1302 0 012-52c1-8 1-16 5-22 5-7 13-9 20-10 6 0 6-10 0-10z" transform="translate(53 78)"/><path d="M98 220c-12 5-20 17-16 29a5 5 0 005 4h42c6 0 6-10 0-10H87l5 4c-2-5-1-10 3-13a23 23 0 015-4c6-2 4-12-2-10zM142 252h9a5 5 0 000-10h-9a5 5 0 000 10zM160 96c6 20 21 36 28 55 7 21 3 48-11 65-4 5 3 12 7 7 15-18 21-46 15-68-6-23-23-40-29-62-2-6-11-4-10 3zM192 230a23 23 0 015 4c4 3 5 8 3 13l5-4h-42c-6 0-6 10 0 10h42a5 5 0 005-3c4-13-4-25-16-30-6-2-8 8-2 10z" transform="translate(53 78)"/></g></g></g></svg>