<svg xmlns="http://www.w3.org/2000/svg" viewBox="7 0 324 320">
    <defs>
        <clipPath id="clip-path" transform="translate(30 6)">
            <path fill="none"
                d="M135 107c-6 29-35 53-32 84 1 11 8 28 20 30 39 0 72 19 81-35 8-31-29-51-30-80-13 0-28-5-40-1" />
        </clipPath>
        <style>
            .cls-9 {
                fill: #fffae1
            }

            .cls-10 {
                fill: #fbec9f
            }

            .cls-11 {
                fill: #ff8564
            }
        </style>
    </defs>
    <g style="isolation:isolate">
        <g id="圖層_2" data-name="圖層 2">
            <g id="圖層_1-2" data-name="圖層 1">
                <path fill="#fcfbed" d="M297 153c-3 187-281 187-284 0 3-187 281-187 284 0z"
                    transform="translate(30 6)" />
                <path fill="none" stroke="#27507a" stroke-miterlimit="10" stroke-width="15"
                    d="M327 159c-4 186-281 186-284 0 3-187 280-187 284 0z" />
                <path fill="#c4afb5" d="M93 248c42-1 85 5 126 0-2-28-26-22-47-23-23 0-46-3-68 2-8 4-8 13-13 20"
                    transform="translate(30 6)" />
                <g clip-path="url(#clip-path)">
                    <path fill="#fff"
                        d="M135 100c-2 13-9 24-15 35s-13 22-15 35a47 47 0 00-1 18 53 53 0 005 15c3 5 7 10 12 12a16 16 0 003 1 26 26 0 004 0h8l28 3c8 0 16 0 23-4 8-3 13-11 16-19a70 70 0 002-8l2-10a37 37 0 001-16c-3-10-9-19-15-28-5-8-12-17-14-27a32 32 0 01-1-7 2 2 0 00-2-2c-13 0-27-5-41-1-2 1-1 4 1 3 13-4 27 1 40 1l-1-1c0 10 5 19 10 27 6 9 12 17 17 27a40 40 0 013 14 33 33 0 010 8l-1 5-1 4c-2 9-5 19-12 25-6 5-13 6-20 6l-27-2-15-1h-3a9 9 0 01-4-1 18 18 0 01-6-4c-3-4-6-9-7-14a43 43 0 01-3-16c1-13 7-24 13-35s13-22 17-33a66 66 0 002-9c1-2-2-3-3-1z"
                        transform="translate(30 6)" />
                    <path
                        d="M135 106l-1 1 4 3a59 59 0 0115-11l-4-4a345 345 0 011 0l3 4a55 55 0 00-15 11l-4-3 1-1zM142 105h1zM193 213a75 75 0 007-8 78 78 0 01-7 8z"
                        class="cls-9" transform="translate(30 6)" />
                    <path
                        d="M91 193l-1 2-7 10-3 4-8 8 5 3 1-2 2-4c2-4 9-13 17-20a133 133 0 0111-10l9-6 2-1 3-3a238 238 0 0113-8h2a4 4 0 000-1h1l3-2 5-5v1l-4 2a162 162 0 0014-13l5-5-4 4 9-10 12-13 16-19-20 15a471 471 0 00-65 57c-23 23-47 51-68 76l5 4a229 229 0 0122-33 345 345 0 0123-26l11-10 5-5 5-5 15-13a952 952 0 00-22 20l20-19 15-13 9-8 7-7 3-3 5-5 14-15-4-4-19 15 5 3a6 6 0 011-3 7 7 0 015-3l-3-4-5 12a159 159 0 01-8 14l-1 2-1 1-1 1-4 6-8 11 28-14-4-4-11 11 1-1-18 18-18 18-9 9 3 4 1-1 15-15-7 7a444 444 0 0144-39l-8 7 21-16-3-4-7 6 7-6 3 4-5 4 5-4-3-4a542 542 0 00-58 60l3 3c17-16 39-37 62-56l-4-4-45 49 3 3a360 360 0 014-6l14-17-4 5-4 5 19-21a345 345 0 0133-30l-3-3-62 82 3 2 35-34a359 359 0 0134-29l-3-3a688 688 0 00-52 51l-2 3 3 3c6-6 2-2 0 0l-4-3 1-1-1 1 4 3 10-10 9-8-3 3 13-11-6 5a21 21 0 00-2 1l18-14v1l6-5-3-3-18 22c-9 10-18 22-26 34l-9 13 12-11 47-42-3-3-10 12 10-12 3 3h-1 1l-3-3a241 241 0 01-14 16l-3 3-3 3 2 3a94 94 0 0126-24l-2-3-21 28-11 14 14-12 13-11 14-11-1-1-13 21-3-2a39 39 0 019-5l7-3-4 7-1 2a4 4 0 00-1 0 77 77 0 01-8 8l-6 5a69 69 0 007-5 75 75 0 009-10l5-7-8 2a37 37 0 00-5 2l-1 1-3 2 3 4 13-16-13 16-3-4a37 37 0 019-5l9-2-6 7-1 1 1-1 6-7-9 2a37 37 0 00-9 5l3 4 14-17 2-2 12-15-16 11-2 1a13 13 0 00-1 1l-6 3-19 16 4 4 8-11 13-17 9-12-13 8a101 101 0 00-15 11 99 99 0 00-12 14l4 4 12-13-2 2 11-12-4-4-23 21-1 1-23 21 4 3a291 291 0 0120-26l24-29 14-16-18 12a304 304 0 00-46 39l4 4a680 680 0 0155-54l-4-5a373 373 0 00-38 32l-31 32 4 3 62-81 13-17-17 14a342 342 0 00-28 24l-13 14 2-2a335 335 0 00-24 28l5 3 45-48-4-4c-20 17-41 36-61 57l4 3a541 541 0 0157-59l-3-4a508 508 0 00-66 57l3 4 56-56 11-11-14 7-7 4h-1l1-1 1-2 2-2 3-5a157 157 0 009-20l1-4-4 1a13 13 0 00-9 5 12 12 0 013-3 13 13 0 012-1l1-1a14 14 0 00-2 2 13 13 0 00-5 4 11 11 0 00-1 4v6l4-4 19-15-3-3-3 3-6 6-14 14-20 19a1316 1316 0 00-61 59 237 237 0 00-29 41l4 3a1352 1352 0 01104-111l28-22-3-3-13 15a214 214 0 01-17 17 117 117 0 01-10 8l-1 1-1 1-3 1-5 4a204 204 0 00-22 14 121 121 0 00-17 17l2-2a89 89 0 00-15 21l-6 13 10-11a204 204 0 0017-20 198 198 0 0016-27l4-8-8 5a55 55 0 00-12 13l3 3 32-40a237 237 0 0134-32l-3-4a221 221 0 00-23 28 211 211 0 00-12 19l3-4-7 12 4 2 11-15 13-17 7-11 14-18v1l15-19 11-13-14 10a243 243 0 00-21 17l-20 20 1-1-18 19 3 3a156 156 0 0121-23 167 167 0 0119-14l3-2 3-2-2-3-23 16c-8 6-16 14-23 23l3 2 33-34 13-13-15 9-22 13 2 3 1-1q8-9 14-19l5-7-8 4a63 63 0 00-6 4l-4 3-2 1a51 51 0 00-3 4l2 2a34 34 0 004-6 16 16 0 001-4h-1a69 69 0 01-6 8l2 3a62 62 0 0116-11l-3-3-1 1v-1l-7 10-7 10-8 10 11-7 8-4-8 4-11 7 8-10 7-9-5 5 5-6-8 10-8 11 12-7 4-3-4 2 22-13-3-4-3 4-6 6-8 8-16 17 4 4c6-8 13-15 20-21l25-17-3-5a165 165 0 00-47 42l4 3 27-28a256 256 0 0130-26l-4-4q-20 24-39 50l2-3-23 32 5 3a210 210 0 0123-36l5-6 2-3 8-8-4-4a228 228 0 00-33 30c-12 13-24 29-34 42l5 4a50 50 0 0111-11l-4-4a187 187 0 01-13 22zM186 118h-1 1z"
                        class="cls-9" transform="translate(30 6)" />
                    <path d="M215 124z" class="cls-9" />
                    <path
                        d="M171 145v-1 1zM181 124h-1v1l-3 3h1l-1 1-1 1v1h-1v1a2 2 0 00-1 0l-1 3a40 40 0 01-3 3v1l-1 1v-1 1l-1 1 3 3h1v-1h1v-1l4-4 3-5h1s-1 0 0 0v-1a39 39 0 013-4v-1l2-2 1-1v-1a3 3 0 011-1 5 5 0 001-1v-1l-4-2v1l-3 2v1a9 9 0 01-1 2zM113 180v-1h-1l1 1zM113 180h1-2 1zM113 180zM137 190h-1c1 0 1 0 0 0h1zM154 192zM137 190zM136 192zM141 190zM133 192h1c-1 0 0 0 0 0h-1zM149 193zM148 193zM137 190zM137 190h-1zM141 190s-1 0 0 0h1-1 1-1-1s-1 0 0 0l-1-1-2 1c1 0 1 0 0 0h1v1a14 14 0 002-1zM139 190zM140 190zM137 190zM137 190zM143 192z"
                        class="cls-9" transform="translate(30 6)" />
                    <path
                        d="M141 190v1a3 3 0 01-1 0v-1a1 1 0 00-1 0h1v1h2a1 1 0 00-1 0zM138 191zM135 189a10 10 0 011 0 4 4 0 001 0h1l-1 1 1-1-1 1v-1h-1v1l-1-1h0c-1 0 0 0 0 0zm0 0h0zM115 182zM128 189zM126 189z"
                        class="cls-9" transform="translate(30 6)" />
                    <path d="M145 188z" class="cls-9" />
                    <path d="M122 187v-1 1z" class="cls-9" transform="translate(30 6)" />
                    <path d="M156 195z" class="cls-9" />
                    <path d="M129 190zM129 190zM132 191zM129 190z" class="cls-9" transform="translate(30 6)" />
                    <path d="M144 186z" class="cls-9" />
                    <path
                        d="M114 181zM120 185zM116 180zM116 180zM122 184zM114 180v1l-1-1a1 1 0 010 1 2 2 0 001 0 1 1 0 01-1 0h1v-1zM115 180zM133 189zM132 188zM131 191zM132 188zM127 187zM128 187zM120 186zM132 188z"
                        class="cls-9" transform="translate(30 6)" />
                    <path d="M155 192z" class="cls-9" />
                    <path d="M125 187v-1 1h1-1 1-1zM125 187zM124 186zM136 190zM119 184zM125 187zM119 183zM119 183z"
                        class="cls-9" transform="translate(30 6)" />
                    <path
                        d="M136 191h1a7 7 0 010-1 1 1 0 011 0h-1l1 1h4-1 1l1 1h1a2 2 0 001 0h6a11 11 0 002 0h2-1 1l-1 1 1-1a4 4 0 01-2 1h-1a3 3 0 01-1 0h-1a5 5 0 01-1 0h-1 1a4 4 0 00-1 0h-1a3 3 0 01-1 0h-1-1 1a1 1 0 00-1 0 2 2 0 01-1 0h-1s1 0 0 0h1v-1l-1 1a5 5 0 01-1-1 2 2 0 01-1 1v-1h-1 1a1 1 0 01-1 0h-1a1 1 0 01-1 0c1 0 0 0 0 0h-1a2 2 0 01-1 0h0a2 2 0 001 0h1-1 2-1 1v1c1 1 0-1 1-1a1 1 0 01-1 1h-1v-1 1a2 2 0 011 0h-1a3 3 0 00-1 0l-1-1 1 1-1-1h-1c1 0 0 0 0 0h1-1 1v-1h-1v1l-1-1h-1c1 0 0 0 0 0a2 2 0 00-1 0h0a1 1 0 011 0h1v1h-1l-1-1h-1c1 0 0 0 0 0h-1v-1a13 13 0 01-2 0s1 0 0 0h2a1 1 0 01-1 0c1 0 0 0 0 0h1v1h1l-1-1h1-2 1a1 1 0 01-1-1v1a1 1 0 010-1h-1 0l1 1-1-1c0 1 0 0 0 0v0a1 1 0 00-1 0h-1 1-1 1a1 1 0 001 0l-2-1a4 4 0 000 1 2 2 0 01-1-1l1 1v-1h-1 1a3 3 0 01-1 0h-1l-1-1s1 0 0 0l1 1v-1a1 1 0 00-1 0v-1 1l-1-1v1h1-1v-1 1l-1-1h1l-1-1h-1a3 3 0 00-1 0l-1-1h-1v-1a1 1 0 001 1v-1 1-1h-1v-1c0-1 0 1 0 0h-1v1l1-1h-1a1 1 0 001 0v1h-1v-1-1h-1v-1 1a1 1 0 001 0 1 1 0 00-1 0c0-1 0 0 0 0h2l1 1v-1h-1l-1-1v0h-1 1-1 1c1 0 0 0 0 0a1 1 0 001 0v1h2v1h1a1 1 0 001 0v1a12 12 0 001 1h1-1a4 4 0 002 0v1h1a1 1 0 001 0v1h1-1a7 7 0 012 0v1h1-1a1 1 0 011 0v1s0-1 0 0c0 0 0-1 0 0h1l-1-1h1a1 1 0 011 0v1a1 1 0 011 0h0a2 2 0 001 0h1v1l-1-1 1 1h1c-1 0 0 0 0 0 0 1 0 0 0 0h1v1h1v1l-1-1h1a4 4 0 00-1 0l1 1a1 1 0 00-1 0h1zm17 1zm-22-2h1v-1a5 5 0 00-1 1zm0-1zm0 0zm4 1zm-1 0zm-1-1v0c0 1 0 0 0 0zm-16-7h1v1l-1-1zm3 2a3 3 0 011 1v-1h0a2 2 0 00-1 0h-1l1-1h-1v1h1-1a5 5 0 011 0zm7 4v-1h-1 1s-1 0 0 0h-1v-1 1-1 1l-1-1s0 1 0 0h-1-1s1 0 0 0l-1-1h-1l1 1h1l1 1v-1l1 1h-1l2 1c-1-1 0 0 0 0h1zm1 0l1 1v-1 0h1v1h1a2 2 0 00-1-1v0h-2 1-1 1-1zm5 3zM114 180s0 1 0 0zM114 180zM114 180v-1h1-1v1z"
                        class="cls-9" transform="translate(30 6)" />
                    <path d="M144 185z" class="cls-9" />
                    <path d="M116 183l1 1-1-1zM149 194h2zM121 185a6 6 0 01-1 0l1 1zM120 186z" class="cls-9"
                        transform="translate(30 6)" />
                    <path d="M150 188zM151 192z" class="cls-9" />
                    <path d="M122 187z" class="cls-9" transform="translate(30 6)" />
                    <path d="M150 188z" class="cls-9" />
                    <path d="M121 184z" class="cls-9" transform="translate(30 6)" />
                    <path d="M152 193z" class="cls-9" />
                    <path d="M122 184zM124 186zM124 186zM125 186h-1c1 0 0 0 0 0h1zM127 189h-1 1zM126 189z" class="cls-9"
                        transform="translate(30 6)" />
                    <path d="M154 191v-1 1z" class="cls-9" />
                    <path d="M127 190zM127 188v-1 1zM128 190v-1 1z" class="cls-9" transform="translate(30 6)" />
                    <path d="M157 193z" class="cls-9" />
                    <path
                        d="M127 186v1s0-1 0 0v-1zM127 187zM130 188zM128 187h1a1 1 0 00-1 0zM130 191zM130 191zM129 188z"
                        class="cls-9" transform="translate(30 6)" />
                    <path d="M161 197v-1 1zM162 197z" class="cls-9" />
                    <path
                        d="M132 188zM140 193h-1-1 2v1h3v-1l-1 1v-1a2 2 0 01-1 0h-1 1-1c-1 0 0 0 0 0zM139 193zM144 194h-1 1zM138 193h-1 1zM138 193z"
                        class="cls-9" transform="translate(30 6)" />
                    <path d="M168 196z" class="cls-9" />
                    <path d="M140 191h-1 1z" class="cls-9" transform="translate(30 6)" />
                    <path d="M169 196z" class="cls-9" />
                    <path
                        d="M145 194zM143 194c1 0 0 0 0 0h3c1 0 0 0 0 0h-1a11 11 0 00-2 0zM149 194zM149 194zM148 194c1 0 1 0 0 0h0z"
                        class="cls-9" transform="translate(30 6)" />
                    <path d="M176 199h1-1z" class="cls-9" />
                    <path d="M147 194zM147 194h1z" class="cls-9" transform="translate(30 6)" />
                    <path d="M177 199v1-1z" class="cls-9" />
                    <path d="M147 194z" class="cls-9" transform="translate(30 6)" />
                    <path d="M171 196z" class="cls-9" />
                    <path
                        d="M142 191zM143 190s-1 0 0 0h-1s1 0 0 0v1h1v-1zM142 190zM144 192zM144 192zM144 192zM148 194zM152 194h0zM154 192zM154 192h1-1zM155 113l1 1-1-2 1 1v-2l-1-2v1l-1-1c1 1 0 0 0 0v-1l1 5z"
                        class="cls-9" transform="translate(30 6)" />
                    <path d="M152 108l1 3h-1l1 2 2 3-1-2 2 1-1-2-2-3v1l-1-4c-2-3-2-1-3-2l3 3zM155 113z" class="cls-9"
                        transform="translate(30 6)" />
                    <path
                        d="M156 114a6 6 0 00-1-1l-1 1a16 16 0 012 1v-1l1 1 2 2-5-5 2 2zM168 105a3 3 0 001 1l-1-1zM153 111l-1-2 1 2zM176 133v1l-1-1zM149 103zM183 143l-1-2 1 2a4 4 0 000-1l-4-4c-2-1-1 0 0 1l3 3zM177 119zM178 120l-1-1 1 1zM154 112l-1-1 1 1zM159 116v1l1 1-1-2zM148 102l3 3-2-2-3-2-2-2 4 3a9 9 0 00-2-2c1 0-2-3 1 0a22 22 0 00-2-3c-3-2-2 0-3-2v1a12 12 0 012 2v-1h-1c-1-1 2 2 0 1l-1-1a23 23 0 012 2l-2-2c3 2 2 2 0 1a12 12 0 011 1l-2-2c2 2-2-1 0 2l11 10a7 7 0 01-1 0 29 29 0 013 3l-2-3a19 19 0 003 3l-9-10 2 1a10 10 0 012 2 1 1 0 001 0zM152 108zM150 105z"
                        class="cls-9" transform="translate(30 6)" />
                    <path
                        d="M158 115l1 1h-1a5 5 0 000-1zM155 113l-1-1 1 1zM162 113v-1 1zM151 104l2 2v1l-3-2a7 7 0 002 3c0-1 1 0 0 0 1 1 3 3 2 1v1c2 1 0-1 0-1l1 1c0-1 2 1-1-2l1 1c-3-3 2 0-2-3l1 1zM158 115zM144 106l-2-3v-1a5 5 0 011 1v-2a6 6 0 011 2v-1l1 1s0 1 0 0l3 3-2-2 1 1-2-1 1 1-2-2 3 3-1-1 5 6a29 29 0 00-4-3l-1-2-2-2v1l1 1-1-1v1zm0-1zM148 111v0zM170 137zM177 147zM146 113zM135 124zM177 146h-1l1 1zM178 143zM171 137a2 2 0 00-1 0zM178 139h-1a1 1 0 001 0zM173 138h-1a3 3 0 001 0z"
                        class="cls-9" transform="translate(30 6)" />
                    <path d="M185 124z" class="cls-9" />
                    <path
                        d="M153 114zM141 122a6 6 0 012 1l-2-1zM166 134zM165 133zM153 114l-1-2-1-2a19 19 0 01-1-2v1-2l-2-2 1 5 1-1 1 2h-1l2 1 1 2zM164 130zM146 109l-1-1a7 7 0 001 1zM145 110v-1zM179 142zM145 110zM148 118v1a4 4 0 000-1zM151 120zM132 119zM145 109h-1zM155 127zM153 126l1 1a8 8 0 012 2h1a8 8 0 01-2-2l2 2-1-1-1-1-2-1zM153 126l-1-1a2 2 0 001 1zM149 124zM159 118c0-1-1-1 0 0zM153 125zM157 130a6 6 0 00-1-1 7 7 0 001 1zM157 127l1 1-1-1c0 1 0 1 0 0zM157 127z"
                        class="cls-9" transform="translate(30 6)" />
                    <path
                        d="M160 118l1 1a2 2 0 01-1-1l1 1-3-3v-1l1 1c1 1 3 2 1 0l-3-3 3 3c-2-2 2 2 0-1l4 3-3-2v-1 1c3 2-1-2-2-3l1-1a37 37 0 004 3l-4-3 2 2-3-3h1v1l3 2-1-1h1s2 2 1 0v1l-1-2a23 23 0 013 2l-3-4 1 1a28 28 0 002 3v-1l3 3-1-1a17 17 0 00-2-2l2 1-2-2-1-1-1-1 3 2-1-3a10 10 0 012 1s-3-3-1-2v1h1a7 7 0 001 1 13 13 0 01-1-2l1 1c2 0-2-4-1-4l2 3v-1a17 17 0 01-1-1 12 12 0 011 1c2 1-3-4-2-3l4 3 1 2 2 1c1 1-1-1 0 0a9 9 0 001 1v-1l3 4-1-1h-1l1 1 1 1-3-1 3 3-1-2 1 3a14 14 0 00-1-1h-1a38 38 0 013 4l-3-3-2-2 2 2-1-1 1 2a2 2 0 000-1v2l3 1-1-1 1 1v1l-1-1v1l-1-1h-1l4 4c1 2-3-1-1 1l-1-2c-1 0 1 2-1 1l-2-2 1 1 2 1 1 2a8 8 0 00-2-1l2 1-2-1c2 2-2-1 2 3l-3-3-2-2-1-1 1 1v2l4 4c-1-1-2 0-3-2v1h1v0l1 2-2-1 2 2-2-1 2 2-2-2c-2-1 3 4 1 2a11 11 0 00-2-1l1 1a45 45 0 013 4h1l-1-1c2 2-1-1 0 0 3 2 2 2 3 4l3 1-1-1-2-1v-1l-1-1-1-1-1-1 3 2-2-2-2-2 4 3-2-3 2 3 1 1v1l-2-2a17 17 0 012 2h1l3 4a18 18 0 00-3-2 5 5 0 001 1l2 2-2-1h1c1 2-2-1-4-2l3 3-3-3 1 1 2 2a7 7 0 01-2-1s-2-2 0 0a25 25 0 01-3-4h-1c0-1 0 0 0 0a34 34 0 01-3-3h0l-2-2v1l5 5-1-1 1 1-3-2 1 1-1-1 1 1-5-5v1a5 5 0 012 2c-2-2 0 0-1 0v0l4 4a9 9 0 012 2l1 1a10 10 0 00-3-3h1l-1-1 1 1v-1l2 2c1 1-1 0 0 0l-2-2 3 3 1 1 1 1h-1c1 1-3-3-2-1l2 2a22 22 0 00-3-2l2 1-2-1-2-2c0 1 7 7 3 5l-1-1v2l-2-2a24 24 0 00-3-3l3 2a15 15 0 00-1-1s1 1 0 0l-1-1 2 1-3-3a44 44 0 013 4l2 1-1-2a6 6 0 010 1l1 1-2-3h-1a37 37 0 00-3-4l-5-4 1 2 2 1v1-1h-1a12 12 0 00-2-1 5 5 0 01-1-1 22 22 0 013 2l-4-2 4 4-2-1 6 5a52 52 0 00-4-4l-1-2 1 2c1 0-1-2 1 0l1 2h1c2 2-2-1-1 0l1 1 3 2c1 1-4-2-1 0l1 2v1-1 1-1l-1-1-2-2 2 2-2-1 1 1a17 17 0 01-3-3h1l-2-1 1 1-1-3-2 1 8 7c0 1 1 2-1 1v0l-2-2 1 1-2-2a3 3 0 001 1c1 0-1-2 0 0l2 1-1-2a22 22 0 01-2-1s1 1 0 0c0 0-2-2 0-1a45 45 0 00-6-5l3 3a18 18 0 012 3l-1-1 1 2-1-1a26 26 0 002 2v-1l1 2 2 2c-1 0-4-4-3-2l2 2-2-1-57-5 14-19a1 1 0 000-1 20 20 0 005 1 1 1 0 000 1l-19 64 53-45a13 13 0 012 2l-38-22h-2l-12 15 53 8c1 0-2-3 1 0l-1-2-2-2c-2-2 0 0-1 0a5 5 0 00-1-1v1h0l-31-18a9 9 0 002 1l-1-1h2l-2-1v-1h-3l-2-1h3-1v-1c-1 0-3 0-2 1a6 6 0 01-2-2l2-1c0 1 6 2 4 3-3-1 0 1 1 1l2 1c-1 0-3-2-1-2l3 1h2c-1-1 0-2-3-3l-1-1-1-1a20 20 0 00-4-3 12 12 0 013 1s2-1 0-3c0-1 4 2 3 0 0 0-3-2-1-2l1 2 1-1v-1c1 0 1-1 2 1v2l-1-2c-2 0 0 1-1 1l1 1 4 3s-4-4-1-3c1 2-1 1 1 3l2 1-2-2h1l-3-4-4-4 3 2a5 5 0 001 2 9 9 0 012 2l3 3-2-2a5 5 0 011 0v-1h1l-2-3-3-1a13 13 0 012 2v1l-1-1-2-3v-1l5 3v1l2 1-1-1a2 2 0 001 1s-2-2-1-3a27 27 0 002 3l2 2a2 2 0 010-1l1 1v2l1 2 1 1c1 1 0 0 0 0a16 16 0 012 2l-1-1v1l1 2-1-1a40 40 0 003 4l1 1 1 2 1 1-1-2c1 1-1-1 0 0a25 25 0 01-2-3l1 2s-1-1 0 0l2 2-1-2-1-1 1 1 1 1-2-3h1v2l2 2s0 1 0 0v1l2 2v1-1 1-1h-1l-1-1 1 1h-1l-23-16-1-1a50 50 0 014 4l-2-4 2 3-3-4 1 1v-2l8 7a21 21 0 01-2-2h1c-1-1-4-4-3-2l-4-5 2 2-1-1a10 10 0 012 2l3 3-1-1 2 1-2-1 4 3a25 25 0 003 4l-2-3 1 1-3-3a5 5 0 001 1l-4-5c1 2-2-1-1 1a21 21 0 00-3-4l2 2-1-2 1 1c-1-1 3 2 0 0v-1l-2-2a22 22 0 012 1l-1-1 3 3-1-2a7 7 0 01-1-1l-1-1a11 11 0 012 2v-1l1 2c-1-2 3 2 2 1a11 11 0 002 1l-3-3-2-1-1-1 1 1-1-2 3 3-4-3c-2-2 2 1 0-1l2 1-2-1 4 4 1 1 1 1a15 15 0 002 2c2 1-2-2-1-2l-1-1-2-2 1 1v-1l-6-5 1 1 13 12h2l3 3h-1l-2-2 1 2 2 1h1l1 1v-1a4 4 0 01-1 0l-3-3-1-1zm10-10h1a8 8 0 01-1 0zm-7 19l2 1-7-6v-1 1l6 6c1 1 0 0 0 0zm-6-5l1 1-1-1zm2 2zm3-2zm-2-1l1 1-1-1zm-5-4l3 4a4 4 0 001 1l-1-1a14 14 0 01-1-2l-1-1-1-1zm3 9l1 1 1 1-2-1-3-2a2 2 0 011 0c-2-1-1-1 0 0l2 1zm-6 0l4 3 4 1 2 1h-1 1l2 1a54 54 0 01-5-2l-3-2c-2-1 0-1 0 0l3 1-2-1 3 2 2 1c-3-2 2 1 0-1l2 2-5-4 2 2a68 68 0 01-4-3 13 13 0 00-1-1l-1-1h-2c-1-1-1 0 0 0v1l-1-1v1zm9 4l-6-4v-1c-2-1 2 3 0 2l-4-4 1 1-1-1-2-2s1 0 0 0l3 2-4-3c1 1 0-1 0 0l-3-3 1 1a16 16 0 00-3-3l1 1 1 1 1 1a17 17 0 01-2-1l2 2c1 0 0-2 2 1h-1l3 2c0 1-2-1 0 1l2 2-2-1v1l2 1h-1l1 1a19 19 0 00-2-3h-1l2 2 3 3 1 2v1l-2-3 2 1a17 17 0 00-2-1 7 7 0 01-1-1l4 2-3-1h3-1a12 12 0 01-3-1h-2v1l7 3h-1l1 1 2 1-1-1 1 1v-1l-3-3-2-2 2 1v1a29 29 0 003 3 5 5 0 001 1 11 11 0 00-1-2c-1-1 3 2 1-1l2 2-1-1 1 1-2-3 2 1-1-1zm-1-2v-1l-1-1a14 14 0 01-3-3l2 2-1-1-1-1-1-1a20 20 0 003 3v-1a15 15 0 00-3-2l1-1a5 5 0 000 1l2 2v-1l-1-1-2-1c2 1 0 0 0 0l-1-2h-1c0-1 0 0 0 0l1 1c1 2-2-1-2-1l2 3-1-1 3 3s-1-1 0 0v1l2 1 2 2zm16 9z"
                        class="cls-9" transform="translate(30 6)" />
                    <path d="M156 119a7 7 0 00-1-2l1 2zM157 120l-1-1zM164 129l-1-1 2 4-1-3c-1-2-2-2 0 0z" class="cls-9"
                        transform="translate(30 6)" />
                    <path d="M196 139v-1 1z" class="cls-9" />
                    <path d="M139 110v0zM188 128v-2a6 6 0 000 2zM141 123c0-2-2-3-3-4l1 2v1zM132 118l4 3-2-2z"
                        class="cls-9" transform="translate(30 6)" />
                    <path d="M195 138zM162 129v-1l-1 1h1z" class="cls-9" />
                    <path d="M132 123z" class="cls-9" transform="translate(30 6)" />
                    <path d="M195 138v1-1z" class="cls-9" />
                    <path d="M162 131h-1 1z" class="cls-9" transform="translate(30 6)" />
                    <path d="M201 151h-1v-1 1h1z" class="cls-9" />
                    <path
                        d="M165 133zM153 128zM153 128zM153 127c-1-1 0-1 0 0a5 5 0 001 1l-1-1zM178 147a6 6 0 01-2-2l2 2zM178 147v0z"
                        class="cls-9" transform="translate(30 6)" />
                    <path d="M171 122l-2-2h1l1 2z" class="cls-9" />
                    <path d="M179 147h-1 1zM158 128h-1 1zM175 142a12 12 0 01-2-1l2 1z" class="cls-9"
                        transform="translate(30 6)" />
                    <path d="M188 133h-1l1 1v-1z" class="cls-9" />
                    <path
                        d="M142 113l4 4-1-1a23 23 0 01-3-3zM145 115s0 1 0 0zM154 121l1 1-1-1zM144 114l2 2-3-3 1 1zM181 144v1h1l-1-1zM182 145zM155 123z"
                        class="cls-9" transform="translate(30 6)" />
                    <path d="M208 147zM212 149l-1-1 1 1z" class="cls-9" />
                    <path
                        d="M144 109l2 2c-2-2 0 0 0 0zM184 136h-1a9 9 0 00-1-2l2 3a21 21 0 01-4-4l1 1a13 13 0 012 1v2a11 11 0 013 2l1 1 1 1c-3-3 0-1-1-2v-1a11 11 0 011 2l-1-2a6 6 0 011 0 5 5 0 00-1 0l2-3h-2l-2-2c0-1 0-1 0 0l-2-3c-2-1 2 3 2 3l-2-2h-1l1 1-2-1 1 1v2l-1-2v1a15 15 0 01-1-2l2 3a10 10 0 002 2zM181 134zM189 135z"
                        class="cls-9" transform="translate(30 6)" />
                    <path d="M184 138a12 12 0 012 2v-1l-2-1zM187 140l-1-1a8 8 0 001 1z" class="cls-9"
                        transform="translate(30 6)" />
                    <path d="M185 117l-1-1 1 1z" class="cls-9" />
                    <path d="M158 113c-1-1 0 0 0 0s1 0 0 0z" class="cls-9" transform="translate(30 6)" />
                    <path d="M178 110v-1 1z" class="cls-9" />
                    <path
                        d="M184 129zM184 131l4 4-1-1h1l-2-2 3 2v-2l-4-3 1 1a11 11 0 00-1-1l1 2h1c2 2 1 2 0 1s-3-2-1-2a18 18 0 01-2-1v2zM187 126v1zM186 126l2 2-1-1s1 1 0 0zM189 130a20 20 0 00-3-3c-1-1 2 1 0 0-1-1 0-1 0 0z"
                        class="cls-9" transform="translate(30 6)" />
                    <path d="M217 136l-1-1 1 1z" class="cls-9" />
                    <path d="M187 129l-2-1zM188 130zM187 129l1 1zM187 129l2 2-2-2z" class="cls-9"
                        transform="translate(30 6)" />
                    <path d="M181 110h-1 1z" class="cls-9" />
                    <path
                        d="M153 105h-1a7 7 0 001 0zM145 97l2 2 2 2a19 19 0 00-2-1 18 18 0 002 2l3 3c0-1 2 0 0-2l-8-7 1 1zM142 95c1 1 0 0 0 0zM164 113l-1-2v1a10 10 0 011 1zM163 112zM165 113h-1a2 2 0 001 0zM189 130c1 0 0 0 0 0s0-1 0 0zM188 124h1a4 4 0 00-1 0zM168 104h-1zM167 104v-1h-1l1 1zM210 189l-3 4a24 24 0 01-1 5l1 3a7 7 0 01-2 4c-1 1-1 0-1-2a96 96 0 01-4 11l4-6c1 2-1 4-2 6s-4 5-3 6a106 106 0 006-10l1 1c0-3 3-8 4-10v3l3-7a3 3 0 00-1-3c-1-1-2-1-1-7a11 11 0 01-1 2z"
                        class="cls-9" transform="translate(30 6)" />
                    <path
                        d="M185 176l-1 6-6 6s-3 5 1 3a14 14 0 012-3l-3 5c-2 2-2 4 0 4l6-10c4-4 7-7 10-8l1-4 11-23 5 33a4 4 0 010 1l1-1 7-35-24 25v1l-3-3-4 5 3-7 20-44 6 60v3a7 7 0 003-3l25-51-56 33c-4 2-8 7-10 9 5-2-2 3 6-2zM211 186v1zM164 162c-2 1-2 2-2 3l17-13-3 1c-1 1-2 0 0-1-2 0-6 4-6 5v-2c-3 5-8 4-6 1l-7 14c5-3 2-4 7-8zM118 112l-1 3a15 15 0 001-3zM156 173l-2 4a16 16 0 002-4zM161 129l-1 2 1-2zM115 150l1-2a12 12 0 00-1 2z"
                        class="cls-9" transform="translate(30 6)" />
                    <path
                        d="M186 184l4-9c0 2 2-2 2 1l1-4-1 2c1-6-2-4 2-12-5 3-5 6-6 9l-1 2-2 9zM161 128zM162 129l-1-1c0 1-1 2 1 1zM156 171a4 4 0 010 2l1-3-1 1zM158 161l6-5 2-3-8 8zM104 158l5-5v2c-1 3-2 6 1 3l5-9c-4 6-5 5-6 4 0-1 0-2-1-1l-5 4c-1-4 5-10 9-13 6-2-2 5-1 8 4-5 3-5 3-7 7-6 11-16 17-17 4-5 3-5 5-9-2-2-8 6-11 6h1l-4 3c4-3 1 3 0 5l-5 3 2-2c-4 2-5 7-9 10v-3l-9 15 1-5a18 18 0 01-2 5 50 50 0 01-5 6l-5 6-3 3-3 2h2c-2 5-6 7-6 4a12 12 0 01-2 4L-30 347l152-125c5-4 15-9 17-14l15-31a16 16 0 01-2 3c-4 0-5 1-3-4-3 4 0 5-5 9 1-3 0-5-6-1-9 10-14 20-21 30L39 324l47-139a83 83 0 013-10c1 1 2 0 3-1l3-4 5-5 4-5a12 12 0 01-2 6 62 62 0 01-4 6l9-10z"
                        class="cls-9" transform="translate(30 6)" />
                    <path
                        d="M122 204a8 8 0 00-2 1 3 3 0 002-1zM97 173l1-1zM150 170l1-3-1 2v1zM155 170v1h1a1 1 0 00-1-1zM169 134l-1 1 1-1zM120 146c-4 5 2 3-4 9l2-2c-3 6-11 13-16 19 0-1-4 3-5 1l-2 3-1 4a13 13 0 00-2 5 12 12 0 00-2 3l-58 95 82-73 6-5c-2 0 2-6-4 0v-1a14 14 0 00-5 3l-59 62 41-79 4-8c2-2-2 5 0 3a42 42 0 013-5l5-5a26 26 0 003-5v-3c3-4 4-4 5-4 1-5 6-9 11-14s8-7 6-9l-7 9zM143 176l-1 1 1-1z"
                        class="cls-9" transform="translate(30 6)" />
                    <path
                        d="M160 129l-1-4 7-9 36 41-16 11v-2c-6 5-16 12-20 17-2 2-8 5-7 3a14 14 0 01-3 3c-1-1 2-3 2-4l-2 2c1-2-4-2 3-8 5 0-5 4-1 5 3-2 2-2 1-3l4-1c1-1 6-3 6-6 6-5 1 2 5-1l1-4 6-4c5-4 4-5 3-6s-2-3 3-7c-1 2 5 2 11-1l-27-30 27 30a67 67 0 00-6 5 24 24 0 01-6 4c3 0 1 1-1 3s-4 3-2 4c2-4 6-7 10-9l-1 1c3-1 4-4 7-6l-29-33a15 15 0 01-4 4c-2 3-2 1-3 0-1 3-2 6-3 5zm4-6l4-3a8 8 0 00-4 3zM209 190l-1 1a4 4 0 001-1zM147 168l1-2a19 19 0 00-1 2zM202 180l-1 3a11 11 0 001-3zM182 170l-1 1zM153 166a10 10 0 002-1l-2 1zM203 179a4 4 0 01-1 1zM121 181l-1 1a7 7 0 001-1zM131 184a9 9 0 00-1 2zM165 199l2-3a12 12 0 00-2 3zM123 190zM189 204l-1-1zM187 214l-1 2-17-13 17 13a14 14 0 001-2zM191 131l2-1c1-2 0-3-2 1zM180 178a9 9 0 010 3v-3zM180 181v2a12 12 0 000-2zM196 167a2 2 0 00-1 0h1z"
                        class="cls-9" transform="translate(30 6)" />
                    <path
                        d="M171 201l3-5c1-2 0-3-3 1-2-2 3-6 5-9-2 1 0-2-1-2a23 23 0 01-4 5c-2 0 0-3 3-5-4 2 2-6-3-2a88 88 0 00-9 14l30 23a42 42 0 004-11 100 100 0 01-6 10l-26-20a34 34 0 016-6v3a19 19 0 00-4 4l23 18 6-8-7 7-21-16 2-3c5-4 3 0 0 4l2-2zM174 200h-1zM130 173v-2 2zM187 200zM114 195h-1a1 1 0 001 0zM148 227a1 1 0 001 0h-1zM114 195zM177 146a6 6 0 002 0h-2zM180 172zM179 129a22 22 0 00-2 2 15 15 0 002-2zM113 195a6 6 0 011-2 5 5 0 00-1 2zM162 184v-1 1zM153 194a4 4 0 000-1c-3 4-9 11-7 13 1-2 7-8 7-6 1-3 6-6 6-7-4 3-2-1 0-4 3-3 1 1 3-1l5-6-5 5v-3 1c-6 10-4-1-9 9zM152 193a8 8 0 001-2 3 3 0 00-1 2zM157 205l1-2-1 2zM170 150l4-1 2-2-5 3zM202 156a21 21 0 001-2 3 3 0 000-1 6 6 0 00-1 3zM152 203a4 4 0 001-3 4 4 0 00-1 3zM198 154c-1 1-2 2-3 1l-1 6a22 22 0 014-7zM194 161z"
                        class="cls-9" transform="translate(30 6)" />
                    <path
                        d="M167 152l-1 1v-1l-4 3a19 19 0 01-1 1 1 1 0 000-1l-1 1-10 13a46 46 0 01-7 7l3-4c-5 2-9 2-14 9l4-3-6 10c-5 1 3-5 3-7-6 7-15 8-16 13-1-1-4-3-9 0 5 0-2 4 2 3 0 2-2 3-4 4l-24 17 18-24v-1l1 1c4-4 5-6 6-9l2-8 5-6 4-5 9-9c1 0 6 1 9-2 0-3 5-9 4-12-5 5-2 6-5 9-4 1-2-1-6 1l7-8c3-4 7-6 9-7l-1 2c6-4 11-1 17-11l2-4 7 8-1 1a2 2 0 000-1c-7 5-7 1-14 8l1-1c-5 2-8 7-11 10-4 0-1-2-1-4-8 5-14 14-18 20l-5 2c2-2 5-7 3-7-3 2-2 3-6 5l2-6c-9 5 1 5-7 6-2 2-3 5-2 6l-6 2v1l-1-2c-1-2 4-7 7-11l-5 4c-1-2 2-6 4-8 4 2 14-16 15-10l28-33c3-2 7-6 6-2 8-8 9-16 18-23l-3 4a25 25 0 016-5l4 7c-4 2-9 2-16 6l2-2-6 4 1-1c-10 4-18 8-26 14l-24 16-43 26 36-37 2-2a18 18 0 00-2 2l-27 39 34-28c3-3 4-5 3-6l-4 3-20 11 16-16 1-1c0-2 4-5 6-9 0 0 2-1 1 1 11-7 10-17 22-26l-9 16 4-2-4 8c5-3 5-8 7-7l-1 3c3-2 3-4 5-6-4 9-17 21-23 29v-2a24 24 0 01-3 2l-7-9a24 24 0 006-4c2-3-2 0-4 2-1-2 0-2 2-4 2 1 14-7 18-6 6-4 5-5 4-6s-2-1 5-4h4a106 106 0 0112-8 73 73 0 0113-6l-2 1 3 1a30 30 0 005-2l5-2 35-16-26 30-5 5-18 25c-4 0 7-10 8-14l-6 6c4-4 4-6 5-9-5 4-5 8-9 13l-4 2 1 2-1 1-8 9c3-1 4 0 6-2-2 0 0-2 2-5-1 3 3-1 4 0a154 154 0 00-12 13h-2l-12 12 1-2c-6 5-10 11-16 15l-7 15-21-23a28 28 0 002-3c1-2 5-4 10-7s9-6 11-9l-4 6c4-2 5-7 8-6-9 6 2 1-2 5l10-9c-7 5 0-5-6 1a59 59 0 0118-15h4l2-3c3-2-5 6 1 2 2-3 6-5 9-7l19 24c-4 4-9 8-8 12-6 2 6-9-2-5 2-4 7-7 8-9l53-106-68 86a2 2 0 00-1 2 12 12 0 011-1l15 18c-2 2-2-1-4 1l-3 5 1-1c-6 8-17 17-24 26l-6 12a57 57 0 01-8 12c0-2-2 0-3 1l-2 1v-3a17 17 0 00-4 6l-1 3 4-4c-1 3-4 8-6 9v-1a9 9 0 00-2 2l-23-22 2-4c2 1 7-5 11-7l2-5c-1 3 5-3 7-2 2-4 3-7 8-11-1 3 5-2 6-1 10-5 11-14 21-18 0 0-1 2 2 1l7-6 1-2c2-4 3-6 10-12-2-2-8 3-10 6l-1 3c-4-1-6 5-8 5 1-3 4-6 8-10l7-5 6-5L293-6l-85 157-1 1a6 6 0 001-1l115-68-151 28a39 39 0 00-11 5 113 113 0 00-12 8l4-2-4 3 5-1-11 8c4-3 7-2 5 0-6 2-5 4-8 7 2-1 4-3 3-1-8 3-9 6-17 9 3 2-7 6-7 9l3-2-4 7c-7 2 3-6-7-1-8 6-5 8-11 13 1-3 4-8 9-12l-3 2 11-10c-4 6 3-2 7-3-1-1-4 2-1-3a77 77 0 01-10 8c6-5 7-8 9-11s2-6 8-9c-4 4 3 1 4 1l8-7-3-1c5-6 11-3 16-10l-3 1-2 2a32 32 0 015-5 28 28 0 016-2l11-4 185-62-149 104-2 1c0 1 2 2 1 6-1-2-3 0-2-4l-5 8c5-4 0 4 0 6-3 2-1-2 0-4-2 2-6 3-5 6-1-1 2-9 5-14l-3 3c1-3 2-3 4-5-3 1-4 0-5-1h1l2-4c0-3-4 2-6 3l-2 4-4 16c-3 5-6 7-10 10l1 2c-4 4-8 8-7 3l1-1a2 2 0 010-1l-5 8c4-9-2-2-4-6l-5 9c4-4 1 1 0 3-2-1-5 6-7 9-3 2-6 7-8 10l1 10c4-6 3-2 4-2l-1 2h2c3-7 8-13 7-17-2 1-1 4-3 5 0-4 3-7 7-12l3-1 3-5c-1 2 1 2-3 8 2 0 4-6 7-9l-1-3c1 2 6-5 4 1l-5 9 3-1-5 6 1-2c-4 6-5 6-6 6s-3 1-6 7a16 16 0 01-2 7 54 54 0 01-5 8c3-5-1-2-1-4-4 4-4 6-4 9l-48-34 1-1c1 0 3 0 1 3l44 31 1-1h-2l-42-30c1-1 3-5 5-4 6-7 6-12 8-16s3-9 12-16l1 1c8-12 15-16 24-26l10-5c-1 2-4 8-1 7-6 1-9 5-14 8l3-1c-2 3-5 3-7 7 0 0 4-3 2 0l-6 3-2 6c0 2 0 3-4 6 0-3 1-7 3-10-3 3 3-5 0-3-3 7-6 7-11 15a7 7 0 012-3l-9 8c3-2-5 8-3 9a106 106 0 008-8 83 83 0 018-9l-4 12a2 2 0 00-1 0c0 3 2 2 5 5 2-7 7-9 11-15 0-3-5 1-7 4l3-6v2l13-12c-3 3-2 4-3 6a29 29 0 016-4c-2-1-3-2-1-4 8-7 13-10 18-11l1-1c-3 0 3-8 4-12 1 2 4-2 7-3l23 22a7 7 0 01-1 0c1 2 3 3 5 3l85-4-115-25a10 10 0 00-4 0c-4 7-2 5-2 9l-8 10 1-3c-5 3-7 9-9 7 1-3 6-6 7-10l-4 2c4-6 5 0 10-7-4 0 0-1 2-5-3 1-11 11-11 7l7-6c3-2 7-4 8-7l36 34v1-1c-5 6-6 10-6 13-4 2-5 7-7 10l-1-1-3 5c0-4 4-5 6-9l-1-1c5-2 4-7 5-12-2 6-11 13-8 17l-4 1-1 2c-3 1-3-2 0-7h2c1-2 1-5 5-9l-1 3c4-6 8-12 8-15a290 290 0 00-20 24c2 5 2 10 4 13-4 6-8 14-13 17a21 21 0 00-5 6c-2 2 0-3-2-2l-5 9c-1-2 4-8 6-11v1c3-3 5-11 9-11 1-2-1 4 3-1 4-4 3-7 3-7-1-1-6 5-6 2l-5 9c2-4 3-9 6-10 3-7-2-9-4-6 1 0-7 12 1 5l-9 17v-1l-4 7v-4l-3 9c1-3 0-2-2 0l-35-25a33 33 0 014-4c-1-2 1-6-2-3-4 3-1 2-3 6l1-6v-1l1-4c4-6 2 6 6-3l-3-1c7-9 19-18 23-26 0 3 1 6 4 4l-9 12c-1 1 1-7 5-11-3 0-5 3-6 6s-3 6-5 4c-5 5-5 8-6 11s-1 4-6 8c2 1-1 3 0 5 5-1 10-13 15-18a6 6 0 00-1 3 30 30 0 007-10h-1c3-6 4-2 7-4 1-2 5-6 3-6l6-4-2-1c3-3 4-3 6-7l-2-1-7 7c3-4-1-2 3-7-3 6 3-3 5-2l2-4v2c3-2 2-4 4-6-4 2-7 3-9 9a87 87 0 017-13c2-4 5-5 8-8-4 7 7 2-5 13l2-2c-4 0-6 8-7 11 1 0-1 3 4-1-2 1 0-6 5-9l2 3 5-6c4-1 6-6 10-10 2-4 13-14 6-12a10 10 0 003-2l81-85-55 103-3 10 4-5c-1 8-2 6-1 13-1 0-3 1-3-1-5 10-13 23-13 30-4 6-8 6-12 16 0 2 4 0 0 5 0 1 1-7-2 0-1 5-4 8-7 13l-33-22a18 18 0 003-6c3-2 7-7 8-5-4 4-9 10-9 12l29 20a1 1 0 000-1c1 1 3-3 2 1 5-7 1-6 6-12 0-1-4 2-4 4-3-1 6-15 0-10-4 7-1 12-5 17l-27-18a15 15 0 011-1 6 6 0 01-1 2l26 16c0-3 3-6 2-10l-4 5v4l-22-14v-1 1c9-7 5-10 10-18-5 3-3-4-7-2 4-5 7-9 10-7-6 11 1 2-4 13 2-1 2 5 6 0 4-8-3 0 1-7h1c1-3 3-2 5-7l-1 1c5-3 3-5 7-8-2 1-1-1 0-3l63-123-37 139a14 14 0 000 3 18 18 0 012-2l86-89-115 71c-3 1-6 3-11 8 1 2 2 2 0 6l4-5-1 3-5 4c4-6 1-5 1-8l6-8c1 1 2 0 5-1l118-86-87 105-11 14 2-3c1-3 0-3-1-1l-3 3-1 4s0-2-1 0a13 13 0 00-2 5 12 12 0 01-1 6c-2-1-1-6-3-3-2 0-6 2-10 9l-2 4a4 4 0 001-1l-3 2-15-11 1-1a7 7 0 010 2l13 10c1-4 6-5 6-10l-1-1 3-9-5 9c-2 0-1-3 0-4v1a14 14 0 005-7 33 33 0 013-8h1l4-9c2-3 3-5 3-9v1-1 2a12 12 0 011-1l-1-1-9 18 1 1-2 3-6 10a11 11 0 004-2c0-2 5-7 3-8l8-9c-5 3 0-4 0-5 2-1 4-6 5-4l-3 3c-2 5 7-6 4 0l1-2-13-8-9 22 3-4-4 7c-1 3-3 4-4 4l5-8c-1-1-2 1-3 3l-3 3-3 10a140 140 0 00-4 5l7 5 5-5c0 2-2 4-4 6l-9-7a34 34 0 006-7c2-5-4 0-2-4a9 9 0 00-3 5l-2 1 4-9 4-9a3 3 0 000 1 33 33 0 007-12l-2 4 1-6c-2 4-1 0-3 2l4-7c1-1 0 2 1 2l4-4 21 13a10 10 0 00-3 5c5-6 1 3 0 5l1-1c0 3-1 5-3 5 1-3 3-5 1-5a33 33 0 00-3 5v-2l-5 8v7c-2 1-3 5-5 7l1-2c-3 2-6 7-8 10l-34-22a5 5 0 001-2v3l-8 184 40-163c1-5 4-13-3-3l-80 104 56-120 1-2c3-8-1-7 0-11 2-3 1-4 2-7-2 1-3 4-3 5-1-1 3-6 4-9 0 4 4-6 3-3a31 31 0 007-18c5-3 4-8 8-14l-2 5c0 5 5-7 3 0 1-2-1-1-1 1v5l4-5v2l6-8-1 1 10-20 22 15-8 8c2 3-2 8-6 13s-9 11-11 15c0-3-1-5-3-5 1-2 2-6 5-9 1 1 5-3 4 1 7-9-3-1-3-5-7 10-9 17-13 24h-1l-3 5c4-3 6-1 1 3v-1c-3 2-6 9-10 13l-1 4c-3 4-6 2-9 3-5 6-6 12-8 18l-5 4-27-20c2-3 5-5 3-1 4-7-4-11 8-19l-1 3c8-10 17-27 22-31 0 4 4 1 8-2s9-7 11-6l2-5a5 5 0 002-2l16 15a4 4 0 00-1 1 2 2 0 012 0l-18-17a1 1 0 01-1-1l20 19 1 1-22-21-3 4a30 30 0 011-5l25 24c-1 4-5 8-10 13l-1-1 6-5c-2-1 2-4 3-5-7 4-7 3-7 2s-1-2-7 3l-2 5c1-2 0-3-2-1l-1 3c-6 1 5-8 0-6 3-6 11-13 7-14a14 14 0 00-5 8c-1 2-2 5-6 8h-2c-2 3-1 5-2 7l-3 1-7 16c4-6 7-8 10-10l10-10-4 7c-1 3-4 5-3 6l-1-2-10 13 1-3c-4 7-12 8-13 15a20 20 0 003-4l-9 11-4 9c0-1-4 4-4 1a15 15 0 00-5 7l-31-23a40 40 0 011-6c6-5 0 3-1 7l30 21a2 2 0 000-2l-1 1-28-20c7-8 12-17 14-23l-3 2 4-5v-2c3-3 3-2 2 1 3-3 3-8 7-10l-10 15a30 30 0 015-6 42 42 0 015-4c3-2 6-5 10-12 1 0 0 3 2 0 4-6-1-3-1-6-2 5-5 7-8 9v-2l4-3-1-3c1 2 6-1 8-5-4 2-3 1-6 1 2-7 6-5 9-12 0 1-3 6 0 2 3-3 1-4 3-6-1 3 1 4 1 8l-6 9 5-4c-4 6-1 6-1 6 9-7 3-8 8-14 1-3-4 6-2 0 4-5 0-2 4-8v1c2-1 2-4 4-6 1-3-8-2 0-11v1l6 20 16-18 8 8-14 8c-2-1-1-3 1-5l4-4 6-3c0 1-2 3-5 4s-3 3 0 3l7-5-5-5-11 16c5 0 8-9 14-14a12 12 0 01-2 1l2-1 2-2-2 2a32 32 0 00-3 6l4-5 7-7-9 5-13 7-1 2 8-5a24 24 0 00-7 6c-2 2-2 4-2 5h1l-1 2zm-57-27l2 7 1-3a2 2 0 001 0h-1l-7 13 4-17zm17 96l16-21c-7 5-12 9-14 9s-1-3 7-14v-1a66 66 0 00-9 12l-2 12-1 8c2 0 2-3 4-5zm-11 1a22 22 0 00-1 2l6 4v-3l-1 2-4-3 2-2h-2zm4 2a4 4 0 01-1 1zm56-76l3-3a12 12 0 00-3 3zm-8 6l1 2 2-2a3 3 0 00-3 0zm-26 23c1 3-3 9-2 10s2 0 3-1a286 286 0 014-6c-2 1-3 2-4 0 6-2 1-5 5-9 0-3-5 4-6 6zm31 26a14 14 0 00-2 1l1-4c3-6 9-10 10-17 2-3 4-3 6-4a35 35 0 01-2 3c-5 19-9 7-13 21zm42-72a2 2 0 000 1l1-4 3-15-7 12c-7 13-14 23-19 28 2 0 9-5 12-7l-1 4h-3l-2 6c2 0 5-4 8-5 0-1 5-10 5-13l-6 5c2-1 9-9 11-13-1 0-7 4-6 6-1 0 4-6 0-4a27 27 0 013-5 83 83 0 01-8 12l-3-1c-3 4 2 5-2 9 2-7-4 0-1-5-2 1-3-2-5 4 1 6-5 4-4 10-3 2-1-4-4 1-1 7 0 7 2 9 4-6 0-8 3-13l-1 12a10 10 0 003-4 14 14 0 00-1 5v3c3-5 5-10 7-10v1c2-1 3-5 3-6 2-5 3-11 5-11v2l7-14zm-39 24c4 0 8 0 14-4l-1-1a62 62 0 00-10 11l1-2c-8 6-9 17-18 24l3-12-3 5c-1-2-3 3-6 7v-5l6-7c-1 1 8-5 11-10-2-1-9 9-8 3l-6 8c2-5-1-3 0-6l-5 7c-1-1 6-11 0-7-1 3-7 10-6 11-4 4 0 4-5 9 1 1 2 0 4-2l2-8c3 0-3 5 1 4 2-1 6-11 7-6l-4 5v5c-2 4-6 5-6 9 0 2 4 2-1 6-4 2-9 8-13 13l13 9 3-5 2-5c-1 0-5 7-5 4l4-6v1l4-7c0 3-4 7-2 7 3-2 4-2 5-5v2c5-5 2-7 3-9 2-7-7 4-8 2l12-17v4c4-4 1 1 5-5-2-2 5-8 6-13 3-1 3-1 0 3 2 1 6-5 8-7l2-5c-2 1-2 0 0-4v-1c-5 5-14 13-16 18v-2c-6 5-8 16-14 17h-2l-3 6v-2l-6 9v-1l-3 13v2a12 12 0 01-1 2l-1-1a9 9 0 011-1l6-5-5 8-3-2 1-1a2 2 0 00-3-1l7 5a9 9 0 004-2c-1 1-1 3 1 1 0-1 3-6 0-5 5-8 17-17 23-30-4 9 7-5 1 4 6-5 2-7 7-13 1 0-3 3-2 6 8-9 10-18 16-27l-6-6-3 3-2-1-6 6zm-16 19l-5 6-4 6c4-3 8-3 4 2 0-1-2 0-1-2a37 37 0 00-7 5c-1 1-2 3 0 3 3-8 4 1 7-5-1 4-4 6-6 9 1-4-3-2-7 1l-8 10c3 0 1 3 6-1a22 22 0 01-7 7l2-4-6 4-2 3a3 3 0 011 0l-2 4c3-5 3-1 3-1-1-1-2 3-3 4l4-1c0 2-6 4-3 5l12-16-3 1c5-7 6-2 13-9 0-3 3-5 5-8s4-5 3-6c-1 2 6-2 7-6 1-5 9-13 6-12-3 3-5 7-8 7l4-5-4 2c2-1 1-2-1-3zm16 7z"
                        class="cls-9" transform="translate(30 6)" />
                    <path d="M186 207c0 2-3 5-1 5-2-1 4-6 1-5zM182 210l-1 2 3-4-2 2z" class="cls-9"
                        transform="translate(30 6)" />
                    <path d="M186 212a14 14 0 014-8c2 1 1 3 0 4s-3 4-2 6a21 21 0 004-7 20 20 0 014-8l-7 6c-2 2-4 6-3 7z"
                        class="cls-9" transform="translate(30 6)" />
                    <path
                        d="M167 201l21 17 2-4h-1l-1 3-21-15 1-1zM193 216c2 0 2-3 2-5a9 9 0 00-2 5zM186 123l13-14 70-76-94 37 90-34-66 72-13 15zM187 135l13-19c-11 7-8 14-17 20zM182 126c3 0-3 7-1 7 4-5 0-4 4-8z"
                        class="cls-9" transform="translate(30 6)" />
                    <path d="M220 143v-3 3zM185 165l1-1-4 3 3-2z" class="cls-9" />
                    <path d="M156 157v1z" class="cls-9" transform="translate(30 6)" />
                    <path d="M217 138l-2 3v2l2-5z" class="cls-9" />
                    <path d="M207 146l2-3c-1 1-5 4-2 3z" class="cls-9" transform="translate(30 6)" />
                    <path d="M167 187l-2 4 2-5v1z" class="cls-9" />
                    <path
                        d="M193 172c3 0-4 6 1 3 2-3 0-3-1-3zM150 206a6 6 0 00-1 2l1-2zM150 206l3-4-3 4zM142 209l-1 2c0-2 0-2-1 0v2l2-4zM165 133l6-4 41 39a1 1 0 01-2 0c-4 4-2 5-3 8l6-7-43-41-5 5zM207 176l-2 2a12 12 0 002-2z"
                        class="cls-9" transform="translate(30 6)" />
                    <path d="M195 218v5-5z" class="cls-9" />
                    <path d="M157 140l3-3-3 3zM186 158c-2 0-4 3-5 5 2-2 5-2 5-5zM147 158c1-1 3-2 3 0 1-2 1-6-3 0z"
                        class="cls-9" transform="translate(30 6)" />
                    <path d="M216 157h1l1-2 3 2-1 2 1-2-3-2-2 2z" class="cls-9" />
                    <path
                        d="M166 148c-1 5 9-4 4 4 9-8-2-1 3-7-3 3-6 4-7 3zM173 145a20 20 0 002-2l-2 2zM147 200a9 9 0 001-2 9 9 0 00-1 2zM187 177l3-6c-2 4-11 13-9 14 4-3 7-6 7-8zM144 239l-1 3-49-35v-1l50 36 2-3c-1 1-2-2-2 0zM146 238v1a2 2 0 000-1zM156 188a23 23 0 004-5l-4 5z"
                        class="cls-9" transform="translate(30 6)" />
                    <path d="M183 224l-3 5 3-5zM201 208l1-1 1-4v1l-2 4z" class="cls-9" />
                    <path d="M110 198c-2 3-2 7-1 6l4-6c-3 1-1 2-4 5z" class="cls-9" transform="translate(30 6)" />
                    <path
                        d="M134 200l-2 4c-1 2-3 2-4 2 1-1 2-4 0-3v6c-3 3-3 1-2-2l3-8c-4 4-5 7-7 11l-32-31a41 41 0 014-3 13 13 0 01-5 1l35 34a1 1 0 011 1l-37-35 10-9c-3 2-2 0-1-3a2 2 0 001-1v-1 1l-1-1c-4 4-8 5-10 6 2 1 1 2-2 4l43 41 4-4a14 14 0 002-4l2-3 1-1v3a9 9 0 011-2l2-3 1-3 10-11a4 4 0 011-1l35-35-36-46-19 13 10-5c-4 5 5-3 5 0a17 17 0 01-7 5c0 1 3 0 4 2 6-3 7-7 10-10l29 37a15 15 0 01-4 5c-1-1 0-4-4 0l1-1c-3 4-5 4-6 5s-2 1-3 4l-1-1c-2 4-8 9-11 13v-1l-4 6a26 26 0 01-2 2 65 65 0 00-7 8l2-6c-4 3-2 5-5 8 0-1-2-1 0-4l-7 15c-2 4 1 1 2 1z"
                        class="cls-9" transform="translate(30 6)" />
                    <path
                        d="M94 176a16 16 0 002-2l-2 2zM128 120l4-3a28 28 0 00-4 3zM111 157c-4 1 0-3 0-4l-8 7 1 2zM99 161a6 6 0 01-1 3l5-4c-1-1-1-1-4 1z"
                        class="cls-9" transform="translate(30 6)" />
                    <path d="M157 199l-1 2-2 2 3-4z" class="cls-9" />
                    <path d="M103 184a9 9 0 00-3 3 32 32 0 00-2 4l5-7zM88 182l3-5h-1l-2 5zM101 149l-1 2a15 15 0 001-2z"
                        class="cls-9" transform="translate(30 6)" />
                    <path
                        d="M135 122c-11 5 6-6 1-6l-5 4v-1l-6 5 3 1c-9 6-3 1-11 4l-9 7v-1a3 3 0 00-1 1l-19 16 37 40 10-11c4-6-5 1-3-5l-11 12-30-32 3-4 1 1 3-5-4 2c1-3 5-6 9-9l9-6a18 18 0 00-4 6l-8 6c1 0 3 0 1 2 12-9 23-16 34-27zM182 123v0zM179 127l-3 7 7-8-1-2-3 5zM171 141c4-5 2-6-1-5 3-4 4 0 4-4-1-2-5 4-5 5z"
                        class="cls-9" transform="translate(30 6)" />
                    <path d="M172 175v-2l-3 3 3-1z" class="cls-9" />
                    <path
                        d="M142 168l3-3a4 4 0 00-2 0zM153 158l4-4zM149 161l4-3-4 3zM145 165c2 1 4 1 7-3l-3-1zM115 153l2-4v1l-3 4zM134 136a20 20 0 002-3 7 7 0 00-2 3zM140 114c5-3-3 7 4 0 2 1 0 5-4 8-1-1 3-4 0-3-1 4-3 3-1 4-3 5-2 6-3 10 3-5 13-12 17-18l24 30a17 17 0 00-1 1c-2 5 2 7 4 10l4-2-38-48c-3 3-6 6-6 8zM132 117a13 13 0 00-3 3c1 1 1-2 3-3zM137 154l-2 4 5-5a3 3 0 01-3 1zM142 152l-2 1a11 11 0 002-1zM137 154z"
                        class="cls-9" transform="translate(30 6)" />
                    <path
                        d="M164 147c1 1 3-1 3-3a15 15 0 00-3 3zM119 98l-3 1a6 6 0 003-1zM121 108a1 1 0 010-1 1 1 0 000 1zM121 107c1-2 6-5 6-7h1l2-3-9 10zM226 194l-2 1h3c2 0 0 1-1 1h2v-1c2 0-1 2 2 1v-2h1c0-2-4 1-5 0zM231 191l-3 1 1-1-3 1h-3l2 1a2 2 0 01-1 1h2l3-1-1-1h4c3-1 1-2 2-2l-3 1zM226 194zM180 149h-1l1 2 2-2h-1 1c-2 0 1-2 2-2l-6 2h2zM162 112a1 1 0 001 0 6 6 0 00-1 0zM176 150l-2 1a17 17 0 002-1zM205 135h-1z"
                        class="cls-9" transform="translate(30 6)" />
                    <path
                        d="M165 147a1 1 0 00-1 0h1zM218 133h-3l2-1a2 2 0 00-1 1l-6 2h2l4-1zM182 115zM183 115h-1 1zM178 149l-2 1 2-1zM183 146l1 1 1-1a18 18 0 00-2 0z"
                        class="cls-9" transform="translate(30 6)" />
                    <path
                        d="M164 149c-1-1 3-2 3-3l-2 1c1 0-5 2-3 3h-3l4-2-2 1c0-1-4 0-1-2l-3 1c-3 1-1 1-3 3a5 5 0 011-1v1a4 4 0 012-2v1c-1 1 2 0 1 1a8 8 0 01-2 1l4-1-3 1c3-1 3 0 2 2a4 4 0 011-1l-2 2c2-1-1 3 2 1l14-5a3 3 0 01-1 0l4-3-3 2 3-3-13 4 1-3h3a7 7 0 00-1-1z"
                        class="cls-9" transform="translate(30 6)" />
                    <path
                        d="M171 148a2 2 0 001 0 1 1 0 00-1 0zM168 148zM181 146h1a2 2 0 00-1 0zM178 148v1a4 4 0 000-1zM176 134h-1 1zM166 145l3-1 1 2-2 2 3-1v1c1-1 4-2 2-2h-1l2-1c-1 0 0-3-3 0-1-1 0-1 1-2-4 2 0-3-5 0a2 2 0 002 0zM180 146zM170 160l-3 2-1-3a2 2 0 011 0c-1 0-1-2-3-1l2-2h-1l2-1h-1l4-2-3 2 2-1-2 2h2l-2 1 3-1v1l7-4-4 4h-2c-2 2-1-1-3 1 1-1 2 0 1 1h2l-1 1s1 0 0 0zm0 0v0zM228 186zM213 151zM225 150h0zM228 183a1 1 0 01-1 0zM224 164a4 4 0 00-1 0 1 1 0 001 0zM225 150zM220 144a3 3 0 00-1 0 1 1 0 001 0zM212 149a1 1 0 00-1 0zM213 139h-1a1 1 0 001 0zM213 147zM220 191h-1zM225 190zM221 171a5 5 0 01-1 1l1-1zM199 197h1a4 4 0 00-1 0zM200 197h0zM195 181zM225 191l3-1h4l-1-1h1l3-1h-6c1 0 2 0 1 1l-2 1c2-1 0-1 0-2v2h-3v1zM206 196h1zM176 162h-1a3 3 0 001 0zM177 164zM217 140zM177 164zM190 169zM191 166zM229 166v-1 1zM177 164a6 6 0 01-1 0 5 5 0 001 0zM201 167zM200 169h-1 3l2-2v-1a3 3 0 01-2 1l1-1v-1 1l-2 1c2 0-3 2-1 2zM199 169zM198 174a2 2 0 001 0h-1zM185 147s-1 1 0 0zM212 180zM205 167a3 3 0 00-1 0 3 3 0 001 0zM208 182a15 15 0 01-1 1h1v-1zM208 183z"
                        class="cls-9" transform="translate(30 6)" />
                    <path
                        d="M186 146h-1 1v-1a42 42 0 01-4 1h-2l2-1s3-2 0-2v1l-3 1 3-1c-2 0 2-3-1-2l4-3-4 2h-1 1c2-3-2 0-4 0l-1-2 4-3c-2 1-3 0-5 2l3-1-3 2s-2 0 0-2c1-1 5-4 2-3h-1c0-1 2-2 0-2h-2a9 9 0 013-2l-5 1 1-1a11 11 0 003-2h-1l4-2c1-1-4 3-1 0l-3 1 1-1h-2l-1 1-2 1c3-2-2-2 2-4-2 0-3-2-5-1 1-1 1-2 3-2-1-1-5 0-4-1h1v-3h1a5 5 0 01-2 0h1c0-2-1-2-2-2l-4-2 4-1h-3a4 4 0 012-1c1-2-5 1-5-1l5-1 2-1 2-1c1-1-2 1 0 0l1-1h-1c4-1 5 0 6 1h-1v1l1-1h1l-2 3c2 0 5-3 5-1l-2 1c2 0 4 0 3 1a6 6 0 00-1 1c-1 1 2 0 0 1a21 21 0 016 0c-3 2-3 0-5 1l1 1h-3 3l-1 1 2-1a1 1 0 00-1 0l2 1 2-2h-1l1-1a2 2 0 002 1l-2 1 1 1-1 1v2l6-2c2-1-2 3 2 2a24 24 0 01-3 1h1l-3 1 2 1c-1-1 3-2 2-2 2-1 3 0 2 1a4 4 0 00-1 1l1-1-2 2c3-1 0 2 4 0-1 1-2 0-3 2h-3l-1 1h1c3-1 2 1 3 2l6-1-3 2h2v-1c1 0 2 0 1 1h-1 2v2l2-1-1 1h3l-3 2c0 1 5-2 4 1l-2 1h1a19 19 0 015-2c2-1 1-1 0-1l-2 1c3-2 0 0 0-1h6c2-2 2-3 1-4l-1 1-2 1v-1l-2 2c1-2-1 0-1 0l-1 1 1-4c-2 2 0 0-3 1v1h-2l4-3-4 1 4-1 1-1 1 1-2 2 3-2v-1c0 1 6-3 5-1l-3 2a4 4 0 002 1l2-2c1 0-3 3-1 2l1-1c2 0-2 3-3 5a24 24 0 014-2l-4 2h2l3-2-2 1c0 1-2 2 0 1l-5 2h-1a14 14 0 01-3 2h0l-2 2 7-3-1 2 2-1c0 1 0 2-2 3v-1l-1 1a11 11 0 002 0l-6 3 1 1a2 2 0 012-1c-2 1 0 0 0 1l1 1 5-3 2-1 1-1a5 5 0 00-4 1h1c-2 1-2 0-2-1l1-1h-1l3-1c1 0-1 0 0 0l-2 1c1-1 0-2 2-2h2l1-1h1-1c2 1-3 3-1 3h3l-3 2 3-1c-2 1-2 2-3 1-2 2 1 1-1 2 1 2 9-4 7 0l-1 1c2 0 1 2 2 2l-2 2a10 10 0 00-4 2l2-3a7 7 0 00-1 1v-1l-1 1 1-1c-1-1-4 2-4 0l5-1 2-1h-3l1-1v-1l-3 1v2a16 16 0 00-5 2l-5 3c2-1 1 1 2 1l2-2h1-1l1 2h-2l-1 2 3-2-3 4 5-2-1 2a37 37 0 006-4l-5 2h-2l2-1c0-1-2 0 0-1h3v-1c3-1-2 1 0 1h2c1-1-2-1 2-3 1 0-3 3 0 2h3c-1 1 1 0 1 1h-1 1-1l-2 1c2-2-1 0-3 0 2 0 1 2 4 0l-1 1-4 2a4 4 0 011-1h-2-2a4 4 0 001 3l10-5c1 0 2 1 1 2h-1l1 1-3 1h2-3a1 1 0 001 0c1-1-3 0 0-1-1 0 2-1 1-2l-2 1-2 2h0l-7 3c2-1 3 0 4-2h4-1l1 1a9 9 0 00-2 1l3-1c-2 0-1 1-1 2l3-2h-1l2-1h2l-2 1 2-1c1 1-2 4 0 4a22 22 0 00-5 3l-1-2h3c4-2-3 0 1-2 1-2-4 1-2-1l-3 1c-3 2 1 1 0 2a3 3 0 00-1 1h1c2 0-1 1-2 2h2l-2 1 2-1c1 1-1 1 1 1l2-1v-1l2-1-2 2h1-1l1 1 1-2a8 8 0 013 0l-1 1c-1 0-5 3-5 1v1c3-2 0-1-1-1l-2 2c0-1 3-2 2 0l-3 1v1c-2 1 1 0 0 1 1 0 1 2 3 0-1 1 1 0 2 1l1-1a15 15 0 005-1 11 11 0 01-3 1 6 6 0 001 2h2c0 1-3 3-1 3h2s-3 0-2 1c2-1-1 1 1 1l-2 2c1-1 0-1-1-1l2-1c1-1-1 0-1-1l-1 1c-3 1-2-1-5 1 0 1 6-1 4 1h-4l-1 1 2-1v1c-2 2 3-1 5 0l5-3c1 1 0 1-2 2l-6 1-4 2h4a3 3 0 01-1 0h1l-1 1h4l3-3a10 10 0 01-4 1h1a10 10 0 00-1 0l5-1v1c-2 0-3 2-4 3l-3 1h2a2 2 0 00-1 1h3l-4 1c-1 0-4 2-2 2a2 2 0 011 0l-2 1c-2 0 1-1-1-1l-2 1h-2l1 1a7 7 0 01-3 0h1c2-1-2 0-2-1h1c-2 0 0-2-3-1l2-1-6 1h-4 2v1l3-1c-1 1 1 1-1 1-1 1 1 0 0 0l-3 1c1 1 1 2 3 2l1-1-1 1-1 1h3v-1 2c-3 0 0-1-2-1l-3 1v1l-5-1a7 7 0 001 0v-1c-1 1 0 0 0 0l-1 1-2 1-1-1a20 20 0 013-1c-1 0 2-1 0-1l-3 1h-1l2-1h-1 2l-1-1-5 2c1-1 0-1-1-1h0c0-1 7-2 6-3l-6 1a5 5 0 001 0h-2v1h-1l2-2h-3c3-2 0 0 1-2v1l2-2v1a3 3 0 002-1l1-1h1l2-2a6 6 0 00-1 1l-2-3c-5 3-3 0-6 1a37 37 0 005-3h2a9 9 0 01-2 2l4-2h-6 1-2l-2 1v-1h-2l5-3h-5c1 0 1-2 3-2-2 0-8 4-5 1h1c-1-1-4-1-3-2 5-3 4-4 8-7a8 8 0 01-2 1v-1l-2 2-6 2 1-1v1l2-1c1-2 5-2 4-3h-2l2-1-2 1 4-2c2 0 3 0 5-2l-4 1 1-1a24 24 0 00-3 2l1-1-6 2c2 0-1 2 1 2l-5 1 2-1h-2l2-1c-2 0 2-3-2-1h1l-1-1-4 1 3-1c1-2-2 0-3 0l4-2-3-1a3 3 0 01-1 1v-1l-1 1a4 4 0 012-2h-1 2c-2 0 3-3 1-3l2-1-4 2-1 2h-1l1-1-2 1 2-2a19 19 0 01-4 2c-2 1 2-2 0-1l1-1-2 1 5-3 2 1 1-2 3-1c1-2-3 1-3 0l-2 1-2 1 1-1h-1l-7 4 1-1 16-9a5 5 0 01-1-4c3-2 3 0 4-1v1c-1 0-1-1-3 1h4c2-2-2 0 0-2h1v-2a4 4 0 01-1 1l-4 1-1 1zm-20-34zm33 40v-3c-3 4-6 7-7 5h-1a1 1 0 001 1l8-3v-1zm-7 5l2-1h-1a4 4 0 01-1 1zm3-1v-1zm-4-9zm-2 2h2v-1a11 11 0 00-2 1zm-3 6l5-2a2 2 0 000-1 6 6 0 01-1 0l-2 2c3-2-2 1-2 0v1zm24 31l-1 1h-1c0-1 3-3 0-2a24 24 0 013-2 1 1 0 010 1c5-1-4 2-1 2zm1-8a2 2 0 001-1h-7a13 13 0 00-3 3h-2 2-2l-2 2 4-1 1-1 1 1c1-1 2-2 0-1l3-1c2-1 1 1 1 1l-3 2h2c-1-1-2 1-3 1l-2 1c3-1-2 2 1 1l-2 1a18 18 0 005-2h-2l4-1a5 5 0 002-1h1l1-2h0c0-1-2 0-1-1h1l-1-1zm-6-19c-4 3-7 5-6 6-2 2 4 0 2 2a26 26 0 00-6 2h2l-1 1-3 1v-1l2-2-3 2v1l-4 2h1l-3 2h2-1 2l2-1h-3l3-1c1-1-2 0 1-2v1l3-1h1l3-1c-3 2-2 3-1 3h1l1-1h1-1 2l-3 1-1 1a2 2 0 000 1l3-1 4-3 2 1a8 8 0 00-2 1l-2 1h4-1c-2 1-1 1-1 2l1-1a5 5 0 013-1c1-1 2-3 0-2h1c1-2-4 0-1-2l2-2-1 1v-1l-5 1a7 7 0 01-1 1h-1l2-2v1a11 11 0 004-3h1a5 5 0 00-2 0c-1 0 2-3-1-3 2 0 1-2 2-1 2-2-2 1-2 0l1-1c1-1-4 1-4-1l2-1zm-4-1h-2a5 5 0 01-4 2 11 11 0 012-1c1-1 2-2-1 0 3-1-3 2-1 1l-2 1a8 8 0 004-3l-2-1-2 2h-1a2 2 0 002-1l1-1v-1a4 4 0 01-1 1h-1l-2 1c2-1 0 0 0 0l-2 1c-1 1 1-1 0 0s0 1 1 2l1-1c2 0-2 2-2 2h4l-1 1 5-1c-1-1-2 0-1-1h1l1-1 3-2zm9-20zM220 192l2-1-2 1zM218 193l1-1z"
                        class="cls-9" transform="translate(30 6)" />
                    <path d="M207 197h2l-5 1h4c2-1 2-2-1-1z" class="cls-9" transform="translate(30 6)" />
                    <path d="M232 204h1-1z" class="cls-9" />
                    <path d="M233 177h-1 1zM193 106l-2-1a14 14 0 002 1zM220 170l5 1c2-3-4 0-2-2zM230 166l-5 2 3-1z"
                        class="cls-9" transform="translate(30 6)" />
                    <path d="M225 193h-2 2zM256 169l1-1-1 1z" class="cls-9" />
                    <path d="M227 163h-1z" class="cls-9" transform="translate(30 6)" />
                    <path d="M220 195h1-1z" class="cls-9" />
                    <path d="M201 181s1-1 0 0z" class="cls-9" transform="translate(30 6)" />
                    <path d="M255 166h-1 1z" class="cls-9" />
                    <path
                        d="M194 182h-2 2zM203 171h-1zM203 171v0zM201 170c-1 0 0 0 0 0h2-1-1zM225 147c0 1 0 2-2 2h3l-1-2zM226 149z"
                        class="cls-9" transform="translate(30 6)" />
                    <path d="M218 185l-2 1 2-1z" class="cls-9" />
                    <path d="M225 146v0zM202 163l-1 1 1-1zM219 148a5 5 0 01-2 1l2-1z" class="cls-9"
                        transform="translate(30 6)" />
                    <path d="M231 167v1h1l-1-1z" class="cls-9" />
                    <path d="M183 174l5-3c1-2-2 1-2 1a9 9 0 01-3 2z" class="cls-9" transform="translate(30 6)" />
                    <path
                        d="M186 172v-1a1 1 0 000 1zM193 161zM184 170h2c-1 0-2-1-4 1h2zM220 139h1v-1l-1 1zM221 138zM194 161h0z"
                        class="cls-9" transform="translate(30 6)" />
                    <path d="M246 145zM248 141v-1h-1v1h1z" class="cls-9" />
                    <path
                        d="M176 165l3-1-1-1v1zM206 123v1l-2 1 3-1-5 2h2a6 6 0 012-1h2a5 5 0 012-1l1-1a10 10 0 001 0v-2c-3 3-1 0-2 0h-1a5 5 0 012-1l-2 1-1-2-4-5-1 2-2 2v-1l-3 2c-1 2 4-1 4 0l-2 1h-1c2 0-2 3 1 1l-1 1a2 2 0 012 0l2 1-2 1h1l-2 1 4-1 2-1zM204 126l1 1a1 1 0 00-1-1zM204 114zM210 126l2-1-1-1-2 1zM212 123a8 8 0 01-1 1 3 3 0 001-1z"
                        class="cls-9" transform="translate(30 6)" />
                    <path d="M206 152h-1 1z" class="cls-9" />
                    <path d="M177 142c-1 1 0 1 1 1l-1-1z" class="cls-9" transform="translate(30 6)" />
                    <path d="M196 155h-1 1z" class="cls-9" />
                    <path
                        d="M195 115zM199 117c1-2 2 0 4-2h-1 1l-1-1a18 18 0 01-2 2l3-3h-1l-3-3-4 3c1 0 0 2 2 1a5 5 0 00-1 0l2-1h1c2-1 2 0 1 1-1 0-3 2-3 0l-2 1c2 1 1 3 4 2zM191 108h0zM191 108l3-1h-1l-1 1h1zM196 107a9 9 0 00-4 2c-1 0 2-1 0 0-2 0 0 0 0 0z"
                        class="cls-9" transform="translate(30 6)" />
                    <path d="M226 116v1h-1l1-1z" class="cls-9" />
                    <path d="M196 111l-2 1zM196 110a1 1 0 000-1zM196 110zM196 111l2-2-2 1z" class="cls-9"
                        transform="translate(30 6)" />
                    <path d="M197 151h-2 2z" class="cls-9" />
                    <path
                        d="M167 143a8 8 0 00-1 0 2 2 0 001 0zM156 147l3-1 2-1-2 1 3-1a40 40 0 004-2c-1 0 0-2-3-1l-8 5c-1 1-1 2 1 0zM154 150c1-1 0 0 0 0zM175 130a8 8 0 00-2 1h1l1-1zM174 132v-1 1zM175 130zM196 108c1-1 0-1 0 0zM188 102l1-1-1 1zM161 112zM161 112h-2 2zM100 194l1-1-3 1 1-2h-2v1h-1-1l1 1-1 1c1-1 1 0 1 1h-1 2c1-1 2-2 3-1v-1zM97 199l3-1v1l2-2h-1c2-1 2 0 3-2l-2 1a2 2 0 010-2l-2 1-2 2h1l-4 2c-2 2 0 2 0 4l2-4zM100 195zM167 202l1-1h-2v2l1-1-1 2v2l3-6-2 2zM206 210a1 1 0 000 1 8 8 0 000-1zM169 199l1-2a17 17 0 00-1 2zM160 229a3 3 0 000 1v-1zM179 192zM151 240l2-2v2a1 1 0 000-1l2-6-1 1a2 2 0 010 1l-2 3zM193 225v1a1 1 0 000-1zM193 227v-1 1zM169 200v-1 1zM167 206h-1l-1 2a17 17 0 002-2z"
                        class="cls-9" transform="translate(30 6)" />
                    <path
                        d="M178 191c2-1-1 3 0 4l1-3v-4c0-3 1-3 1-2l-1 4 1-2c1 1 2-3 2 1l1-3v-4a6 6 0 010 1l-1-1a5 5 0 010 3h-1l1-1c-1-1-1 2-2 0a11 11 0 011-1l-2 3 1-3c-1 3-2 2-2 0a4 4 0 010 2v-3c-1 2-2-2-3 1l-5 14a3 3 0 010-1l-1 4 2-3-1 5 7-13c-1 2 1 2 1 2l-2 3a5 5 0 001 1z"
                        class="cls-9" transform="translate(30 6)" />
                    <path
                        d="M174 196a2 2 0 000 1 1 1 0 000-1zM176 194zM168 205v1a2 2 0 000-1zM169 201a1 1 0 000-1 4 4 0 000 1zM181 209zM179 194l-1 3-2 1v-4l-1 3h-1v2l-1 1c1 1 1-1 2-1l-1 2c1-1 2 2 2-2 1-1 1 0 1 1 1-4 2 2 3-3l-1 1zM169 205zM166 188l1-4 3 1a2 2 0 01-1 1l3-1a2 2 0 010 2v1l-1 4 1-3-1 1v-1l-1 1v-3l-1 3c-2 0-1 5-3 7v-6l2-1 1-3c0 2-1 2-1 1s-1 3-2 1l1-2-1 1zm1-1v0zM104 205v-1 1zM142 223h-1 1zM133 232l-1 1 1-1zM107 207zM124 220zM133 232zM141 233a4 4 0 001 0 1 1 0 00-1 0zM144 224zM151 233v-1a1 1 0 000 1zM144 226zM108 195zM104 198a3 3 0 01-1 0h1zM121 213a4 4 0 010-1v1zM122 179l-1 1a5 5 0 001-1zM121 180v0zM134 188a1 1 0 000 1v-1z"
                        class="cls-9" transform="translate(30 6)" />
                    <path
                        d="M104 198c-1 0-4 0-3 2h-2l-2 2h0c-1 2-2 1-2 3l6-2-2-1 2-2c-1 2 0 1 1 2l-1-2 2-2h1zM117 184h-1zM161 190v-1a4 4 0 000 1zM159 189zM146 234a2 2 0 000 1v-1zM159 189zM146 194v1a2 2 0 000-1zM147 198zM117 223h0zM159 189v-1 1zM139 203zM138 201h1c-1 0-1-1-2 1a4 4 0 010 3v1a3 3 0 011-2v2h1l-1-1 1-2c-1 1 1-3-1-2zM139 201a3 3 0 000-1v1zM136 196zM165 207s0-2-1 0l1 1zM121 200h0zM136 206a2 2 0 001-1 2 2 0 00-1 1zM123 197a13 13 0 011-2l-1 1v1zM123 196z"
                        class="cls-9" transform="translate(30 6)" />
                    <path
                        d="M165 208l1 1 2-3 1-1-1 1c1 1 0 4 2 2h-1l2-4-1 3c1-2 0 3 1 0v5l1-3 1-1-1 1c1 3 2-2 3-3h2v5l2-5c-1-1-1 2-2 3l1-4c0 1 1-1 1 1s0 7 1 4l1-1v1c1 0 0 3 1 1 0 2 1-1 2-1a8 8 0 01-1 3c1 1 2-3 3-5v1a11 11 0 00-1 4l1-1-1 4c1 2 1-4 1 0l1-3v2l2-3s0-2-1-1l1-2c0 4 2 0 1 4 2-1 4-1 5-3v3c1 0 2-4 3-2l-1 1c1-2 1 2 2 1v1a6 6 0 011-2v1c1 1 2 0 2-1l3-3-1 4h1l1-2a4 4 0 010 1c1 2 1 0 1-1l1-2-1 5 1 2v2c0 2 0-2 0 0v2l1-1a6 6 0 01-1 3l-2 2v-2h-1v3c0-2-2-1-2-3-2 1 0 5-1 4l-1-2-3 3a5 5 0 000-2c0-1-1 1-1-1a17 17 0 01-4 5c0-3 2-2 2-4h-1l1-3-1 3-1-1v2a1 1 0 000-1l-1 1v3l1-1v2a2 2 0 00-2 0v-1l-2-1 1-1c-1 0-2 1-2-1l-3 6c-1 2-2-3-3 0a21 21 0 011-3s-1 3-1 0c1 1 1-2 1-2l-1 1v2c-1 2-2 3-3 2a3 3 0 000-2v2-3c-1 3-2-2-3 3l1-4 2-2c-1 1 0-2-1-2v1c-1 3-3 1-4 1-1 3-2 6-4 6l1-4c0-2-1 0-1 1v1h-1v-1l-1 2-1-2-1 3v-3l-2 3v-3c-1-2-3 4-3 2v-2h-1v1a18 18 0 01-3 4c0 2 1 1 1 1l1-2c0 3 1 0 1 1-1 3-3 2-4 4 0 2 1 3 2 3v-3h2v-2c0 2 1-2 1-1v-2l1 4 2-3h-1l2-2c0 3-2 3-1 5l3-3-3 3 1 1h-2v-2l-1 3 1 1c-1-2-2 6-3 4v-4a4 4 0 00-1 1l-1 3c-1 1 0-5-1-2v1c-1 1-1-3-1-5a22 22 0 01-1 3l1-3c-1-1-1 0-2 1 1 1 0 2-1 3l1-2c0-1 0-3-1-1l3-4-1-1h1a12 12 0 011-4v-2l-3 7-1-3-1 2v-3 1a4 4 0 010-1h1a13 13 0 00-2 0c2-2 1-3 2-6l-1 1a2 2 0 01-1 2c1-2-1-1-1-1l-1-1-2 6-1 3c0-1 0-1 0 0v1a5 5 0 003-3c0-2-1 1-1 0 1-2 1-1 2-1v1l-1 2c0 2 1 0 1 1l1-2-1 3-1 1v2h-1v-1c-2 1 1-4-1-2-1 2-2 2-3 2l2-4c-1-1-2 1-2 2l1-2v-3c-2 0-4 9-6 5l1-1h-4v-3a9 9 0 002-4v4a6 6 0 000-2l1 1v-2 2c1-1 2-4 3-3l-2 4-1 2 2-2v3l2-4-2-1a15 15 0 003-4l1-7c-1 3-1 1-2 2v2l-1 1 1-1-2-1 2-2-1-1-1 3-1-5-2 5-1-2a35 35 0 00-1 7l2-4 2-2-1 2c0 1 2-2 1 1l-2 2v1c-1 2 1-3-1-1 0 2 0 0-1 1 0 1 2 0 1 3-1 2-1-4-2-1-1-1-2 1-2 2h-2l1-1h-1 1l1-1 2-3c-1 2-2-1-3 3v-2l2-3a4 4 0 01-1 1l2-2-1 1c1 0 2 0 3-2a5 5 0 00-3-2l-4 10h-2v-1h-1l1-3-2 1c1-2 2-1 2-1 0 1 2-1 1 1v2l2-2v-2h-1s1-2 1 0l3-7c-1 1-2 1-2 3l-3 3h-1a8 8 0 001-2l-2 2c2-1 0-1 0-2l-1 3c0 2 1 0 1 0l-1 2-1 1c-1 0 2-4 0-2l-1 2c-1-1-1-4-3-3a20 20 0 003-5h1l-2 2c-2 5 2-2 1 3 0 2 2-4 2-1l2-3c1-3-2 0-2-2h-1v-3l-1 1v-2 2h-1l-1 2 1 1-2 2 1-3-1 1c0-2-1 0-1 0 0 1 0 2 1 1a7 7 0 01-2 2c-1 1-1-1-1-1 1-1 2-6 3-4l1-1 1-3-2 2 2-3-1-1c1-2-1 0-1-1-1 1-2-1-2 3 0-2-2 0-2 0v1a15 15 0 00-3 4 10 10 0 011-2c-1-1-3-3-4-1-1 0 1-4-1-3l-2 2 1-2c-2 2 0-2-2-1v-3a1 1 0 002 1l-1 1c0 2 1 0 2 1v-2c1-2 2 0 3-3-1-1-4 4-3 1l2-2v-1l-1 1c1-3-2 2-4 2 0 2-3 4-3 5l1-3 4-4 2-4c-2 2-1 3-3 3a2 2 0 011-1h-2 1c0-2-2 1-1-1l-2 2-1 4 3-2h-1a8 8 0 001-1v1l-3 4-1-1 1-6c2-1 1-2 1-2h-1a1 1 0 001 0c-1-1-2 1-3 1l2-3c1-1 3-3 1-3a1 1 0 01-1 0l1-1c2-2 0 1 2 0l1-2 2-1h-1a7 7 0 012-2l-1 1c-1 2 2-1 2 0v1c1-2 0 1 2-1v1l4-3v-1h1l2-2a3 3 0 000-1l-2 2v-1l-2 3v-2s0 1 0 0l2-2a2 2 0 01-1 0 2 2 0 00-2 0v1l-1-1h1l1-2-3 3c-1 1-1-1-1-1 2-2 1 0 2 0l2-3c1-1 0-1 0 0v-1l4-2h-1c0 1 0 2 1 1 0-1 0 0 0 0l1-1 1-2-1 3v1l2-3c1-2 1-2 1 0l-2 1h1l-1 1h1l3-5h1l-1 1 2-1a26 26 0 01-3 4l-1 2 4-4a6 6 0 00-1 0l2-1h-1l1-1v2c-1 2 1 0 2-1v1s0 1 0 0l-1 3v-1a4 4 0 00-1 2v2h-1v2a6 6 0 000-1c1 2 2 1 3 2l2-3 2-2a38 38 0 00-2 5l-1 2a8 8 0 011-3c-2 0-1 2-2 4l4-4v1-1l1-2h2l1-1-2 5c1 1 2-2 3-3v4c1-1 3-9 3-4l-1 1 4-1c-2 5-1 6-2 11l1-2s0 1 0 0l1-3 3-6v2h-1l-1 2c1 1-2 4 0 4l1-1-1 2 1-2-2 5-3 4c1 1 3-4 3-3v1a23 23 0 002-3 2 2 0 000 1l3-5c-2 1-1-3-3-1l3-4-1 2 2-1-1 1c1-1 1 3 2 0h1l2-3-1 3c0 2 1-1 2-2l-2 4c1 1 2 0 3-1a3 3 0 010-2v1l1-1a4 4 0 01-1 2c1 1 2-2 1 0l-1 1c1-1 0 4 1 3v2l1-4v-3 1l1-2v3a19 19 0 011-4c1-3 0 3 1 0l-1 2 1-2-1 6h-2l1 2-2 3c1 2 2-3 2-2l1-2 1-2v1c0 1 0 0 0 0 1-1 2-8 3-7l-1 1-4 17a6 6 0 013 2l-2 4v-1l1-3-3 2c-1 4 1 0 1 3 0-1 0 0 0 0l1 2 1-1a4 4 0 01-1-1l2-4zm40 5v1a3 3 0 010-1zm-54 1l2 1c0-5 0-9 2-8h1a1 1 0 00-2-1l-4 8c0 2 1 0 1 1zm2-9l-1 2 1-1a4 4 0 010-1zm-1 3zm8 3h0zm0-3l-1 2 1 1a10 10 0 000-3zm-2-6l-2 4a1 1 0 000 2h1a6 6 0 010-1 5 5 0 011-3c-1 4 1-2 1-1 0-2 0-2-1-1zm-39-8v-1l1-1c0 1-1 4 1 2a25 25 0 01-1 3c-4 3 1-5-1-3zm5 8a2 2 0 00-1 0c4-3 5-4 6-3a13 13 0 000-5l1-1v1l1-1v-3l-2 4v1h-2c0 1 0 3 1 1l-2 2c-1 2-1 0-1-1l1-2c0-1-2 3-2 1l2-3 1-2c-2 3 0-2-2 0l1-2a18 18 0 00-3 5l2-2-2 3v1a5 5 0 00-2 1v4-1c1 1 2-1 2 1l-1 1a3 3 0 012 0zm18 10c1-5 2-9 0-8v-1c0-2-3 3-3 0a25 25 0 003-5l-1 1v-1l1-3c0 1 0 2 1 1v3c0-2-1-1 1-4-1 1-1-1-1-1l1-3 1-3c0 1-1-1-1 1v-1c-1 0-1 3-2 2v1l2-1c-1 1-1-1-1 2v2l-1-1-1 4c-1 0 0-2-1 0-1 1-1 3-2 2 1-3 0-3-1-3l-1 2v1h-1 1l-1 1 1-3v-1a2 2 0 000-1l-1 3c-2 2-1 3-2 5h-2a7 7 0 001-2v-2l-2 3v-1-2l-1 1a5 5 0 01-1 3c0 1 0 3 1 2v1c0 1 3-3 2 1l-1 2 1-1h1v1l2-4a7 7 0 011-2h1v2h-1a11 11 0 00-1 4l-1 1 1-2c1 0 1 5 4 2-2 2 0 2-2 3 0 2 2-3 2-2l-1 1c1 2 4-3 5-2l-1 2zm3-2h1l1-2a5 5 0 011-4 10 10 0 01-1 3c0 1 1 2 1-1v-2l1-1a7 7 0 000 4h1l1-3c0-1 0-1 0 0a2 2 0 000 1 9 9 0 000 2 4 4 0 010-1l1-1v-2c0 2 1 0 1 0v-2c0-1 0 2 1 0l-2-1v2c-2 1 0-3-1-3l-2 3c0-1 0-3-1-2l-2 4s1-1 1 1h-1v2l-1 3zm8 21zM108 195l-2 1 2-1z"
                        class="cls-9" transform="translate(30 6)" />
                    <path d="M108 193l-1 1h1zM116 184l-2 1 4-3-3 2c-2 1-1 2 1 0z" class="cls-9"
                        transform="translate(30 6)" />
                    <path d="M149 186h-1v1l1-1z" class="cls-9" />
                    <path d="M106 215h0zM194 240l4-1a25 25 0 00-4 1zM121 213l-3 3c0 3 3-3 3 0zM117 223l2-4-1 1z"
                        class="cls-9" transform="translate(30 6)" />
                    <path d="M160 190l1-1h-1v1zM152 228h-1l1 1v-1z" class="cls-9" />
                    <path d="M121 223h1z" class="cls-9" transform="translate(30 6)" />
                    <path d="M163 185l-1-1v1h1z" class="cls-9" />
                    <path d="M130 193h-1 1z" class="cls-9" transform="translate(30 6)" />
                    <path d="M154 230l1-1-1 1z" class="cls-9" />
                    <path
                        d="M135 187l1-2-1 2zM135 201zM135 201h-1 1zM137 201h-1c1-1 1-1 0 0v2-1l1-1zM134 234v-3l-1 3h1zM133 234h-1 1z"
                        class="cls-9" transform="translate(30 6)" />
                    <path d="M170 191l1-2-1 2z" class="cls-9" />
                    <path d="M135 235v0zM141 207v-1 1zM139 230a5 5 0 010-3v3z" class="cls-9"
                        transform="translate(30 6)" />
                    <path d="M172 213h-1 1z" class="cls-9" />
                    <path
                        d="M147 186l-1 6c0 2 0-3 1-2a9 9 0 010-4zM147 190zM150 202a5 5 0 00-1 1 4 4 0 001-1zM149 189l-1 3 3-4-2 1zM144 237v0zM144 238zM148 203h-1 1z"
                        class="cls-9" transform="translate(30 6)" />
                    <path d="M177 239v1-1zM179 244v1l1-1h-1z" class="cls-9" />
                    <path
                        d="M159 188l-1 3v-1zM169 239c-1 1-1 0-1-1v-2l-1 3 2-5-2 2a5 5 0 010 1c0 3-1 2-1 2a4 4 0 01-1 2 1 1 0 000 1 7 7 0 000 1l1 2c0-4 1-1 1-2h1a4 4 0 010 1l1-1h1a2 2 0 001 0l7 1a17 17 0 01-1-2v-3h1v-4c0-1-1 5-2 4v-3c-1 1 0-4-1 0v-2a2 2 0 01-2 2v-1c-1 3-1 1-2 1l1-2-1 1v-2l-2 4v2zM167 236v-1a1 1 0 000 1zM179 244h-1 1zM164 240l-1 2h1v-2z"
                        class="cls-9" transform="translate(30 6)" />
                    <path d="M164 244a8 8 0 011-2h-1a3 3 0 000 2z" class="cls-9" transform="translate(30 6)" />
                    <path d="M202 206z" class="cls-9" />
                    <path d="M174 205h-1 1z" class="cls-9" transform="translate(30 6)" />
                    <path d="M205 197h1-1z" class="cls-9" />
                    <path
                        d="M184 236zM179 238c1 2-1 1-1 4h1a14 14 0 011-3v4h2-1 1l4-1 1-4c-1 0-2-2-3 1a4 4 0 000-2l-1 3h1c-1 3-2 2-3 0 1 0 1-3 2-1l1-3c-2 1-3-1-5 2zM194 238zM194 237l-1 3h1v-2 1zM192 242v-5c1-1 1 3 1 1s-1-1-1-1z"
                        class="cls-9" transform="translate(30 6)" />
                    <path d="M217 246l1-1-1-1v2z" class="cls-9" />
                    <path d="M188 239v-1zM189 240a1 1 0 001 1zM189 240zM188 239c0 2 0 4 1 3v-2z" class="cls-9"
                        transform="translate(30 6)" />
                    <path d="M208 200l1-1-1 1z" class="cls-9" />
                    <path
                        d="M180 197a7 7 0 001-1 3 3 0 00-1 1zM184 186l-1 3-1 2 1-2-1 3-1 4c0-1 1 1 2-1l2-10c0-1-1-2-1 1zM183 182c0 1 0 0 0 0zM184 211a8 8 0 001-2h-1a4 4 0 010 2zM184 210v-1 1zM184 211zM191 241c0 1 0 1 0 0zM204 238zM206 209a5 5 0 010-1 5 5 0 000 1zM206 208c0-1 1 1 1-1v1-1l-1 1zM143 155l-1 1 2-1-1 1 2-1 2-1v-1h1c0-1-4 2-5 1v1z"
                        class="cls-9" transform="translate(30 6)" />
                    <path
                        d="M148 151l-3 2 1-1a13 13 0 00-3 1h1l-4 1h2l-1 1h2l3-2h-1l4-2c3-1 1-1 2-2l-3 2zM143 155zM110 123h-1v2l3-1h-1l1-1 2-1-6 1h2zM109 96a3 3 0 001 0 8 8 0 00-1 0zM106 123l-2 1 2-1zM138 117l-1 1zM97 119v-1 1zM150 117h-2 2a3 3 0 00-1 0 48 48 0 01-6 1h1a2 2 0 011 0h3zM126 101zM127 101h-1 1zM108 123h-2 2zM114 122h2-2zM95 120l4-1a16 16 0 00-2 0c1 0-5 0-4 1h-3l5-1h-2c0-1-4 0 0-2h-4l-3 2a7 7 0 011 0h-1a5 5 0 013 0s1 0 0 0h-1c-1 1 2 0 1 1a12 12 0 01-1 0l3 1h-3c3 0 3 1 1 2a5 5 0 011-1l-2 1c2 0-2 2 1 2l15-2a3 3 0 01-1 0 14 14 0 015-1l-4 1 4-2H95c2 0 1-1 1-1h3a4 4 0 001-1z"
                        class="cls-9" transform="translate(30 6)" />
                    <path
                        d="M102 121h1a1 1 0 00-1 0zM99 120h1-1zM112 122h1a3 3 0 00-1 0zM109 123h-1a5 5 0 001 0zM112 112z"
                        class="cls-9" transform="translate(30 6)" />
                    <path
                        d="M98 118h4l1 1-3 1h2s2 0 1 1l2-1h1c1-1-2 0-2-1h3c-2 0 1-1-3-1h1c-5 0 1-2-4-1h1zM112 121zM97 130l-3 1-1-3a2 2 0 011 0l-2-1a3 3 0 013-1l-1-1h1s1 0 0 0h5-4 2l-2 1h1c1 1-2 1-2 1l3-1v1c1 1 6-1 8-1l-5 2c-1 0-3 0-2-1l-3 1h1-1c0 1 4 0 2 1l-1 1s1 0 0 0zm-1-1h1c-1 0-1 0 0 0zM146 149zM139 128zM151 127zM146 147h-1zM145 136zM150 127h1zM148 124zM139 127zM144 120h-1 1zM141 126h-1a2 2 0 001 0z"
                        class="cls-9" transform="translate(30 6)" />
                    <path d="M167 160z" class="cls-9" />
                    <path
                        d="M142 152h0zM141 140a8 8 0 01-1 1l1-1zM118 163l1-1a5 5 0 00-1 1zM119 162h1zM115 150zM142 153l3-1 2-1 2-1h-1 2l2-2-5 2s1 0 0 0l-2 1 1-1-1 1-2 2h-1zM125 161zM101 132v1a5 5 0 000-1zM102 134zM147 121zM102 134zM112 140h1a2 2 0 00-1 0zM115 137zM150 136zM102 134h-1zM123 139zM122 140h2a5 5 0 012-1l1-1a4 4 0 01-3 1l2-1-3 1h1l-2 1zM122 140a4 4 0 00-1 0h1zM119 144h1-1zM116 123h-1 1zM131 148zM127 139a4 4 0 00-1 0 4 4 0 001 0zM128 149a17 17 0 01-2 1h1l1-1zM127 150z"
                        class="cls-9" transform="translate(30 6)" />
                    <path
                        d="M116 122h1a1 1 0 01-1 0 2 2 0 001 0h-4l-1-1h1c1 0 4-1 1-1h-4 4c-2 0 3-2-1-1l5-2-4 1c-1 0 1 0 0 0 3-2-2-1-3-1v-1l4-2h-5c-1 1 2 0 3 1a28 28 0 00-4 1c1-1-1-1 1-2 1-1 7-2 3-2h-1 1c0-1 2-1 0-1h1c1-1-1-1-2-1a13 13 0 013 0c1-1-3-1-5-1l1-1a15 15 0 004 0h-1 4c2-1-4 0-1-1h-3 2l-2-1-2 1h-2c4-1-1-2 4-2l-4-2 3-1-3-1h2c-2-1 1-1 0-2a4 4 0 001 0 9 9 0 01-2 0h1c1-1 0-1-1-2l-3-1h4a20 20 0 01-3 0 7 7 0 012-1h-4l5-1 2-1h2c2 0-2 0 0 0a8 8 0 002-1h-2l6 1h-1v1h3l-3 1c1 1 5-1 4 1h-2a7 7 0 013 1v1a8 8 0 00-2 0c-1 1 2 1 0 1a27 27 0 015 1h-4v1l-3-1 3 1h-1 2a1 1 0 00-1 0l2 1a15 15 0 002-1h-1 2a1 1 0 001 0l-2 1v1h-1l-1 1h6c2 0-3 2 1 2h-3s2 0 0 0h-3l2 1 2-1 2 1a6 6 0 00-2 1l2-1-2 1c2 0-2 1 3 1h-6l-2 1h1c3 0 2 1 2 1l6 1-4 1h2v-1c2 0 2 1 1 1h-1 2l-1 1h3l-2 1h2l-2 1c-2 1 4-1 2 1a8 8 0 00-2 0h1a1 1 0 001 0 32 32 0 014 0l1-1-2 1c3-1-1-1 0-1h5l3-2-2 1v-1l-2 1c1 0 0 0 0 0h-2-1l-1 1 3-2h-6l5-1h-4 4l1-1 1 1-3 1 3-1 1-1c-1 1 6 0 5 1-1-1-3 0-4 1a4 4 0 002 0l2-1c1 0-4 2-1 1 1 0 0 0 0 0l-4 2 4-1a27 27 0 01-3 1h4a5 5 0 01-2 0s-3 1 0 1a17 17 0 01-5 0h-1a24 24 0 01-4 1h0l-3 1h1l7-1-1 1h1l-3 1h1l-7 2h2a3 3 0 012 0c-2 0 0 0 0 1h-1 1l5-1 3-1a11 11 0 001 0 8 8 0 00-4 0h1-2l2-1h-1 3v-1l-3 1 3-1h2l2-1v1h-1c2 0-4 1-1 1h2l-3 1h2l-2 1-3 1c1 1 10-2 7 0h-2l2 1-3 2a19 19 0 00-4 1l4-2a11 11 0 00-2 1v-1l-1 1 2-1h-4a34 34 0 014-1h2-2a5 5 0 011 0l1-1h-4v2a28 28 0 00-5 1l-6 2h2l2-1h1-1v1a9 9 0 00-2 0 4 4 0 01-1 1 15 15 0 013-1l-4 3 6-2-2 2a67 67 0 007-3 36 36 0 00-5 1h-2 1l1-1h2l1-1c3 0-2 1 0 1h1l3-2c2 0-4 2 0 1l-1 1 3-1c-1 1 1 1 1 1h-1 1-3l-3 1 4-1-2 1h1a12 12 0 01-4 1 7 7 0 011 0h-2-2a2 2 0 000 2l10-4c1 0 2 1 1 2h-1c-1 0 0 0 0 0l-2 1h1-2a2 2 0 001 0c0-1-3 0 0-1l2-1-3 1-2 1h1-1a29 29 0 00-7 2l4-1h3a14 14 0 00-2 1l3-1-2 1a18 18 0 004-1h-1l2-1h2l-3 1 3-1c0 1-3 3-1 3a41 41 0 00-6 2v-1l3-1c4-1-3 1 1-1h-2l-2 1c-4 1 0 0-1 1a4 4 0 00-1 0l1 1v-1c2 0-1 1-2 2h1l-1 1 2-1s-2 1 0 0l2-1 3-1-3 1h1v1l1-1a12 12 0 013-1l-1 1c-1 0-6 3-5 1 1 0 1 0 0 0h-1l-3 2 3-1-3 1-1 1c-2 1 1 0 0 1l3-1c-1 1 1 0 2 1l1-1a24 24 0 004-2 23 23 0 01-2 2h2l-2 2h2l-2 1h1l-2 2h-1l2-1v-1l-2 1-4 2 3-1-3 1-1 1 2-1h-1c-2 2 3 0 5 0l5-3-2 2-6 2-4 2 3-1h1-1c-1 1 2 0 1 1a8 8 0 012-1c1-1 4-2 3-3a18 18 0 01-3 1v1h-1l1-1 4-1s1 0 0 0a17 17 0 00-4 4v-1l-2 2 1-1a3 3 0 00-1 1l3-1a32 32 0 00-4 2l-2 2a2 2 0 011-1 1 1 0 000 1h-3l-2 1-2 1h1a10 10 0 01-2 1l1-1h-2 1-3l1-1-5 1v1h-3a3 3 0 00-1 1l2-1v1l3-1-1 1s1-1 0 0l-3 1 3 1 1-1-1 1-1 1 3-1v1c-3 1 0-1-1-1l-4 2h1l-1 1h-4a7 7 0 001 0v-1c-1 0-1 0 0 0l-2 1-2 1v-1l2-1 1-1-4 1v1-1h1l1-1h-1l-4 2h-1l1-1h-2c1-1 8-2 6-3l-5 2a4 4 0 001-1l-2 1h-1l2-1h-3c3-2 0-1 1-2l2-1v1a4 4 0 002-1l1-1h1l2-2a9 9 0 00-1 1l-1-2c-5 2-3-1-6 0a44 44 0 005-2h2a11 11 0 01-3 1c1 1 2-1 4-2l-5 1 1-1-2 1h-2v-1l-2 1 5-3-4 1c1-1 1-2 3-2-2 0-9 3-5 0h1c0-1-3-1-2-2 5-1 4-3 9-5a9 9 0 01-2 1c1 0 1-1 0 0l-3 1-6 1 2-1v1a5 5 0 012-1l4-2h-2l2-1-2 1c3-2 3 0 5-1l5-1h-4l1-1a32 32 0 00-4 1 3 3 0 002 0h-7c3 1-1 2 1 2l-5 1 2-1h-1l1-1c-2 0 3-1-1-1-1 0 0 0 0 0h-4l3-1h-2l4-1-3-1a4 4 0 01-1 0c1 0 0 0 0 0h-1a6 6 0 013-1h-1 2c-2 0 3-2 1-2l2-1-4 1-1 1-1 1 1-1-3 1 4-2a23 23 0 01-5 1c-3 1 3-1 0 0l2-1h-3l6-1 1 1 2-1 3-1h-5-2 0l-7 1h1l18-4a3 3 0 010-3h5-1l-3 1 3 1c3-1-1-1 2-2-1 0 0 0 0 0l1-1a4 4 0 01-1 0l-4 1h-1zm-4-26h1a7 7 0 01-1 0zm15 32v-2c-4 2-8 4-8 2v1l8-1 1-1zm-8 3l1-1a6 6 0 01-1 1zm2-1zm0-6zm-2 1h1v-1a16 16 0 00-1 1zm-6 4l5-1a2 2 0 001 0v-1a7 7 0 01-1 0 7 7 0 01-2 1h-2c-2 0-1 1-1 1zm16 24h-1l-1 1c0-1 3-3 0-2a32 32 0 013-2c5 0-4 3-1 3zm2-7a4 4 0 001 0h-7a15 15 0 00-3 2l-2 1 2-1-2 1-2 1 4-1 1-1 1 1c1 0 2-2 0-1l3-1c2 0 1 1 0 2l-2 1h1l-2 1-3 1h1l-2 1a22 22 0 006-2l-3 1 4-1v-1a6 6 0 002 0l1-1 1-1h0c0-1-2 0 0-1h1l-1-1zm-2-13c-4 2-8 3-7 4-2 2 4 0 1 2a38 38 0 00-5 1h1l-1 1-2 1v-1l2-2-4 2c1 0 0 0 0 0l-4 2h1l-4 1h4l1-1-2 1 2-1 2-1 3-1c1 0-1 1 1 1l3-1-2 2h2l1-1v1h1l-3 1h2l4-2h2a12 12 0 00-2 1l-2 1h4-2l-1 1h2a8 8 0 013-1c0-1 2-2 0-2h1c1-1-4 0 0-1l2-1h-2 1l-1-1h1l-5 1a11 11 0 01-2 1l2-2v1a17 17 0 004-2 3 3 0 001 0 7 7 0 00-2 0s3-2 0-2l3-1h-3 2c1-1-4 0-4-1l2-1zm-3-1h-2a8 8 0 01-4 2 14 14 0 012-1c1-1 2-1 0 0l-2 1h-2a11 11 0 004-2l-1-1-3 2v-1a3 3 0 001 0 15 15 0 002-1h-2l-2 1c2-1 0 0 0-1l-2 1h-1l1 1h2l-3 1h4l-2 1h5s-2 0 0-1h1l1-1h3zm15-12z"
                        class="cls-9" transform="translate(30 6)" />
                    <path d="M137 155a5 5 0 002-1l-2 1zM136 156l1-1zM126 161h2l-5 2 4-1c1-1 2-2-1-1z" class="cls-9"
                        transform="translate(30 6)" />
                    <path d="M151 169h1-1z" class="cls-9" />
                    <path
                        d="M151 142c1 0 0 0 0 0s-1 1 0 0zM140 98h-1v-1h-1a2 2 0 001 0 6 6 0 001 1zM141 140h4c2-2-4 1-2-1zM150 136l-4 2h2z"
                        class="cls-9" transform="translate(30 6)" />
                    <path d="M144 160l-1 1v-1h1zM177 141h1v-1l-1 1z" class="cls-9" />
                    <path d="M149 135h-1z" class="cls-9" transform="translate(30 6)" />
                    <path d="M139 162v1l1-1h-1z" class="cls-9" />
                    <path d="M120 149h0z" class="cls-9" transform="translate(30 6)" />
                    <path d="M178 139h-1 1z" class="cls-9" />
                    <path
                        d="M113 150l-2 1 2-1zM124 142zM124 142s-1 1 0 0c1 0 0 0 0 0zM123 141c-1 0-1 0 0 0h2-1-1zM151 126a5 5 0 01-2 1h3l-1-1zM152 127z"
                        class="cls-9" transform="translate(30 6)" />
                    <path d="M139 154h-3 3z" class="cls-9" />
                    <path d="M152 125v0zM125 136c-1 0 0 0 0 0s2-1 0 0zM146 126a10 10 0 01-2 1l2-1z" class="cls-9"
                        transform="translate(30 6)" />
                    <path d="M155 141h1-1z" class="cls-9" />
                    <path
                        d="M105 143l6-2h-3a11 11 0 01-3 2zM108 141h0zM117 134a4 4 0 001 0h-1zM107 140h2-4c-1 1 0 1 1 1zM150 121h0zM151 121zM119 134c1 0 1 0 0 0z"
                        class="cls-9" transform="translate(30 6)" />
                    <path d="M176 127v-1 1zM180 124h-1 1z" class="cls-9" />
                    <path
                        d="M101 135l3-1h-1zM144 110c1 0 1 1-1 1a6 6 0 00-2 0h4l-6 1h2a8 8 0 012 0h2a8 8 0 012-1 2 2 0 001 0h1l1-1h-2a8 8 0 011 0l-2-1a5 5 0 011-1 5 5 0 00-1 1l-1-4-1 1-3 1v-1l-4 1h4l-3 1h1l-2 1h2-1l2 1h-2c-1 1 1 0 1 1a11 11 0 01-2 0h4a7 7 0 002-1zM141 112zM146 105zM146 112a10 10 0 012 0h-2z"
                        class="cls-9" transform="translate(30 6)" />
                    <path d="M150 111a13 13 0 01-2 0v1a5 5 0 002-1z" class="cls-9" transform="translate(30 6)" />
                    <path d="M137 126h-1 1z" class="cls-9" />
                    <path d="M110 118v0z" class="cls-9" transform="translate(30 6)" />
                    <path d="M127 127l-1-1v1h1z" class="cls-9" />
                    <path
                        d="M138 104zM140 106l5-1h-1 1a28 28 0 01-3 0l3-1-1-2h-5c0 1-2 2 1 1a8 8 0 00-1 1h2l1-1c2 0 2 1 0 1h-2a12 12 0 01-2 0c1 1-1 2 2 2zM138 99zM137 99h3v-1l-2 1h1zM142 99a14 14 0 00-4 1c-1 0 2-1 0-1l-1 1z"
                        class="cls-9" transform="translate(30 6)" />
                    <path d="M171 107h-2 2z" class="cls-9" />
                    <path d="M140 102v-1l-2 1zM141 101a1 1 0 000-1zM140 101h1a6 6 0 01-1 0zM140 101h3-2z" class="cls-9"
                        transform="translate(30 6)" />
                    <path d="M129 124h-1 1z" class="cls-9" />
                    <path
                        d="M101 116h-1a3 3 0 001 0zM89 117l3-1h3l-3 1a8 8 0 003-1h5c-1 0 1-1-2-1l-10 1c-1 1-1 1 1 1zM86 118v0zM113 110a13 13 0 00-2 0h1a5 5 0 011 0zM112 110zM114 110h-1a1 1 0 001 0zM142 100c1 0 0 0 0 0s-1 0 0 0zM136 92h0zM108 96h-1a5 5 0 001 0zM107 96h-1 1zM193 147a6 6 0 01-2 1 12 12 0 003-1l-2 1 2-1 2-2v1-1c0 1 0 0 0 0a10 10 0 011-1l-4 3z"
                        class="cls-9" transform="translate(30 6)" />
                    <path
                        d="M197 144l-2 1-2 1-3 2 2-1a5 5 0 01-1 1l2-1 2-2 3-2 2-2-3 3zM193 147zM167 142a9 9 0 00-1 1 20 20 0 012-1h-1l2-1 2-1-6 3 2-1zM164 133a4 4 0 000-1v1zM164 144l-2 1 2-1zM191 128h1-1zM156 147zM203 124l-2 1 1-1a3 3 0 00-1 0h1l-6 3 1-1h1l3-1zM177 124h1zM178 123v0zM165 143l-1 1 1-1zM170 140h1l1-1-2 1zM155 148l3-2-2 1-4 2-2 1 4-2a18 18 0 00-2 1c1 0-3 2 0 0l-2 2-3 2 1-1-1 1 3-2h-1v1-1l-1 1 3-2-3 2c3-2 2-1 1 0l1-1-2 2 1-1 13-7a7 7 0 01-1 0 45 45 0 014-2 32 32 0 01-3 2 29 29 0 004-3l-12 7 1-2a18 18 0 013-1z"
                        class="cls-9" transform="translate(30 6)" />
                    <path d="M160 145h1a2 2 0 00-1 0zM158 146zM169 141l1-1h-1a6 6 0 000 1zM166 143h-1 1zM168 137z"
                        class="cls-9" transform="translate(30 6)" />
                    <path
                        d="M157 146l3-2h1l-3 2a16 16 0 002-1h1l2-2h-1l2-1-3 1 1-1-3 2a4 4 0 001 0zM168 141zM155 150l-3 2v-1a7 7 0 011 0h-1a11 11 0 011-1h1c0-1 0-1 0 0a34 34 0 014-3l-3 2a14 14 0 001-1 8 8 0 01-1 1h1l-2 1 3-1h-1l7-4a51 51 0 00-5 3l-1 1-3 1h1c-1 0 3-1 1-1a7 7 0 01-1 1c1 0 1 0 0 0zm0 0zM196 143zM193 134zM204 130zM196 142zM198 137h-1a5 5 0 001 0zM203 130h1zM201 129zM193 133a2 2 0 000 1zM197 128zM195 132h-1a4 4 0 001 0z"
                        class="cls-9" transform="translate(30 6)" />
                    <path d="M218 154v1-1z" class="cls-9" />
                    <path
                        d="M192 146h0zM194 140l-2 1 2-1zM170 160h1a9 9 0 00-1 0zM171 160l1-1zM169 153zM192 147a14 14 0 003-2l1-1 2-1s-1 0 0 0l1-1 2-1a53 53 0 00-4 2s1 0 0 0l-2 2 1-1-1 1a8 8 0 01-2 1l-1 1zM176 157zM159 149l-1 1 1-1zM159 150zM200 128v-1a1 1 0 000 1zM159 150zM168 149zM170 147h1zM202 135zM159 150h-1zM178 145zM177 146h-1l2-1a10 10 0 013-1v-1a9 9 0 01-2 2l2-1-1-1v1l-2 1c1-1-3 1-1 1zM176 146zM174 149zM172 140c-1 0-2 1 0 0zM184 147c-1 0 0 0 0 0zM181 144zM180 149l-1 1a11 11 0 001 0v-1zM180 150z"
                        class="cls-9" transform="translate(30 6)" />
                    <path
                        d="M172 139h1v-1l-4 2-1 1 2-1 1-1-4 2a23 23 0 013-2c-1 1 3-2 0 0l4-3-3 2h-1 1c2-2-2 1-3 1h-1a45 45 0 004-3l-4 3 2-2-3 3 1-1v-1l3-2-1 1v-1s2-1 0 0l1-1-2 1a31 31 0 013-2l-4 3v-1l4-3-1 1 3-2c1-2-3 2-1 0a22 22 0 00-2 2l1-2-2 2h-1l-1 2 2-3a13 13 0 00-3 1 16 16 0 012-2l-2 2 1-1c-2 1 1-2 0-1a10 10 0 001-1l-2 1h0l-2 1a22 22 0 002-2v-1l-2 2 1-1-2 2 3-4 1-1 2-2c1-1-1 1 0 0a11 11 0 001-1h-1l4-3-1 1v1l1-1 1-1-2 2 4-2-2 1 3-1a16 16 0 00-2 1c0 1 2-1 0 1a25 25 0 015-3l-4 3h1l-3 2 3-2-1 1 1-1h1a19 19 0 002-2l-1 1 1-2h1l-1 1 1 1h-1l-1 2 5-4c2-1-1 3 1 1l-2 1c0 1 2-1 0 1l-2 1h2l1-2h3a9 9 0 00-2 1l1-1-2 2 4-2-4 3-2 1-1 1 1-1h2l5-2-3 2h1l1-1c1 0 1 0 0 0v1l2-1-1 1 2-1-2 1 3-1-3 2 3-1a12 12 0 00-2 1h1a41 41 0 015-2v-1l-2 1h1l4-2 2-2-1 1-2 1v-1l-2 2h-1l-1 1 2-3-2 2-2 1 3-3c1 0-2 2-3 1l4-1v-1h1l-2 2a17 17 0 013-2l5-2a18 18 0 00-3 2 5 5 0 001 0l2-2c1 0-3 3-1 2l1-1-4 3 4-1-3 1h1a12 12 0 013-2 7 7 0 01-2 1c-1 1-3 2 0 1a25 25 0 01-5 2c-1 1-1 0 0 0a36 36 0 01-4 2h0l-2 2 7-4-2 2 2-1-3 2 1-1-1 1h1l-6 3h1a5 5 0 012-1c-2 1 0 0 0 0v1l5-3a11 11 0 012-1l2-1a11 11 0 00-4 1c-1 1 1 0 0 0l-1 1 1-1h-1a15 15 0 013-1v-1l-2 1a16 16 0 013-1l2-1 1-1-1 1c2 0-3 2-1 1h2a24 24 0 00-3 1h2l-2 1-2 1 6-2-1 1h1l-2 2a31 31 0 00-4 2 23 23 0 003-2l-2 1 1-1a10 10 0 01-2 1l2-1-4 1 5-2 1-1-2 1a6 6 0 011-1h1l-3 1-1 1-4 2-6 3h2l2-1 1-1h-1v1a16 16 0 00-2 1 6 6 0 01-1 1 30 30 0 013-2 15 15 0 01-4 3l6-2-2 1 6-4-4 2-2 1 1-1h1l2-1 1-1-1 1 2-1 2-1c2-1-3 2 0 0l2-1h1l-1 1h1-1l-1 1c2-2-2 0-3 1l3-1-2 1 1-1a24 24 0 01-4 2h1-2 1l-2 1-1 1a728 728 0 0010-5v1c-1 0 0 0 0 0l-2 1h1-2a5 5 0 001 0s-3 1 0 0l2-1h-3l-2 2h0a59 59 0 00-6 3l3-2a25 25 0 013-1l-1 1 2-1-2 1 4-1h-1l2-1 2-1s-5 2-3 2l3-2-2 2a93 93 0 00-2 1c4-2-3 1 1-1 1-1-4 2-2 0l-2 2c-3 1 0 0-1 1h-1 1l-2 1h1l-2 1 2-1h1l1-1 1-1 2-1-2 2 1-1-1 1h1l1-1 2-1h-1l-4 3c0-1 0-1 0 0 2-2 0-1-1 0a18 18 0 00-3 1h2l-3 1-1 1 4-1 1-1h1l4-3-2 2h1l-2 1 2-1-2 1h1a12 12 0 01-2 2h-1a20 20 0 012-1c1-1-1 0 0 0l-2 1-4 2s5-3 3-1l-3 1-1 1 2-1 3-2 5-3-2 2-5 3-3 2 2-2v1l1-1-1 1c-1 1 2-1 0 0a27 27 0 013-2 29 29 0 003-2l-3 2h-1 1l4-2c-1 0 0-1 0 0a44 44 0 00-5 3 16 16 0 00-2 1h1a9 9 0 00-1 0l3-1-3 2-3 2a5 5 0 011-1l-1 1-1 1-2 1a8 8 0 00-2 1h1a20 20 0 01-2 1l1-1-2 1a3 3 0 011 0h-2 1l-5 2h-1l-2 1a7 7 0 00-1 1l2-1c-1 1 1 0 0 0a22 22 0 013-1l-1 1c-1 0 1-1 0 0l-3 1h3v-1 1h-1l-1 1 3-2v1h-1l-3 2c-1 0-1 1 0 0v1l-4 1v-1h1a16 16 0 01-2 1l-2 1c0 1 0 0 0 0l2-1 1-1-3 2h-1a4 4 0 002-1h-1 1l-5 2c1-1 0 0 0 0h-1l6-4-5 3 1-1-2 1c-1 0 0 1 0 0l-1 1 2-2-2 1c2-2-1 0 0-1 0 0 1 0 0 0l3-1h-1a8 8 0 002-1l2-1 2-2-1 1c1-1-1-1-1-1-4 3-2 1-5 2l5-3h2a23 23 0 01-3 1l4-2-5 2 1-1-1 1-2 1h-2a55 55 0 015-3l-4 2 3-2-5 2 2-1h-2l8-5a21 21 0 01-2 1v-1l-2 2-6 2 2-1v1a12 12 0 012-1l4-2h-2a6 6 0 002-1l-2 1 4-2a31 31 0 005-2l-3 1h1l-4 1a5 5 0 001-1l-5 3c2-1-2 1 0 1a25 25 0 00-4 1l2-1-2 1 1-1c-1 1 3-2 0 0h-1l-3 1 3-1-2 1 3-2h-2a11 11 0 01-1 1l1-1-2 1a15 15 0 013-1h-1 2c-2 0 3-3 1-2a17 17 0 002-1 43 43 0 00-4 2l-1 1h-1 1l-2 1 3-2-4 2c-3 1 2-1 0 0a11 11 0 001-1l-2 1 5-3h1l2-1a22 22 0 003-1c1-2-3 1-3 1l-1 1h-2c2-1 0 0 0 0l-7 4 1-1 16-8 1-2 4-2h-1l-3 2 3-1 1-1 1-1 1-1-1 1-4 2h-1zm-6-9h1-1zm16 8v-1l-7 4h-1v1l8-4 1-1zm-8 4h2-1-1zm3-1zm-1-3h1-1zm-2 2l2-1-2 1zm-4 3l4-2a5 5 0 001 0 2 2 0 010-1l-1 1a16 16 0 01-2 1l-2 1c-1 0-1 1 0 0zm11 8h-1l-1 1c0-1 3-3 0-1l4-2a2 2 0 01-1 0c4-2-4 3-1 2zm3-5l-5 2a33 33 0 00-4 2l-1 1 1-1-2 1a18 18 0 00-2 2l4-2 1-1h1c1 0 2-1 0 0a28 28 0 003-2c2 0 1 0 0 1l-2 1h1l-2 1-3 2 1-1a19 19 0 00-2 2 44 44 0 005-3l-2 1 4-2a12 12 0 002-1l1-1 2-1h-1s-2 1 0 0h1l-1-1zm0-6l-7 4c-2 2 3-1 1 1l-5 2h1-1l-3 2 1-1 2-1-4 2c2-1 0 0 0 0l-3 2h1a18 18 0 00-4 1h2-1 2l1-1a21 21 0 01-2 1l3-2 1-1v1l3-2c1 0-1 1 0 0l3-1c-3 2-2 2-1 2l1-1 1-1h1l-1 1 1-1a22 22 0 00-3 1l-1 1 3-1 4-2 1-1-2 1-1 1 3-1-1 1-1 1 1-1a18 18 0 013-1c0-1 2-2 0-1l1-1c2-1-3 2 0 0l2-2-1 1h1-1l-4 2h-2c0 1 0 1 0 0l2-1a41 41 0 004-2 6 6 0 001 0 15 15 0 00-2 1c-1 0 3-3 0-2l2-1-2 1 2-1-3 1 1-1zm-3 1h-2a17 17 0 01-4 2l2-1c1 0 2-1 0 0l-2 1a7 7 0 01-1 1 24 24 0 003-2s0-1 0 0a18 18 0 00-3 1c-1 1-1 1 0 0a6 6 0 001 0l2-2h-1v1h-2l-1 1c2-1 0 0 0 0l-2 1-1 1h1l1-1-2 2 3-1h-1l4-1v-1h1l1-1a21 21 0 003-1zm14-13z"
                        class="cls-9" transform="translate(30 6)" />
                    <path d="M188 149a12 12 0 002-1l-2 1zM187 150a9 9 0 011 0h-1zM177 157l2-1-5 3 4-2c1-1 2-2-1 0z"
                        class="cls-9" transform="translate(30 6)" />
                    <path d="M202 165h1-1z" class="cls-9" />
                    <path
                        d="M202 138c1 0 0 0 0 0-1 0-1 1 0 0zM187 113h-2a8 8 0 002 0zM193 140l4-1c2-2-4 2-1 0zM202 135l-4 3 2-1z"
                        class="cls-9" transform="translate(30 6)" />
                    <path d="M197 162h-1 1zM230 141h1-1z" class="cls-9" />
                    <path d="M201 135h-1z" class="cls-9" transform="translate(30 6)" />
                    <path d="M193 164l-1 1 1-1z" class="cls-9" />
                    <path d="M174 151h0z" class="cls-9" transform="translate(30 6)" />
                    <path d="M230 140h-1v1l1-1z" class="cls-9" />
                    <path
                        d="M168 154l-2 1a9 9 0 002-1zM178 146zM178 146v0zM177 146c0 1 0 1 0 0a6 6 0 001 0l1-1-1 1h-1zM204 129a7 7 0 01-2 2l3-1-1-1zM205 130z"
                        class="cls-9" transform="translate(30 6)" />
                    <path d="M193 160l-2 1h1l1-1z" class="cls-9" />
                    <path d="M205 129h-1 1zM180 143h-1 1zM199 131a18 18 0 01-2 1l2-1z" class="cls-9"
                        transform="translate(30 6)" />
                    <path d="M210 148h-1 1z" class="cls-9" />
                    <path
                        d="M161 153l5-3-2 1a29 29 0 01-3 2zM164 151zM173 144h1zM163 151l2-1-4 2 1-1zM203 126h0zM204 126zM174 144h0z"
                        class="cls-9" transform="translate(30 6)" />
                    <path d="M229 133h1-1zM233 130h-1v1l1-1z" class="cls-9" />
                    <path
                        d="M158 151a14 14 0 003-2l-1 1zM196 121h-1a7 7 0 00-1 1l3-1a20 20 0 01-5 3l2-1a11 11 0 011-1h2a10 10 0 012-2h1l1-1v-1l-2 1a10 10 0 011-1h-2 0l-2-3-1 2-2 1c-1 1-1 1 0 0l-3 3 3-2-2 2c1-1-3 2 1 0l-2 1h2-1 2l-2 1 1-1a16 16 0 01-2 2l4-2a9 9 0 002-1zM194 123zM196 115z"
                        class="cls-9" transform="translate(30 6)" />
                    <path d="M198 122a11 11 0 012-2l-2 1zM201 119l-1 1a6 6 0 001-1z" class="cls-9"
                        transform="translate(30 6)" />
                    <path d="M194 148z" class="cls-9" />
                    <path d="M167 140c-1 1 0 0 0 0s1 0 0 0z" class="cls-9" transform="translate(30 6)" />
                    <path d="M186 153h-1 1z" class="cls-9" />
                    <path
                        d="M188 119zM191 119l4-3h-1 1-1a29 29 0 01-2 2l3-3h-1l-2-1-4 3c1 0 0 2 2 0a9 9 0 00-1 1l2-1v-1c2-1 2 0 1 1-1 0-3 2-2 0a14 14 0 01-2 2h3zM186 115zM185 115l3-1-1-1-1 2v-1z"
                        class="cls-9" transform="translate(30 6)" />
                    <path d="M189 113a14 14 0 00-3 3c-1 0 2-2 0-1v1z" class="cls-9" transform="translate(30 6)" />
                    <path d="M220 121h-1 1z" class="cls-9" />
                    <path d="M189 116v-1l-1 2zM189 114zM189 115v-1a4 4 0 010 1zM189 115l2-2-2 2z" class="cls-9"
                        transform="translate(30 6)" />
                    <path d="M188 151h-1v1l1-1z" class="cls-9" />
                    <path
                        d="M159 144l-1 1 1-1zM150 151l2-2 2-2-2 2 3-2 3-2h-1l-8 6h1zM147 153c-1 0 0 0 0 0 1-1 0 0 0 0zM169 135l-2 1h1a14 14 0 011-1zM168 136zM169 135zM189 113c1 0 1 0 0 0zM183 113v-1a3 3 0 000 1zM163 133v1zM163 134h-1 1zM194 219l-1 1 2-2-1 2 2-1v-1l1-1v-1c0 1 0 0 0 0a7 7 0 011-1l-4 4z"
                        class="cls-9" transform="translate(30 6)" />
                    <path
                        d="M198 214l-2 2a21 21 0 00-2 2v-1l-2 3 2-1a3 3 0 01-1 1l1-1 2-3c0 1 0 0 0 0l3-2 1-3a31 31 0 00-2 3zM194 219zM163 212a6 6 0 00-1 1h1a12 12 0 012-1h-1 1c-2 0 1-2 2-2l-6 3 2-1zM158 194a2 2 0 001 0h-1zM159 214l-1 1 1-1zM187 198h1-1zM150 214zM198 193l-1 1 1-1a5 5 0 00-1 0l-5 3h1l4-2zM175 193zM176 193h-1 1zM161 213l-2 1 2-1zM166 210h1l1-1-2 1zM149 215l4-2-3 1c2 0-4 2-3 2l-3 1 5-2-3 1c1-1-3 1 0-1a16 16 0 00-3 1l-3 2a11 11 0 011-1v1a8 8 0 012-1c1 0 1 0 0 0h-1c0 1 2 0 1 1h-1a17 17 0 013-1l-2 2c2-2 2-1 1 0a6 6 0 011 0l-2 1c2-1-2 2 1 1l14-6a4 4 0 01-1 0 22 22 0 014-2l-3 1 3-2-12 5 1-2a8 8 0 013-1 2 2 0 000-1zM156 213zM153 214zM165 210h1-1zM162 212l-1 1 1-1zM164 204h-1a1 1 0 001 0z"
                        class="cls-9" transform="translate(30 6)" />
                    <path
                        d="M152 213l2-1h2l-3 2a6 6 0 003-1c-1 0 1 0 0 0l2-1h-1l2-1c-1 0 1-2-2 0l1-1-4 1h1zM164 210zM152 221l-3 2-1-1a3 3 0 011-1h-2a4 4 0 012-1l1-1 4-2-4 2 2-1-1 1h1l-2 1 3-1 6-3a21 21 0 00-4 3h-2l-3 2h2-1l2-1-1 1s1 0 0 0zm0 0c-1 0-1 1 0 0zM196 213v1a1 1 0 000-1zM189 204zM199 198h1a4 4 0 00-1 0zM196 212v1zM195 205l-1 1a4 4 0 001-1zM199 198zM197 197h-1a2 2 0 001 0zM189 203zM193 197zM191 201l-1 1a3 3 0 001-1z"
                        class="cls-9" transform="translate(30 6)" />
                    <path d="M219 227z" class="cls-9" />
                    <path
                        d="M193 218h1-1zM192 210a16 16 0 01-1 1l1-1zM175 236l1-1a7 7 0 00-1 1zM176 235zM170 228a3 3 0 001 0h-1zM193 218l2-2 2-1 2-2h-1l1-1 2-2-4 4c0-1 1-1 0 0l-1 1c1-1 0 0 0 0l-1 1-1 2h-1zM180 232zM157 222h-1a5 5 0 001 0zM157 223zM196 196zM157 223zM167 223l1-1a4 4 0 00-1 1zM169 220zM199 203s0 1 0 0zM157 223h-1 1zM177 217h-1zM176 218l-1 1 2-1a7 7 0 012-2v-1a7 7 0 01-2 2l2-2-1 1-1 1-1 1zM175 219zM174 223a3 3 0 000-1zM168 210c-1 0-2 1 0 0zM184 220v-1 1zM180 215a7 7 0 00-1 1 7 7 0 001-1zM181 222l-1 2a10 10 0 001-1v-1zM181 223z"
                        class="cls-9" transform="translate(30 6)" />
                    <path
                        d="M169 209h-1 1v-1l-4 2h-1 1c1-1 4-3 1-2l1 1-4 1 3-1c-2 0 2-2-1-1l5-3-4 2c-1 1 1 0 0 0l-3 1v-1a35 35 0 004-3l-5 2h3l-4 2 1-2 3-2h-1s3-1 1-1h-2a20 20 0 013-1l-5 1 1-1a24 24 0 004-1h-1l3-2c2-1-3 2 0 0a15 15 0 00-3 2l1-1h-2l-1 1-2 1c4-2-1-1 3-3h-3a9 9 0 012-1h-3l2-1c-2 1 1-1 0-1a6 6 0 001 0 10 10 0 01-2 0h1c1-1-4 0-4-1l4-1a13 13 0 01-3 0 10 10 0 012 0c2-2-5 0-4-1l5-1h2l2-1c2 0-2 0 0 0a8 8 0 002-1l-1 1 5-1h-2v1l1-1h2l-3 2 4-2-2 1h3a17 17 0 00-2 1c-1 1 2 0 0 1a50 50 0 015-1l-4 1-2 1 2-1-1 1 2-1h1l2-1h-1a17 17 0 002-1l1 1h-2v1h-1v1l5-2c2-1-2 2 1 1l-3 1h1l-3 1h2l2-1 2-1a10 10 0 00-2 1h1l-2 1 4-1-4 2-2 1-2 1 1-1h2l6-2-4 2h2v-1h1l-1 1 2-1-1 1 2-1-2 1 3-1-2 2 2-1a15 15 0 00-2 1h1l5-2v-1l-2 1h1l4-2 2-2h-1l-2 2v-1a9 9 0 01-2 2c2-2-1 0-1 0l-1 1 3-2c-3 1-1-1-3 1l-2 1 4-3-3 2 3-2h2l-2 1a25 25 0 012-1v-1l5-2a29 29 0 00-3 2 7 7 0 001 0l2-2-1 1h1l-4 3 3-2-3 2 1-1a18 18 0 013-1 11 11 0 01-1 1h-1a31 31 0 01-4 2v1h-1l-3 2 1-1-1 1a9 9 0 00-2 1l7-3-2 1 2-1-3 2h1-1 1l-6 4 1-1a6 6 0 012-1c-2 1 0 0 0 1h-1 1l5-3a13 13 0 012-2l1-1a15 15 0 00-3 2c-1 1 1 0 0 0l-1 1 1-1h-1a20 20 0 013-1v-1l-2 1a22 22 0 012-1l2-1 1-1h1-1l-2 2 2-1a33 33 0 00-2 2l1-1-2 1-1 2s8-6 5-3l-1 1h1l-2 2a37 37 0 00-4 2 28 28 0 003-2l-1 1v-1a11 11 0 01-1 1l1-1-3 2 4-3 2-1-2 1v-1h1l-3 2v1l-4 2-6 4 2-1 2-1 1-1-1 1v1a15 15 0 00-2 1 6 6 0 01-1 1 25 25 0 013-2 15 15 0 01-3 3l5-3-2 1 6-5-4 3-2 1 1-1h1l2-2h1c2-2-2 1-1 0h2l2-3c1 0-3 3 0 1l-1 1 3-2c-1 1 0 0 0 0v1-1c-1 2 0 0 0 0l-2 2-2 1 3-2-2 2 1-1a22 22 0 01-4 3l1-1-2 1h1l-2 1v1l9-7v1h-1 1l-3 2 2-1-2 1a5 5 0 001 0c0-1-3 1 0-1l1-1-2 1-2 2h0a54 54 0 00-6 5l4-3a25 25 0 012-1h1l-2 1 2-2-1 2a37 37 0 003-2h-1l2-1 1-2-2 2 2-2-1 3-4 3 2-2 1-1-1 1-3 1c-2 3 1 1 0 2a6 6 0 00-1 0h1l-2 2 1-1-1 1 2-1s-1 1 0 0l1-1 1-1 2-2-2 3 1-1h0v-1a24 24 0 012-1c1-1 0 0 0 0l-4 3-1 1a15 15 0 00-2 2l2-1-3 2v1l3-2c-2 2 0 0 1 0l1-1a41 41 0 003-3l-2 2 2-1s-3 3-1 2l1-1-1 1c2-1-1 2 1 0a8 8 0 01-2 2l-1 1a15 15 0 012-2h-1l-1 1-3 3 2-1a27 27 0 00-2 2l-1 1 1-2v1l4-3 4-4-2 2-4 4-3 3 2-2h-1 1c-1 2 1-1 0 0a16 16 0 012-2l3-2a29 29 0 01-3 2l3-3h1a30 30 0 00-4 4 10 10 0 00-2 2l1-1a5 5 0 000 1l2-2-3 3-1 2-1 1-1 1-1 1a5 5 0 00-2 1h1a16 16 0 01-2 2l1-1-2 1 1-1-2 1h1l-4 3h-1c0 1 0 0 0 0l-2 2a4 4 0 00-1 1l2-2v1a16 16 0 013-3l-1 2c-1 0 0-1 0 0l-3 2 3-1v-1 1h-1v2l2-3c1-1 1 1 1 1-2 2-1 0-2 0l-2 3c-1 0 0 0 0 0l-4 3 1-1c0-1 0-1 0 0-1 0 0 0 0 0a14 14 0 01-2 1l-1 1c0 1 0 1 0 0l2-2v-1l-3 3q-1 2 0 0l1-1v-1l-4 4c1-1 0 0 0 0h-1l5-5-4 4v-1l-2 1h1l-2 1 2-2-2 1c2-2-1 0 0-1l2-2s-1 1 0 0a6 6 0 001-1l1-1h1l1-2h-1c1-1 0 0-1-1-4 4-2 1-5 3l4-4 2-1a18 18 0 01-2 2l3-3-4 3h-1l-2 2v-1l-2 1 5-4-4 2 2-2c-1 0-7 5-4 2l1-1h-2l7-7a14 14 0 01-1 1s0-1 0 0l-3 2-5 3 2-1h-1a7 7 0 012-1l3-3-1 1 2-1h-2l4-2a19 19 0 005-3l-4 2 1-1-3 2a4 4 0 001-1l-6 3c3-1-1 2 1 1a16 16 0 00-4 2l2-1h-2 1c-1 0 2-2-1-1h1-1l-3 2a14 14 0 012-2l-2 1 3-2h-2a5 5 0 01-1 1l1-1-2 1a8 8 0 013-2h-1 1c-1 0 4-3 2-3l1-1-3 3-1 1-1 1v-1l-2 1 3-2a34 34 0 01-4 2c-2 2 2-1 0 0l2-1-3 1 6-3h1l1-2 3-1c1-2-3 1-3 1l-1 1-2 1v-1c1-1 0 0 0 0l-7 4 1-1 15-9 1-2 4-2-1 1-2 1h2c3-2-1-1 1-2h1l1-2-1 1-4 2h-1zm-7-15l1-1a7 7 0 01-1 1zm16 15l1-2-7 5h-1v1l8-5c1-1 0 0 0 0zm-6 5l1-1a8 8 0 01-1 1zm2-2zm-1-3v-1 1zm-2 1l1-1h1l-2 1zm-4 5l4-3a3 3 0 001 0v-1l-1 1a12 12 0 01-2 1l-2 1v1zm16 9l-1 1-1 1c0-1 2-4 0-2l3-2a1 1 0 01-1 0c4-3-3 4 0 2zm1-5v-1l-5 3a23 23 0 00-3 3l-1 1 1-1-2 1-1 2 3-2 1-1h1c1-1 2-2 0-1l3-2v1l-2 2 1-1-2 2-2 2c3-2-1 2 1 0l-2 1a34 34 0 005-3l-3 1 4-2v-1a12 12 0 002-1l1-1v-1l1-1-1 1v-1h1-1zm-3-8l-5 5-1 1c-2 2 4-2 1 0l-4 3h1l-1 1-2 1c1 0 1-1 0 0l2-3-3 3v1l-3 2a12 12 0 00-3 2l2-1v1l1-1 1-1a13 13 0 01-2 1l3-1c1-1-2 0 1-2v1l3-3v1l2-2-1 2 2-1 1-1-1 1 2-1a17 17 0 00-3 2v1a4 4 0 00-1 0l3-2 3-3h2a18 18 0 00-2 1l-1 1 3-2-1 1-1 1h1a12 12 0 012-2h1v-2c1-1-3 2 0-1l2-1h-2 1-1 1l-4 2a17 17 0 01-2 2l1-2h1a29 29 0 003-3 5 5 0 001-1 11 11 0 00-2 2s3-3 0-2l2-1-2 1 2-1-4 1 2-1zm-2 1h-1l-2 1a12 12 0 01-3 2l2-1c1-1 2-2-1 0l-1 1-2 1a18 18 0 004-3h-1l-3 2s0 1 0 0a4 4 0 001-1 22 22 0 002-1h-1l-1 1-2 1c2-1 0 0 0 0l-1 1h-1c-1 1 0 1 1 1l1-1-2 2 3-1-1 1 4-3s-1 1 0 0h1l1-1 3-2zm12-14z"
                        class="cls-9" transform="translate(30 6)" />
                    <path d="M190 221a9 9 0 001-1l-1 1zM189 223a5 5 0 010-1zM181 231l1-1-3 4 3-2c1-2 1-3-1-1z"
                        class="cls-9" transform="translate(30 6)" />
                    <path d="M207 241l1-1-1 1z" class="cls-9" />
                    <path
                        d="M200 207c1-1 0 0 0 0s-1 0 0 0zM188 187l-2-1a5 5 0 002 1zM191 210l4-2c2-2-3 3-2 0zM199 203l-3 3 1-1z"
                        class="cls-9" transform="translate(30 6)" />
                    <path d="M200 238h-1 1zM227 210v-1 1z" class="cls-9" />
                    <path d="M198 203l-1 1z" class="cls-9" transform="translate(30 6)" />
                    <path d="M196 241h1-1z" class="cls-9" />
                    <path d="M175 225h0z" class="cls-9" transform="translate(30 6)" />
                    <path d="M227 208l-1 1h1v-1z" class="cls-9" />
                    <path
                        d="M169 229l-1 1 1-1zM177 219zM177 219c1 0 0 1 0 0 1 0 1 0 0 0zM177 219c-1 0-1 0 0 0a4 4 0 000-1h1-1v1zM200 197a9 9 0 01-2 1l2-1zM200 197z"
                        class="cls-9" transform="translate(30 6)" />
                    <path d="M195 235l-2 2v-1l2-1z" class="cls-9" />
                    <path d="M200 196v0zM178 214v1s2-2 0-1zM195 199a19 19 0 01-2 2l2-2z" class="cls-9"
                        transform="translate(30 6)" />
                    <path d="M208 219l-1 1 1-1z" class="cls-9" />
                    <path
                        d="M161 228l5-4-2 1a17 17 0 01-3 3zM164 225zM171 216zM162 225l2-1-4 2 2-1zM198 195l1-1-1 1zM199 194s1 0 0 0zM172 216h0z"
                        class="cls-9" transform="translate(30 6)" />
                    <path d="M225 202zM228 199h-1 1z" class="cls-9" />
                    <path
                        d="M157 223l2-1h-1zM193 192h-1a11 11 0 00-2 1l3-2a27 27 0 01-5 3h2a17 17 0 012-1l1-1a16 16 0 013-1v-1h1l1-1-2 1a15 15 0 011-1 8 8 0 00-1 1l-1-1h0l-1-1-1 1-2 1h-1l-3 2 3-1-2 1c1 0-3 2 1 0l-2 1h2-1 2l-2 1 1-1a20 20 0 01-2 1l3-1a13 13 0 003-1zM190 194zM194 188z"
                        class="cls-9" transform="translate(30 6)" />
                    <path d="M194 192a22 22 0 012-1l-2 1zM198 190h-2v1a11 11 0 002-1z" class="cls-9"
                        transform="translate(30 6)" />
                    <path d="M190 217h-1 1z" class="cls-9" />
                    <path d="M163 209c-1 0-1 0 0 0z" class="cls-9" transform="translate(30 6)" />
                    <path d="M181 221h-1 1z" class="cls-9" />
                    <path
                        d="M186 191zM189 191l4-2h-1 1v-1l-3 2 3-2-2-1-4 2c0 1-1 2 2 0l-2 1 2-1h2l-2 1a20 20 0 01-3 1h3zM186 188zM186 188l2-1-2 1h1z"
                        class="cls-9" transform="translate(30 6)" />
                    <path d="M190 187a28 28 0 00-4 1c-1 1 2-1 0 0s-1 1 0 0z" class="cls-9"
                        transform="translate(30 6)" />
                    <path d="M219 194h-1 1z" class="cls-9" />
                    <path d="M188 188l-1 1zM189 188a1 1 0 000-1zM189 188z" class="cls-9" transform="translate(30 6)" />
                    <path d="M188 188l3-1-2 1z" class="cls-9" transform="translate(30 6)" />
                    <path d="M182 218l-1 1 1-1z" class="cls-9" />
                    <path
                        d="M153 211zM143 215l3-1 2-1a12 12 0 00-2 1 11 11 0 003-1l4-2h-2l-9 4c-1 1-1 2 1 0zM140 218c1-1 0 0 0 0zM164 202a17 17 0 00-2 1h1a8 8 0 011-1zM163 203zM165 202h-1a2 2 0 001 0zM190 187c1 0 0 0 0 0s-1 0 0 0zM185 186l1-1a5 5 0 00-1 1zM158 194l-1 1zM157 195l-1-1 1 1z"
                        class="cls-9" transform="translate(30 6)" />
                    <path
                        d="M148 181zM144 174zM143 188zM138 163h1a1 1 0 00-1 0zM150 165s-1 0 0 0zM142 192v-1 1zM142 195zM145 193zM145 193zM155 136a2 2 0 000-1zM154 149zM154 134zM139 188l1-1-1 1zM151 149h-1a1 1 0 001 0zM154 134zM143 156v1zM144 156zM155 135h1a1 1 0 00-1 0zM153 139h1a2 2 0 00-1 0zM149 166z"
                        class="cls-10" transform="translate(30 6)" />
                    <path d="M178 167z" class="cls-10" />
                    <path d="M149 161a1 1 0 00-1 1 1 1 0 001-1zM147 162zM144 164zM145 161h0z" class="cls-10"
                        transform="translate(30 6)" />
                    <path d="M173 172z" class="cls-10" />
                    <path
                        d="M144 150l-4 7a4 4 0 010 2l-1-1v1s-1 2-1 0l-1 3-1 4h-1 1v1l4 3v-1l2-1v-1h1l1-1a4 4 0 011-1l-1 1 1-1h-1l1-1v1l1-1 1-1v-1c0 1 0 0 0 0l1-1v0c0-1 0 0 0 0h1l1-1v1h1v-1l-3-3 3 3-3-3-1 1s0-1 0 0v1h-1l-1 2 1-2v1a10 10 0 010 1l-1 2v-1 1c-1 0 0 0 0 0l-1 1v1 2h-1 1-1c-1 1 0 0 0 0l-1 1h1a5 5 0 01-1 1v2h-1v1a2 2 0 01-1 1c0 1 0 0 0 0l-1 2s-1 0 0 0c-1 0 0 0 0 0l-1 1a9 9 0 00-2 2l1-1-1 3h1c-1 0-1 0 0 0a7 7 0 00-2 2 2 2 0 00-1 0v1l2-1h1a19 19 0 012-1l2-1h4-1l1-1c1 0 0 0 0 0h-1l1 1h-1l-1 2v2h-1 1l-1 1a5 5 0 000 1l-1 1h-1a6 6 0 001-2h-1v2l-1 1v-1h1v2l-1 1s0-1 0 0a6 6 0 01-1 1h1s-1 0 0 0h1-2 3c-1 0-1 0 0 0h1a1 1 0 011 0v1h1a10 10 0 012 1c1 0 0 0 0 0l-1-2-1 2h-1s1 0 0 0l-1 1-1 1h-1 1l-1 1h2v-1l1-1v1-1h1l-1 1 1-2h1l1-1a6 6 0 000 1v-1l1-1c-1 0-1 0 0 0a4 4 0 00-1 0l-1-1a13 13 0 01-2 0h1-2l1-1h-1a1 1 0 011 0h-1l1-1c0 1 0 0 0 0a2 2 0 001-1h-1 1l1-2v1a8 8 0 001-3h1v-1l1-1v-1a2 2 0 000-2 2 2 0 00-1-1h-1v-1a3 3 0 00-1 0v0a1 1 0 00-1 0c0 1 1 0 0 0a2 2 0 01-1 1h1-1a9 9 0 00-1 0h1-1v-1h1v-1h1c-1 0 0 0 0 0l1-1a4 4 0 01-1 0h1-1 1v-1l1-1a7 7 0 001-2v-1l1 1v-2 1a9 9 0 011-3 11 11 0 011-1v-1 1l1-2s-1 0 0 0v-2 1l1-1v-2h1l2-8-6 5h-1s1 0 0 0h-1v1-1a1 1 0 000 1h-1l-3 2-1 1a18 18 0 00-2 2l-2 1-1 1v1h-1l-1 1 6 4a2 2 0 010-1v1l1-1v-2h1l1-3h1-1l3-4 3-4a4 4 0 010-2 15 15 0 012-3l1-1v-1h1v-1-1a2 2 0 000-1h1a6 6 0 00-1-3l-1-4-4 2-1 1h0c-1 0 0 0 0 0a2 2 0 01-1 1h-1v1h-1l-1 1-1 1h-1a1 1 0 010 1h-1v1l-6 5-2 2-20 22 25-16v-1h1-1a3 3 0 011 0 14 14 0 004-4l1-1v1l2-2 1-2 1-1 2-1v-1l3-3a30 30 0 013-4l2-2v-1l1-1a20 20 0 01-2 0 3 3 0 00-1 0l-3 1a13 13 0 00-2 0h-1a2 2 0 01-1 1 4 4 0 01-1-1l-6 1-3 1-2 1h-4l3 8 11-8 8-6v-1h1l-1-1c0-1 0 0 0 0a1 1 0 01-1 0l-1 1h1-1s0-1 0 0c-1 0 0 0 0 0h-2l-1 1v-1l-1 1-1 1h-1c-1 0 0 0 0 0l-1 1v-1l-5 2c-1 0 0 0 0 0l-3 1-6 3a2 2 0 010 1l-11 11 13-6h0a19 19 0 004 0h3-1v1h-1a6 6 0 000 1v-1l-1 1-2 1 1 1h-1l-2 1v1l4 5a6 6 0 011-1l2-1a31 31 0 013-4h1l1-1h-1l1-1v1l3-3h1v-1h1a7 7 0 012-2l-4-2a2 2 0 01-1 0h-1v1l-1 1h1a14 14 0 00-2 2l-1 1zM144 164v-1zM146 164zM143 167zM141 172zM141 185z"
                        class="cls-10" transform="translate(30 6)" />
                    <path d="M142 184a1 1 0 001-1l-1 1zM144 167v-1 1zM143 183zM141 185zM136 182c-1 0 0 0 0 0z"
                        class="cls-10" transform="translate(30 6)" />
                    <path d="M173 187z" class="cls-10" />
                    <path d="M140 187h-1 1zM143 180a1 1 0 001 0h-1z" class="cls-10" transform="translate(30 6)" />
                </g>
                <path
                    d="M132 225h47c0-6 4-12 2-17-12-7-27-7-40-6-16-1-16 24-10 22M118 106c23-6 46-2 70-1 2 0 5-1 4-4 0-6 1-13-3-18-23-1-47 1-69 2-3 2-8 19-3 19"
                    class="cls-11" transform="translate(30 6)" />
                <g id="_6BwcLP.tif" data-name="6BwcLP.tif">
                    <path
                        d="M90 253c-3-1-4-4-3-7a28 28 0 019-17 59 59 0 01-8-3 27 27 0 01-5-4 31 31 0 01-6-8c-3-5-3-11-3-16l1-15 3-30 1-12c2-9 2-19 3-29 1-7 5-12 10-16a31 31 0 0120-7 1 1 0 001-1c3-7 8-10 15-10h12c-2-5-3-10 0-14 3-7 10-10 18-9 7 1 12 5 14 12 1 3 0 6-1 8l-1 3h10c7 0 13 2 16 9l5 3a30 30 0 0121 10 26 26 0 016 12c2 6 2 13 2 20l2 24 4 40 1 4a25 25 0 01-4 15 28 28 0 01-17 13l-1 1h-1l7 8a21 21 0 013 13l-3 3h-48a3 3 0 000-1c-2 0-3-2-3-3a3 3 0 013-4 8 8 0 013 0h37c1 0 2 0 1-2a18 18 0 00-5-8 23 23 0 00-16-5h-75a31 31 0 00-5 0c-8 1-16 7-17 15h38a20 20 0 013 0 4 4 0 012 6l-2 2zm95-36a43 43 0 0012-14 48 48 0 005-21 55 55 0 00-6-28 124 124 0 00-7-11l-4-5a70 70 0 01-10-19l-3-9a1 1 0 00-2-1h-30l-1 1a65 65 0 01-8 19l-7 11-4 6a52 52 0 00-9 17c-4 13-4 25 2 38a52 52 0 006 10l6 6c0-11 6-16 15-18-3-5-2-10 0-15a97 97 0 016-10l5-8c3-3 6-3 8 0l5 6 8 16v5a21 21 0 01-1 4c-1 2-1 2 1 2 7 1 14 8 13 16v2zm-68 5a1 1 0 000-1l-6-7a54 54 0 01-7-13c-3-6-4-12-4-19a31 31 0 010-9c1-6 2-12 5-17a95 95 0 017-13l12-18a59 59 0 006-15l-1-1h-12c-3 0-4-2-4-5v-6l-2-1a26 26 0 00-7 1 20 20 0 00-13 17l-3 30-4 41-1 13c0 4-1 9 2 13a21 21 0 0011 9c7 2 14 0 21 1zm76 0h18a21 21 0 0014-9 16 16 0 003-11l-1-17-3-26-1-11-3-30c0-5-1-10-5-14a23 23 0 00-16-7l-1 1v6c0 3-1 5-5 5h-11l-1 1a75 75 0 004 11c3 7 7 12 11 18l4 6a55 55 0 019 19c3 13 3 25-2 37l-6 11a5 5 0 010 1l-8 9zm-38-121a6878 6878 0 0135-2 25 25 0 010-5 8 8 0 00-9-8h-51c-5 0-9 3-9 8a30 30 0 010 5l2 2h32zm0 121h20l2-2a33 33 0 010-5 9 9 0 00-9-8h-25c-6 0-9 3-9 8v5c0 2 1 2 2 2h19zm0-23c6-1 10-5 8-11l-6-12a1 1 0 00-1 0h-2l-6 11a7 7 0 00-1 5 9 9 0 008 7zm0-121c5 0 9-4 9-8s-4-8-9-8c-4 0-8 4-8 8s4 8 8 8z"
                        transform="translate(30 6)" />
                    <path d="M154 253l-3-3c-1-2 0-3 2-4a4 4 0 016 1 4 4 0 01-1 5l-1 1z" transform="translate(30 6)" />
                </g>
                <path fill="#ffd13d" d="M169 189c-4 9-21 18-26 6 1-14 12-26 11-41 1 12 20 27 15 35"
                    transform="translate(30 6)" />
                <path
                    d="M167 187a14 14 0 01-1 2l-1 1s0 1 0 0a21 21 0 01-3 3l-1 1s1 0 0 0l-2 1-2 1v1h-1a16 16 0 01-2 1h-1c-1 0 1 0 0 0h-2s-1 0 0 0h-1a9 9 0 01-1-1c1 1 0 0 0 0h-1v-1h-1v-1a19 19 0 01-1-2v2c0-7 4-13 6-20 3-6 5-13 5-20h-6c1 6 4 11 7 15l5 7a53 53 0 013 5v1s0-1 0 0a15 15 0 011 2v1c0-1 0 0 0 0v1s0-1 0 0c-1 1 0 0 0 0l-1 1c-2 3 4 6 6 3 2-5 0-10-3-15l-9-14-1-3-1-1c0-1 0 0 0 0a18 18 0 01-1-4c-1-4-7-3-6 1 1 12-8 23-10 35a28 28 0 00-1 5 8 8 0 002 4 12 12 0 006 4c4 2 9 0 13-2s9-6 11-11a3 3 0 00-1-4l-4 1z"
                    transform="translate(30 6)" />
                <path fill="#fff9de"
                    d="M138 116l-3 8h2v-1a4 4 0 011 0l-3-1a26 26 0 01-1 3h3a2 2 0 00-2-1 2 2 0 00-1 1 2 2 0 000 1 1 1 0 001 1 2 2 0 002-1 29 29 0 001-3 2 2 0 00-2-2 2 2 0 00-1 1 5 5 0 00-1 3 2 2 0 003 0l4-9a2 2 0 00-1-2 2 2 0 00-2 1z"
                    transform="translate(30 6)" />
            </g>
        </g>
    </g>
</svg>