<svg xmlns="http://www.w3.org/2000/svg" viewBox="7 0 324 320">
    <defs>
        <style>
            .cls-11 {
                fill: #f26b3b
            }
        </style>
    </defs>
    <g style="isolation:isolate">
        <g id="圖層_2" data-name="圖層 2">
            <g id="圖層_1-2" data-name="圖層 1">
                <path fill="#fefef1" d="M297 153c-3 186-281 186-284 0 3-187 281-187 284 0z" />
                <path fill="none" stroke="#27507a" stroke-miterlimit="10" stroke-width="15"
                    d="M297 153c-3 186-281 186-284 0 3-187 281-187 284 0z" />
                <path fill="#fd903c" stroke="#000" stroke-miterlimit="10" stroke-width="2"
                    d="M163 118l91 90c4 10-16 29-25 25-2 0-3-1-5-5-12-20-18-31-25-40-22-21-65-67-94-94-6-3 1-13 2-14 7-8 15-8 16-8 14 13 27 31 40 46z" />
                <path fill="#fc7500"
                    d="M239 227c-3 3-7 5-11 2s-5-8-6-12l-3-9a23 23 0 00-2-3 294 294 0 00-15-20c-18-22-38-42-58-62l-36-35c-2-1-4 1-2 3l64 62a475 475 0 0143 52 45 45 0 013 4 26 26 0 011 5l2 4c1 5 3 10 8 14 4 3 10 1 14-2 1-1 0-4-2-3z" />
                <path fill="#ff8564" stroke="#000" stroke-miterlimit="10" stroke-width="8"
                    d="M164 117l91 91c3 10-16 28-26 25l-5-5c-11-20-17-31-25-40-21-22-65-67-94-94-6-3 2-13 3-14 7-8 15-9 16-8 13 13 27 31 40 45z" />
                <path fill="#dfecf6" stroke="#000" stroke-miterlimit="10" stroke-width="2"
                    d="M152 134a73 73 0 00-15 61c-30 6-75-18-81-56 30-14 71-34 84-58 1-2 4-8 7-7 12 12 31 28 31 27 3 1 6 3 2 5l-28 28z" />
                <path
                    d="M134 174l-17-5h1l-1-1h-1l-2-1-5-2a109 109 0 01-12-8c-1 0 0 0 0 0a5 5 0 00-1 0l-2-2a5 5 0 00-6 7 73 73 0 0015 10 123 123 0 0019 8 54 54 0 0010 2c2 1 5 0 5-3 1-2-1-5-3-5zM71 146l6 7a3 3 0 002 1 3 3 0 001 0 5 5 0 004-1 5 5 0 001-3v-2a4 4 0 00-1-2l-6-6a3 3 0 00-2-1 3 3 0 00-1-1 5 5 0 00-5 5v1a5 5 0 001 2z" />
                <path fill="#b9d5ea"
                    d="M169 103l-25 33c-8 10-15 22-17 34a53 53 0 002 23c1 4 7 2 6-2a47 47 0 01-2-18 56 56 0 015-17c6-11 14-21 22-31l15-19a3 3 0 00-2-4 3 3 0 00-4 1z" />
                <path fill="none" stroke="#000" stroke-miterlimit="10" stroke-width="8"
                    d="M151 134a73 73 0 00-15 60c-30 7-75-18-81-55 30-14 71-34 83-59 1-1 4-7 8-7 12 12 31 29 31 27 2 1 6 4 2 6-3 1-11 8-28 28z" />
                <path
                    d="M181 153zM180 152a2 2 0 011 1c-1 0-2 0-1-1zM180 155v-1 1zM180 154zM200 167a2 2 0 011-1zM200 169zM199 166h0zM190 159v-1 1zM199 177l1-1-1 1zM196 173zM198 166c1 0 1 0 0 0zM200 178a4 4 0 010 1 1 1 0 010-1zM200 169zM195 171a2 2 0 010 1v-1zM190 159zM182 153v1a1 1 0 010-1zM223 189zM220 184a1 1 0 010-1v1z"
                    class="cls-11" />
                <path
                    d="M211 186v1h1v1l1-1v1l1 1h1l1 1 1-1v1l1-1c-1 0 0-1 0 0v1h3v-1h1v1l1-2 1 1v-2l1 1 1-1-1-2v1l-1-1v0l-1 1-1-1v-1l-1 1-1-1h-1v-1l-1 2v-2 1c0-1-2 1-2-1h1c0-1 0-1 0 0l-1-2a5 5 0 010 1l-1-2v0h-2l-1-1-1 1s1 0 0 0l2-2h-1 1l-1 1-1-1h1l-2-1h-1-1c0-1 0 1 0 0h-1v-1l-2-2 1-2 1 1c1-2-2 0-1-2l-1 1 1-1h-1v1l-1 1h-1l1-2v-1l-1-1a3 3 0 01-1 2h-1c0 2 2-1 2 0l-1 2a5 5 0 00-1 0v-2l1-2v-1 1h-1-1a1 1 0 01-1 0l1-2v-1l-1 1h-1v-2l-1 1v-2 1h-1l1-1h-1a5 5 0 010-1v1l-1-1v1c-2 1-2-2-2-2l1-1-1-1h-1v1 0l1-1-1 2h-1v-2l-1 1 1-3v1h-1v2c-2 0-1-2-1-2l-1-2v1l-1-1v1c-2 0-2-2-3-3a1 1 0 010 2v-1 1l-1-1h1v-2l-1 1h-1 1l-1-1v-1l-1 1h1-1l1 2c1-1 0 1 1 1a1 1 0 00-1 0l3 2v1-1 1h1v-1 2l2 3c0 1 2 0 1 1a3 3 0 001-1 2 2 0 000 1l1 3 1-1a1 1 0 001 2 2 2 0 000-1v1l1 2 1-1a3 3 0 010 1l1 1v-1l1 1v2l1-1-1 2h1-1c2 0 0 1 1 1v1h1v-1h1v2h1l-1 1h1v-1l1 2h1l2 1a5 5 0 00-3 0l2 1 1-1v1h1v1c3-1 2 3 3 3h1-1 1v1l1-1zm-10-8l-1-1 1 1s0-1 0 0zm-14-17c-1 0 0 0 0 0zm17 13l1-1v1zm3 2v-1 1zm0 5v1c-1 1 0 0 0 0zm-5-3v-1 1zm-5-6zm-1-1v-2l-1 2h1zm9 8v-1 1s1-1 0 0zm-11-11l1-1-1 1zm1-1v2-1-1zm-1 2h1-1zm-3-3v0c1 0 1 0 0 0zm2 2l1 1-1-1zm-1-2h1-1zm-7-9v1zm3 2v1-1zm3 3a2 2 0 00-1 0v1c-1 0 0-2-1-1v-1a1 1 0 002 1zm3 3a1 1 0 010 1v-1zm1 0v-1 1zm0 0v1-1l1 1zm5 6l1-2c-1 1-2 1-1 2-1 0 0-2-1-1v1h1zm3 3zm9 6h1-1zm4 3h-1 1c0 1 0 0 0 0zm2 3l1-1zm1-1v-1zm3 1l-1 1zm-1 1v-2l-1 1v0l1 1a1 1 0 00-1 0 1 1 0 001 0zm-2-1l1-1-1 1zm1 2zm-8-6v-1h1v1h-1zm-9-7v-1 1zm-1 0v-1c1 0 0 0 0 0v1zm5 4v1zm3 3v1zm4 5h1-1zm-6-5v-1c1-1 0 0 0 0v1zm6 6c1-1 0 0 0 0 0 1 0 0 0 0zm-5-3zM219 183v0zM204 171zM204 170zM183 153c0-1 0 0 0 0zM183 154z"
                    class="cls-11" />
                <path
                    d="M182 154a1 1 0 011 0h-1zM185 156c1 0 0 0 0 0l1-1-1 1zM186 157zM186 157v0zM194 160zM194 162v1zM190 165zM195 163l1-1a1 1 0 01-1 1zM197 163zM198 165v-1 1zM209 176h-2 2zM218 183h-1 1z"
                    class="cls-11" />
            </g>
        </g>
    </g>
</svg>