<svg xmlns="http://www.w3.org/2000/svg" viewBox="7 0 334 320"><defs><style>.cls-15{fill:none}.cls-12,.cls-13,.cls-15{stroke-miterlimit:10}.cls-5{fill:#ffb42a}.cls-6{fill:#ffbc41}.cls-7{fill:#ffd13d}.cls-8{fill:#ffd652}.cls-12{fill:#2e4a60}.cls-12,.cls-13,.cls-15{stroke:#000}.cls-12{stroke-width:6px}.cls-13{fill:#ccc}.cls-13,.cls-15{stroke-width:7px}.cls-14{fill:#797979}.cls-16{fill:#fff}.cls-17{fill:#2e4a70}</style></defs><g style="isolation:isolate"><g id="圖層_2" data-name="圖層 2"><g id="圖層_1-2" data-name="圖層 1"><path fill="#fdfcef" d="M297 153c-3 186-280 186-284 0 4-187 281-187 284 0z"/><path fill="none" stroke="#27507a" stroke-miterlimit="10" stroke-width="15" d="M297 153c-3 186-280 186-284 0 4-187 281-187 284 0z"/><path d="M114 103c14-22 32-42 54-56 1 12 12 23 25 26 3 1 7 1 9 4 3 5 0 12-1 18a4 4 0 01-4 4 599 599 0 01-81 5c-1 0-4-1-3-2" class="cls-5"/><path d="M117 105v-1 1zM113 102a1 1 0 000 1 2 2 0 001 1 9 9 0 002 0 4 4 0 011 0h-1a5 5 0 01-3 0 2 2 0 01-1-1 1 1 0 011-1zM118 106h-2-1a4 4 0 011 0h2zM117 105h1-1zM200 83a1 1 0 01-1 0zM202 80a4 4 0 00-1-1 2 2 0 011 1zM200 87v-1a2 2 0 010 1zM161 101h-2 2zM187 67s0-1 0 0zM206 77a2 2 0 000-1zM200 90l-1 1 1-1zM183 63a2 2 0 010-1v1zM201 79zM207 85v-1a2 2 0 010 1zM161 101h1a1 1 0 01-1 0zM122 104h1a2 2 0 01-1 0zM117 102v0zM131 84z" class="cls-6"/><path d="M140 62l-3 3-1 1-4 4 1 1-3 1 2-1-5 6-1 1h1a19 19 0 00-3 4 21 21 0 01-3 4h1l-2 2c1 0 2-2 1 0v1h-1v2c-2 1 0-3-2-1a7 7 0 000 3 5 5 0 01-2 3c-1 3 2 0 0 3l2-2-1 2a4 4 0 00-2 1c3-2 0 3 2 1v1l-1 2c1-1 2-3 2-1l-1 1 1 1 4-4h-1c1-2 2-1 2-3l-1 1s1 0 0 0c0 1 0 1 0 0l1-2v-1l3-3h-1c0-2 1-3 2-3 1-2 0-4 3-4h-1l2-2a1 1 0 010-1l2-2h-2c0-2 2 0 3-2l-2 1c2-2 2-6 5-6l-1 1h2-1c1-3 4-3 6-5h-1c1-2 2 0 4-2h-1l1-1c-1-1 4-3 4-6l4-2c1-2-1 0-1-1l3-2c0 1-2 3 1 2v-1a3 3 0 01-1 1v-1l3-2c1 1-1 2-1 2a36 36 0 003-3l2-2 2-2h1a2 2 0 001-1 1 1 0 010-1v-1a1 1 0 010 1v1h1v6l1 1a5 5 0 001 2v-3a7 7 0 000 3 18 18 0 002 3l2 2a18 18 0 011 2c-1 0 0 2-1 1l-2-2 3 3c2 1 3 2 2 3h1v1l4 1-2-2-2-1 2-1c1 2 1 1 3 2v1l1 2a8 8 0 013 2 16 16 0 003 1 20 20 0 013 0s-2-1-1-2l2 1-2-1h-3a4 4 0 00-1-1l-1-1 1-1a3 3 0 001 1 6 6 0 002 1 14 14 0 014 1l1 1 1 2h-2 2v0l1 1a5 5 0 000-1 2 2 0 011 0v1a2 2 0 000-1l1 1s-1 0 0 0h1v1h1l-1 2a5 5 0 01-1 2l-1 2 1 1c0 1 1-1 1 2l-1 1v1a3 3 0 010 2v1h-1a3 3 0 010 1 3 3 0 000 1s0-1 0 0a3 3 0 01-3 1 2 2 0 001 0l1 1h-2v-1l-1 1-5-1v1h2c1 1-2 1-4 1l3 1c-4 2-10 1-14 1l2-1a30 30 0 00-5 0l-4 1h2-3 5l-2-1a7 7 0 016 2l-2 1a12 12 0 00-8-1l-2 1c-1-1-1-2-3-2l1 1a3 3 0 01-2 0l4 1c-2 2-5 0-7 0l1 1-9-1c-1 0 2 0 1 1h-3c1 1-3 0 0 1-5 1-11 0-16-1a1 1 0 010 1l5 1h-3l2 1-3-1c-3-1-1-2-5-1v1h-4 2l-4-1a1 1 0 001 1l-3-1-1 1h0c4 0 4 2 8 1h-1 6v1l12-1 2 1v-1c2-1 0 1 2 1l-1-1h3c-1-1-3 0-2-1l7 1h15v-1h5a3 3 0 002-1 13 13 0 003 0h-1 12c-2-1 0-2-1-2a6 6 0 004 1h2a9 9 0 004-1l-1-1a7 7 0 003-1h-1a10 10 0 003-5v-1h1v-1a5 5 0 000-2l-1 1 2-7h-1a12 12 0 011-2h-1v-6l-2-3a9 9 0 00-2-2 6 6 0 00-2-1h-1l-1-1-1-1h-2v-1a1 1 0 01-2 0 3 3 0 00-2-1v1c0-1-2-1 0-1l-2-1h-1l2 1h-3a6 6 0 00-1-1l-1-1a4 4 0 01-2-2h-1l1-1a19 19 0 01-2-1v2l-3-5-1-2a13 13 0 00-1-1 2 2 0 00-1-1v1a10 10 0 00-1-1v-2h-1a12 12 0 010-1 27 27 0 01-1-4l1 3 1 1v1a12 12 0 002 2 6 6 0 01-1-2v-1l-1-3v-2l-1-3a41 41 0 00-1-5c0 1 0 3-1 2a7 7 0 000-1 10 10 0 00-2 1h-1l-3 4-6 2-1 1v1l-1 1a17 17 0 01-2 1l-4 3-8 5h1l-2 1v1l-3 2a1 1 0 001 0zm42 1v1a1 1 0 011 0h-1v-1zm-24 43l1-1h-1v1zm20-39h-1zm-8-11v2l-1-2zm-8-10a4 4 0 00-2 2 2 2 0 01-1 0 3 3 0 011-1 6 6 0 012-1zm16 15l1 1v-1 2a2 2 0 00-1-1v-1zm28 17l-1-1v2a9 9 0 001-1zm0 7l-2 4c1 0 2-1 2-3v-1zm-34-32v1h-1l1 1a3 3 0 01-1-2v-3 3h1zm30 45a5 5 0 01-2 1h-2l2 1a3 3 0 002-1v-1zm-1-1l1-1 1-2h1l-1 2a1 1 0 01-1 0v1a1 1 0 01-1 1 9 9 0 000-1zm3-1a11 11 0 000-1 5 5 0 000-2v-1 3a3 3 0 010 1zm-16 7h1zm13-3a6 6 0 002-2l-1 1a9 9 0 01-1 1zm-12 2h0zm-48 3h2-1zm16-2v1h-1zm15-1a1 1 0 011 1 1 1 0 01-1-1 3 3 0 00-2 1h2c-2 1-5-1-4 1l-2-1a18 18 0 006-1zm19-3a2 2 0 011 0l1 1-1-1a3 3 0 00-1 0zm4 0l-2-1 1 1-3-1 4 1zm0-1l1 1-1-1h2a8 8 0 001 0 7 7 0 01-1 0zm3-24v2l1 1h1l-1-2 2 1v1a6 6 0 001 0l-2-2a8 8 0 011 0l-1-1h-2zm-15-5l-2-1 2 1zm-30-10l-2 2 2-2zm-15 13l2-1-2 2v-1zm-9 11h-1 1zm1 0l2-1zm-7 10h1-1zm0-1c1 0 2 0 3-2l-1-1a3 3 0 00-1 2l1-1a3 3 0 01-2 2zm4-7a1 1 0 001 0 1 1 0 01-1 0v1h2l-2 1h1l-1 1v-2-1zm-7 7h2-2zm27-30l2-1v1l-2 1v-1zm31 3l2 3a9 9 0 01-1-1 8 8 0 01-1-1v-1zm4 2v1l1 1-1-2h-1a1 1 0 011 0zm-15-21a4 4 0 00-1 0l-2 1 3-1zm-15 9l-1 1 2-1h-1 1-2zm-21 19a2 2 0 01-1 1l1-1zm28-25c-2 2 1 1 0 2l1-1-2 1v-1h-1l2-1zm-29 26c-1 2-1 1-2 1l2-1zm19-20h-1z" class="cls-6"/><path d="M133 80a3 3 0 010 1 4 4 0 010-1zM183 73a1 1 0 011 0h-1zM186 75h1zM123 103h2-2zM128 104a3 3 0 00-2 0 2 2 0 012 0zM124 104a8 8 0 012 0 6 6 0 01-2 0zM140 104a4 4 0 00-2-1c3 0-1 0-1-1 2 0 2 1 3 2zM144 104a3 3 0 00-1 0 2 2 0 011 0zM145 103a3 3 0 012 1h-3l1-1zM175 98h0zM182 99l1-1v1zM182 104h-1 1zM188 97l-1-1 1 1zM193 96h-1 3-2zM198 96v-1a2 2 0 010 1zM167 52h1a5 5 0 000 2v-1l-1-1zM134 78l2-1-2 1z" class="cls-6"/><path d="M135 140c11 0 61-1 55-20-4-3-13 0-16-7-1-4 4-6 3-11-10-16-54-18-55 9-3 11-18 16-17 18s18-5 21-1c2 7-4 12 9 12z" class="cls-7"/><path d="M129 139a1 1 0 001 1l-1-1zM135 141l-5-1h3l2 1zM130 138a8 8 0 001 0h-1zM130 139a7 7 0 01-1 0 9 9 0 001 0zM146 88v-1zM151 89zM142 88h1a3 3 0 01-1 0zM109 124l-3 2 3-2zM167 99h0zM151 95a1 1 0 010-1 1 1 0 011 0zM139 89h-1 1zM171 103zM152 89h-1zM146 94zM109 124h1a4 4 0 01-1 0zM125 136a1 1 0 011-1 8 8 0 01-1 1zM136 142zM160 142z" class="cls-8"/><path d="M178 130h-4l1 1h-2 1c-2 1-5 2-6 1l1 1-3-1 2 1h-7v1h-1 1l-9 2c-2 0 0 0 0 0a3 3 0 01-2 0c0 1 2 0 1 1l-1 1-1-1-2 1c-2-1 2-2-1-2-1 0-2 3-5 2-2 1 1 2-2 2h2l-2 1a4 4 0 00-2-1c3 1-2 1 0 2h-1 1l-2 1c1 0 3 0 2 1h-2v1l6 1-1-1h3-1c1 0 1 0 0 0h2c2 0 1-1 1-1h5l-1-1a5 5 0 014 0l-1-1h8a1 1 0 010-1h3l-2-1c2-2 2 0 4 0 1-1-1 0-2-1 3 0 5-3 7-1l-1 1h2l-1-1c3-1 5 1 8-1h-1 4l-1-1h2v-1l2-1h1a9 9 0 001-1 3 3 0 001-2 4 4 0 001 0 9 9 0 002-1 10 10 0 001-1 4 4 0 000-2h-2l1-1a4 4 0 001-1 5 5 0 000-1v1a9 9 0 011 1 1 1 0 001 0 3 3 0 000-2v1a2 2 0 01-1 0v-1a12 12 0 000-4l1 1a8 8 0 000 2v-3h-1v-2h-1a46 46 0 00-5-2v1a6 6 0 00-1-1 2 2 0 00-1 0 2 2 0 00-1 1l-1-1-2 1c-1 0 0 0 0 0l-2-1-1-1a10 10 0 000 1 5 5 0 01-1-1 6 6 0 010-2 8 8 0 010-3l-1 2a9 9 0 011-2v-1l1-1a12 12 0 002-3 9 9 0 000-3h1l1 1a2 2 0 00-1 1v1a7 7 0 010 1 3 3 0 001-1 4 4 0 000-2v-2l-1-1a21 21 0 00-2-2 4 4 0 01-1-1h-1v-2h-1a15 15 0 00-2-1l2 2 1 1c0 2-1 0-1 1l-1-1a2 2 0 01-2-1l-1-3a4 4 0 01-1-1 7 7 0 01-2-1 14 14 0 00-2-1 18 18 0 01-4-1l2 2h-3l3 1h2l2 2-1 1-3-2-2-1a6 6 0 01-2 0c-1-1 0-2-2-3h2c-3 0 0-1-2-1a3 3 0 01-2 0l1 1-2-1a1 1 0 000 1l-2-1 1 1c-3-1-1 1-2 1h-1l-2-1a13 13 0 01-3-1l-3-1v1c-1 0 1 1-2 1h-1v1l-1-1a3 3 0 01-3 1 5 5 0 00-3 1h1a2 2 0 01-1 1 19 19 0 00-2 0 20 20 0 00-3 1h2c1 0 1 0 0 0l-2 2v-1l-1 1-5 3h1a1 1 0 011 0l1-1-1 1-1 1a7 7 0 000 2l1-1 1-1-3 6a14 14 0 00-1 2 11 11 0 000 2v1l-1 2v-2a1 1 0 00-1 0v2a10 10 0 01-1 1 3 3 0 01-1 2 2 2 0 000 1 2 2 0 00-1 0 1 1 0 001-1h1l-1 1a19 19 0 01-1 2 4 4 0 001-1 6 6 0 001-1l1-2-1 1h-1a10 10 0 012-2l2-2v2a19 19 0 00-3 3l-3 3a4 4 0 000 2l-3 1a7 7 0 00-4 2l2-1a1 1 0 010 1l3-2 2-1-2 2-2 1-2 1 2-1a39 39 0 01-4 3l-2 1a5 5 0 00-1 1 1 1 0 000 1 1 1 0 001 0c1 0 1 0 0 0v-1h2l1 1a4 4 0 011-1l1-1a30 30 0 017-1 20 20 0 013 0h2a7 7 0 011 1l1-1-4-1a1 1 0 011 0h1c-1 0-2 0-1-1h1a4 4 0 001 1 3 3 0 012 1 4 4 0 000 2 7 7 0 000 1c1 1 1-1 2-1a12 12 0 000 2v0a36 36 0 01-1 4 6 6 0 000 1 12 12 0 010 2 8 8 0 001 0 2 2 0 01-1-1 3 3 0 010-1 2 2 0 010-1l1 1a8 8 0 000 1 3 3 0 010-2 6 6 0 011-1 4 4 0 000-1 6 6 0 000-2 17 17 0 01-1-3v-1a5 5 0 00-3-2l1-1a13 13 0 00-2 0 5 5 0 00-1 0l-2 1a23 23 0 00-4 1 9 9 0 011-1h-2c-1 1 0 0 0 0l1-1v1h-1l-2 1-1 1h-1v-1a3 3 0 010-1 11 11 0 012 0 29 29 0 013-2l3-2a16 16 0 002-2 6 6 0 001-1 9 9 0 001-2l1-2a3 3 0 00-1-2 5 5 0 001-1 4 4 0 000-1l1-1h-1a10 10 0 011-1v-2a12 12 0 011-2l1-1a5 5 0 011-1 7 7 0 011 0l-2-1a4 4 0 002 0 8 8 0 001-1l2-1 1-1v-1h1a6 6 0 012-1h2a8 8 0 003-1h-1a18 18 0 016-1h-1a4 4 0 012 0 14 14 0 002 0 5 5 0 012 0c1-1 4 1 5 1h1c0 1 2 0 2 2l1-1v1a1 1 0 012 0 3 3 0 002 2v-1 1l2 1h0l-1-1h3c1 1 3 2 3 4h1v1a3 3 0 001-1v1a2 2 0 01-1 0v1h-1a12 12 0 000 1l-1 1v1a4 4 0 00-1 2 9 9 0 012-2 7 7 0 00-1 3 6 6 0 000 1v2a20 20 0 003 4 11 11 0 01-2-2 13 13 0 01-1-1 9 9 0 01-1-3 10 10 0 010-4 11 11 0 000 5v2l1 1v1a9 9 0 002 2 9 9 0 002 2h1a10 10 0 001 1 8 8 0 001 0v-1a2 2 0 001 1 11 11 0 002 1h1l2-1 1 1c1 0 0 0 0 0a1 1 0 011 1v-1h1a1 1 0 01-1 1 1 1 0 000 1h-1l-1 1-2 1h1-2v1a32 32 0 01-3 1l1 1zm-6-27a2 2 0 000-1 1 1 0 01-1 0h1v1c0 1 0 0 0 0zm-56 20c-1 1 0 0 0 0l-1 1a4 4 0 001-1zm60-24h1v1zm-1 12a4 4 0 011-1l-1 1zm10 11zm-11-18v-1l-1 1a1 1 0 000-1 1 1 0 011 0c-1 0 0 0 0 0v1zm-23-10zm-6-1a2 2 0 00-1 0h-2l2 1c2 0 1-1 1-1zm27 20a5 5 0 010-1 12 12 0 011 1 5 5 0 010 1 8 8 0 001 2 8 8 0 01-1-2l-1-1zm-38-17a21 21 0 00-2 0h-1 3zm0-2h3-2l-1 1zm2 2l1-1 2-1a19 19 0 00-2 1 1 1 0 01-1 1zm-9 7a3 3 0 00-1 1c0-2 0-1 1-1zm6-6a14 14 0 012-1l-2 1zm-7 6a10 10 0 011-3v2a4 4 0 01-1 1zm-9 24h-1l1-1a4 4 0 000 1zm-8-1h1-1zm10-9h1a4 4 0 00-1 1 4 4 0 011 0 2 2 0 01-1 1h-1c0 1-1 1 1 1l-1 1h-2a9 9 0 003-3 6 6 0 000-1v-1a1 1 0 010 1zm7-18v-1h1-1a2 2 0 000 1zm2-2h-2 1l-1 1h-1c0-1 2-2 3-1zm0-1h1-1l1-1 2-1-2 1a10 10 0 00-1 1zm29-4c2-2-2-2-2-3-1 1-2 1 1 2-2 0-1-2-3 0a7 7 0 013 1l-2-1c1 2 3 0 3 1zm15 5l1 1-1-1zm17 31v1l-1 1 1-2zm-17 9h2l-3 1 1-1zm-13 2h-1l1 1zm1 1c-1 1 1 1 1 1zm-12 2v-1zm1-1c0 1 0 2 2 1v-1a3 3 0 00-1 0h1a3 3 0 01-2 0 1 1 0 00-1 0h1zm7-1a1 1 0 001 0 1 1 0 01-1 0h-1l2 1h-2s0 1 0 0l-1 1c-1-1 0-1 1-2h1zm-10-1l1 1-1-1zm38-8h2v1l-2 1v-2zm-8-30l-1-1-1-1c1 0 4 2 2 2zm-3-2l-1-1-1-1 2 2zm8 20l1 1h1l-2-1zm6 6h1a1 1 0 01-1 1v1l1-1a3 3 0 000-1h-1a3 3 0 010 1 2 2 0 000-1zm-21 10a2 2 0 01-1 0 2 2 0 011-1zm20-13l1-1v1-1 1h-1zm-21 12h-3 3zm20-9l-1 1 1-1z" class="cls-8"/><path d="M164 141a2 2 0 01-1 0 5 5 0 011 0zM171 93zM169 91h-1zM125 135h-1l1-1v1zM126 131a3 3 0 000 1 2 2 0 010-1zM126 134a9 9 0 010-2 5 5 0 010 2zM117 128h2l-2 1h2l-2-1zM113 128a8 8 0 001 0 3 3 0 01-1 0zM112 129h-1l1-1h1a3 3 0 00-1 1zM118 112l-1 1a10 10 0 001-2v1zM120 107v-1h1zM125 109zM122 100a14 14 0 00-2 1l2-1zM125 95l-1 1 1-1 1-1a16 16 0 00-1 1zM131 92v-1a16 16 0 012 0 17 17 0 00-2 1zM178 115h-1l-1-1h1a2 2 0 000 1 1 1 0 001 0zM166 140h2-2z" class="cls-8"/><path d="M158 111c-2-6 22-12 22-22a107 107 0 00-3-17c-1-2 0-4 3-4 10-1 15-1 19 1 10 6 19 15 26 23-11 9-2 8 1 12 0 3-8 5-18 12-3 3-10 6-14 7-6 0-8-3-17-7-11-5-18-3-19-5z" class="cls-7"/><path d="M162 112zM158 110l2 2h2a12 12 0 01-3 0 2 2 0 01-1-1 1 1 0 010-1zM162 114h-1 1zM162 113h1-1zM219 93zM223 92zM217 98a6 6 0 010-2v2zM198 120h-2 2zM216 77zM230 92zM219 102zM213 73a3 3 0 010-1v1zM223 92zM224 98a12 12 0 011-1 3 3 0 01-1 1zM198 120zM167 112v1a2 2 0 010-1zM160 110zM176 100a2 2 0 011 0h-1z" class="cls-8"/><path d="M174 82v4h1v3a1 1 0 01-1 0h1a4 4 0 010 1h-1a6 6 0 001 0 3 3 0 01-1 1l-1 1v1h-1 1a23 23 0 00-3 3 9 9 0 01-3 2h1l-2 1c0 1 2 0 1 1l-1 1-1-1c0 1 1 1-1 2-1 0 1-2-1-1l-3 4v1l-1 1h2l-1 1a2 2 0 00-2 1h1l1 1a2 2 0 00-1 0 1 1 0 011 0l1 1v-1a3 3 0 00-1 0c-1 0 0 0 0 0a2 2 0 011 0v1a5 5 0 011 0 3 3 0 001 1 12 12 0 001-1h-1a1 1 0 011-1 1 1 0 001 0l-1-1 1 1h-1l2-1v-2c1 1 2-1 3-1h-1a4 4 0 013-2c1-1 1-3 3-3l2-1a1 1 0 010-1l2-2h-2l2-1a2 2 0 001-1l-1 1a5 5 0 001-3l2-3a7 7 0 010 1v-1a10 10 0 010-4 7 7 0 000-3v-3-1l-1-2-2-3a3 3 0 001-2 6 6 0 000-1h-1-2l1-1a5 5 0 002-1v1a1 1 0 001 1 2 2 0 001 0 5 5 0 01-1-1v1-1a3 3 0 011 0h1l-1 1 2-1a7 7 0 014 0l-1-1h4l1-1c1 0 0 0 0 0h3v-1a11 11 0 013 2l1 1a3 3 0 001 1c1-1 0-1-1-2l7 6c-1 0 0 2-1 1l-2-1 3 2 2 2v1l3 1-2-3 1-1c0 2 1 1 2 2v3a4 4 0 012 2l4 4v-3l1 1c-1-3-2 1-3-2l-1-3h1c0 2 3 3 4 6a2 2 0 010 1 1 1 0 000 1 3 3 0 000 1v-1h-1a3 3 0 011 1v1a4 4 0 000-1v1a3 3 0 001-1v1a4 4 0 001 0 1 1 0 001 1 1 1 0 011 0h1a7 7 0 00-3 1 5 5 0 01-2 0v1h-1a9 9 0 00-1 1h1a2 2 0 010 1h-1l1 1v2a4 4 0 000 2h1a2 2 0 010 1l2 1v1h1v-1 1a2 2 0 010 1 4 4 0 01-2 0 2 2 0 002 0h1l-1 1h-1-1 1l-2 1a4 4 0 01-1 0c-1 0 0 0 0 0h1v1a9 9 0 00-2 0h2a4 4 0 01-1 1 10 10 0 01-1 1 20 20 0 01-3 2 32 32 0 00-5 2l1-1a10 10 0 00-2 1l-2 1-2 2 1-1-2 2 3-2h-1a7 7 0 012-1 7 7 0 013 0l-1 1a12 12 0 00-6 3l-1 1h-4 1a2 2 0 01-1 1h3c0 2-3 1-5 1h1a6 6 0 01-4 0 15 15 0 01-4-1h1v1l-2-1c0 1-2-1-1 1a30 30 0 01-6-4 60 60 0 00-5-3 1 1 0 01-1 0l4 3-2-1 1 1-2-1c-2-2-1-3-3-3s-1 0-1 1l-3-1h2l-3-1-3-1v1l2 1h-2a8 8 0 013 1 5 5 0 003 1l-1-1 5 2-1 1a15 15 0 015 1l5 3v1l1-1c2 1 0 1 1 2-1 0 0 0 0 0h1a1 1 0 011 0s-2-1-1-2a9 9 0 004 3l2 1 4-1 4-1a36 36 0 006-2v-1l2-1 1-1h1a3 3 0 000-2 11 11 0 003-1l-1 1v-1h1l4-2a22 22 0 013-1h1v-1h-1s1-1 0 0a9 9 0 005-2 7 7 0 003-4 4 4 0 001-2l-1 1a5 5 0 000-1v-1l-1-2a12 12 0 00-1-2 10 10 0 00-2-1l-1-1a4 4 0 010 1v1l-1-1h-1a1 1 0 011 0v1a7 7 0 011-1 6 6 0 011-1l1-1h-1l5-4-2-2a17 17 0 00-3-4v1l-1-1a1 1 0 000-1h-1v-2h-1v-1c-2 0-1-2-2-3l-1-1s-2-3-2-1l1 1h-2a5 5 0 000-1l-3-4-1-1-1-2v2l-4-5c-1 1-3-2-5-2l1 1h-1v-1h-1a5 5 0 00-1 0v-1h-4a15 15 0 013 0h3v1h1a13 13 0 01-1-1 3 3 0 00-1 0l-1-1a30 30 0 00-3-1 11 11 0 00-5 0v1c0-1-3 0-2-1l-2 1h-4 1a10 10 0 01-2 0h-1v1h-5-1a8 8 0 00-1 1 8 8 0 00-4 4 8 8 0 000 1 5 5 0 000 1 8 8 0 000 3l1 2v2l1-1-1 2h1v4l1-1zm37-10l1 1-1-1zm-15 53h1a15 15 0 01-2 0h1zm12-48h-1v-1l1 1zm-9-7v1l-1-1zm-13-6h-2 2zm22 6a2 2 0 000 1v-1l1 2c0-1-2 0-1-2zm22 22a2 2 0 00-1 0l-1 1zm-7 5a1 1 0 00-1 1 2 2 0 011 0c1 0 0 0 0 0v-1zm-24-31v1h-1l2 1a4 4 0 01-2-1 4 4 0 01-1 0 10 10 0 00-1-1 9 9 0 012 0h1zm29 38v1a2 2 0 01-1 1h-1a2 2 0 001 0 2 2 0 001-2zm-2 0a1 1 0 010-1l-1-2 1 1a1 1 0 01-1 1 1 1 0 001 0l1 1zm1-2v-1a7 7 0 00-2 0l-1-1a18 18 0 013 1 2 2 0 011 1zm-8 11h1-2 1zm9-8a4 4 0 000-2v1a5 5 0 010 1zm-9 7l1-1a6 6 0 011 0l-1 1a3 3 0 01-1 0zm-37 7h1l-1 1zm12 4h-1 1zm12-5a1 1 0 000 1 1 1 0 011 0 1 1 0 01-1 0 3 3 0 00-1 1l1-1c0 2-4 1-2 3l-2-1a10 10 0 004-3zm14-9a2 2 0 011 0h1-1a3 3 0 00-1 0zm2-2l-1 1h1a22 22 0 01-3 0 2 2 0 012-1 4 4 0 011 0zm0 0h0a10 10 0 002-1 9 9 0 01-2 1zm-1-19c-2 1 1 2 0 3 1 0 3 0 1-2l1 1 1 1a4 4 0 01-1-1v-1l1 1-1-1-2-1zm-9-9l-1-1 1 1zm-35-8l1 1v0a5 5 0 00-1-1zm3 17v-2l1 3-1-1zm-6 10l1 1zm2 1l1-1zm-9 7l1-1h-1zm1-2h2l-1-1a2 2 0 00-1 1l1-1a2 2 0 01-1 1 1 1 0 00-1 0 1 1 0 001 0zm5-4a1 1 0 000-1v1a8 8 0 01-1 1h2l-2 1h1-1c-2 0-1 0 0-1a1 1 0 010-1h1zm-8 3l1 1c-1 0-2 0-1-1zm12-26v-2h1v2h-1zm31-3c-1 1 2 2 2 3-1-1-3-2-2-3zm3 3c1 0 1 0 0 0l1 1-1-1v-1a1 1 0 010 1zm-21-10l-1-1h-1l2 1zm-15 1v1a7 7 0 01-1 1h1a5 5 0 011-2h-1a5 5 0 00-1 1 6 6 0 011-1zm1 23v1a1 1 0 010-1zm7-26v1h1-1-1 1l-1-1h-1a4 4 0 011 0 3 3 0 011 0s1 0 0 0zm-8 27h-1a1 1 0 001 0zm-3-22a8 8 0 00-1 0 4 4 0 000 1 6 6 0 011-1z" class="cls-8"/><path d="M179 97a2 2 0 01-1 0 5 5 0 011 0zM211 82zM213 84zM168 112h1-1zM171 114a2 2 0 00-1-1 2 2 0 011 1zM168 113a5 5 0 012 0 5 5 0 01-2 0zM181 117l-2-1c3 1 0-1 0-1l2 2zM184 119a3 3 0 00-1 0 1 1 0 011 0zM185 119a2 2 0 011 2l-2-2h1zM207 114h-1l1-1v1zM212 112l1-1zM214 116zM217 108l-2-1 2 1zM219 106a4 4 0 01-1 0 10 10 0 001 0zM221 105v-1 1zM194 70l1-1h0a1 1 0 00-1 1zM180 95a13 13 0 001-3v2l-1 1z" class="cls-8"/><path d="M117 94c-14-5-17-14-34-9 8 15-11 22 16 31 1 10 16 7 23 4 6-5 9-19 5-24-2-3-4-1-10-2z" class="cls-5"/><path d="M121 94a2 2 0 00-1 0h1zM117 93a13 13 0 013 1l-3-1zM121 96l-1-1 1 1zM120 95v-1l1 1h-1zM97 119l-1 1a6 6 0 011-1zM98 117a2 2 0 00-1 0h1zM99 122h-1a2 2 0 011 0zM127 115l1-1-1 1zM90 107zM101 112a1 1 0 010 1l-1-1zM101 123v0zM89 106a2 2 0 011-1 1 1 0 01-1 1zM97 117zM103 117zM127 115zM124 94zM117 91zM105 85a1 1 0 010-1v1z" class="cls-6"/><path d="M92 89h2-1 1a3 3 0 001 0h1v1l1-1v1-1l3 2v-1l1 1v-1l5 3v-1l1 1v-1h1v1h1c1 0-2 0 0 1h4c2 0 0-2 2-1l-1-1h1a2 2 0 001 1c-2-1 2 0 0-2h2l-1-1h1l1-1-3-2v1l-1-1v1l-1-1-1 1-1-1-1-1v1l-2-1v1c-1-1-2 0-2-2h-2-1c1-1 0-1-1-1v2l-1-2v1l-2-1h-2l1-1h-1a3 3 0 01-2-1 4 4 0 00-3-1l1 1c-1 0-1-2-3-1h1-1l-2 1a5 5 0 00-2 0 1 1 0 00-1 1 6 6 0 00-2 0l-2 1h1a2 2 0 011 1 5 5 0 01-1 0 4 4 0 00-1 0 4 4 0 01-1 0v-1a1 1 0 00-1-1h-1a2 2 0 000 1 6 6 0 001 0h1l-1 1 1 1-2-2 1 2 2 2a7 7 0 011 2 6 6 0 010 1l1 1v1l1 1h-1v2h1l-3 4 2-1a5 5 0 00-1 4v3h-1-1v1l1 3h1s0 2-1 1l1 1 2 1-1-2-1-1 1-1 1 1a1 1 0 011 0v3a3 3 0 011 2 7 7 0 002 0 5 5 0 012 1v-2h1c-1-2-1 2-3 0a3 3 0 00-1-2l1-1 2 2a4 4 0 012 1l1 2h-1l1 2v-1l1 1-1-1a2 2 0 011 0 3 3 0 001 0l1-1h1a3 3 0 000 1l-1 2v1a7 7 0 000 2h1c1 0 1-2 2 0a7 7 0 000 1v-1a7 7 0 001 1 2 2 0 011 0 4 4 0 011 1 2 2 0 002 1l-1-1a1 1 0 011 1 20 20 0 003 1l-1-1h2v0a28 28 0 014 1h-1l-1-1 3-1h-2a7 7 0 014-2 15 15 0 004 0l-1 1a6 6 0 002 0l1-1a2 2 0 011 0l1-1 1-1-2 1 1-1 1-1-1 1-1 1a1 1 0 01-1 0h2a5 5 0 01-1 1 6 6 0 01-1 0 2 2 0 01-1 0 6 6 0 01-1-1v-1a4 4 0 002 0 5 5 0 001 0 4 4 0 002-2v-1l3-1h-1a2 2 0 010-1 15 15 0 01-2 1v-1a8 8 0 002-2h-1a5 5 0 011-1l1-1a10 10 0 002-2h-2a2 2 0 001-1v-1h-1l1-9a1 1 0 01-1 0 4 4 0 010 2 2 2 0 010 1v-2l-1 1v-1h1a6 6 0 010-1v-1a1 1 0 000-1 2 2 0 000-1l-1 1h-1l-1-1a4 4 0 011 0l-2-1 1 1-2-1 1 1h-2a3 3 0 012 0 3 3 0 010 1 2 2 0 001 1v-1a1 1 0 011 1v3a11 11 0 011 1v4h-1v1h-1 1v2c1 0 0-2 1-1a16 16 0 00-1 2l-2 1a6 6 0 010 2 9 9 0 01-1 2 18 18 0 01-3 2h1a1 1 0 00-1 0 3 3 0 000 1 1 1 0 01-1 0 2 2 0 000 1 5 5 0 00-2 1h-1v-1l-5 1 1 1-4-1v1l-1-1a2 2 0 01-2-1h-1v1a2 2 0 01-1-2v-1h-1a26 26 0 000-3h-1l-2-1-2-1a2 2 0 00-1 0c0-1 1 1 0 0l-1-2-1 1v-1c-1 1 0-1-2-1v-1l-1-1v1h1l-2 1a3 3 0 000-1v1l-1-2v-1a6 6 0 00-1 0h1v-4 1a6 6 0 000-2 5 5 0 010-2v2a8 8 0 001 2l1-7h-1l1-2-2-1a14 14 0 001-2l-1-1a4 4 0 011 0l1 1-1-1a3 3 0 011 1 5 5 0 010-1 7 7 0 011 1v-1zm-3 17c-1 0-1 0 0 0zm35 5v1l1-1h-1zm-40-3h-1 1zm-1-8v-1zm5-10h0zm-1 15h1a1 1 0 01-1 0c1 0 0 0 0 0zm14 8v0zm1 5v1a1 1 0 001-1h-1zM87 99h-1v1l1-2v1zm19 22l2 1a2 2 0 00-2-1zm0 1l-2-2 1 2h1zm-1-3c0 1-1 2-1 0a9 9 0 001 0zm8 1l-1-1 1 1c-1 0 0 0 0 0zm-6 0h-1 1zm6 0a8 8 0 01-2 1l2-1zm15-17v1l-1-1zm-1 9l-1-1a3 3 0 001 0v1zm-5 7h-1 1a1 1 0 000-1 1 1 0 01-1 0l2-1-1-1h2a10 10 0 00-1 1 6 6 0 00-1 1 3 3 0 000 1zm-10 4h-1a1 1 0 01-1-1l1 1a1 1 0 001 0zm-3 0l2 1-1-1 2 1a2 2 0 01-3-1zm0 1v-1 1zm-14-10v2a1 1 0 011 1c0-1 1-1-1-2h2a3 3 0 01-1-1h-1zm-8-4a7 7 0 01-1-1 6 6 0 000 1zm-3-26a1 1 0 012 0h-2zm13 0a9 9 0 00-2-1h2v1zm7 3h1v-1zm0-2c1 0 0 0 0 0zm7 3v1zm-1 1v-2l-1 1 1 1-1-1a1 1 0 011 1zm-4-2a1 1 0 00-1 0h1a5 5 0 011 0l-1-1 1 1v-1l1 1h-1a1 1 0 01-1 1v-1zm4 4v-1 1zm-21-6l-2-1a8 8 0 010-1l2 1v1zm-4 22a1 1 0 000 1v1a6 6 0 010-1 3 3 0 01-1-1h1zm1 1v1l1 1v-2a1 1 0 01-1 0zm0-15h1v-1l-1 1zm1-6c-1 0 0 0 0 0a2 2 0 00-1-1 1 1 0 00-1 0 1 1 0 001 0 3 3 0 010 1h1zm11 1h0zm-10 1a1 1 0 00-1 0h-1l1 1v-1h1s0 1 0 0zm11 0l1 1-1-1zm-9 0zM103 84zM86 113zM87 115zM125 93h1-1z" class="cls-6"/><path d="M127 95a1 1 0 00-1-1l1 1zM125 94a2 2 0 011 0 5 5 0 01-1 0zM129 102a1 1 0 000-1h1v-1l-1 2zM129 104zM129 105l-1 1 1-2v1zM122 123l-1 1 1-1zM117 123v1-1zM116 118h1-1zM114 125l1 1-1-1zM110 126l1 1-2-1h1zM106 126l-1-1 1 1zM83 96l1 2-1-2zM101 84a16 16 0 00-1-1l1 1z" class="cls-6"/><path d="M86 145c6 2 4-1 26-3 0 0 13-1 16-7-6-13-21-18-34-20-5-2-8-6-11-10l-17-7c-3 12 1 39 20 47z" class="cls-5"/><path d="M82 143zM86 145l-2-1a7 7 0 01-2-1l3 1 1 1zM83 141a11 11 0 001 1l-1-1zM83 142v1l-1-1h1zM87 105zM88 109zM85 103zM65 116l-1 2 1-2zM99 120zM85 113zM82 102h-1 1zM103 122a3 3 0 010 1v-1zM88 109zM82 109a7 7 0 010 1 1 1 0 010-1zM65 116zM79 141a1 1 0 01-1-1 2 2 0 011 1zM87 147h-1 1zM105 146z" class="cls-6"/><path d="M119 136h-4v1a15 15 0 00-2 0 4 4 0 01-1 0 1 1 0 00-1 0 5 5 0 00-1 0 5 5 0 00-1 1h-1a4 4 0 000 1 5 5 0 00-1 1 5 5 0 000 2 5 5 0 001 2 5 5 0 001 2 5 5 0 002 1l1-10h-1 1l-1 9a5 5 0 01-1 0 5 5 0 01-3-4 5 5 0 011-3 4 4 0 011-1 5 5 0 011-1 5 5 0 011 0h0a4 4 0 00-1 1 4 4 0 00-1 0v1a4 4 0 00-1 1 4 4 0 000 2 4 4 0 001 3 4 4 0 001 1 5 5 0 001 0l1-9h-2 1a15 15 0 01-3 0h-2v1h-1l-7 2h1-2v2l-1-1-1 1c-2 0 1-1-1-1-1 0-2 3-4 3v1h-1a7 7 0 002 0l-2 1a5 5 0 00-1-1v1s-2 0 0 1h-3l2 1c1 1 0 0 0 0h-2v1l1 1a11 11 0 002 1 11 11 0 002 0h1v-1h1a1 1 0 011-1 2 2 0 011 0v-1h4l-1-1h3l-1-1c2 0 2-2 4 0h-1l3-1h2l-1-2c1-1 1 1 2 1l-1-1c2 1 4-2 5-1v1-1 1h1a3 3 0 011 0 6 6 0 011 0 5 5 0 003 0h3-1 1l2-2a7 7 0 002-1 2 2 0 000-1 5 5 0 003-1 3 3 0 001-2h-2a8 8 0 011-1 2 2 0 000-1l1 1 1-1-1-1a3 3 0 011 1h-1l-1-2v-1h1a6 6 0 010 1 1 1 0 001 0 3 3 0 00-1 0v-1h-1l-1-1a6 6 0 000-1 11 11 0 01-2-1 5 5 0 010-1h-1c-1-2-2 0-2-2h-2l1-1-2-1-1 1-1-3a5 5 0 00-3-2l1 2a7 7 0 00-3-2 16 16 0 01-4-2l1-2 2 1-3-1-2-1h-1v-1h-2l2 2v1c-2-2-2 0-3 0 1-1-1-2-1-3a4 4 0 01-2-1 10 10 0 00-2 0 12 12 0 01-2 0 1 1 0 010 1h-1l1 1v-1h2l2 2-1 1a3 3 0 00-2-1h-2a2 2 0 01-1-1c0-1 1-2-1-3a14 14 0 002 0c-2 0 0 0-1-1v1a1 1 0 01-1-2v2l-1-1-1-1v1c-1-2-1 0-2-1 0 1 0 1 0 0 1-1-1-3-1-4l-1-2h-1v1h-1a9 9 0 00-1-1h-1v-1c-2 1-3-2-4-2v1a1 1 0 01-1-1l-2-2v2a1 1 0 01-1 0 5 5 0 00-1-1c1 0 2 0 1-1 0 0-2 0-1 1a58 58 0 01-5-4v1l2 1-1 1a19 19 0 00-2-1l2 2a4 4 0 01-3-1l-1 1v2a14 14 0 00-1 3l-1-2-1 5 1 3c1-1-1-2 1-2v-1s0 2-1 1a6 6 0 010-1 5 5 0 010-1 4 4 0 012-2v1a5 5 0 010 1 6 6 0 00-1 6l1 1c0 1-2 1-1 3v-1a2 2 0 011 1 25 25 0 011-3v4l1 7v-1l1 2c1-1 1 2 1 0l4 11a1 1 0 011-1c-1-1-2-3-1-4l1 2v-1l1 2h-1c1 2-1 2 1 4l1-1 2 2-1-1 1 2 2 2v-1l-1-1 2 1-3-4a3 3 0 01-2-1 12 12 0 00-1-2h1l-5-7 1-2-1 1v-2c1 0 0 0 0 0 0-2-1 0-1-1v2c0-2-2-5 0-6a14 14 0 01-1-5v-5h-1v-2a1 1 0 010-1h1a9 9 0 00-2-1 2 2 0 001-1v1-1l1-1c0-1 0 0 0 0a4 4 0 012 1 2 2 0 01-1-1 6 6 0 001 1 2 2 0 001 1h1s1 0 0 0l1 1v-1l5 3a1 1 0 010-1 9 9 0 011 0 1 1 0 011 1 15 15 0 011 1l1 1 2 3 2 1a5 5 0 002 2s-1-1 0 0c0 1 2 1 1 2h2l1 1a2 2 0 011 0 1 1 0 010 1 2 2 0 002 0v1h3l-2-1h3a7 7 0 002 1 3 3 0 011 1h1l1 1v-1c2 0 2 2 3 2 1-1 2 2 4 1l-1-1 4 3-2-1a12 12 0 00-2 0 6 6 0 013 1 7 7 0 002 2l1-1 1 2h1a19 19 0 011 2 5 5 0 011 1h1l-1 1h-1l1 1a3 3 0 010-1h-1v1a25 25 0 01-3 0l2 1zm-15-14l-1-1 1 1zm-35-4v-1 1zm37-2h1zm9 4l-1-1h1v1zm6 10v2-2zm-14-8v-1 1l-1-1c1 1 2 0 1 1zm-22-10v-1zm-3-3c1-1 0-2-1-2a3 3 0 010-1 1 1 0 000 1 2 2 0 000 1l1 1zm32 15v-1h1-1c2 0 2 1 2 2 0-1-1-2-2-1zm-38-20l-2-2 1 2a1 1 0 011 0zm0-1l2 2a1 1 0 01-1-2h-1zm1 3h2-2zm-8-3h1a1 1 0 01-1 0v-1 1zm5 1l2 1-2-1zm-5-2a8 8 0 011 0h-1zm2 28v-1h1zm-4-11v0zm-2-10a1 1 0 001-1 2 2 0 000 2l1-1c0 1-2 3 0 2l-1 2a11 11 0 00-1-4v-1a1 1 0 010 1zm5-10a2 2 0 010 1l1 1-1-1a3 3 0 000-1zm2 1l-1-1v1l-2-2a3 3 0 012 1 2 2 0 011 1zm1 0v0l2 1zm18 13v-3c-1 1-2 1-1 2-1-1 0-2-2-1a6 6 0 012 2l-1-1 2 1zm11 3l1 1-1-1zm26 20v1a1 1 0 01-2 1l2-2zm-14 6h1l-2 1 1-1zm-10 1h-1l1 1zm1 1c-1 1 0 1 1 1zm-9 3h1l-1-1zm1-2c0 1 0 2 1 1v-1h-1 1a2 2 0 01-1 0 1 1 0 00-1 0 1 1 0 001 1zm5-1a1 1 0 000-1v1a6 6 0 01-1 0l1 1h-1l-1 1c-1-1 0-1 1-2h1zm-7 0v0zm28-6h1a8 8 0 011 1l-2 1v-2zm-17-20l-2-1c1 0 3 0 2 1zm-3 0v-1h-1l1 1a4 4 0 011 0 1 1 0 01-1 0zm17 9v1a7 7 0 011 0 14 14 0 00-1-1zm5 7l-1 1a1 1 0 002 0v-1a1 1 0 000 1l-1-1-1 1zm-16 5h-1 1zm13-7l1-1a2 2 0 000 1v1l-1-1s0-1 0 0zm-14 7l-2-1c1-1 1 1 2 1zm14-5a2 2 0 01-1 0 2 2 0 001 0zM107 145zM101 113zM99 112zM78 141h-1 1z" class="cls-6"/><path d="M76 138a2 2 0 000 1 1 1 0 010-1zM78 140a4 4 0 01-2-1l2 1zM71 131v2 1-3zM70 129zM69 128a2 2 0 010-2l1 3-1-1zM62 105v1-2 1zM64 100v-2l1 1-1 1zM68 104zM66 95zM71 97l-1-1 3 1h-2zM76 99h1l1 1-2-1zM120 122h-1a8 8 0 00-2-1c1 0 1 2 3 1zM109 144h2-2z" class="cls-6"/><path d="M182 140c-8-11 5-29 7-32 12-17 29 14 49 3 1 4 4 21 3 23-7 10-50 21-59 6z" class="cls-7"/><path d="M185 144l-1-1 1 1zM182 140l2 3a11 11 0 01-1-1l-1-2zM184 145l-1-1 1 1zM184 144l1 1-1-1zM237 122a1 1 0 01-1 0zM238 118zM237 125v-1a1 1 0 010 1zM216 144h-1 1zM230 109zM243 116h-1zM238 127zM227 108a2 2 0 01-1-1 1 1 0 011 1zM238 118zM243 121zM216 144h1a1 1 0 01-1 0zM188 145a1 1 0 011 0 1 1 0 01-1 0zM183 138v0zM184 123z" class="cls-8"/><path d="M185 105l-2 3-1 1h1l-3 4h1l-2 1 1-1-3 6h1a12 12 0 00-1 4 17 17 0 01-1 4c0 1 0 0 0 0v2l1-1 1 1-1 1v1c0 2-1-2-1 1l1 2a5 5 0 011 1 3 3 0 010 2h1l1 1a12 12 0 010-2l1 1a2 2 0 000 2v-1h2v1a11 11 0 010-1h3a9 9 0 01-1-3v-1h-1v1a1 1 0 010-1 1 1 0 010-1h-1v-3 1-3c0-1-1-2 1-3h-1l1-2v-2l-1 1c-1-2 1-1 2-2h-1c1-1-1-4 2-5v1s1 0 0 0c0-3 3-3 4-5h-1l2-1a1 1 0 011-1v-2a3 3 0 001-2 9 9 0 002 0h1a1 1 0 001 0v-1l-1-1h1a2 2 0 002 0l-1 2v1l1-1h-1v-1a6 6 0 011 1 8 8 0 011 0v1h-1 1a10 10 0 012 0 4 4 0 013 1v-1c1 2 2-1 3 1h1v1c1 1 1-1 2 1v-1c2 1 3 4 5 4l-1-2a7 7 0 003 2 21 21 0 014 2c-1 0 1 2-1 2l-2-1a2 2 0 002 1 7 7 0 002 0l2 1 1-1v1a25 25 0 003 0l-3-1v-2l1 1a1 1 0 012-1c-1 1 2 1 2 2a2 2 0 011 0 4 4 0 011 0 3 3 0 001 0l1-1a2 2 0 010-2c1 1 1 0 2-1a1 1 0 00-1 0 3 3 0 00-1 1c0 1 0 2-1 1a1 1 0 00-1 0 5 5 0 00-1 0v-2a2 2 0 003 0h1a5 5 0 011-1 1 1 0 011 0 8 8 0 01-1 2 4 4 0 00-1 2l-1 1h1v1a10 10 0 000-1 1 1 0 010 1 3 3 0 001-1 1 1 0 000 1l1 1h1c-2 0-1 3-2 4v2c0-1 0 0 0 0 1 1 2-1 2 1l-1 1h1l-1 1c2 1 0 3 1 4v-1a1 1 0 010 1 2 2 0 01-1 2 1 1 0 001 0c0-1 0-1 0 0l-1 1a1 1 0 010-1 2 2 0 010 1l-2 1a4 4 0 01-1 0h2l-2 2h2a6 6 0 01-5 3l-5 1 1-1a19 19 0 00-3 0l-2 2h1-2 3c1-1-1 0-1-1l4 1-1 1a7 7 0 00-6 1l-1 1c-1-1-1-2-3-2l1 1a2 2 0 01-1 0l3 1c-1 2-3 0-5 0l1 1c-3 1-5-1-7-1-1 1 1 1 1 1h-2c0 2-3 1-1 2l-11-2a1 1 0 010 1 9 9 0 012 1 4 4 0 012 1l-3-1 2 1c-1 1-2 0-3-1h1a3 3 0 01-2-1l-2-1v1l-3-1 1 1-1-1a5 5 0 01-1-1 1 1 0 000 1l-2-2v1l2 1c-1 1-2 0-3-1a8 8 0 012 2h1a3 3 0 002 1l5 1-1 1 10-1 1 1h2-1c2 1 1-1 2-1 0 0-2 0-1-1 2 1 5 0 5 2l12-3h-1c2 1 4-2 4-1a2 2 0 001-2 7 7 0 003 0h-1 1c3-1 5-3 8-3-2 0-1-1-1-1a3 3 0 002-1 7 7 0 001-1h1v-1a7 7 0 002-3h-1a8 8 0 001-1h-1v-3l1-2a5 5 0 000-3l-1 2a32 32 0 01-1-6v1a3 3 0 010-2 6 6 0 00-1-2 6 6 0 010-1v-1-2a16 16 0 00-1-4c0-1 0 0 0 0a3 3 0 000-3 4 4 0 010-2v-1l-1 1v-1l-3 1a5 5 0 00-1 0 8 8 0 00-2 1l1 1c-1 0-3 1-2-1l-2 1h-1v1h1a3 3 0 001 0 1 1 0 01-1 0 1 1 0 00-1 1l-4-1-1-1v2c-2 0-2-2-3-3-1 2-3-1-4 0h1c-2-1-3 0-5-2l2 1a12 12 0 003 0c-3 0-4-3-7-3v1l-2-2h-2l-2-2-9-1a16 16 0 00-2 0h-3a10 10 0 00-2 1 11 11 0 00-2 2l-2 1c2-1 0 1 1 1l-2 1-1 1h1zm41 4h1-1zm-11 40c-1-1 0 0 1-1l-2 1h1zm10-35h-1zm-10-3l1 1-1-1zm-8-9c-1-1-2 0-2-2l2 2zm16 7v-1l1 1h-1zm19 8v1zm0 5v2c1 1 1 0 1-2h-1zm-27-15v1h1c-2 0-2-1-2-2l1 1zm28 24a9 9 0 01-1 2l-1 1a1 1 0 001 0 2 2 0 001-2 3 3 0 010-1zm-2 0l2-2a1 1 0 01-1 1v2a7 7 0 00-1-1zm3-1v-1c-1-1-2-1-1-2l1 2a1 1 0 010 1zm-7 11h-1 1zm7-8a11 11 0 000-1v1zm-7 7l1-1c1-1 1 0 0 0v1a3 3 0 01-1 0zm-35 8h1l-1 1zm12-2l-1 1zm10-2a1 1 0 011 0h-1a2 2 0 00-1 1h1c0 1-3-1-2 1l-2-1a9 9 0 004-1v-1a1 1 0 010 1zm13-7a1 1 0 011 0h1-1a2 2 0 00-1 0zm2-2l-1 1a16 16 0 01-2 0 2 2 0 011 0 2 2 0 011-1 2 2 0 011 0zm0 0v-1l1-1a14 14 0 01-1 1zm-1-23l-1 4 1-2a1 1 0 010 2h1a7 7 0 010-2v1a1 1 0 000-2l-1-1zm-9 1h-2 2zm-33-9h-1a1 1 0 01-1 1l1-1h1zm-10 10l1-2c1 1-1 2-1 2zm-4 9h-1 1zm1 0l1-1zm-1 8h-1zm-1-1c1 0 2 0 1-1h-1v0a1 1 0 010 1 1 1 0 00-1 1 1 1 0 001-1zm0-5a1 1 0 000-1v2l2-1-1 1h1l-1 1c-1 1-1 0-1-1a1 1 0 010-1zm-2 7v-1h1l-1 1zm12-27h2l-1 1h-1v-1zm33 7l1 1a4 4 0 011 0c-1 0-3 0-2-1zm3 0l1 1h1l-2-1zm-18-7l-1-1h-1l2 1zm-12-5l-1 1a3 3 0 01-1 0h2a1 1 0 001 0 3 3 0 00-1 0v-1h1-2zm-16 16l-1 1 1-1zm23-15v1l-1-1v-1l1 1zm-24 16l-2 1 2-1zm14-19a9 9 0 00-1 0v1a9 9 0 011-1z" class="cls-8"/><path d="M185 120a1 1 0 01-1 1 2 2 0 011-1zM230 116h0zM233 116zM189 144h0zM192 146a2 2 0 00-1 0h1zM189 145a6 6 0 012 1l-2-1zM201 147a2 2 0 00-2 0c2-1 0-1 0-1l2 1zM204 147a2 2 0 00-1 0 1 1 0 011 0zM204 147a2 2 0 012 1l-2-1s1 0 0 0zM226 140h-1l1-1v1zM230 139l1-1v1h-1zM232 144zM234 136h-1 1zM236 134a13 13 0 001-1 5 5 0 01-1 1zM238 132a4 4 0 000-1v1zM210 109c1-1 2 1 3 1-1 1-1-1-3-1zM185 119l1-2-1 2z" class="cls-8"/><path fill="#fbb03b" d="M134 147c-1-3 3-4 8-16 5-14 8 1 17 1 9-2 18-12 26 2 5-4 8-4 10-3 7 5 0 27-13 22-27-5-46 0-48-6z"/><path d="M137 149zM134 146a4 4 0 001 2l2 1a4 4 0 01-2-1 2 2 0 01-1-1 1 1 0 010-1zM137 151a10 10 0 01-2-1h1a1 1 0 001 1zM136 150h0zM194 140zM196 138a5 5 0 000-1 1 1 0 010 1zM194 143v-1a1 1 0 010 1zM168 150l-2-1 2 1zM187 127v0zM202 137a1 1 0 01-1 0zM194 145h-1 1zM186 127a5 5 0 010-1v1zM196 137zM201 142v-1a1 1 0 010 1zM168 150zM141 149a1 1 0 010 1 2 2 0 010-1zM136 146zM145 132c0 1 0 1 0 0z" class="cls-8"/><path d="M155 125a11 11 0 01-1-1 11 11 0 00-2-2 15 15 0 00-1-1v1a7 7 0 00-4-2 12 12 0 01-2 0v1a7 7 0 00-2 0 6 6 0 011 0 12 12 0 00-4 3 18 18 0 00-2 3h1a4 4 0 01-1 1h1l-1 1a2 2 0 010 1v1a7 7 0 01-2 3h1l-1 1c1 1 1-1 1 1 0 0 1 0 0 0h-1v2c-1 1 0-2-1-1s1 3-1 5c0 1 2 0 0 2l2-1v1a2 2 0 00-2 1h1a1 1 0 001 1h1-1a1 1 0 011 0h1v-1a3 3 0 01-1 1h-1a1 1 0 011 0 5 5 0 011 0l1 1 1-1h-1l2-2h-1v1c-1-1 0-1 1-2s-1 0-1-1c2 0 2-2 3-2h-1l1-3c0-1-1-2 1-3l1-2v-1h-1v-1h1l-1-1 1-2c0-1 1-2 2-1a4 4 0 00-1 1h1a1 1 0 011 0 3 3 0 011 1l1 2v-1 1l1 1v-1 1l2 1h3a4 4 0 002 2 2 2 0 003 0l-1-1v-1h2v1l1 1v-1a1 1 0 01-1 1v-1l3-1-1 1c2-1 3-3 5-3h-1l2-1h1c1-1-1-1 1-2v1l1-1h1v-1a7 7 0 012 2l2 1-1-2a16 16 0 003 2 7 7 0 011 1 6 6 0 012 2l-1 1-1 1a1 1 0 000-2h-1a6 6 0 000 1 13 13 0 002 2l2 3a1 1 0 010 1l1-2v1l4-3h-3a2 2 0 00-1 2v-3h2a2 2 0 011-1h1l1 1a2 2 0 010-1h1a1 1 0 010 1l1-1h1v-1a1 1 0 001 0h1l-1-1h-1l-1 1-2-1 1-1a3 3 0 002 0 3 3 0 012 0 1 1 0 010 1 2 2 0 011 0 2 2 0 01-1 2 2 2 0 000 1 3 3 0 00-1 0v1a7 7 0 000-1v1a5 5 0 001 0v1h1l1 1v1l-3 2a14 14 0 010 1v1s2 0 1 1a7 7 0 01-1 1h1-1l-1 2-1 2 1-1-1 1a9 9 0 01-2 1h1c1 1-1 1-1 1v-1 1h-3 1v1a3 3 0 01-1 0 4 4 0 00-1 0 4 4 0 001 1 5 5 0 001 0h-6l-1-1a12 12 0 00-2 0l1-1a13 13 0 00-3-1h-3c0 1 2 0 1 1h-2 3l-1-1c3 0 3 1 4 2l-2 1a6 6 0 00-5-1h-1c-1-1-1-2-3-2l1 1a2 2 0 01-1 0l2 2c-1 1-3-1-4-2l1 1-7-2c-1 1 2 1 1 1h-2c0 1-2 0-1 1l-10-1 3 2-2-1 2 1h-3l1-1c-3 0-1-2-4-1v1h-3 2a14 14 0 01-3-1l-2-1v1h2l-2 1a9 9 0 013 1 3 3 0 002 0h4v1h8l1 1v-1l2 1-1-1h2c0-1-2 0-1-1 1 1 4 0 4 2l10 1c1 0 0 0 0 0l4 1 1-1a7 7 0 002 1v-1l1 1h1a10 10 0 001 1 10 10 0 001 0 33 33 0 005 0h-1v-1a4 4 0 004 0 9 9 0 003-2v-1a12 12 0 001-1l2-3a5 5 0 002-2h-1l2-5h-1a5 5 0 011-1h-1l1-4v-2a10 10 0 000-2 5 5 0 00-1-2v1l-1-1v-1a4 4 0 010-1 1 1 0 010-1l-1-1h-1a7 7 0 000-1 2 2 0 01-2 0 3 3 0 00-3-1h-1a16 16 0 00-3 1 6 6 0 00-1 0h3l-1 1-1 1a1 1 0 00-1 0l-1-1a1 1 0 010 1v-2a11 11 0 000 2v-1a5 5 0 010-1 3 3 0 00-1-1 1 1 0 01-1 0 11 11 0 01-1-1c-1-1-2-2-3-1a10 10 0 011 1 7 7 0 00-3-1l-4-1a11 11 0 013 0 21 21 0 014 0 31 31 0 00-5-1 8 8 0 00-6 1h-2l-1 2h-3a8 8 0 01-5 3v-1h-1v1l-1-1c1 0 0 0 0 0l-1-1-1-1v1zm31 3zm-21 26h1l-1-1v1zm19-19v-1zm-7-7l1 1-1-1zm-11-3l-1 1 1-1zm19 3l1-1-1 2v-1zm16 9l-1 1zm-1 5l-2 3 2-2v-1zm-23-18v1a9 9 0 011 0 2 2 0 01-2 0 6 6 0 00-1-1 6 6 0 011 1l1-1zm18 27h-2 2zm-1-1l3-1a1 1 0 01-2 0l-1 1zm3 0v-1s-1-1 1-1l-1 1a1 1 0 010 1zm-11 7h1-1l-1-1c2 0 1 0 1 1zm9-5l1-1-1 1zm-9 4a13 13 0 002-1h1l-3 1zm-32-5v1zm11 0h-1zm10 1a1 1 0 000 1 2 2 0 00-2 0h1c-1 1-2-2-2 1 0-1-2-1-1-2a9 9 0 004 0zm13 1a1 1 0 011 0v1-1a2 2 0 00-1 0zm2-1a9 9 0 01-1 0 6 6 0 001 0 8 8 0 01-2 0 2 2 0 011 0 2 2 0 011 0zm0-1l1 1-1-1a10 10 0 002-1 11 11 0 01-2 1zm7-18a1 1 0 00-1 1l-1 2a8 8 0 002-1v-1 1l1 1a8 8 0 010-2v0l-1-1zm-10-1l-1 1 1-1zm-28 1a1 1 0 01-1 1l-1-1a13 13 0 002 0zm-11-7a6 6 0 011 1h-1l-1-1h1zm-6 6h1zm2 0l1-1a3 3 0 00-1 0v1zm-4 8h1-1zm0-1l2-1-1-1a2 2 0 00-1 1h1a1 1 0 01-1 1 1 1 0 00-1 0 1 1 0 001 0zm2-5a1 1 0 000-1v1a5 5 0 010 1l1-1-1 1h1v1c-2 0-1-1-1-1a1 1 0 010-1c-1 0 0 0 0 0zm-5 5h0zm18-8l1 1h-1l-1-1h1zm29 1a3 3 0 001 2v-1h1l-1 1-1-2zm2 0h1s0-1 0 0h-1zm-16-6h-2 2zm-10 3l-1 1h1v-1a5 5 0 01-1 0zm-17-6a3 3 0 01-1 1 3 3 0 010 1 1 1 0 010-1 3 3 0 011-1zm21 4c-1 1 1 0 1 1h-1v-1h-1 1zm-22-3l-1 1-1 1v-1h1a1 1 0 001-1zm17 3z" class="cls-8"/><path d="M145 130v1a1 1 0 010-1zM190 134zM191 134zM141 149h0zM144 150a2 2 0 00-1 0h1zM142 150a4 4 0 011 0 3 3 0 01-1 0zM152 150a2 2 0 00-1 0c2-1 0-1 0-1l1 1zM155 150zM156 150l1 1-2-1h1zM178 149h-1 1c1 0 0 0 0 0zM182 151h1v1a6 6 0 00-1-1zM181 156h-1 1zM186 151a9 9 0 01-1-1l1 1zM188 150a7 7 0 001-1l-1 1zM191 148l1-1-1 1zM174 129c-1-1 1-1 2-1h-1l-1 1zM145 129a4 4 0 011-1l-1 1z" class="cls-8"/><path fill="#4f6b86" d="M69 151l12 50c1 4 2 11 8 16a23 23 0 0013 6h114a18 18 0 006-4c7-10 8-25 17-61a6 6 0 000-4 5 5 0 00-3-3z"/><path d="M63 153l11 42 3 15a31 31 0 006 10 28 28 0 0011 7 30 30 0 0010 2h112a11 11 0 006-2 20 20 0 005-5l1-2a36 36 0 003-4l7-27 5-20 2-7v-1s0-1 0 0c-1 1 0 0 0 0v-1a7 7 0 001-2c1-5-2-10-7-12l-6-1H69a6 6 0 000 12h166l-1-1v0c0 1 0 1 0 0 0 1 0-1 0 0a7 7 0 000 1v-2a14 14 0 000 2l-2 7-3 12-4 19a119 119 0 01-4 13l-1 2a9 9 0 010-1v1a35 35 0 01-3 5v1c-1 1 1-1 0 0a7 7 0 00-1 1s1-1 0 0a19 19 0 01-3 1l3-1H101h1l-1-1a24 24 0 01-3-1h-1s1 1 0 0l-2-1h-1l-1-1h1l-2-1a18 18 0 00-1-1 21 21 0 01-2-3v-1l-1-1-1-4-2-13-10-40a6 6 0 00-12 4z"/><path fill="#2e4a60" d="M56 153c65-1 132 4 196-1 2-6 1-7 0-19 1-3-3-6-5-5-36 0-36 1-175-2-17-2-21 20-16 27z"/><path d="M56 158h153a752 752 0 0047-4 24 24 0 002-6 28 28 0 000-6l-1-10c-1-5-5-9-9-9a7 7 0 00-1 0h-1c1 0 0 0 0 0H145l-40-1H73h-1-1a19 19 0 00-2 0 18 18 0 00-8 2c-9 4-13 17-11 26a16 16 0 002 6 5 5 0 008-5v-1c-1 0-1-1 0 0h-1a18 18 0 010-3v-2-3-2l1-1v-1s0-1 0 0v-1h1v-2l1-1v1a12 12 0 001-2 12 12 0 011 0v-1a18 18 0 012-1h1a12 12 0 001 0h3 27l41 1h109s-1 0 0 0h-1a2 2 0 011 0h-1 1s0 1 0 0c0 1 0 1 0 0 0 0 0 1 0 0v5l1 4a38 38 0 010 6v-1 1l-1 1v2s0-1 0 0l4-3-76 3-77-1H56a5 5 0 100 9z"/><path d="M148 229c0 39-58 39-58 0s58-39 58 0zM221 229c0 39-58 39-59 0 1-39 59-39 59 0z" class="cls-12"/><path d="M133 229c0 18-28 18-28 0s28-18 28 0z" class="cls-13"/><path d="M107 234zM107 234zM109 232zM110 230zM110 230zM109 232zM107 234zM109 232v1zM108 233zM108 234zM109 232zM117 217zM118 218zM111 230zM113 226v-1 1zM107 234zM111 229zM110 229zM111 228zM111 228zM116 219s0-1 0 0zM107 234zM109 227zM113 221zM109 227a1 1 0 001 0z" class="cls-14"/><path d="M116 218v0l-1 1h1-1s1 0 0 0c0 0 1 0 0 0v1a1 1 0 000-1v1h-1l1 1h-1v1l-1-1a1 1 0 011 1l-1-1v1s0-1 0 0c0 0-1 0 0 0h-1v1h1-1a1 1 0 010 1v-1 1s-1 0 0 0h-1v1h-1v1-1 2s-1 0 0 0c-1 0-1 0 0 0h-1 1-1a2 2 0 010 1v1h1-1-1 1v1h-1 1a3 3 0 00-1 0h1a1 1 0 01-1 0h1l-1 1v-1 1c1 0 0 0 0 0a1 1 0 000 1c-1-1 0 0 0 0h-1 1c-1 0 0 0 0 0v1h-1 1-1l1 1a1 1 0 01-1 0c1 0 0 0 0 0h1-1a1 1 0 011 0l-1-1 1 1v-1h1l-1-1a1 1 0 011 1v-1 0h-1 1v-1s1 0 0 0h1-1 1s-1-1 0 0h-1 1v-1a1 1 0 01-1 0h1s0-1 0 0h1v-1 1l-1-1c1 0 0 0 0 0h1a1 1 0 00-1 0c1 0 0 0 0 0h1v-1a2 2 0 000 1v-1s0-1 0 0a1 1 0 010-1c1 0 0 0 0 0h1a1 1 0 010-1 1 1 0 000 1v-1a2 2 0 010 1v-1h1v-1l1 1v-1h-1 1s0-1 0 0c0 0 0-1 0 0v-1 0a1 1 0 001 0l-1-1h2l-1-1 1 1v-1 1l-1-1h1v-1 0c1 0 0 0 0 0h1v-1a1 1 0 010 1v-1h-1 1v-1h1v-1 1-1s1 1 0 0h1a1 1 0 00-1 0v-1a4 4 0 00-1 0h-1l1 1-1-1a3 3 0 011 1h-1 1a2 2 0 01-1 0c1 0 0 0 0 0zm-1 2zm0 0zm2 1zM117 221zM109 232zM113 221h1-1zM107 232zM107 232zM107 233zM109 228zM109 230h-1 1zM109 227zM109 230c-1 0-1 0 0 0zM106 234zM107 234zM107 234zM107 233zM107 233c-1 0 0 0 0 0zM108 233c1 0 0 0 0 0zM108 233h0zM109 231zM108 230zM110 231zM111 228s1 0 0 0zM112 226s0 1 0 0zM115 223zM109 241v-1zM110 241a2 2 0 00-1-1v1a1 1 0 011 0zM112 238zM113 236zM114 235s0 1 0 0zM112 238zM109 240zM112 239zM111 239zM110 240zM112 238zM123 218zM125 218zM115 235zM118 229zM109 240zM116 234l-1-1zM114 234zM116 233zM116 232zM122 220zM109 240zM114 231zM119 224zM114 231z" class="cls-14"/><path d="M122 219h0l1 1a1 1 0 01-1 0h1-1a4 4 0 011 0h-1 1-1c0 1-1 0 0 0v1c-1 0 0 0 0 0h-1v1h-1l1 1h-1v1h-1 1-1 1-1 0v1-1l-1 1a1 1 0 011 0h-1v1a1 1 0 000 1h-1v1h-1c0 1 0 0 0 0v1h-1v2c-1-1 0 0 0 0h-1c-1 0 1 0 0 0v1c0-1 0 0 0 0-1 0 0 0 0 0a3 3 0 010 1l-1-1v1c-1 0 0 0 0 0v1h1-1v1h-1s1 0 0 0h0v1-1 2h-1v1c-1 0 0 0 0 0v1h-1c1 0 0 0 0 0s-1 0 0 0h-1 1s-1 0 0 0v1c-1 0-1 0 0 0a1 1 0 00-1 0s1 0 0 0c1 1 0 0 0 0h2-1v-1h1-1 1c1 0 0 0 0 0v-1a1 1 0 010 1v-1l1 1v-1h-1 1c1 0-1 0 0 0v-1h1v-1 0c1 0 0 0 0 0v-1 1c0 1 0 0 0 0h1-1 1v-1h-1 1s0-1 0 0h1l-1-1s1 0 0 0h1-1v-1l1 1v-1c1 0 0-1 0 0v-1h1v-1c1 0 0 0 0 0 0 1 0 0 0 0a1 1 0 010-1v0a2 2 0 011 1v-1 0c-1 0 0 0 0 0v-1l1 1v-1h1s-1 0 0 0h-1 1v-1s0-1 0 0v-1 0a1 1 0 001 0v-1h1a1 1 0 01-1 0s0-1 0 0h1l-1-1h2l-1-1h1v-1-1 0h0l1 1v-1h-1 1v-1l1-1h1l-1-1h1-1 2a1 1 0 00-1-1 3 3 0 00-1-1v1c0-1 0 0 0 0h-1v1h-1zm0 3v-1zm-1 0h0zm2 0c0 1 0 0 0 0zM123 222zM112 238zM119 224zM111 238h-1zM110 238zM110 239zM113 233zM112 235zM114 231zM112 235zM109 240zM109 240zM109 240zM109 240zM109 240zM111 240zM111 239v0zM113 237zM112 236zM114 236v1-1zM116 232zM117 230c0 1 0 1 0 0zM121 226zM114 242v-1zM114 242a2 2 0 000-1v1zM117 239zM118 237zM119 237zM117 239zM114 241zM117 240zM116 241v-1zM115 241zM117 239zM128 220zM129 220zM120 237zM123 231zM114 241zM120 235zM119 236zM120 234s1 0 0 0 1 0 0 0zM121 234zM127 222zM114 241zM119 233zM124 226zM119 233zM127 221v1h-1 0v1l-1 1s0 1 0 0v1h-1l1 1-1-1v1h-1a1 1 0 011 0h-1v1s-1 0 0 0h-1l1 1h-1 1-1a1 1 0 000 1s-1 0 0 0h-1v1c0-1 0 0 0 0l-1 1v1-1 1c-1 0-1 0 0 0h-1s0 1 0 0v1l-1 1a3 3 0 011 0h-1v1-1 1l1 1-1-1v1h-1s1 0 0 0h1v1h-1c1 0 1 0 0 0v1s-1 0 0 0a1 1 0 00-1 0v1c-1-1 0 0 0 0v0 1h-1c1 0 0 0 0 0h-1 1v1c-1 0-1 0 0 0a1 1 0 00-1 0s1 0 0 0c1 1 0 0 0 0h2l-1-1h1c1 0 0 0 0 0-1 0 0 0 0 0v-1a1 1 0 010 1l1-1h-1 1c1 0-1 0 0 0v-1h1v-1c1 0 0 0 0 0h1-1 1l-1-1h1v0c1 0 0 0 0 0h0v-1 0l1 1v-1h-1 1v-1 0h1s-1 0 0 0h-1l1-1s-1 0 0 0a1 1 0 010-1 2 2 0 011 0c-1-1 0 0 0 0a2 2 0 010-1 2 2 0 010 1v-1h1v-1 1h1c-1 0-1 0 0 0l-1-1h1v-1c1 0 0 0 0 0a1 1 0 001 0v-1a1 1 0 010-1h1-1 1v-1 0c1 0 0 0 0 0h1v-1c0 1 0 0 0 0h-1 1s-1 0 0 0v-1l1 1-1-1h1-1v-1l1 1v-1-1l1-1s1 0 0 0c0 0 0-1 0 0v-1 1-1h1-1a3 3 0 00-1-1v1h-1v0a2 2 0 011 1l-1-1v1zm-1 2zm0 1zm2 0zM127 224zM117 239zM124 226zM115 239zM115 240zM115 240zM118 235zM117 237zM119 233zM117 236v0zM114 241zM114 241zM114 241zM114 241zM114 241zM116 241zM116 241zM118 238zM117 237zM118 238zM121 234zM122 232zM126 228v-1 1zM120 242h1-1zM121 242a3 3 0 00-1 0h1zM123 240zM124 239zM125 239zM123 240zM121 241zM123 241zM123 241a2 2 0 00-1 0zM122 242zM123 240zM131 225zM132 225zM125 238zM128 234h-1 1zM121 241zM126 237zM125 238zM126 236zM126 236zM130 227s0-1 0 0zM121 241zM124 235zM128 230zM124 235z" class="cls-14"/><path d="M130 226v1h-1 1-1 1-1l1 1-1-1v2c-1 0 0 0 0 0h-1v1h-1 1-1v1h1-1 0v1h-1v1h-1 1l-1 1v1c-1 0-1 0 0 0h-1s1 0 0 0v1c0-1 0-1 0 0v-1 1a2 2 0 010 1v-1 1h-1 0v1-1 1s1 0 0 0v1h-1 0v1c-1 0 0 0 0 0v1a1 1 0 000-1v1c-1-1 0 0 0 0h-1 1-1v1h1-1 1s-1 0 0 0l-1-1 1 1v-1c0 1 0 0 0 0 0 1 0 0 0 0h1-1a2 2 0 011 0l-1-1 1 1-1-1a3 3 0 011 1v-1 0s0-1 0 0l1-1c0 1 0 1 0 0v0c1 0 0 0 0 0h1-1v-1s1 1 0 0a1 1 0 011 1c0-1 0 0 0 0v-1c-1 0 0 0 0 0s1 0 0 0a1 1 0 010-1v1-1 1a1 1 0 000-1v0s1 0 0 0c1 0 0 0 0 0h1s-1 0 0 0l-1-1h1s-1 0 0 0v-1c1 0 0 0 0 0h0c0-1 0 0 0 0h1a2 2 0 01-1-1 3 3 0 011 1l-1-1h2-1 1c-1-1 0 0 0 0v-1-1a1 1 0 001 0 1 1 0 010-1c0 1 0 0 0 0h1l-1-1h1v-1a2 2 0 011 0v-1h-1l1 1v-1-1h1v-1 1-1c-1 0 0 1 0 0h1a2 2 0 00-1 0v-1a4 4 0 00-1 0h-1 1-1 1-1v1zm-1 2zm0 0h1a1 1 0 00-1 0zm2 1zM131 229zM123 240zM128 229v1-1zM122 240zM121 240zM121 241zM123 237zM123 238zM124 235zM123 238zM120 242zM120 242zM121 242zM121 241zM121 241zM122 241v0zM122 241h0zM124 240zM123 238v1-1zM124 239zM126 236zM127 235zM130 231zM133 229zM133 228a2 2 0 000 1v-1 0c0-1 0 0 0 0zM130 226zM129 225zM129 224zM130 226zM132 229zM131 226zM132 227zM133 228zM131 226zM112 218zM112 217zM128 224zM123 221h-1 1zM132 229zM122 221zM127 223zM128 224s-1 0 0 0zM126 223zM125 223zM114 219zM132 228v1zM125 225zM118 221zM125 225z" class="cls-14"/><path d="M113 219h1v-1c0-1 0 0 0 0v1-1 1h1c0 1 0 0 0 0v0a1 1 0 000 1h2-1 2v1h1-1l1 1a1 1 0 010-1v1-1 1h1a1 1 0 001 0s0 1 0 0v1h1l1 1h1-1 2s0 1 0 0c0 1 0 1 0 0v1h2a1 1 0 010 1l1-1h-1 1v1s0-1 0 0v-1 1h1a2 2 0 00-1 0h2a1 1 0 00-1 1h2v1l1-1-1 1h1-1 2a1 1 0 01-1 0h1a1 1 0 01-1 0 1 1 0 001 0h-1 1-1a1 1 0 011 0c0-1 0 0 0 0v-1l-1 1 1-1h-1v1-1h-1v-1 1a1 1 0 010-1l-1 1a2 2 0 011-1h-1-1a1 1 0 011-1h-1 0c1 0 0 0 0 0 0-1 0 0 0 0v-1 1h-1 1c1 0 0 0 0 0v-1 0h-1v0s-1 0 0 0c0-1 0 0 0 0v-1l-1 1v-1c0 1 0 0 0 0a1 1 0 010 1v-1h-1c0 1 0 0 0 0s0 1 0 0h-1v-1h-1a1 1 0 010 1v-1 1a2 2 0 010-1h-1c0 1 0 0 0 0v-1h-1v-1 1s0-1 0 0v-1l-1 1a1 1 0 011-1h-1-1c0-1 0 0 0 0l-1-1s0 1 0 0h-1v-1 1l-1-1-1 1 1-1h-1v-1l-1 1h1-1v-1 1h-1s1 0 0 0v-1s0 1 0 0h-2v-1a1 1 0 000 1h-1a3 3 0 000 1h1s-1 0 0 0a1 1 0 01-1 0h1v1a2 2 0 011-1l-1 1h1zm2 0zm1 0zm0-1zM116 218zM130 226zM118 221zM131 227zM131 228zM131 228zM127 226zM128 226zM125 225zM128 226zM133 229zM133 229zM133 229zM132 228v1zM132 228v0zM132 227c1 0 0 0 0 0zM132 227zM130 225zM129 226zM129 225zM126 223zM124 222zM119 219zM133 233zM133 232a2 2 0 000 1 1 1 0 010-1zM130 230zM128 229zM127 229zM130 230zM132 233zM131 231v-1zM132 231a3 3 0 00-1 0h1zM133 232zM130 230zM108 223zM107 221zM127 228zM120 225zM132 233zM120 225zM125 227zM126 228zM124 227zM124 227zM110 223zM132 233zM123 229zM115 225zM123 229z" class="cls-14"/><path d="M109 223h1v-1c0-1 1 0 0 0v1-1 1h1s0 1 0 0c0 1 0 0 0 0 0 1 0 0 0 0v1l1-1a1 1 0 000 1h3v1h1v1a1 1 0 010-1v1-1 1h2l1 1v-1 1h1c-1 1 0 0 0 0l1 1h1-1 2v1s0-1 0 0h1c0 1 0 0 0 0a2 2 0 011 0l-1 1 1-1v1h1v-1 1h2v1h1c0-1 0 0 0 0h1v1a1 1 0 000-1h1a1 1 0 00-1 1 1 1 0 011 0v-1 1s0-1 0 0c0-1 0 0 0 0s0 1 0 0v1l1-1s0 1 0 0h1a1 1 0 01-1 0h1a1 1 0 00-1 1h1a4 4 0 01-1 0h1v-1 0h-1v-1 0c0-1 0 0 0 0-1 1 0 0 0 0h-1-1v-1h-1s0-1 0 0v-1 1l-1-1h-1 1s-1 0 0 0h-1v-1h-1s0 1 0 0h0v-1l-1 1h1-1c0-1 0 0 0 0a1 1 0 000-1l-1 1v-1 1l-1-1v-1h-1a1 1 0 010 1v-1 1a2 2 0 010-1h-1c0 1 0 0 0 0v-1h-1v-1c0 1 0 1 0 0v1l-1-1v0h-1-1v-1 1l-1-1s0 1 0 0h-1v-1l-1 1v-1h-1c1 0 0 0 0 0h-1v-1 1-1 1h-1v-1 0l-1 1v-1s0 1 0 0h-2s0-1 0 0c0 0-1 0 0 0h-1v-1a1 1 0 000 1 3 3 0 000 1s1 0 0 0h1v1a2 2 0 011-1l-1 1 1-1a2 2 0 010 1c0-1 0 0 0 0zm3 0zm0 0zm0-2zM112 222zM130 230zM115 225zM130 232zM131 232zM131 232zM125 230zM127 230zM123 229zM127 230zM133 233zM133 233zM133 233zM132 233zM132 233zM132 231zM132 231zM129 230zM128 231zM128 229zM124 227zM122 226zM116 223zM129 237l1-1-1 1zM130 236a2 2 0 00-1 1l1-1h-1 0a1 1 0 011 0zM126 234zM124 232zM124 232zM126 234v-1 1zM129 236zM128 234zM128 234a3 3 0 000 1 1 1 0 010-1zM129 235zM127 234v-1zM105 226zM105 225zM124 231zM117 228v0zM129 236zM117 229zM122 230v0zM123 231zM121 230zM121 230zM107 227zM129 236zM120 232zM112 229zM120 232zM107 227z" class="cls-14"/><path d="M106 227l1-1v0h1l-1 1 1-1v1h-1s0-1 0 0h1c0-1 0 0 0 0s0-1 0 0h1-1 1v1h1v-1 1s0-1 0 0h2c0 1 0 0 0 0v1c1 0 0 0 0 0a2 2 0 011 0s0 1 0 0h1v1l1-1v1a1 1 0 000-1v1h1l1 1h2-1l1 1h2-1 1v1a3 3 0 011-1l-1 1h1c0 1 0 0 0 0h1-1l1-1v1h1c-1 0 0 0 0 0v1l1-1a1 1 0 00-1 1l1-1v1h1v0l1 1h1-1 1c-1 0 0 0 0 0v1-1 1h1v1a1 1 0 000-1c1 0 0 0 0 0 0-1 0 0 0 0v-1 1-1h-1c1 0 0 0 0 0v-1h-1a1 1 0 011 0h-1 1-1v1a1 1 0 010-1v-1 0l-1 1v-1h-1 0c1 0 0-1 0 0v-1s0 1 0 0v0h-1v-1c0 1 0 0 0 0l-1 1v-1h0v0c0 1 0 0 0 0h-1c-1 1 0 0 0 0h1-1s0 1 0 0a1 1 0 000-1l-1 1v-1 0s0 1 0 0v1l-1-1s0 1 0 0h-1a2 2 0 010-1h-1v1s0-1 0 0v-1q0 1 0 0s-1 0 0 0l-1-1v1-1h-1-1v-1 1-1l-1 1a1 1 0 001-1h-1l-1-1a1 1 0 010 1v-1 1l-1-1h-1-1-1c0-1 0 0 0 0a1 1 0 000-1v1l1-1h-1s0 1 0 0l-1 1 1-1h-1-1l-1-1v1-1l-1 1v-1s0 1 0 0c-1 0 0 0 0 0a1 1 0 00-1 0v1a3 3 0 000 1h1v1a2 2 0 011-1l-1 1 1-1a1 1 0 010 1v-1 1zm3 0zm0 0zm0-2zM109 225zM126 234zM112 229zM127 235zM127 235zM128 236zM122 233zM124 233zM120 232zM124 233zM129 237zM129 237zM129 237zM129 236zM128 236s1 0 0 0zM129 235c0-1 0 0 0 0zM128 234zM126 233zM125 234zM125 232zM121 230zM119 229zM113 226zM126 238h1l-1 1zM126 238h0zM124 236zM122 235zM122 235zM124 236zM126 238zM125 236zM125 236a2 2 0 000 1zM126 237zM124 236zM105 231zM105 229zM121 234zM116 232l-1 1 1-1zM126 238zM115 233zM120 234zM121 234zM119 234zM118 234zM107 231zM126 238zM118 236zM111 233zM118 236a1 1 0 000-1v1zM107 231z" class="cls-14"/><path d="M106 232l1-1-1 1 1-1h1-1v1l1-1v1h3v1-1 1c0-1 0 0 0 0h1a1 1 0 01-1 0c1 0 0 0 0 0a2 2 0 011 0s0 1 0 0h1v1a1 1 0 001-1v1h1v1-1 0l1 1h2s0 1 0 0c0 1 0 1 0 0v1l1-1v1a2 2 0 011-1l-1 1h1c0 1 0 0 0 0l1-1-1 1h2v1l1-1v1h1c0 1 0-1 0 0h1v1h1v-1a1 1 0 010 1c1-1 0 0 0 0v-1 1a1 1 0 010-1s0 1 0 0v1-1s-1 0 0 0h-1c1 0 0 0 0 0s0-1 0 0v-1c0 1 0 0 0 0h-1 0v1a2 2 0 010-1h-1v-1h-1v1a1 1 0 010-1h-1a1 1 0 010-1c0 1 0 0 0 0a5 5 0 010 1v-1c0 1 0 0 0 0h-1v0a1 1 0 000 1c0-1 0 0 0 0v-1h-1a2 2 0 001 0h-1-1c0-1 0 0 0 0v-1h-1a1 1 0 010 1 1 1 0 000-1v1a2 2 0 010-1h-1c0 1 0 0 0 0v-1h-1v1-1h-1 1-1v-1l-1 1a1 1 0 000-1h-1-1v-1l-1 1 1-1h-1l-1 1v-1s0 1 0 0v0h-1 1-1-1s1 0 0 0c0-1 0 0 0 0l-1-1v1-1 1l-1-1a4 4 0 00-1 2v-1 1h1v-1 1h1v0s0 1 0 0a1 1 0 010 1zm3 0zm0 0v-1 1zm0-2zM109 230zM124 236zM111 233zM124 237zM125 238zM125 238zM120 236zM122 236h-1 1zM118 236zM121 236zM126 238zM126 238zM126 238zM126 238zM126 238zM126 237c0-1 0 0 0 0zM125 237v-1 1zM123 236v-1 1zM122 237zM123 235h-1 1zM119 233v0zM117 233zM112 231zM126 242zM126 241a2 2 0 000 1 1 1 0 010-1zM123 240zM122 239zM122 239s0-1 0 0zM123 240zM125 242zM124 240zM125 240zM126 241zM124 240zM107 236zM106 234zM121 238zM116 236v0zM125 242zM116 237zM120 238zM121 238zM119 238zM119 237v1zM108 236zM125 242zM118 240zM112 237zM118 240a1 1 0 000-1z" class="cls-14"/><path d="M107 236h1v-1 1a5 5 0 010-1v1l1-1-1 1h1c0-1 0 0 0 0s0-1 0 0c0 0 0-1 0 0h1a1 1 0 00-1 0h1c0 1 0 0 0 0h1v1l1-1v1c0-1 0 0 0 0h1s0 1 0 0c0 1 0 0 0 0h1v0l1 1 1 1v-1 0l1 1s0-1 0 0h1s0 1 0 0h1l-1 1 1-1v1a2 2 0 011-1l-1 1h1c0 1 0 0 0 0l1-1-1 1h2v1l1-1s0 1 0 0a1 1 0 000 1h1s0-1 0 0h1a1 1 0 010 1c0-1 0 0 0 0v-1 1l1-1a1 1 0 000 1v-1 1-1 0c0-1 0 0 0 0h-1 1-1c0-1 0 0 0 0v-1c0 1 0 0 0 0 0 1 0 0 0 0h-1v1a2 2 0 010-1h-1a1 1 0 010-1s0 1 0 0h-1c0-1 0 0 0 0h-1a1 1 0 010-1 5 5 0 010 1v-1c0 1 0 0 0 0l-1 1v-1c0 1 0 0 0 0a1 1 0 000 1v-1h-1s-1 0 0 0a1 1 0 01-1 0v-1 0a1 1 0 01-1 0v1a2 2 0 010-1c0 1 0 0 0 0h-1v-1 1-1h-1 1-1c0-1 0 0 0 0v-1 0l-1 1 1-1-1 1a1 1 0 000-1h-2v-1 1-1l-1 1v-1l-1 1v-1 1-1 0s0 1 0 0h-1v0h-1s1 0 0 0c0-1 0 1 0 0h-2v-1a1 1 0 000 1 4 4 0 00-1 2l1-1c0 1 0 0 0 0a1 1 0 000 1v-1 0s0 1 0 0a1 1 0 010 1v-1l1 1v-1 1a3 3 0 010-1v0a2 2 0 010 1h1s-1 0 0 0a1 1 0 01-1 0zm2 0zm1 0zm0-2zM110 234zM123 240zM112 237zM124 241zM124 241zM124 242v-1zM120 240zM121 240zM118 240zM121 240zM126 242zM126 242zM126 242zM125 242zM125 242zM125 241v-1 1zM125 240zM123 239zM122 241v-1 1zM122 239zM119 237v0zM117 237zM113 235z" class="cls-14"/><path d="M133 230c0 18-28 18-28 0s28-18 28 0z" class="cls-15"/><path d="M206 228c0 18-28 18-29 0 1-18 29-18 29 0z" class="cls-13"/><path d="M179 233h1-1zM180 233a2 2 0 00-1 0h1zM182 230zM182 229h0zM183 229zM182 230zM179 232h1zM182 231zM181 232a3 3 0 000-1 1 1 0 010 1zM181 232zM182 231zM189 216zM191 216zM184 228zM186 224zM180 232s-1 0 0 0zM184 227zM183 228zM184 227zM184 226zM189 217zM180 232zM182 225zM186 220zM182 225z" class="cls-14"/><path d="M189 216v1h-1l1 1h-1s1 0 0 0c0 0 1 0 0 0h-1l1 1h-1 0s1 0 0 0c0 0 1 0 0 0v1h-1 1-1 1-1c1 0 0 0 0 0v1-1 1h-1c1 0 0 0 0 0v1s0-1 0 0h-1l1 1h-1c1 0 0 0 0 0l-1 1s1 0 0 0v1h-1 1-1l1 1h-1v-1 1s1 0 0 0a2 2 0 010 1v-1 1s-1 0 0 0v1l-1-1a1 1 0 001 0h-1 1a1 1 0 01-1 0l1 1h-1 1-1s1 0 0 0h0l1 1-1-1v2a1 1 0 000-1v1h-1 1l-1 1v-1 1a2 2 0 001 0 1 1 0 00-1 0h1-1 1-1s1 0 0 0c1 0 0 0 0 0s-1 0 0 0v1a1 1 0 01-1 0 1 1 0 001 1c-1-1 0 0 0 0v-1c1 0 0 0 0 0h1-1 1s-1 0 0 0h-1 1c1 0 0 0 0 0v-1-1a2 2 0 010 1 1 1 0 011 0h-1 1v-1a2 2 0 010 1v-1c-1 0 0 0 0 0v-1c0 1 0 1 0 0v1l1-1h-1 1v-1a1 1 0 010 1v-1 0c1 0 0 0 0 0h0c0-1 0 0 0 0h1c-1 0 0 0 0 0a1 1 0 01-1-1v1-1h1s-1 0 0 0h-1a2 2 0 001 0l-1-1 1 1v-1h-1 2v-1a1 1 0 01-1 0 2 2 0 001 0h-1a3 3 0 011 0c-1-1 0 0 0 0a2 2 0 010-1 3 3 0 010 1v-1h1c-1 0 0 0 0 0h-1 2-1s1 0 0 0h1l-1-1a1 1 0 011 1v-1-1 0h1s-1-1 0 0v-1c0 1 0 0 0 0h1l-1-1 1 1v-1-1 0a3 3 0 011 1l-1-1h1v-1 0c1 1-1 0 0 0l1-1c-1 0 0 0 0 0s0-1 0 0v-1 1-1l1 1a1 1 0 00-1-1 4 4 0 00-1-1v1-1 1h-1 1-1a3 3 0 010 1v-1 1a2 2 0 010-1v0zm-1 2zm0 1v-1 1zm2 0c0 1 0 0 0 0zM190 219h-1 1zM182 230zM186 220zM180 231zM180 231zM180 231zM182 227zM181 228zM182 225zM181 228zM179 232zM179 232zM179 232zM180 232h-1zM180 232h-1 1c-1 0 0 0 0 0zM181 232zM181 232zM182 230zM181 229zM183 229v1-1zM184 226s0 1 0 0zM185 225zM188 222zM182 239zM182 239zM185 236zM186 234zM187 234zM185 236zM182 238zM185 237zM184 238zM183 239zM185 237zM196 217zM198 217zM188 234zM191 228v-1 1zM182 238zM188 232zM187 233zM188 231zM189 231zM195 218v0zM182 239v-1zM187 230zM192 223zM187 230zM195 219zM195 218h0s1 0 0 0v1h1-1s1 0 0 0c0 0-1 0 0 0v1 0l-1-1v2h-1s1 1 0 0v1s-1 0 0 0h-1l1 1-1-1v1h-1v1a1 1 0 011 0h-1 0v1h-1a1 1 0 011 1l-1-1v2h-1l-1 1v1-1 1c-1 0-1 0 0 0h-1v2h-1a3 3 0 010 1v-1 1a1 1 0 000 1v-1 1h-1v1h0s1 0 0 0v1c-1 0 0 0 0 0h-1v1 1h-1a1 1 0 001 0h-1 1c-1 0 0 0 0 0h-1 1-1v1a1 1 0 010-1v1h-1 0l1 1c-1 0-1 0 0 0a1 1 0 00-1 0s1 0 0 0c1 0 0 0 0 0h1v-1l1 1-1-1h1-1 1c1 0 0 0 0 0-1 0 0 0 0 0v-1h1s-1 0 0 0l-1-1a1 1 0 010 1h1v-1-1 0c1 1 1 0 0 0h1v-1h1v-1 0h0s1 0 0 0h1v-1 1l-1-1v0c0 1 0 0 0 0l1 1v-1-1 0h1a1 1 0 010-1s-1 0 0 0c0 1 0 0 0 0a1 1 0 010-1 2 2 0 011 0c0 1 0 0 0 0-1 0 0 0 0 0a2 2 0 010-1 3 3 0 010 1v-1h1v-1 1h1c-1 0-1 0 0 0h-1l1-1v-1 0c1 0 0 0 0 0a1 1 0 001 0v-1h1a1 1 0 01-1-1h1-1 1v-1 1l1-1h-1 1v-1c0 1 0 0 0 0v-1c0-1 0 0 0 0h1-1l1 1v-1l-1-1 1 1v-1l1-1v-1c1 0 0 0 0 0h1-1 1v-1a3 3 0 00-1-1h-1l1 1c0-1 0-1 0 0l-1-1 1 1h-1v1l-1-1 1 1a1 1 0 01-1 0h1-1zm-1 2zm0 0h0zm2 1zM196 221zM185 236zM192 222zM183 237zM183 237zM183 237zM186 232zM185 234zM187 230zM185 234zM182 239zM182 239zM182 239zM182 238zM182 238z" class="cls-14"/><path d="M184 238h-1l1 1v-1zM184 238zM186 236zM185 234v1-1zM186 235zM189 231zM190 229zM194 224zM187 240zM187 240zM190 238zM191 236zM192 236zM190 238c0-1 0 0 0 0zM187 239v1zM190 239zM189 239zM188 240zM190 238zM200 219zM202 219zM193 235zM196 230v-1 1zM187 239zM193 234zM192 235zM193 233zM194 232zM199 221h1-1zM187 240v-1zM192 232zM197 225zM192 231zM200 221zM199 220h1v1h-1 1-1c1 0 0 0 0 0s0 1 0 0v1-1 1a1 1 0 00-1 0v1l-1 1c1 0 0 0 0 0v1-1 1-1 1h-1 0c1 0 0 0 0 0v1s-1 0 0 0h-1l1 1h-1 1-1v1h-1c1 0 0 0 0 0v1l-1 1v1h-1v1h-1a2 2 0 010 1v1 1h-1 0v1h-1v1c1 0 0 0 0 0l-1 1a1 1 0 001 0h-1 1c-1 0 0 0 0 0v1l-1-1v1s-1 0 0 0h-1 0l1 1a1 1 0 01-1 0c1 0 0 0 0 0h1-1 1v-1 0c1 0 0 0 0 0h1c-1 0 0 0 0 0v-1a1 1 0 010 1v-1 1l1-1h-1 1v-1c1 0 1 0 0 0h1v-1c1 0 0 0 0 0v-1 1h1v-1h-1 1c1 0 0 0 0 0h0v-1s1 0 0 0h1-1 1v-1a1 1 0 000 1v-1-1h1v-1h0v-1s1 1 0 0l1 1a2 2 0 010-1 3 3 0 010 1v-1h1l-1-1h1s1 0 0 0h1-1 1v-1-1a1 1 0 001 1l-1-1 1-1h1v-1-1 0c1 0 1 0 0 0h1-1v-1l1 1-1-1h1s-1 0 0 0h1-1s0-1 0 0v-1l1 1-1-1h1c1 0 0 0 0 0h-1 1v-1l1-1c-1-1 0 0 0 0v-1h1a1 1 0 00-1 0 3 3 0 00-1-1v1c0-1 0-1 0 0a1 1 0 010-1v1h-1 1-1a2 2 0 010 1v-1 1s-1 0 0 0a1 1 0 01-1 0zm0 2zm0 0zm2 1h-1c-1 0 0 0 0 0zM200 223zM190 238zM197 224zM188 238zM188 238zM188 238v1zM191 233zM190 235zM192 232zM190 235zM187 240zM187 240zM187 240zM187 239zM187 239z" class="cls-14"/><path d="M189 239h-1l1 1v-1zM189 239zM190 237h0zM190 236h-1 1zM191 237v-1 1zM194 233v-1 1zM195 231zM199 226zM193 241h1-1zM194 241a2 2 0 00-1-1l1 1s-1 0 0 0zM196 239zM197 237zM198 237zM196 239zM193 240h1zM196 239zM195 240zM195 240zM196 239zM203 224zM205 224zM201 233l-1-1 1 1zM194 240s-1 0 0 0zM200 232zM199 236zM198 236zM199 235zM199 235zM203 225zM194 240zM197 234zM201 228zM197 234z" class="cls-14"/><path d="M203 225a4 4 0 010 1v-1 0h-1s1 0 0 0l1 1h-1 1-1s1 0 0 0v1a1 1 0 000-1v1c-1 0 0 0 0 0v1h-1-1l1 1a1 1 0 01-1 0c1 0 0-1 0 0a1 1 0 011 0h-1v2h-1l-1 1c1 0 0 0 0 0h0v1s-1 0 0 0h-1 0v1s0 1 0 0a2 2 0 010 1h-1 0v1h0s1 0 0 0v2l-1-1v1c1 0 0 0 0 0v1c-1 0 0 0 0 0s0 1 0 0h-1l1 1-1-1v2a1 1 0 01-1-1 1 1 0 001 1c-1-1 0 0 0 0v-1 1-1a1 1 0 010 1s0-1 0 0v-1l1 1v-1h-1 1v-1a1 1 0 011 1v-1h-1 1s-1 0 0 0h-1c1 0 0 0 0 0h1c1 0 0 0 0 0v-1c1 0 1 0 0 0h1s-1 0 0 0v-1a1 1 0 011 0 4 4 0 01-1 0h1v-1c-1 0 0 0 0 0s-1 0 0 0v-1c1 0 0 0 0 0h1s-1 0 0 0h-1 1a1 1 0 010-1s-1 0 0 0c0 1 0 0 0 0a1 1 0 010-1 1 1 0 000 1v-1a2 2 0 010 1h1l-1-1s1 0 0 0h1a3 3 0 01-1 0 3 3 0 011 0h-1 2l-1-1h1v0c-1 0 0 0 0 0v-1 0c1 0 0 0 0 0a1 1 0 001 0v-1c0 1 0 0 0 0l1-1h-1 1v-1-1 0h0a2 2 0 011 1v-1s-1 0 0 0h-1 1v-1 1c0 1 0 0 0 0v-1c1 1 0 0 0 0l1-1c-1 0 0 0 0 0s0-1 0 0v-1 1-1l1 1a1 1 0 00-1-1 4 4 0 00-1-1v1-1 1h-1a1 1 0 011 0h-1a3 3 0 010 1v-1 1a2 2 0 010-1v1s0-1 0 0zm-1 2zm0 0zm2 0zM204 227zM196 239zM201 228zM195 239zM194 239zM194 239zM196 235zM196 237zM197 234zM196 237zM193 240zM193 240zM193 240zM194 240zM194 240h-1 1c-1 0 0 0 0 0zM195 240zM195 240zM196 238h0zM196 237h-1 1zM197 238zM199 235zM200 233s0 1 0 0zM203 230zM206 227zM206 227zM203 225zM202 223zM201 223zM203 225v-1 1zM205 227zM204 225zM205 225zM206 226zM204 225v-1zM185 217zM185 216v-1 1zM201 222zM196 219l-1 1 1-1zM205 227zM195 220zM200 222zM200 223v-1 1zM199 222zM198 221zM187 218zM205 227zM198 224zM191 220zM197 223zM187 218z" class="cls-14"/><path d="M186 218v-1 1h1a1 1 0 01-1 0l1-1v1a4 4 0 010-1v1-1 1c1-1 0 0 0 0h1l1 1s0-1 0 0h1v1l1-1v1-1 1a1 1 0 010-1v1h1s0 1 0 0v1l1-1v1a1 1 0 011-1v1c0-1 0 1 0 0h1v1l1 1v-1 1h2v1a2 2 0 011-1v1s0-1 0 0h1v-1 1h1v1-1h1l-1 1 1-1a2 2 0 000 1v-1a1 1 0 010 1v-1 1h1c0-1 0 0 0 0v0l1 1v-1a1 1 0 000 1s0-1 0 0c0 0 1 0 0 0h1a1 1 0 01-1 1h1c0-1 0 0 0 0l1-1a1 1 0 01-1 1h1a4 4 0 01-1 0h1c0-1 0 0 0 0v-1 1a1 1 0 010-1s-1 0 0 0h-1v-1c0 1 0 0 0 0 0 1 0 0 0 0h-1v1a2 2 0 010-1v-1 0l-1 1v-1h-1c1 0 1 0 0 0l1-1h-1v0l-1 1 1-1c1 0 0 0 0 0h-1v-1 0s0 1 0 0l-1 1c0-1 0 0 0 0v-1 1c0-1 0 0 0 0v-1h-1a1 1 0 001 0h-1-1v-1 0h-1c0-1 0 0 0 0h-1l1-1a2 2 0 01-1 1 3 3 0 011-1h-1v0h-1v-1c0-1 0 0 0 0 0 1 0 0 0 0h-1-1a1 1 0 001-1h-1-1v-1l-1 1 1-1h-1v1-1h-1-1c-1 0 0 0 0 0l1-1h-1v1h-1l1-1h-1-1l-1-1v1-1 0s-1 0 0 0h-1s1 0 0 0a3 3 0 00-1 2l1-1v1h-1 1v-1 1h1v0a2 2 0 010 1v-1 1zm2 0zm0 0h1a1 1 0 00-1 0zm1-2zM189 216v1-1zM203 225zM191 220zM204 226zM204 226zM204 227v-1zM199 224zM201 224zM198 224zM201 224zM205 227zM205 227zM206 227h-1 1zM205 227zM205 227zM205 226c0-1 0 0 0 0zM205 225zM203 224zM202 225zM202 223zM199 221h-1 1zM197 221v-1 1zM192 218zM206 232zM206 231a2 2 0 000 1v-1 0c0-1 0 0 0 0zM203 229zM200 228zM200 227zM203 229zM205 232zM204 229zM205 230a2 2 0 00-1 0zM206 230zM203 229zM181 221zM180 220v-1 1zM193 224zM205 232zM193 224zM198 226zM199 227zM197 226zM197 226zM183 222zM205 231v1zM196 228zM188 224zM196 228z" class="cls-14"/><path d="M182 222v-1 1h1v-1 1a4 4 0 010-1v1-1 1h1c0-1-1 0 0 0 0 0 0-1 0 0h1v1-1 1h1s0-1 0 0h2v1h1s0 1 0 0l1 1v-1 1a1 1 0 001 0v-1 1h1s0 1 0 0l1 1 1 1s0-1 0 0h2s0 1 0 0v1h1s0-1 0 0a3 3 0 011 0h-1 1s0 1 0 0h1v1a1 1 0 000-1v1l1-1v1h1v1l1-1v1h1c0 1 0 0 0 0h1-1 1c-1 1 0 0 0 0v1l1-1-1 1h1s0 1 0 0h1a1 1 0 01-1 0h1a2 2 0 010 1v-1 1a1 1 0 000-1v-1h-1v1-1 0h-1v-1 1a1 1 0 010-1v1-1h-1v1c0-1 0 0 0 0v-1h-1v-1h-1 0c0-1 0 0 0 0h-1 1c1 0 0 0 0 0v-1l-1 1v-1 1c0-1 0 0 0 0v-1h-1 0v-1c0 1 0 0 0 0l-1 1h1-1 1-1v-1s0 1 0 0v1a1 1 0 000-1h-1-1c0-1 0 0 0 0v-1h-1a1 1 0 010 1v-1 1a2 2 0 010-1h-1 1a2 2 0 01-1 0 2 2 0 011 0h-1v-1h-1v-1 0h-1-1 1-1a1 1 0 000-1l-1 1v-1a1 1 0 01-1 0l-1-1v1-1l-1 1 1-1h-1-1 1-1-1 1v-1h-1v0h-1-1-1c0-1 0 0 0 0v-1l-1 1v-1 1-1 1-1a1 1 0 00-1 0v1a3 3 0 000 1h1a1 1 0 01-1 0h1v1l1-1h-1l1 1a2 2 0 010-1v0a1 1 0 010 1v-1 1zm3 0zm0 0zm0-2zM185 220zM203 229zM187 224zM203 230zM204 231zM204 231zM198 229zM200 229zM196 228zM200 229zM206 232zM206 232zM206 232zM205 231v1zM205 231v0zM205 230zM205 230v-1 1zM202 228zM201 229v1-1zM201 228zM197 225v0zM195 225zM189 222v-1 1zM202 235s1 0 0 0zM202 235zM199 232zM197 231zM197 230zM199 232zM202 235zM200 233v-1zM201 233zM202 234zM200 232zM178 225zM178 223zM197 230zM190 227zM202 235zM190 227zM195 229zM196 230zM194 229zM193 229zM180 225zM202 235zM193 231zM185 227zM193 231zM179 226v-1 1l1-1h1-1v1l1-1v1s0-1 0 0v-1 1h2c1 0 0 0 0 0 0 1 0 0 0 0l1 1v-1 1h1s0 1 0 0h1l-1 1h1a1 1 0 010-1v1h2-1a1 1 0 001 0l1 1v-1 1c0-1 0 0 0 0h1l1 1s0-1 0 0h1c0 1 0 0 0 0v1l1-1v1h1c-1 0 0-1 0 0a3 3 0 011 0h-1 1s0 1 0 0v0h1v1a1 1 0 000-1v1s0-1 0 0c0 0 0-1 0 0h1-1 1s0-1 0 0h1a3 3 0 00-1 0h1a1 1 0 01-1 0h1v1s0-1 0 0h1l1 1a1 1 0 000-1v0c0 1 0 0 0 0h1l-1 1h1c-1 0 0 0 0 0s0 1 0 0v1l1-1v1c1-1 0 0 0 0v-1 0h-1c1-1 0 0 0 0v-1c0 1 0 0 0 0h-1a1 1 0 011 0h-1v-1 0h-1c0 1 0 0 0 0h-1v-1h-1 1-1v-1 1c0-1 0 0 0 0s0-1 0 0v-1a4 4 0 01-1 0h0v-1l-1 1h1-1 0c0-1 0 0 0 0a1 1 0 000-1v1-1l-1 1v-1 1l-1-1v-1h-1a1 1 0 010 1v-1 1a2 2 0 010-1h-1c0 1 0 0 0 0v-1h-1v1-1-1 1-1l-1 1v-1h-1 1-2l-1-1a1 1 0 010 1v-1 1l-1-1v-1l-1 1s0-1 0 0v-1 1h-1v-1 1c0-1 0 0 0 0v-1 0h-1s1 0 0 0h0v0h-1-1l-1-1h-1a1 1 0 00-1 0 3 3 0 000 2v-1 0a1 1 0 000 1l1-1-1 1 1-1v1h1v1zm3 0zm0 0zm0-2zM182 224zM199 232zM185 227zM200 234zM200 234zM201 234zM195 232zM197 232zM193 231zM197 232zM202 235zM202 235zM202 235zM201 235zM201 235z" class="cls-14"/><path d="M201 233v1l1-1h-1zM201 233zM199 232v-1 1zM198 233h-1 1zM198 231zM194 229zM192 228zM186 225zM199 237zM199 236a2 2 0 000 1 1 1 0 010-1zM197 235zM195 234zM194 233s1 0 0 0zM197 235c-1 0-1 0 0 0zM199 237zM197 235h1zM198 235zM199 236zM197 235v-1zM178 230zM178 228zM188 231zM199 237zM188 231zM193 232zM193 233zM192 232zM191 232zM180 230zM199 237zM191 234zM184 231zM191 234zM180 230z" class="cls-14"/><path d="M179 230h1v-1 1s0-1 0 0h1c0 1 0 0 0 0l1 1s0-1 0 0h2v1-1a1 1 0 010 1c0-1 0 0 0 0h1-1 1a1 1 0 010-1v1h1a1 1 0 001 0v1-1 1h1l1 1 1-1-1 1h3v1l1-1-1 1h1v-1 1h1c0 1 0 0 0 0s0-1 0 0l1-1v1s0-1 0 0h1s0 1 0 0v0l1 1v-1a1 1 0 000 1s0-1 0 0h1c-1 0 0 0 0 0a1 1 0 010 1v-1 1l1-1a1 1 0 000 1s0-1 0 0v-1a1 1 0 010 1v-1c0-1 0 0 0 0h-1l1-1v1h-1v-1 1c0-1 0 0 0 0v-1c0 1 0 0 0 0 0 1 0 0 0 0h-1a1 1 0 011 0h-1v1a2 2 0 010-1v-1 0l-1 1s0-1 0 0v-1 1a1 1 0 010-1h-1 0v-1 1a1 1 0 01-1 0h1v-1 1l-1-1a1 1 0 010 1c0-1 0 0 0 0v-1c0-1 0 0 0 0h-1v-1a1 1 0 010 1c0-1 0 0 0 0h-1a2 2 0 001-1l-1 1v-1 0s0 1 0 0v1l-1-1s0 1 0 0h-1c0-1 0 0 0 0v-1 1h-1 1a2 2 0 01-1 0 2 2 0 011-1h-1v0h-1v-1 0h-1-1l-1-1a1 1 0 010 1v-1 1l-1-1h-1-1a2 2 0 010-1s0 1 0 0l-1 1h0v-1 0h-1-2v-1a1 1 0 000 1 4 4 0 00-1 1h1v1h0a2 2 0 011-1v1c0-1 0 0 0 0zm2 0zm1 0h-1 1zm0-2zM182 229zM197 235zM184 232v-1 1zM197 236zM197 236zM198 236zM193 235zM194 235zM191 234zM194 235zM199 237zM199 237zM199 237zM199 237zM198 237s1 0 0 0z" class="cls-14"/><path d="M198 235v1l1-1h-1zM198 235zM196 234zM195 235zM195 233zM192 232h-1 1zM190 232s0-1 0 0zM185 229zM199 241v-1 1zM199 240a3 3 0 000 1v-1s0 1 0 0zM196 238zM195 238zM194 237zM196 238zM198 241zM197 239v-1zM198 239zM199 240zM197 238zM179 234zM179 233zM194 237zM189 235zM198 241zM189 235zM193 236zM193 237zM192 236zM192 236zM181 234zM198 241zM191 238zM185 235s0 1 0 0zM191 238z" class="cls-14"/><path d="M180 235l1-1v0l1 1v-1 0a1 1 0 000 1h2v1l1-1v1c0-1 0 0 0 0h1v-1 1h1l1 1v-1 1c0-1 0 0 0 0h1v1l1-1v1c0-1 0 0 0 0h2c-1 1 0 0 0 0v1l1-1-1 1h1v-1 1a1 1 0 000-1v1s0-1 0 0h0l1-1v1h2c0 1 0 0 0 0v0l1 1v-1a1 1 0 000 1v-1 1s0-1 0 0h1-1 1s0 1 0 0h1a1 1 0 01-1 0h1a1 1 0 00-1 0h1l-1 1 1-1a1 1 0 010 1 1 1 0 000-1v-1h-1v1-1 0c0-1 0 0 0 0h-1a1 1 0 010-1v0h-1v0h-1 0c1 0 0 0 0 0v-1 1a1 1 0 01-1 0l1-1v0h-1v0c0-1 0 0 0 0h-1v-1c0 1 0 0 0 0a1 1 0 010 1c0-1 0 0 0 0h-1a1 1 0 001-1l-1 1v-1 0s0 1 0 0v1-1a1 1 0 000 1l-1-1s0 1 0 0a1 1 0 01-1 0c0-1 0 0 0 0v-1 1-1a2 2 0 01-1 1 3 3 0 011-1l-1 1v-1h-1 1v-1 1l-1-1s0 1 0 0h-1s1 0 0 0h-1v-1a1 1 0 010 1v-1l-1 1v-1l-1 1v-1s0-1 0 0h-1 1-1a2 2 0 010-1v1h-1c-1 0 0 0 0 0v-1 1h-1c0-1 0 0 0 0l-1-1v1-1 1l-1-1v1-1 0a1 1 0 000 1h-1a4 4 0 000 1h1-1 1v1l1-1v1a2 2 0 010-1 5 5 0 010 1v-1a1 1 0 010 1v-1 1zm2-1zm0 0a1 1 0 001 0zm1-2zM183 233zM196 239zM184 236v-1 1zM197 240zM197 240zM197 240zM193 239zM194 239zM191 238zM194 239zM199 241zM199 241zM199 241zM198 241zM198 241s0-1 0 0zM198 239zM198 239zM196 238zM195 239zM195 237zM192 236zM190 236v-1 1zM186 233z" class="cls-14"/><path d="M206 228c0 18-28 18-28 0s28-18 28 0z" class="cls-15"/><path d="M169 230c0 1 0 0 0 0v0zM170 234h1v1l-1-1z" class="cls-16"/><path d="M172 231a9 9 0 010-1z" class="cls-17"/><path d="M208 240a3 3 0 001 0l-1 1-2 1a4 4 0 00-2 0v1a16 16 0 01-4 0l-1 1a16 16 0 01-2 0h1-2a21 21 0 01-2 1l-6 1a6 6 0 01-1 0h-3l-1-1a5 5 0 00-2 0l-1-1a9 9 0 00-1 0 18 18 0 01-2-1h2a21 21 0 01-6-8l-1-1c0 1 0 0 0 0l-1-3c0-1 0 0 0 0v-2a13 13 0 010-4 28 28 0 011-4v-2l1-1v-2 1a10 10 0 00-1 3 1 1 0 00-1 0 9 9 0 000 2c0 1 0 2-1 1h1a17 17 0 000-3 9 9 0 010-1 7 7 0 010-1l1-1a10 10 0 011-1l1-1 1-1a7 7 0 011-1h1l1-1h-1a14 14 0 00-2 1h1c1 0 0 0 0 0l1-1v-1h1c2 0 3-1 0 0l-1 1h-1v-1l-2 1h1l-1 1-1 1s0-1 0 0l-1 1v1a16 16 0 001-2l1-1h1a8 8 0 011-1s-1 1 0 0l-3 3a22 22 0 00-2 2s-1 2 0 0a8 8 0 00-1 2l-1 2v1a13 13 0 000 3v1l-1 1v2l1 1a15 15 0 000-2s0-1 0 0l1 4v1l1 3c1 2 0 0 0 0l1 2a27 27 0 011 3 7 7 0 002 2 7 7 0 001 1l1 1a5 5 0 011 0l1 1a13 13 0 004 2 16 16 0 002 1 2 2 0 012-1h1a9 9 0 001 0 23 23 0 012-1l8-1 1-1a70 70 0 008-2h1c0-1 2-4-1-3zM177 213l-1 1 1-1z" class="cls-17"/><path d="M215 219l-2-1a35 35 0 012 4v-3z" class="cls-16"/><path d="M170 235v2-1-1z" class="cls-17"/><path d="M210 214v0zM207 211l-1 1a6 6 0 012 1 8 8 0 00-1-2zM211 219a6 6 0 00-1-3 6 6 0 01-1-1 7 7 0 000-1h-1v-1 1h1v1a5 5 0 011 2l1 2z" class="cls-16"/><path d="M206 212l1 1v-1h-1zM210 219l1 1-1-2v1zM208 217l1 1s0 1 0 0l-1-1z" class="cls-16"/><path d="M214 237c2-3 2-6 2-10l-1-2-1-3a24 24 0 00-2-6v-1l-1-1-1-1-1-2-2-2-1-1a15 15 0 00-2-1 13 13 0 00-2 0 5 5 0 00-2-1 9 9 0 01-3-1l-6 1v-1a5 5 0 00-1 1 13 13 0 00-3 0v1l-4 2-1 1 3-1 1-1a6 6 0 00-1 1h-1l5-1a9 9 0 013 0 66 66 0 016 0h2a6 6 0 011 1 15 15 0 012 1 4 4 0 001 0l1 1a7 7 0 010 1 5 5 0 011 1 10 10 0 002 1 2 2 0 010 1v1l2 3 1 4 2 7a29 29 0 010 4v2a9 9 0 010 1h1z" class="cls-17"/><path d="M96 234c0 2 0 0 0 0l1 3c-1-2-1 1-1-3zM97 238h1v1l-1-1z" class="cls-16"/><path d="M99 235v1a7 7 0 010-2z" class="cls-17"/><path d="M135 244a3 3 0 001 0l-1 1-2 1a4 4 0 00-2 0v1a17 17 0 01-4 0v1a18 18 0 01-3 0h1-2a21 21 0 01-2 1l-6 1a6 6 0 01-1 0h-3l-1-1a5 5 0 00-1 0l-2-1a8 8 0 00-1 0 18 18 0 01-2-1h2a21 21 0 01-6-8h-1v-1l-1-3v-2a12 12 0 010-4 28 28 0 011-4v-2l1-1v-2 1a10 10 0 00-1 3 2 2 0 00-1 1 8 8 0 000 1v2-1a18 18 0 000-2 9 9 0 010-2 6 6 0 010-1l1-1a7 7 0 011 0 9 9 0 011-1v-1l1-1a6 6 0 011-1 7 7 0 011 0s-1 0 0 0l1-1h-1a14 14 0 00-2 1h1c1 0 0 0 0 0l1-1s-1 0 0 0h1c2-1 3-2 0-1l-1 1h-1l1-1-3 2 1-1-1 1-1 1s0-1 0 0l-1 1v1a15 15 0 001-2l1-1h1a5 5 0 011-1v1l-3 2a23 23 0 00-2 2s-1 2 0 0a8 8 0 00-1 2l-1 2v1a13 13 0 000 4c0-1 0 0 0 0v5a15 15 0 000-3s0-1 0 0l1 4v1l2 3c1 2-1 0-1 0l1 2a27 27 0 012 3 7 7 0 002 2h-1a7 7 0 001 1l1 1a5 5 0 011 0l1 1a13 13 0 004 2 16 16 0 002 1 2 2 0 012 0h1a9 9 0 001-1 24 24 0 012 0l8-2 1-1a69 69 0 008-2h1c0-1 2-3-1-3zM104 217l-1 1 1-1z" class="cls-17"/><path d="M142 223l-2-1a34 34 0 012 4v-3z" class="cls-16"/><path d="M97 239l1 2v-1l-1-1z" class="cls-17"/><path d="M137 218v1l1 1-1-2zM134 215v1a5 5 0 011 1 7 7 0 00-1-2zM138 223a6 6 0 00-1-3 7 7 0 01-1-1 7 7 0 000-1l-1-1v1h1v1a5 5 0 011 2l1 2zM133 216l1 1v-1h-1zM137 223l1 1-1-2v1zM136 221v1s0 1 0 0v-1z" class="cls-16"/><path d="M142 241l1-10-1-2v-3a24 24 0 00-3-6l-1-2-1-1-1-2-2-1-1-2a16 16 0 00-2-1 11 11 0 00-2 0 4 4 0 00-2-1 9 9 0 01-3 0h-6s1 0 0 0a4 4 0 00-1 0 13 13 0 00-2 0h-1c2 0 1 1 0 1l-4 2-1 1 4-1c-1 0 1-1 0 0h-2l5-1a9 9 0 013 0 66 66 0 016 0h2a6 6 0 010 1 6 6 0 011 0 13 13 0 012 1 4 4 0 001 0l1 1a7 7 0 011 1 5 5 0 010 1 10 10 0 002 1 2 2 0 010 1v1l2 3 1 4 2 7a31 31 0 010 4v2a10 10 0 010 1h2z" class="cls-17"/></g></g></g></svg>